<?xml version="1.0" encoding="UTF-8"?> <svg xmlns="http://www.w3.org/2000/svg" width="287" height="354" viewBox="0 0 287 354" fill="none"><path d="M186.31 88.6086C184.855 88.9246 183.481 89.5347 182.271 90.4013C181.061 91.268 180.041 92.373 179.273 93.6483C179.128 93.8956 179.073 94.1851 179.116 94.4683C179.16 94.7516 179.299 95.0113 179.511 95.2038C179.723 95.3964 179.995 95.5102 180.281 95.526C180.568 95.5418 180.85 95.4587 181.083 95.2907C182.927 93.8527 185.064 92.834 187.342 92.3058C190.02 91.5002 188.817 88.2539 186.31 88.6086Z" fill="#101012"></path><path d="M140.627 323.074C109.103 318.032 78.4919 300.6 67.3258 288.983C66.2071 287.817 64.0638 289.834 65.2733 291.09C83.0658 309.526 115.604 322.674 140.228 326.543C142.44 326.889 142.854 323.43 140.627 323.074Z" fill="#101012"></path><path d="M185.068 119.799C183.827 119.54 183.32 120.897 184.6 121.64C189.443 124.449 192.51 124.329 193.685 118.612C196.795 103.515 192.454 103.499 192.577 105.333C192.878 109.918 192.438 114.522 191.272 118.968C190.421 122.234 187.85 120.384 185.068 119.799Z" fill="#101012"></path><path d="M177.269 134.274C178.537 133.889 180.301 132.497 182.543 132.685C184.785 132.872 183.941 130.903 182.396 130.286C175.832 127.661 174.025 135.26 177.269 134.274Z" fill="#101012"></path><path d="M184.007 105.101C185.771 105.575 187.318 101.065 185.047 100.132C183.231 99.2427 182.486 104.683 184.007 105.101Z" fill="#101012"></path><path d="M197.769 108.579C199.818 108.669 199.675 104.288 198.424 103.937C196.804 103.487 195.757 108.491 197.769 108.579Z" fill="#101012"></path><path d="M76.6661 151.079C79.1063 149.692 78.537 147.275 75.6664 147.953C70.0793 149.305 64.4063 150.273 58.687 150.851C58.3806 150.911 58.1016 151.068 57.8915 151.298C57.6813 151.529 57.5513 151.822 57.5207 152.132C57.4901 152.443 57.5606 152.755 57.7217 153.023C57.8828 153.29 58.1258 153.498 58.4148 153.617C60.2096 154.191 72.3937 153.505 76.6661 151.079Z" fill="#101012"></path><path d="M155.019 291.727C135.336 293.314 95.9425 273.543 81.7021 260.778C80.5585 259.752 78.7998 261.631 79.8325 262.744C93.2443 277.185 134.197 296.75 154.092 295.16C159.184 294.763 156.309 291.624 155.019 291.727Z" fill="#101012"></path><path d="M88.0249 231.217C101.206 220.101 112.241 206.667 120.587 191.58C121.161 190.488 119.543 189.245 118.741 190.3C115.537 194.576 112.858 199.239 109.701 203.545C103.257 212.336 74.778 245.174 61.8835 238.782C35.1106 225.503 55.089 158.757 60.1815 137.39C66.3718 138.298 75.8023 138.019 81.4082 135.449C82.3722 158.36 79.8679 174.92 79.1017 195.643C79.0556 196.901 81.0903 197.251 81.3264 195.963C82.2087 191.1 82.8319 186.194 83.1935 181.265C91.2641 168.143 103.965 146.622 116.445 138.73C130.994 129.528 138.145 139.953 140.666 150.73C140.929 151.84 142.931 151.661 142.76 150.314C140.642 133.73 128.106 127.8 114.549 136.386C103.701 143.255 89.1799 163.726 83.6233 174.715C83.8461 170.186 84.7251 145.118 83.8769 135.754C83.5999 132.711 83.2514 129.908 79.6327 132.34C77.9792 133.451 73.5999 135.12 66.0561 134.745C58.5123 134.371 58.0689 133.262 56.5202 139.091C49.7029 164.778 33.2643 223.024 58.295 240.653C66.2327 246.243 76.5631 239.958 83.6013 234.773C75.745 258.771 66.2821 275.537 54.084 296.681C53.3456 297.961 55.1055 299.37 55.9916 298.079C67.1754 281.774 83.2253 251.151 88.0249 231.217Z" fill="#101012"></path><path d="M52.9244 196.623C58.0154 195.812 74.4876 184.513 74.526 179.062C74.5289 178.753 74.4336 178.452 74.2539 178.202C74.0742 177.951 73.8194 177.764 73.5264 177.668C73.2334 177.572 72.9175 177.572 72.6243 177.667C72.3311 177.762 72.0758 177.949 71.8955 178.199C64.97 187.504 61.4882 188.865 51.1697 194.104C50.0878 194.756 49.8616 197.105 52.9244 196.623Z" fill="#101012"></path><path d="M149.229 159.701C153.437 162.679 173.116 166.107 176.953 162.235C177.17 162.016 177.313 161.734 177.359 161.429C177.406 161.125 177.354 160.813 177.212 160.539C177.069 160.266 176.843 160.045 176.567 159.908C176.291 159.772 175.978 159.726 175.674 159.779C164.218 161.596 160.776 160.136 149.734 156.673C148.504 156.384 146.701 157.906 149.229 159.701Z" fill="#101012"></path><path d="M238.473 185.244C234.815 183.846 231.451 181.775 228.556 179.138C227.249 177.961 225.466 179.229 226.608 181.556C228.199 184.791 233.887 187.301 237.301 188.664C240.715 190.026 242.507 186.761 238.473 185.244Z" fill="#101012"></path><path d="M202.944 221.304C200.649 222.52 197.427 222.944 198.007 224.958C199.019 228.474 211.01 221.919 208.747 219.301C207.246 217.56 205.198 220.109 202.944 221.304Z" fill="#101012"></path><path d="M227.819 216.831C225.33 214.789 223.306 213.724 220.732 211.365C219.924 210.619 217.69 211.284 219.134 213.766C220.893 216.26 223.327 218.202 226.15 219.363C229.147 220.602 229.905 218.539 227.819 216.831Z" fill="#101012"></path><path d="M209.048 246.923C216.897 226.283 210.947 223.315 210.65 226.433C209.345 239.678 204.452 252.316 196.496 262.986C194.864 265.35 199.475 268.382 209.048 246.923Z" fill="#101012"></path><path d="M198.299 153.901C196.003 152.365 193.293 151.566 190.53 151.61C187.768 151.655 185.085 152.54 182.839 154.15C181.677 155.089 183.096 157.01 184.382 156.258C186.359 155.113 188.631 154.579 190.911 154.722C193.192 154.866 195.379 155.68 197.197 157.064C212.623 168.816 215.493 202.471 212.464 216.207C211.485 220.643 214.242 219.291 215.238 215.549C219.591 199.097 213.18 162.852 198.299 153.901Z" fill="#101012"></path><path d="M70.1444 227.4C76.3014 218.542 79.9378 208.179 80.6657 197.416C80.8554 195.193 77.4358 194.544 77.2228 196.775C76.1471 208.103 72.9496 215.934 67.5986 225.801C67.4933 225.968 67.422 226.154 67.3886 226.349C67.3553 226.543 67.3606 226.742 67.4042 226.935C67.4479 227.128 67.529 227.31 67.6431 227.471C67.7571 227.632 67.9018 227.769 68.0688 227.875C68.2358 227.98 68.422 228.051 68.6166 228.085C68.8112 228.118 69.0105 228.113 69.2031 228.069C69.3956 228.025 69.5777 227.944 69.7389 227.83C69.9001 227.716 70.0373 227.571 70.1426 227.404L70.1444 227.4Z" fill="#101012"></path><path d="M110.106 187.946C111.07 187.751 112.028 186.547 111.257 185.937C103.603 179.883 95.0988 170.594 93.1814 166.155C92.5379 164.674 90.2999 166.098 90.8279 167.507C94.1241 176.319 106.339 188.699 110.106 187.946Z" fill="#101012"></path><path d="M186.984 188.671C184.59 188.769 184.911 191.79 187.391 192.056C196.31 193.015 195.556 189.693 193.953 189.215C191.66 188.754 189.32 188.571 186.984 188.671Z" fill="#101012"></path><path d="M206.019 185.808C205.019 186.414 202.355 187.029 203.672 188.765C204.829 190.29 209.78 188.149 209.323 186.214C208.756 183.81 206.82 185.321 206.019 185.808Z" fill="#101012"></path><path d="M249.539 167.725C243.056 165.943 237.282 162.202 233.008 157.012C231.552 155.252 229.917 158.043 228.803 160.543C225.153 168.737 221.026 175.923 216.721 183.775C216.506 184.298 216.258 195.104 232.381 160.628C236.508 165.954 242.355 169.684 248.925 171.181C243.908 186.439 227.192 238.053 210.662 259.368C198.549 274.983 184.139 264.656 183.868 256.038C184.237 252.16 205.506 208.742 200.286 187.846C200.208 187.557 200.024 187.308 199.771 187.148C199.518 186.987 199.214 186.928 198.919 186.98C198.625 187.033 198.36 187.194 198.179 187.432C197.997 187.67 197.911 187.968 197.937 188.266C199.477 208.241 187.419 237.894 180.203 256.51C169.483 283.845 157.395 310.622 143.984 336.742C143.281 338.124 145.617 339.339 146.447 337.97C155.817 322.477 174.187 280.167 181.787 261.315C189.241 273.118 202.922 274.098 213.097 261.408C228.67 241.983 242.637 200.479 251.014 175.067C252.623 170.196 252.994 168.671 249.539 167.725Z" fill="#101012"></path><path d="M186.281 225.392C159.434 221.29 143.711 216.028 119.798 203.022C118.46 202.295 117.211 204.444 118.455 205.33C135.889 217.752 164.438 227.395 185.795 228.805C186.238 228.85 186.681 228.721 187.031 228.446C187.382 228.172 187.612 227.772 187.675 227.332C187.738 226.891 187.628 226.443 187.368 226.082C187.108 225.72 186.719 225.473 186.281 225.392Z" fill="#101012"></path><path d="M174.143 186.634C149.051 176.242 135.04 167.378 114.923 149.04C113.797 148.013 112.072 149.802 113.067 150.96C127.032 167.184 152.453 183.365 172.856 189.833C173.276 189.982 173.737 189.963 174.142 189.78C174.548 189.597 174.867 189.264 175.034 188.851C175.2 188.438 175.2 187.977 175.034 187.564C174.868 187.15 174.549 186.817 174.143 186.634Z" fill="#101012"></path><path d="M171.398 258.281C154.536 262.144 105.279 240.501 92.573 231.292C91.3108 230.377 89.7119 232.691 91.012 233.598C107.77 245.311 149.344 263.549 170.212 261.913C176.518 261.419 172.945 257.845 171.398 258.281Z" fill="#101012"></path><path d="M49.9601 117.249C46.438 114.479 43.727 110.811 42.1118 106.632C46.4908 105.793 50.9208 105.246 55.3724 104.996C56.4843 105.002 56.4803 103.347 55.4786 103.116C50.1082 101.876 45.5754 103.76 39.6388 104.161C30.9104 104.749 25.4116 101.926 18.1897 97.7573C16.9104 97.0188 15.9055 98.9223 16.8145 99.8367C22.3961 105.45 31.7259 107.616 39.5653 106.918C39.737 107.716 40.0276 108.484 40.4276 109.195C27.4781 110.08 23.9255 107.128 14.6375 103.996C13.6519 103.591 12.6528 105.236 13.5838 105.816C22.0189 111.144 32.0502 113.358 41.9441 112.075L43.5724 114.542C35.1074 115.599 26.5143 114.828 18.3725 112.281C18.074 112.212 17.7604 112.259 17.4947 112.412C17.2291 112.564 17.031 112.812 16.9402 113.104C16.8495 113.397 16.8727 113.713 17.0054 113.99C17.1381 114.266 17.3703 114.482 17.6554 114.594C26.6497 118.242 36.5172 119.169 46.0337 117.261C49.5887 120.907 51.2345 118.456 49.9601 117.249Z" fill="#101012"></path><path d="M66.4359 119.954C62.2515 119.259 52.4291 121.388 46.4042 121.705C37.0268 122.197 34.4095 121.034 25.9351 120.182C25.6824 120.16 25.4301 120.228 25.2222 120.373C25.0143 120.518 24.8641 120.732 24.7978 120.977C24.7315 121.222 24.7534 121.482 24.8595 121.712C24.9657 121.943 25.1495 122.128 25.3787 122.237C34.5745 125.765 46.095 125.109 55.7296 123.558C59.2905 122.986 62.8911 122.584 66.4462 121.989C66.6877 121.949 66.907 121.824 67.0648 121.636C67.2227 121.449 67.3087 121.212 67.3074 120.967C67.3062 120.722 67.2178 120.486 67.0581 120.3C66.8984 120.114 66.6778 119.992 66.4359 119.954Z" fill="#101012"></path><path d="M73.108 104.494C78.7495 108.852 78.1573 116.913 78.0414 121.413C78.0047 122.855 79.939 122.676 80.2042 121.402C82.0495 112.645 80.0225 106.528 74.6727 102.477C66.8427 96.5454 54.1972 96.7088 52.6916 86.2514C52.5159 85.0273 50.4204 84.8675 50.4658 86.1833C50.9872 99.6395 67.2563 99.9758 73.108 104.494Z" fill="#101012"></path><path d="M248.652 145.276C251.15 143.771 253.849 142.627 256.667 141.878C260.378 143.565 265.781 149.561 266.671 149.874C267.562 150.188 268.696 149.322 267.588 147.642C272.388 145.803 282.606 138.835 284.651 134.869C285.109 133.978 283.908 132.874 283.22 133.58C277.307 139.633 273.636 141.412 265.823 145.637C265.255 145.048 264.656 144.49 264.028 143.965C268.565 141.675 279.027 133.368 280.529 129.274C280.59 129.057 280.58 128.825 280.499 128.614C280.418 128.403 280.271 128.224 280.08 128.103C279.89 127.982 279.665 127.926 279.439 127.943C279.214 127.96 279 128.05 278.83 128.198C273.169 135.456 268.874 137.29 261.685 142.049C260.986 141.505 260.256 141.002 259.5 140.54C264.417 138.155 271.853 133.027 274.426 128.33C274.925 127.42 273.736 126.236 272.864 126.879C268.23 130.301 267.688 132.4 260.951 136.371C255.99 139.301 250.238 140.679 247.357 143.194C246.435 144.012 247.593 145.917 248.652 145.276Z" fill="#101012"></path><path d="M284.804 141.771C274.679 150.415 272.18 149.243 266.6 152.202C260.833 155.307 255.752 159.544 251.663 164.661C250.798 165.728 252.476 166.808 253.397 166.125C258.758 162.172 263.137 157.217 269.224 154.214C276.623 150.565 279.334 150.617 286.101 143.166C286.24 142.985 286.311 142.76 286.3 142.532C286.289 142.304 286.198 142.087 286.042 141.92C285.887 141.753 285.677 141.646 285.45 141.619C285.224 141.592 284.994 141.646 284.804 141.771Z" fill="#101012"></path><path d="M236.462 154.276C239.395 145.309 242.35 146.563 246.541 137.539C247.493 135.552 248.097 133.415 248.325 131.223C248.32 130.989 248.24 130.762 248.097 130.576C247.954 130.391 247.755 130.256 247.53 130.191C247.304 130.126 247.064 130.136 246.844 130.217C246.625 130.299 246.437 130.449 246.309 130.645C244.009 134.303 244.976 136.358 239.807 142.576C237.253 145.646 233.352 149.527 233.938 153.922C233.955 154.222 234.076 154.507 234.279 154.728C234.483 154.949 234.757 155.093 235.055 155.134C235.353 155.176 235.656 155.113 235.912 154.957C236.169 154.8 236.363 154.559 236.462 154.276Z" fill="#101012"></path><path d="M121.933 7.26106C114.662 9.84292 106.831 19.2842 111.838 26.888C112.864 28.4491 116.414 27.5011 115.696 25.8112C112.97 19.39 117.58 13.784 123.934 11.7166C126.983 10.7271 130.26 10.6846 133.333 11.5949C136.407 12.5052 139.132 14.3254 141.151 16.8157C143.169 19.306 144.385 22.3494 144.639 25.5448C144.893 28.7402 144.173 31.9376 142.574 34.7155C137.446 43.6421 124.383 42.2669 119.873 52.0204C118.353 55.8944 118.007 60.1296 118.876 64.1992C119.344 66.4299 123.358 66.0106 122.923 63.7586C122.503 61.7087 122.496 59.5957 122.901 57.543C123.307 55.4902 124.118 53.5389 125.286 51.8029C130.615 45 144.367 46.0273 148.72 31.7941C153.681 15.5745 137.265 1.82081 121.933 7.26106Z" fill="#BFB7DE"></path><path d="M118.943 71.9882C118.675 72.4243 118.511 72.9162 118.464 73.4258C118.416 73.9354 118.486 74.4491 118.669 74.9273C118.851 75.4054 119.141 75.8353 119.516 76.1836C119.891 76.5319 120.341 76.7893 120.832 76.9361C121.24 77.0689 121.672 77.1174 122.1 77.0786C122.528 77.0398 122.944 76.9144 123.322 76.7102C123.7 76.506 124.033 76.2271 124.3 75.8904C124.568 75.5538 124.764 75.1664 124.877 74.7517C125.068 73.9996 124.991 73.2042 124.658 72.503C124.326 71.8018 123.759 71.2388 123.055 70.9111C122.352 70.5835 121.556 70.5118 120.805 70.7084C120.054 70.9051 119.396 71.3577 118.943 71.9882Z" fill="#BFB7DE"></path><path d="M201.79 87.8063C197.787 86.0307 193.47 85.0743 189.092 84.9935C188.437 84.8644 181.14 83.7046 181.339 83.2204C179.079 88.7224 173.513 90.1342 169.381 93.4323C165.021 96.8999 161.972 100.593 161.516 106.035C161.414 107.27 159.923 107.193 159.254 106.378C150.705 95.9185 143.51 117.27 156.238 116.157C156.82 116.105 154.145 132.258 151.777 138.364C151.353 139.462 149.357 139.067 149.623 137.762C150.761 133.427 151.669 129.036 152.341 124.605C150.356 124.555 148.471 123.719 147.101 122.282C145.731 120.844 144.987 118.922 145.032 116.937C145.074 113.927 145.362 110.925 145.892 107.962C146.608 101.587 147.056 95.1507 148.061 88.92C148.54 84.3112 148.566 78.6473 152.1 75.3041C153.502 74.0493 155.25 73.2479 157.116 73.0052C158.982 72.7625 160.877 73.0899 162.553 73.9443C161.829 73.6468 166.488 67.7805 166.987 67.2845C172.624 61.6575 184.074 60.7547 191.581 67.6356C192.641 68.4941 194.696 68.3141 196.014 68.8908C201.169 71.1489 204.397 76.0112 207.097 80.7942C208.752 82.1303 209.98 83.9213 210.63 85.9467C211.279 87.9721 211.322 90.1432 210.753 92.1926C209.748 94.7909 208.077 97.0787 205.907 98.8258C205.747 98.9829 205.54 99.0833 205.317 99.1117C205.095 99.1401 204.87 99.0949 204.675 98.983C204.481 98.8711 204.329 98.6987 204.242 98.4921C204.155 98.2855 204.138 98.0561 204.194 97.839C205.472 92.8574 204.235 89.0838 201.79 87.8063Z" fill="#101012"></path><path d="M205.607 94.0522C204.44 108.011 202.627 121.961 198.55 131.885L197.283 134.62C193.13 142.931 186.959 147.535 177.589 145.26C176.894 147.744 176.054 150.185 175.072 152.569C175.03 152.708 174.962 152.836 174.87 152.948C174.778 153.059 174.665 153.151 174.537 153.218C174.409 153.285 174.269 153.326 174.126 153.339C173.982 153.351 173.837 153.334 173.7 153.29C173.562 153.246 173.435 153.174 173.326 153.08C173.216 152.986 173.127 152.871 173.063 152.741C172.998 152.612 172.96 152.471 172.951 152.327C172.942 152.183 172.962 152.039 173.009 151.902C173.809 149.575 174.422 147.188 174.843 144.763C168.251 143.041 162.763 136.589 160.085 130.571C159.621 129.549 161.417 128.699 161.903 129.735C163.317 132.809 165.387 135.536 167.967 137.724C170.548 139.912 173.577 141.508 176.841 142.398C185.677 144.731 191.222 140.664 194.877 133.517L196.285 130.572C199.449 122.736 200.99 112.201 202.322 101.958C201.035 100.473 199.493 99.2302 197.769 98.2891C196.494 97.5774 196.715 94.6381 198.856 95.3377C200.378 96.0164 201.725 97.0316 202.797 98.3067C202.994 96.8224 203.191 95.3381 203.389 93.8921C203.657 92.8004 205.698 92.9403 205.607 94.0522Z" fill="#101012"></path></svg> 