<?xml version="1.0" encoding="UTF-8"?> <svg xmlns="http://www.w3.org/2000/svg" width="424" height="121" viewBox="0 0 424 121" fill="none"><path fill-rule="evenodd" clip-rule="evenodd" d="M418 29.099C418 18.9134 418 13.8206 416.018 9.93021C414.274 6.50813 411.492 3.72589 408.07 1.98225C404.179 0 399.087 0 388.901 0L29.099 0C18.9134 0 13.8206 0 9.93022 1.98225C6.50814 3.72589 3.7259 6.50813 1.98226 9.93021C7.27177e-06 13.8206 7.27177e-06 18.9134 7.27177e-06 29.099V90.901C7.27177e-06 101.087 7.27177e-06 106.179 1.98226 110.07C3.7259 113.492 6.50814 116.274 9.93022 118.018C13.8206 120 18.9134 120 29.099 120H388.901C399.087 120 404.179 120 408.07 118.018C411.492 116.274 414.274 113.492 416.018 110.07C418 106.179 418 101.087 418 90.901V29.099Z" fill="#BFB7DE"></path><path fill-rule="evenodd" clip-rule="evenodd" d="M417.475 103.283H399.254C399.254 112.658 406.854 120.258 416.228 120.258H423.503V119.859C421.768 118.403 420.331 116.605 419.291 114.563C417.93 111.892 417.57 108.614 417.475 103.283Z" fill="#BFB7DE"></path><path d="M21.26 37V24.04H26.309C27.083 24.04 27.743 24.199 28.289 24.517C28.841 24.835 29.261 25.255 29.549 25.777C29.843 26.293 29.99 26.851 29.99 27.451C29.99 28.153 29.81 28.768 29.45 29.296C29.09 29.824 28.604 30.187 27.992 30.385L27.974 29.944C28.808 30.166 29.456 30.574 29.918 31.168C30.38 31.762 30.611 32.47 30.611 33.292C30.611 34.048 30.455 34.702 30.143 35.254C29.837 35.806 29.393 36.235 28.811 36.541C28.235 36.847 27.551 37 26.759 37H21.26ZM22.88 35.47H26.453C26.933 35.47 27.362 35.383 27.74 35.209C28.118 35.029 28.415 34.777 28.631 34.453C28.853 34.129 28.964 33.739 28.964 33.283C28.964 32.845 28.865 32.452 28.667 32.104C28.475 31.756 28.202 31.48 27.848 31.276C27.5 31.066 27.095 30.961 26.633 30.961H22.88V35.47ZM22.88 29.449H26.291C26.675 29.449 27.02 29.368 27.326 29.206C27.638 29.038 27.884 28.804 28.064 28.504C28.25 28.204 28.343 27.853 28.343 27.451C28.343 26.893 28.154 26.437 27.776 26.083C27.398 25.729 26.903 25.552 26.291 25.552H22.88V29.449ZM36.5445 37.27C35.5785 37.27 34.7445 37.051 34.0425 36.613C33.3465 36.175 32.8095 35.569 32.4315 34.795C32.0535 34.021 31.8645 33.133 31.8645 32.131C31.8645 31.111 32.0565 30.217 32.4405 29.449C32.8245 28.681 33.3675 28.084 34.0695 27.658C34.7715 27.226 35.5965 27.01 36.5445 27.01C37.5165 27.01 38.3535 27.229 39.0555 27.667C39.7575 28.099 40.2945 28.702 40.6665 29.476C41.0445 30.244 41.2335 31.129 41.2335 32.131C41.2335 33.145 41.0445 34.039 40.6665 34.813C40.2885 35.581 39.7485 36.184 39.0465 36.622C38.3445 37.054 37.5105 37.27 36.5445 37.27ZM36.5445 35.749C37.5525 35.749 38.3025 35.413 38.7945 34.741C39.2865 34.069 39.5325 33.199 39.5325 32.131C39.5325 31.033 39.2835 30.16 38.7855 29.512C38.2875 28.858 37.5405 28.531 36.5445 28.531C35.8665 28.531 35.3085 28.684 34.8705 28.99C34.4325 29.296 34.1055 29.719 33.8895 30.259C33.6735 30.799 33.5655 31.423 33.5655 32.131C33.5655 33.223 33.8175 34.099 34.3215 34.759C34.8255 35.419 35.5665 35.749 36.5445 35.749ZM47.6791 37.27C46.7671 37.27 45.9991 37.045 45.3751 36.595C44.7511 36.139 44.2771 35.524 43.9531 34.75C43.6351 33.97 43.4761 33.097 43.4761 32.131C43.4761 31.153 43.6351 30.277 43.9531 29.503C44.2771 28.729 44.7511 28.12 45.3751 27.676C46.0051 27.232 46.7761 27.01 47.6881 27.01C48.5881 27.01 49.3621 27.235 50.0101 27.685C50.6641 28.129 51.1651 28.738 51.5131 29.512C51.8611 30.286 52.0351 31.159 52.0351 32.131C52.0351 33.103 51.8611 33.976 51.5131 34.75C51.1651 35.524 50.6641 36.139 50.0101 36.595C49.3621 37.045 48.5851 37.27 47.6791 37.27ZM43.2061 41.32V27.28H44.6371V34.435H44.8171V41.32H43.2061ZM47.4811 35.803C48.1231 35.803 48.6541 35.641 49.0741 35.317C49.4941 34.993 49.8091 34.555 50.0191 34.003C50.2291 33.445 50.3341 32.821 50.3341 32.131C50.3341 31.447 50.2291 30.829 50.0191 30.277C49.8151 29.725 49.4971 29.287 49.0651 28.963C48.6391 28.639 48.0961 28.477 47.4361 28.477C46.8061 28.477 46.2841 28.633 45.8701 28.945C45.4561 29.251 45.1471 29.68 44.9431 30.232C44.7391 30.778 44.6371 31.411 44.6371 32.131C44.6371 32.839 44.7361 33.472 44.9341 34.03C45.1381 34.582 45.4501 35.017 45.8701 35.335C46.2901 35.647 46.8271 35.803 47.4811 35.803ZM58.148 37.27C57.182 37.27 56.348 37.051 55.646 36.613C54.95 36.175 54.413 35.569 54.035 34.795C53.657 34.021 53.468 33.133 53.468 32.131C53.468 31.111 53.66 30.217 54.044 29.449C54.428 28.681 54.971 28.084 55.673 27.658C56.375 27.226 57.2 27.01 58.148 27.01C59.12 27.01 59.957 27.229 60.659 27.667C61.361 28.099 61.898 28.702 62.27 29.476C62.648 30.244 62.837 31.129 62.837 32.131C62.837 33.145 62.648 34.039 62.27 34.813C61.892 35.581 61.352 36.184 60.65 36.622C59.948 37.054 59.114 37.27 58.148 37.27ZM58.148 35.749C59.156 35.749 59.906 35.413 60.398 34.741C60.89 34.069 61.136 33.199 61.136 32.131C61.136 31.033 60.887 30.16 60.389 29.512C59.891 28.858 59.144 28.531 58.148 28.531C57.47 28.531 56.912 28.684 56.474 28.99C56.036 29.296 55.709 29.719 55.493 30.259C55.277 30.799 55.169 31.423 55.169 32.131C55.169 33.223 55.421 34.099 55.925 34.759C56.429 35.419 57.17 35.749 58.148 35.749ZM64.8096 37V27.28H66.4116V31.375H71.5236V27.28H73.1256V37H71.5236V32.896H66.4116V37H64.8096ZM75.6377 37L75.6467 27.28H77.2667V31.96L81.3437 27.28H83.4227L79.1297 32.14L83.9267 37H81.6857L77.2667 32.32V37H75.6377ZM87.5855 37.27C86.8595 37.27 86.2505 37.138 85.7585 36.874C85.2725 36.604 84.9035 36.25 84.6515 35.812C84.4055 35.374 84.2825 34.894 84.2825 34.372C84.2825 33.862 84.3785 33.421 84.5705 33.049C84.7685 32.671 85.0445 32.359 85.3985 32.113C85.7525 31.861 86.1755 31.663 86.6675 31.519C87.1295 31.393 87.6455 31.285 88.2155 31.195C88.7915 31.099 89.3735 31.012 89.9615 30.934C90.5495 30.856 91.0985 30.781 91.6085 30.709L91.0325 31.042C91.0505 30.178 90.8765 29.539 90.5105 29.125C90.1505 28.711 89.5265 28.504 88.6385 28.504C88.0505 28.504 87.5345 28.639 87.0905 28.909C86.6525 29.173 86.3435 29.605 86.1635 30.205L84.6425 29.746C84.8765 28.894 85.3295 28.225 86.0015 27.739C86.6735 27.253 87.5585 27.01 88.6565 27.01C89.5385 27.01 90.2945 27.169 90.9245 27.487C91.5605 27.799 92.0165 28.273 92.2925 28.909C92.4305 29.209 92.5175 29.536 92.5535 29.89C92.5895 30.238 92.6075 30.604 92.6075 30.988V37H91.1855V34.669L91.5185 34.885C91.1525 35.671 90.6395 36.265 89.9795 36.667C89.3255 37.069 88.5275 37.27 87.5855 37.27ZM87.8285 35.929C88.4045 35.929 88.9025 35.827 89.3225 35.623C89.7485 35.413 90.0905 35.14 90.3485 34.804C90.6065 34.462 90.7745 34.09 90.8525 33.688C90.9425 33.388 90.9905 33.055 90.9965 32.689C91.0085 32.317 91.0145 32.032 91.0145 31.834L91.5725 32.077C91.0505 32.149 90.5375 32.218 90.0335 32.284C89.5295 32.35 89.0525 32.422 88.6025 32.5C88.1525 32.572 87.7475 32.659 87.3875 32.761C87.1235 32.845 86.8745 32.953 86.6405 33.085C86.4125 33.217 86.2265 33.388 86.0825 33.598C85.9445 33.802 85.8755 34.057 85.8755 34.363C85.8755 34.627 85.9415 34.879 86.0735 35.119C86.2115 35.359 86.4215 35.554 86.7035 35.704C86.9915 35.854 87.3665 35.929 87.8285 35.929ZM98.542 37V27.28H99.919L103.609 34.822L107.299 27.28H108.676V37H107.128V30.619L104.032 37H103.186L100.09 30.619V37H98.542ZM115.33 37.27C114.364 37.27 113.53 37.051 112.828 36.613C112.132 36.175 111.595 35.569 111.217 34.795C110.839 34.021 110.65 33.133 110.65 32.131C110.65 31.111 110.842 30.217 111.226 29.449C111.61 28.681 112.153 28.084 112.855 27.658C113.557 27.226 114.382 27.01 115.33 27.01C116.302 27.01 117.139 27.229 117.841 27.667C118.543 28.099 119.08 28.702 119.452 29.476C119.83 30.244 120.019 31.129 120.019 32.131C120.019 33.145 119.83 34.039 119.452 34.813C119.074 35.581 118.534 36.184 117.832 36.622C117.13 37.054 116.296 37.27 115.33 37.27ZM115.33 35.749C116.338 35.749 117.088 35.413 117.58 34.741C118.072 34.069 118.318 33.199 118.318 32.131C118.318 31.033 118.069 30.16 117.571 29.512C117.073 28.858 116.326 28.531 115.33 28.531C114.652 28.531 114.094 28.684 113.656 28.99C113.218 29.296 112.891 29.719 112.675 30.259C112.459 30.799 112.351 31.423 112.351 32.131C112.351 33.223 112.603 34.099 113.107 34.759C113.611 35.419 114.352 35.749 115.33 35.749ZM120.692 37L124.616 32.14L120.881 27.28H122.663L126.272 32.05V27.28H127.73V32.05L131.339 27.28H133.121L129.386 32.14L133.31 37H131.447L127.73 32.23V37H126.272V32.23L122.555 37H120.692ZM138.605 37.27C137.651 37.27 136.817 37.06 136.103 36.64C135.395 36.214 134.843 35.623 134.447 34.867C134.051 34.105 133.853 33.217 133.853 32.203C133.853 31.141 134.048 30.223 134.438 29.449C134.828 28.669 135.371 28.069 136.067 27.649C136.769 27.223 137.591 27.01 138.533 27.01C139.511 27.01 140.342 27.235 141.026 27.685C141.716 28.135 142.232 28.777 142.574 29.611C142.922 30.445 143.072 31.438 143.024 32.59H141.404V32.014C141.386 30.82 141.143 29.929 140.675 29.341C140.207 28.747 139.511 28.45 138.587 28.45C137.597 28.45 136.844 28.768 136.328 29.404C135.812 30.04 135.554 30.952 135.554 32.14C135.554 33.286 135.812 34.174 136.328 34.804C136.844 35.434 137.579 35.749 138.533 35.749C139.175 35.749 139.733 35.602 140.207 35.308C140.681 35.014 141.053 34.591 141.323 34.039L142.862 34.57C142.484 35.428 141.914 36.094 141.152 36.568C140.396 37.036 139.547 37.27 138.605 37.27ZM135.014 32.59V31.303H142.196V32.59H135.014ZM147.426 37V28.738H144.042V27.28H152.412V28.738H149.028V37H147.426ZM157.71 37V27.28H159.312V31.375H164.424V27.28H166.026V37H164.424V32.896H159.312V37H157.71ZM172.759 37.27C171.805 37.27 170.971 37.06 170.257 36.64C169.549 36.214 168.997 35.623 168.601 34.867C168.205 34.105 168.007 33.217 168.007 32.203C168.007 31.141 168.202 30.223 168.592 29.449C168.982 28.669 169.525 28.069 170.221 27.649C170.923 27.223 171.745 27.01 172.687 27.01C173.665 27.01 174.496 27.235 175.18 27.685C175.87 28.135 176.386 28.777 176.728 29.611C177.076 30.445 177.226 31.438 177.178 32.59H175.558V32.014C175.54 30.82 175.297 29.929 174.829 29.341C174.361 28.747 173.665 28.45 172.741 28.45C171.751 28.45 170.998 28.768 170.482 29.404C169.966 30.04 169.708 30.952 169.708 32.14C169.708 33.286 169.966 34.174 170.482 34.804C170.998 35.434 171.733 35.749 172.687 35.749C173.329 35.749 173.887 35.602 174.361 35.308C174.835 35.014 175.207 34.591 175.477 34.039L177.016 34.57C176.638 35.428 176.068 36.094 175.306 36.568C174.55 37.036 173.701 37.27 172.759 37.27ZM169.168 32.59V31.303H176.35V32.59H169.168ZM187.249 37.27C186.337 37.27 185.569 37.045 184.945 36.595C184.321 36.139 183.847 35.524 183.523 34.75C183.205 33.97 183.046 33.097 183.046 32.131C183.046 31.153 183.205 30.277 183.523 29.503C183.847 28.729 184.321 28.12 184.945 27.676C185.575 27.232 186.346 27.01 187.258 27.01C188.158 27.01 188.932 27.235 189.58 27.685C190.234 28.129 190.735 28.738 191.083 29.512C191.431 30.286 191.605 31.159 191.605 32.131C191.605 33.103 191.431 33.976 191.083 34.75C190.735 35.524 190.234 36.139 189.58 36.595C188.932 37.045 188.155 37.27 187.249 37.27ZM182.776 41.32V27.28H184.207V34.435H184.387V41.32H182.776ZM187.051 35.803C187.693 35.803 188.224 35.641 188.644 35.317C189.064 34.993 189.379 34.555 189.589 34.003C189.799 33.445 189.904 32.821 189.904 32.131C189.904 31.447 189.799 30.829 189.589 30.277C189.385 29.725 189.067 29.287 188.635 28.963C188.209 28.639 187.666 28.477 187.006 28.477C186.376 28.477 185.854 28.633 185.44 28.945C185.026 29.251 184.717 29.68 184.513 30.232C184.309 30.778 184.207 31.411 184.207 32.131C184.207 32.839 184.306 33.472 184.504 34.03C184.708 34.582 185.02 35.017 185.44 35.335C185.86 35.647 186.397 35.803 187.051 35.803ZM196.341 37.27C195.615 37.27 195.006 37.138 194.514 36.874C194.028 36.604 193.659 36.25 193.407 35.812C193.161 35.374 193.038 34.894 193.038 34.372C193.038 33.862 193.134 33.421 193.326 33.049C193.524 32.671 193.8 32.359 194.154 32.113C194.508 31.861 194.931 31.663 195.423 31.519C195.885 31.393 196.401 31.285 196.971 31.195C197.547 31.099 198.129 31.012 198.717 30.934C199.305 30.856 199.854 30.781 200.364 30.709L199.788 31.042C199.806 30.178 199.632 29.539 199.266 29.125C198.906 28.711 198.282 28.504 197.394 28.504C196.806 28.504 196.29 28.639 195.846 28.909C195.408 29.173 195.099 29.605 194.919 30.205L193.398 29.746C193.632 28.894 194.085 28.225 194.757 27.739C195.429 27.253 196.314 27.01 197.412 27.01C198.294 27.01 199.05 27.169 199.68 27.487C200.316 27.799 200.772 28.273 201.048 28.909C201.186 29.209 201.273 29.536 201.309 29.89C201.345 30.238 201.363 30.604 201.363 30.988V37H199.941V34.669L200.274 34.885C199.908 35.671 199.395 36.265 198.735 36.667C198.081 37.069 197.283 37.27 196.341 37.27ZM196.584 35.929C197.16 35.929 197.658 35.827 198.078 35.623C198.504 35.413 198.846 35.14 199.104 34.804C199.362 34.462 199.53 34.09 199.608 33.688C199.698 33.388 199.746 33.055 199.752 32.689C199.764 32.317 199.77 32.032 199.77 31.834L200.328 32.077C199.806 32.149 199.293 32.218 198.789 32.284C198.285 32.35 197.808 32.422 197.358 32.5C196.908 32.572 196.503 32.659 196.143 32.761C195.879 32.845 195.63 32.953 195.396 33.085C195.168 33.217 194.982 33.388 194.838 33.598C194.7 33.802 194.631 34.057 194.631 34.363C194.631 34.627 194.697 34.879 194.829 35.119C194.967 35.359 195.177 35.554 195.459 35.704C195.747 35.854 196.122 35.929 196.584 35.929ZM207.654 37.279C206.736 37.273 205.953 37.075 205.305 36.685C204.657 36.289 204.153 35.71 203.793 34.948C203.433 34.186 203.232 33.253 203.19 32.149C203.166 31.639 203.172 31.078 203.208 30.466C203.25 29.854 203.316 29.266 203.406 28.702C203.502 28.138 203.622 27.673 203.766 27.307C203.928 26.869 204.156 26.464 204.45 26.092C204.75 25.714 205.086 25.402 205.458 25.156C205.836 24.898 206.259 24.697 206.727 24.553C207.195 24.409 207.684 24.298 208.194 24.22C208.71 24.136 209.226 24.064 209.742 24.004C210.258 23.938 210.75 23.86 211.218 23.77L211.38 25.21C211.05 25.282 210.66 25.345 210.21 25.399C209.76 25.447 209.292 25.504 208.806 25.57C208.326 25.636 207.864 25.729 207.42 25.849C206.982 25.963 206.604 26.122 206.286 26.326C205.818 26.608 205.458 27.031 205.206 27.595C204.96 28.153 204.81 28.78 204.756 29.476C205.128 28.9 205.611 28.477 206.205 28.207C206.799 27.937 207.432 27.802 208.104 27.802C208.974 27.802 209.724 28.006 210.354 28.414C210.984 28.816 211.467 29.371 211.803 30.079C212.145 30.787 212.316 31.594 212.316 32.5C212.316 33.46 212.124 34.3 211.74 35.02C211.356 35.74 210.813 36.298 210.111 36.694C209.415 37.09 208.596 37.285 207.654 37.279ZM207.753 35.758C208.695 35.758 209.409 35.467 209.895 34.885C210.381 34.297 210.624 33.517 210.624 32.545C210.624 31.549 210.372 30.766 209.868 30.196C209.364 29.62 208.656 29.332 207.744 29.332C206.82 29.332 206.112 29.62 205.62 30.196C205.134 30.766 204.891 31.549 204.891 32.545C204.891 33.547 205.137 34.333 205.629 34.903C206.121 35.473 206.829 35.758 207.753 35.758ZM218.443 37.27C217.477 37.27 216.643 37.051 215.941 36.613C215.245 36.175 214.708 35.569 214.33 34.795C213.952 34.021 213.763 33.133 213.763 32.131C213.763 31.111 213.955 30.217 214.339 29.449C214.723 28.681 215.266 28.084 215.968 27.658C216.67 27.226 217.495 27.01 218.443 27.01C219.415 27.01 220.252 27.229 220.954 27.667C221.656 28.099 222.193 28.702 222.565 29.476C222.943 30.244 223.132 31.129 223.132 32.131C223.132 33.145 222.943 34.039 222.565 34.813C222.187 35.581 221.647 36.184 220.945 36.622C220.243 37.054 219.409 37.27 218.443 37.27ZM218.443 35.749C219.451 35.749 220.201 35.413 220.693 34.741C221.185 34.069 221.431 33.199 221.431 32.131C221.431 31.033 221.182 30.16 220.684 29.512C220.186 28.858 219.439 28.531 218.443 28.531C217.765 28.531 217.207 28.684 216.769 28.99C216.331 29.296 216.004 29.719 215.788 30.259C215.572 30.799 215.464 31.423 215.464 32.131C215.464 33.223 215.716 34.099 216.22 34.759C216.724 35.419 217.465 35.749 218.443 35.749ZM227.477 37V28.738H224.093V27.28H232.463V28.738H229.079V37H227.477ZM236.613 37.27C235.887 37.27 235.278 37.138 234.786 36.874C234.3 36.604 233.931 36.25 233.679 35.812C233.433 35.374 233.31 34.894 233.31 34.372C233.31 33.862 233.406 33.421 233.598 33.049C233.796 32.671 234.072 32.359 234.426 32.113C234.78 31.861 235.203 31.663 235.695 31.519C236.157 31.393 236.673 31.285 237.243 31.195C237.819 31.099 238.401 31.012 238.989 30.934C239.577 30.856 240.126 30.781 240.636 30.709L240.06 31.042C240.078 30.178 239.904 29.539 239.538 29.125C239.178 28.711 238.554 28.504 237.666 28.504C237.078 28.504 236.562 28.639 236.118 28.909C235.68 29.173 235.371 29.605 235.191 30.205L233.67 29.746C233.904 28.894 234.357 28.225 235.029 27.739C235.701 27.253 236.586 27.01 237.684 27.01C238.566 27.01 239.322 27.169 239.952 27.487C240.588 27.799 241.044 28.273 241.32 28.909C241.458 29.209 241.545 29.536 241.581 29.89C241.617 30.238 241.635 30.604 241.635 30.988V37H240.213V34.669L240.546 34.885C240.18 35.671 239.667 36.265 239.007 36.667C238.353 37.069 237.555 37.27 236.613 37.27ZM236.856 35.929C237.432 35.929 237.93 35.827 238.35 35.623C238.776 35.413 239.118 35.14 239.376 34.804C239.634 34.462 239.802 34.09 239.88 33.688C239.97 33.388 240.018 33.055 240.024 32.689C240.036 32.317 240.042 32.032 240.042 31.834L240.6 32.077C240.078 32.149 239.565 32.218 239.061 32.284C238.557 32.35 238.08 32.422 237.63 32.5C237.18 32.572 236.775 32.659 236.415 32.761C236.151 32.845 235.902 32.953 235.668 33.085C235.44 33.217 235.254 33.388 235.11 33.598C234.972 33.802 234.903 34.057 234.903 34.363C234.903 34.627 234.969 34.879 235.101 35.119C235.239 35.359 235.449 35.554 235.731 35.704C236.019 35.854 236.394 35.929 236.856 35.929ZM246.549 37V28.738H243.165V27.28H251.535V28.738H248.151V37H246.549ZM253.239 37L253.23 27.28H254.841V30.799H256.938C257.22 30.799 257.508 30.805 257.802 30.817C258.096 30.829 258.351 30.856 258.567 30.898C259.071 30.994 259.512 31.162 259.89 31.402C260.268 31.642 260.562 31.969 260.772 32.383C260.982 32.791 261.087 33.298 261.087 33.904C261.087 34.744 260.868 35.41 260.43 35.902C259.998 36.388 259.431 36.712 258.729 36.874C258.489 36.928 258.213 36.964 257.901 36.982C257.595 36.994 257.304 37 257.028 37H253.239ZM254.841 35.677H257.055C257.235 35.677 257.436 35.671 257.658 35.659C257.88 35.647 258.078 35.617 258.252 35.569C258.558 35.479 258.831 35.302 259.071 35.038C259.317 34.774 259.44 34.396 259.44 33.904C259.44 33.406 259.32 33.022 259.08 32.752C258.846 32.482 258.537 32.305 258.153 32.221C257.979 32.179 257.796 32.152 257.604 32.14C257.412 32.128 257.229 32.122 257.055 32.122H254.841V35.677ZM262.885 39.016L262.984 38.269C263.236 38.287 263.425 38.239 263.551 38.125C263.677 38.011 263.758 37.855 263.794 37.657C263.83 37.459 263.836 37.24 263.812 37H262.885V34.966H264.649V37.27C264.649 37.9 264.493 38.374 264.181 38.692C263.875 39.01 263.443 39.118 262.885 39.016ZM271.669 37V27.28H279.634V37H278.032V28.801H273.271V37H271.669ZM286.295 37.27C285.329 37.27 284.495 37.051 283.793 36.613C283.097 36.175 282.56 35.569 282.182 34.795C281.804 34.021 281.615 33.133 281.615 32.131C281.615 31.111 281.807 30.217 282.191 29.449C282.575 28.681 283.118 28.084 283.82 27.658C284.522 27.226 285.347 27.01 286.295 27.01C287.267 27.01 288.104 27.229 288.806 27.667C289.508 28.099 290.045 28.702 290.417 29.476C290.795 30.244 290.984 31.129 290.984 32.131C290.984 33.145 290.795 34.039 290.417 34.813C290.039 35.581 289.499 36.184 288.797 36.622C288.095 37.054 287.261 37.27 286.295 37.27ZM286.295 35.749C287.303 35.749 288.053 35.413 288.545 34.741C289.037 34.069 289.283 33.199 289.283 32.131C289.283 31.033 289.034 30.16 288.536 29.512C288.038 28.858 287.291 28.531 286.295 28.531C285.617 28.531 285.059 28.684 284.621 28.99C284.183 29.296 283.856 29.719 283.64 30.259C283.424 30.799 283.316 31.423 283.316 32.131C283.316 33.223 283.568 34.099 284.072 34.759C284.576 35.419 285.317 35.749 286.295 35.749ZM295.328 37V28.738H291.944V27.28H300.314V28.738H296.93V37H295.328ZM305.982 37.27C305.016 37.27 304.182 37.051 303.48 36.613C302.784 36.175 302.247 35.569 301.869 34.795C301.491 34.021 301.302 33.133 301.302 32.131C301.302 31.111 301.494 30.217 301.878 29.449C302.262 28.681 302.805 28.084 303.507 27.658C304.209 27.226 305.034 27.01 305.982 27.01C306.954 27.01 307.791 27.229 308.493 27.667C309.195 28.099 309.732 28.702 310.104 29.476C310.482 30.244 310.671 31.129 310.671 32.131C310.671 33.145 310.482 34.039 310.104 34.813C309.726 35.581 309.186 36.184 308.484 36.622C307.782 37.054 306.948 37.27 305.982 37.27ZM305.982 35.749C306.99 35.749 307.74 35.413 308.232 34.741C308.724 34.069 308.97 33.199 308.97 32.131C308.97 31.033 308.721 30.16 308.223 29.512C307.725 28.858 306.978 28.531 305.982 28.531C305.304 28.531 304.746 28.684 304.308 28.99C303.87 29.296 303.543 29.719 303.327 30.259C303.111 30.799 303.003 31.423 303.003 32.131C303.003 33.223 303.255 34.099 303.759 34.759C304.263 35.419 305.004 35.749 305.982 35.749ZM312.644 37V27.28H314.021L317.711 34.822L321.401 27.28H322.778V37H321.23V30.619L318.134 37H317.288L314.192 30.619V37H312.644ZM326.641 41.32L328.522 36.208L328.549 37.72L324.301 27.28H325.984L329.314 35.677H328.738L331.861 27.28H333.49L328.198 41.32H326.641ZM344.43 37V33.499C344.106 33.661 343.713 33.799 343.251 33.913C342.795 34.027 342.306 34.084 341.784 34.084C340.794 34.084 339.996 33.862 339.39 33.418C338.784 32.974 338.388 32.335 338.202 31.501C338.148 31.249 338.109 30.988 338.085 30.718C338.067 30.448 338.055 30.202 338.049 29.98C338.043 29.758 338.04 29.596 338.04 29.494V27.28H339.66V29.494C339.66 29.668 339.666 29.884 339.678 30.142C339.69 30.394 339.72 30.64 339.768 30.88C339.888 31.474 340.137 31.921 340.515 32.221C340.899 32.521 341.439 32.671 342.135 32.671C342.603 32.671 343.035 32.611 343.431 32.491C343.827 32.371 344.16 32.212 344.43 32.014V27.28H346.041V37H344.43ZM351.139 37V28.738H347.755V27.28H356.125V28.738H352.741V37H351.139ZM361.793 37.27C360.827 37.27 359.993 37.051 359.291 36.613C358.595 36.175 358.058 35.569 357.68 34.795C357.302 34.021 357.113 33.133 357.113 32.131C357.113 31.111 357.305 30.217 357.689 29.449C358.073 28.681 358.616 28.084 359.318 27.658C360.02 27.226 360.845 27.01 361.793 27.01C362.765 27.01 363.602 27.229 364.304 27.667C365.006 28.099 365.543 28.702 365.915 29.476C366.293 30.244 366.482 31.129 366.482 32.131C366.482 33.145 366.293 34.039 365.915 34.813C365.537 35.581 364.997 36.184 364.295 36.622C363.593 37.054 362.759 37.27 361.793 37.27ZM361.793 35.749C362.801 35.749 363.551 35.413 364.043 34.741C364.535 34.069 364.781 33.199 364.781 32.131C364.781 31.033 364.532 30.16 364.034 29.512C363.536 28.858 362.789 28.531 361.793 28.531C361.115 28.531 360.557 28.684 360.119 28.99C359.681 29.296 359.354 29.719 359.138 30.259C358.922 30.799 358.814 31.423 358.814 32.131C358.814 33.223 359.066 34.099 359.57 34.759C360.074 35.419 360.815 35.749 361.793 35.749ZM25.4 57.27C24.434 57.27 23.6 57.051 22.898 56.613C22.202 56.175 21.665 55.569 21.287 54.795C20.909 54.021 20.72 53.133 20.72 52.131C20.72 51.111 20.912 50.217 21.296 49.449C21.68 48.681 22.223 48.084 22.925 47.658C23.627 47.226 24.452 47.01 25.4 47.01C26.372 47.01 27.209 47.229 27.911 47.667C28.613 48.099 29.15 48.702 29.522 49.476C29.9 50.244 30.089 51.129 30.089 52.131C30.089 53.145 29.9 54.039 29.522 54.813C29.144 55.581 28.604 56.184 27.902 56.622C27.2 57.054 26.366 57.27 25.4 57.27ZM25.4 55.749C26.408 55.749 27.158 55.413 27.65 54.741C28.142 54.069 28.388 53.199 28.388 52.131C28.388 51.033 28.139 50.16 27.641 49.512C27.143 48.858 26.396 48.531 25.4 48.531C24.722 48.531 24.164 48.684 23.726 48.99C23.288 49.296 22.961 49.719 22.745 50.259C22.529 50.799 22.421 51.423 22.421 52.131C22.421 53.223 22.673 54.099 23.177 54.759C23.681 55.419 24.422 55.749 25.4 55.749ZM32.0615 57V47.28H33.6635V51.375H38.7755V47.28H40.3775V57H38.7755V52.896H33.6635V57H32.0615ZM45.6617 57.27C44.9357 57.27 44.3267 57.138 43.8347 56.874C43.3487 56.604 42.9797 56.25 42.7277 55.812C42.4817 55.374 42.3587 54.894 42.3587 54.372C42.3587 53.862 42.4547 53.421 42.6467 53.049C42.8447 52.671 43.1207 52.359 43.4747 52.113C43.8287 51.861 44.2517 51.663 44.7437 51.519C45.2057 51.393 45.7217 51.285 46.2917 51.195C46.8677 51.099 47.4497 51.012 48.0377 50.934C48.6257 50.856 49.1747 50.781 49.6847 50.709L49.1087 51.042C49.1267 50.178 48.9527 49.539 48.5867 49.125C48.2267 48.711 47.6027 48.504 46.7147 48.504C46.1267 48.504 45.6107 48.639 45.1667 48.909C44.7287 49.173 44.4197 49.605 44.2397 50.205L42.7187 49.746C42.9527 48.894 43.4057 48.225 44.0777 47.739C44.7497 47.253 45.6347 47.01 46.7327 47.01C47.6147 47.01 48.3707 47.169 49.0007 47.487C49.6367 47.799 50.0927 48.273 50.3687 48.909C50.5067 49.209 50.5937 49.536 50.6297 49.89C50.6657 50.238 50.6837 50.604 50.6837 50.988V57H49.2617V54.669L49.5947 54.885C49.2287 55.671 48.7157 56.265 48.0557 56.667C47.4017 57.069 46.6037 57.27 45.6617 57.27ZM45.9047 55.929C46.4807 55.929 46.9787 55.827 47.3987 55.623C47.8247 55.413 48.1667 55.14 48.4247 54.804C48.6827 54.462 48.8507 54.09 48.9287 53.688C49.0187 53.388 49.0667 53.055 49.0727 52.689C49.0847 52.317 49.0907 52.032 49.0907 51.834L49.6487 52.077C49.1267 52.149 48.6137 52.218 48.1097 52.284C47.6057 52.35 47.1287 52.422 46.6787 52.5C46.2287 52.572 45.8237 52.659 45.4637 52.761C45.1997 52.845 44.9507 52.953 44.7167 53.085C44.4887 53.217 44.3027 53.388 44.1587 53.598C44.0207 53.802 43.9517 54.057 43.9517 54.363C43.9517 54.627 44.0177 54.879 44.1497 55.119C44.2877 55.359 44.4977 55.554 44.7797 55.704C45.0677 55.854 45.4427 55.929 45.9047 55.929ZM60.7222 57.27C59.7382 57.27 58.9012 57.051 58.2112 56.613C57.5272 56.169 57.0052 55.56 56.6452 54.786C56.2852 54.012 56.0992 53.13 56.0872 52.14C56.0992 51.126 56.2882 50.235 56.6542 49.467C57.0262 48.693 57.5572 48.09 58.2472 47.658C58.9372 47.226 59.7682 47.01 60.7402 47.01C61.7662 47.01 62.6482 47.262 63.3862 47.766C64.1302 48.27 64.6282 48.96 64.8802 49.836L63.2962 50.313C63.0922 49.749 62.7592 49.311 62.2972 48.999C61.8412 48.687 61.3162 48.531 60.7222 48.531C60.0562 48.531 59.5072 48.687 59.0752 48.999C58.6432 49.305 58.3222 49.731 58.1122 50.277C57.9022 50.817 57.7942 51.438 57.7882 52.14C57.8002 53.22 58.0492 54.093 58.5352 54.759C59.0272 55.419 59.7562 55.749 60.7222 55.749C61.3582 55.749 61.8862 55.605 62.3062 55.317C62.7262 55.023 63.0442 54.6 63.2602 54.048L64.8802 54.471C64.5442 55.377 64.0192 56.07 63.3052 56.55C62.5912 57.03 61.7302 57.27 60.7222 57.27ZM70.5934 57.27C69.6274 57.27 68.7934 57.051 68.0914 56.613C67.3954 56.175 66.8584 55.569 66.4804 54.795C66.1024 54.021 65.9134 53.133 65.9134 52.131C65.9134 51.111 66.1054 50.217 66.4894 49.449C66.8734 48.681 67.4164 48.084 68.1184 47.658C68.8204 47.226 69.6454 47.01 70.5934 47.01C71.5654 47.01 72.4024 47.229 73.1044 47.667C73.8064 48.099 74.3434 48.702 74.7154 49.476C75.0934 50.244 75.2824 51.129 75.2824 52.131C75.2824 53.145 75.0934 54.039 74.7154 54.813C74.3374 55.581 73.7974 56.184 73.0954 56.622C72.3934 57.054 71.5594 57.27 70.5934 57.27ZM70.5934 55.749C71.6014 55.749 72.3514 55.413 72.8434 54.741C73.3354 54.069 73.5814 53.199 73.5814 52.131C73.5814 51.033 73.3324 50.16 72.8344 49.512C72.3364 48.858 71.5894 48.531 70.5934 48.531C69.9154 48.531 69.3574 48.684 68.9194 48.99C68.4814 49.296 68.1544 49.719 67.9384 50.259C67.7224 50.799 67.6144 51.423 67.6144 52.131C67.6144 53.223 67.8664 54.099 68.3704 54.759C68.8744 55.419 69.6154 55.749 70.5934 55.749ZM81.3589 57.27C80.3749 57.27 79.5379 57.051 78.8479 56.613C78.1639 56.169 77.6419 55.56 77.2819 54.786C76.9219 54.012 76.7359 53.13 76.7239 52.14C76.7359 51.126 76.9249 50.235 77.2909 49.467C77.6629 48.693 78.1939 48.09 78.8839 47.658C79.5739 47.226 80.4049 47.01 81.3769 47.01C82.4029 47.01 83.2849 47.262 84.0229 47.766C84.7669 48.27 85.2649 48.96 85.5169 49.836L83.9329 50.313C83.7289 49.749 83.3959 49.311 82.9339 48.999C82.4779 48.687 81.9529 48.531 81.3589 48.531C80.6929 48.531 80.1439 48.687 79.7119 48.999C79.2799 49.305 78.9589 49.731 78.7489 50.277C78.5389 50.817 78.4309 51.438 78.4249 52.14C78.4369 53.22 78.6859 54.093 79.1719 54.759C79.6639 55.419 80.3929 55.749 81.3589 55.749C81.9949 55.749 82.5229 55.605 82.9429 55.317C83.3629 55.023 83.6809 54.6 83.8969 54.048L85.5169 54.471C85.1809 55.377 84.6559 56.07 83.9419 56.55C83.2279 57.03 82.3669 57.27 81.3589 57.27ZM89.752 57V48.738H86.368V47.28H94.738V48.738H91.354V57H89.752ZM98.8882 57.27C98.1622 57.27 97.5532 57.138 97.0612 56.874C96.5752 56.604 96.2062 56.25 95.9542 55.812C95.7082 55.374 95.5852 54.894 95.5852 54.372C95.5852 53.862 95.6812 53.421 95.8732 53.049C96.0712 52.671 96.3472 52.359 96.7012 52.113C97.0552 51.861 97.4782 51.663 97.9702 51.519C98.4322 51.393 98.9482 51.285 99.5182 51.195C100.094 51.099 100.676 51.012 101.264 50.934C101.852 50.856 102.401 50.781 102.911 50.709L102.335 51.042C102.353 50.178 102.179 49.539 101.813 49.125C101.453 48.711 100.829 48.504 99.9412 48.504C99.3532 48.504 98.8372 48.639 98.3932 48.909C97.9552 49.173 97.6462 49.605 97.4662 50.205L95.9452 49.746C96.1792 48.894 96.6322 48.225 97.3042 47.739C97.9762 47.253 98.8612 47.01 99.9592 47.01C100.841 47.01 101.597 47.169 102.227 47.487C102.863 47.799 103.319 48.273 103.595 48.909C103.733 49.209 103.82 49.536 103.856 49.89C103.892 50.238 103.91 50.604 103.91 50.988V57H102.488V54.669L102.821 54.885C102.455 55.671 101.942 56.265 101.282 56.667C100.628 57.069 99.8302 57.27 98.8882 57.27ZM99.1312 55.929C99.7072 55.929 100.205 55.827 100.625 55.623C101.051 55.413 101.393 55.14 101.651 54.804C101.909 54.462 102.077 54.09 102.155 53.688C102.245 53.388 102.293 53.055 102.299 52.689C102.311 52.317 102.317 52.032 102.317 51.834L102.875 52.077C102.353 52.149 101.84 52.218 101.336 52.284C100.832 52.35 100.355 52.422 99.9052 52.5C99.4552 52.572 99.0502 52.659 98.6902 52.761C98.4262 52.845 98.1772 52.953 97.9432 53.085C97.7152 53.217 97.5292 53.388 97.3852 53.598C97.2472 53.802 97.1782 54.057 97.1782 54.363C97.1782 54.627 97.2442 54.879 97.3762 55.119C97.5142 55.359 97.7242 55.554 98.0062 55.704C98.2942 55.854 98.6692 55.929 99.1312 55.929ZM106.241 57V47.28H110.381C110.627 47.28 110.891 47.295 111.173 47.325C111.461 47.349 111.722 47.394 111.956 47.46C112.478 47.598 112.907 47.883 113.243 48.315C113.585 48.741 113.756 49.281 113.756 49.935C113.756 50.301 113.699 50.619 113.585 50.889C113.477 51.159 113.321 51.393 113.117 51.591C113.027 51.681 112.928 51.762 112.82 51.834C112.712 51.906 112.604 51.963 112.496 52.005C112.706 52.041 112.919 52.122 113.135 52.248C113.477 52.434 113.744 52.695 113.936 53.031C114.134 53.367 114.233 53.796 114.233 54.318C114.233 54.978 114.074 55.524 113.756 55.956C113.438 56.382 113 56.676 112.442 56.838C112.208 56.904 111.95 56.949 111.668 56.973C111.386 56.991 111.113 57 110.849 57H106.241ZM107.861 55.695H110.759C110.885 55.695 111.035 55.683 111.209 55.659C111.389 55.635 111.548 55.605 111.686 55.569C111.998 55.479 112.223 55.311 112.361 55.065C112.505 54.819 112.577 54.552 112.577 54.264C112.577 53.88 112.469 53.568 112.253 53.328C112.043 53.088 111.764 52.938 111.416 52.878C111.29 52.842 111.152 52.821 111.002 52.815C110.858 52.809 110.729 52.806 110.615 52.806H107.861V55.695ZM107.861 51.483H110.273C110.441 51.483 110.618 51.474 110.804 51.456C110.99 51.432 111.152 51.393 111.29 51.339C111.566 51.237 111.767 51.069 111.893 50.835C112.025 50.595 112.091 50.334 112.091 50.052C112.091 49.74 112.019 49.467 111.875 49.233C111.737 48.993 111.524 48.828 111.236 48.738C111.044 48.666 110.828 48.627 110.588 48.621C110.354 48.609 110.204 48.603 110.138 48.603H107.861V51.483ZM115.141 57V55.623C115.501 55.689 115.774 55.677 115.96 55.587C116.152 55.491 116.293 55.326 116.383 55.092C116.479 54.852 116.557 54.552 116.617 54.192C116.719 53.622 116.806 52.986 116.878 52.284C116.956 51.582 117.025 50.814 117.085 49.98C117.151 49.14 117.211 48.24 117.265 47.28H124.06V57H122.458V48.801H118.723C118.687 49.353 118.642 49.92 118.588 50.502C118.54 51.084 118.489 51.651 118.435 52.203C118.381 52.749 118.321 53.259 118.255 53.733C118.195 54.201 118.129 54.606 118.057 54.948C117.943 55.536 117.784 56.007 117.58 56.361C117.376 56.709 117.082 56.934 116.698 57.036C116.314 57.144 115.795 57.132 115.141 57ZM130.8 57.27C129.846 57.27 129.012 57.06 128.298 56.64C127.59 56.214 127.038 55.623 126.642 54.867C126.246 54.105 126.048 53.217 126.048 52.203C126.048 51.141 126.243 50.223 126.633 49.449C127.023 48.669 127.566 48.069 128.262 47.649C128.964 47.223 129.786 47.01 130.728 47.01C131.706 47.01 132.537 47.235 133.221 47.685C133.911 48.135 134.427 48.777 134.769 49.611C135.117 50.445 135.267 51.438 135.219 52.59H133.599V52.014C133.581 50.82 133.338 49.929 132.87 49.341C132.402 48.747 131.706 48.45 130.782 48.45C129.792 48.45 129.039 48.768 128.523 49.404C128.007 50.04 127.749 50.952 127.749 52.14C127.749 53.286 128.007 54.174 128.523 54.804C129.039 55.434 129.774 55.749 130.728 55.749C131.37 55.749 131.928 55.602 132.402 55.308C132.876 55.014 133.248 54.591 133.518 54.039L135.057 54.57C134.679 55.428 134.109 56.094 133.347 56.568C132.591 57.036 131.742 57.27 130.8 57.27ZM127.209 52.59V51.303H134.391V52.59H127.209ZM137.214 57V47.28H138.816V51.375H143.928V47.28H145.53V57H143.928V52.896H138.816V57H137.214ZM150.814 57.27C150.088 57.27 149.479 57.138 148.987 56.874C148.501 56.604 148.132 56.25 147.88 55.812C147.634 55.374 147.511 54.894 147.511 54.372C147.511 53.862 147.607 53.421 147.799 53.049C147.997 52.671 148.273 52.359 148.627 52.113C148.981 51.861 149.404 51.663 149.896 51.519C150.358 51.393 150.874 51.285 151.444 51.195C152.02 51.099 152.602 51.012 153.19 50.934C153.778 50.856 154.327 50.781 154.837 50.709L154.261 51.042C154.279 50.178 154.105 49.539 153.739 49.125C153.379 48.711 152.755 48.504 151.867 48.504C151.279 48.504 150.763 48.639 150.319 48.909C149.881 49.173 149.572 49.605 149.392 50.205L147.871 49.746C148.105 48.894 148.558 48.225 149.23 47.739C149.902 47.253 150.787 47.01 151.885 47.01C152.767 47.01 153.523 47.169 154.153 47.487C154.789 47.799 155.245 48.273 155.521 48.909C155.659 49.209 155.746 49.536 155.782 49.89C155.818 50.238 155.836 50.604 155.836 50.988V57H154.414V54.669L154.747 54.885C154.381 55.671 153.868 56.265 153.208 56.667C152.554 57.069 151.756 57.27 150.814 57.27ZM151.057 55.929C151.633 55.929 152.131 55.827 152.551 55.623C152.977 55.413 153.319 55.14 153.577 54.804C153.835 54.462 154.003 54.09 154.081 53.688C154.171 53.388 154.219 53.055 154.225 52.689C154.237 52.317 154.243 52.032 154.243 51.834L154.801 52.077C154.279 52.149 153.766 52.218 153.262 52.284C152.758 52.35 152.281 52.422 151.831 52.5C151.381 52.572 150.976 52.659 150.616 52.761C150.352 52.845 150.103 52.953 149.869 53.085C149.641 53.217 149.455 53.388 149.311 53.598C149.173 53.802 149.104 54.057 149.104 54.363C149.104 54.627 149.17 54.879 149.302 55.119C149.44 55.359 149.65 55.554 149.932 55.704C150.22 55.854 150.595 55.929 151.057 55.929ZM161.771 57V47.28H163.373V51.375H168.485V47.28H170.087V57H168.485V52.896H163.373V57H161.771ZM176.82 57.27C175.866 57.27 175.032 57.06 174.318 56.64C173.61 56.214 173.058 55.623 172.662 54.867C172.266 54.105 172.068 53.217 172.068 52.203C172.068 51.141 172.263 50.223 172.653 49.449C173.043 48.669 173.586 48.069 174.282 47.649C174.984 47.223 175.806 47.01 176.748 47.01C177.726 47.01 178.557 47.235 179.241 47.685C179.931 48.135 180.447 48.777 180.789 49.611C181.137 50.445 181.287 51.438 181.239 52.59H179.619V52.014C179.601 50.82 179.358 49.929 178.89 49.341C178.422 48.747 177.726 48.45 176.802 48.45C175.812 48.45 175.059 48.768 174.543 49.404C174.027 50.04 173.769 50.952 173.769 52.14C173.769 53.286 174.027 54.174 174.543 54.804C175.059 55.434 175.794 55.749 176.748 55.749C177.39 55.749 177.948 55.602 178.422 55.308C178.896 55.014 179.268 54.591 179.538 54.039L181.077 54.57C180.699 55.428 180.129 56.094 179.367 56.568C178.611 57.036 177.762 57.27 176.82 57.27ZM173.229 52.59V51.303H180.411V52.59H173.229ZM186.743 57.27C185.741 57.27 184.883 57.03 184.169 56.55C183.455 56.07 182.924 55.377 182.576 54.471L184.196 54.048C184.418 54.6 184.739 55.023 185.159 55.317C185.585 55.605 186.11 55.749 186.734 55.749C187.604 55.749 188.279 55.482 188.759 54.948C189.239 54.408 189.524 53.691 189.614 52.797H185.636V51.474H189.614C189.53 50.604 189.254 49.896 188.786 49.35C188.318 48.804 187.646 48.531 186.77 48.531C186.164 48.531 185.63 48.684 185.168 48.99C184.712 49.296 184.376 49.737 184.16 50.313L182.576 49.836C182.834 48.96 183.335 48.27 184.079 47.766C184.823 47.262 185.714 47.01 186.752 47.01C187.712 47.01 188.537 47.226 189.227 47.658C189.917 48.09 190.445 48.693 190.811 49.467C191.183 50.241 191.369 51.135 191.369 52.149C191.369 53.157 191.186 54.045 190.82 54.813C190.454 55.581 189.926 56.184 189.236 56.622C188.546 57.054 187.715 57.27 186.743 57.27ZM197.94 61.05V57.18C196.992 57.33 196.128 57.228 195.348 56.874C194.574 56.514 193.956 55.935 193.494 55.137C193.038 54.333 192.81 53.337 192.81 52.149C192.81 50.955 193.038 49.956 193.494 49.152C193.956 48.348 194.574 47.769 195.348 47.415C196.128 47.055 196.992 46.95 197.94 47.1V44.139H199.398V47.1C200.346 46.95 201.207 47.055 201.981 47.415C202.761 47.769 203.379 48.348 203.835 49.152C204.297 49.956 204.528 50.955 204.528 52.149C204.528 53.337 204.297 54.333 203.835 55.137C203.379 55.935 202.761 56.514 201.981 56.874C201.207 57.228 200.346 57.33 199.398 57.18V61.05H197.94ZM197.94 55.713V48.576C197.454 48.492 197.001 48.507 196.581 48.621C196.161 48.729 195.792 48.933 195.474 49.233C195.156 49.533 194.907 49.926 194.727 50.412C194.547 50.898 194.457 51.477 194.457 52.149C194.457 52.815 194.547 53.391 194.727 53.877C194.913 54.363 195.165 54.756 195.483 55.056C195.807 55.35 196.179 55.554 196.599 55.668C197.019 55.776 197.466 55.791 197.94 55.713ZM199.398 55.713C199.872 55.791 200.319 55.776 200.739 55.668C201.159 55.56 201.531 55.359 201.855 55.065C202.179 54.765 202.431 54.372 202.611 53.886C202.791 53.4 202.881 52.821 202.881 52.149C202.881 51.471 202.791 50.889 202.611 50.403C202.437 49.917 202.191 49.524 201.873 49.224C201.555 48.924 201.183 48.72 200.757 48.612C200.337 48.504 199.884 48.492 199.398 48.576V55.713ZM211.106 61.05V57.18C210.158 57.33 209.294 57.228 208.514 56.874C207.74 56.514 207.122 55.935 206.66 55.137C206.204 54.333 205.976 53.337 205.976 52.149C205.976 50.955 206.204 49.956 206.66 49.152C207.122 48.348 207.74 47.769 208.514 47.415C209.294 47.055 210.158 46.95 211.106 47.1V44.139H212.564V47.1C213.512 46.95 214.373 47.055 215.147 47.415C215.927 47.769 216.545 48.348 217.001 49.152C217.463 49.956 217.694 50.955 217.694 52.149C217.694 53.337 217.463 54.333 217.001 55.137C216.545 55.935 215.927 56.514 215.147 56.874C214.373 57.228 213.512 57.33 212.564 57.18V61.05H211.106ZM211.106 55.713V48.576C210.62 48.492 210.167 48.507 209.747 48.621C209.327 48.729 208.958 48.933 208.64 49.233C208.322 49.533 208.073 49.926 207.893 50.412C207.713 50.898 207.623 51.477 207.623 52.149C207.623 52.815 207.713 53.391 207.893 53.877C208.079 54.363 208.331 54.756 208.649 55.056C208.973 55.35 209.345 55.554 209.765 55.668C210.185 55.776 210.632 55.791 211.106 55.713ZM212.564 55.713C213.038 55.791 213.485 55.776 213.905 55.668C214.325 55.56 214.697 55.359 215.021 55.065C215.345 54.765 215.597 54.372 215.777 53.886C215.957 53.4 216.047 52.821 216.047 52.149C216.047 51.471 215.957 50.889 215.777 50.403C215.603 49.917 215.357 49.524 215.039 49.224C214.721 48.924 214.349 48.72 213.923 48.612C213.503 48.504 213.05 48.492 212.564 48.576V55.713ZM223.894 57.27C222.94 57.27 222.106 57.06 221.392 56.64C220.684 56.214 220.132 55.623 219.736 54.867C219.34 54.105 219.142 53.217 219.142 52.203C219.142 51.141 219.337 50.223 219.727 49.449C220.117 48.669 220.66 48.069 221.356 47.649C222.058 47.223 222.88 47.01 223.822 47.01C224.8 47.01 225.631 47.235 226.315 47.685C227.005 48.135 227.521 48.777 227.863 49.611C228.211 50.445 228.361 51.438 228.313 52.59H226.693V52.014C226.675 50.82 226.432 49.929 225.964 49.341C225.496 48.747 224.8 48.45 223.876 48.45C222.886 48.45 222.133 48.768 221.617 49.404C221.101 50.04 220.843 50.952 220.843 52.14C220.843 53.286 221.101 54.174 221.617 54.804C222.133 55.434 222.868 55.749 223.822 55.749C224.464 55.749 225.022 55.602 225.496 55.308C225.97 55.014 226.342 54.591 226.612 54.039L228.151 54.57C227.773 55.428 227.203 56.094 226.441 56.568C225.685 57.036 224.836 57.27 223.894 57.27ZM220.303 52.59V51.303H227.485V52.59H220.303ZM230.308 57L230.317 47.28H231.937V51.96L236.014 47.28H238.093L233.8 52.14L238.597 57H236.356L231.937 52.32V57H230.308ZM242.066 57V48.738H238.682V47.28H247.052V48.738H243.668V57H242.066ZM256.712 47.28V57H255.164V49.836L250.07 57H248.747V47.28H250.295V54.345L255.398 47.28H256.712ZM259.224 57V47.28H263.364C263.61 47.28 263.874 47.295 264.156 47.325C264.444 47.349 264.705 47.394 264.939 47.46C265.461 47.598 265.89 47.883 266.226 48.315C266.568 48.741 266.739 49.281 266.739 49.935C266.739 50.301 266.682 50.619 266.568 50.889C266.46 51.159 266.304 51.393 266.1 51.591C266.01 51.681 265.911 51.762 265.803 51.834C265.695 51.906 265.587 51.963 265.479 52.005C265.689 52.041 265.902 52.122 266.118 52.248C266.46 52.434 266.727 52.695 266.919 53.031C267.117 53.367 267.216 53.796 267.216 54.318C267.216 54.978 267.057 55.524 266.739 55.956C266.421 56.382 265.983 56.676 265.425 56.838C265.191 56.904 264.933 56.949 264.651 56.973C264.369 56.991 264.096 57 263.832 57H259.224ZM260.844 55.695H263.742C263.868 55.695 264.018 55.683 264.192 55.659C264.372 55.635 264.531 55.605 264.669 55.569C264.981 55.479 265.206 55.311 265.344 55.065C265.488 54.819 265.56 54.552 265.56 54.264C265.56 53.88 265.452 53.568 265.236 53.328C265.026 53.088 264.747 52.938 264.399 52.878C264.273 52.842 264.135 52.821 263.985 52.815C263.841 52.809 263.712 52.806 263.598 52.806H260.844V55.695ZM260.844 51.483H263.256C263.424 51.483 263.601 51.474 263.787 51.456C263.973 51.432 264.135 51.393 264.273 51.339C264.549 51.237 264.75 51.069 264.876 50.835C265.008 50.595 265.074 50.334 265.074 50.052C265.074 49.74 265.002 49.467 264.858 49.233C264.72 48.993 264.507 48.828 264.219 48.738C264.027 48.666 263.811 48.627 263.571 48.621C263.337 48.609 263.187 48.603 263.121 48.603H260.844V51.483ZM269.015 57V47.28H270.617V51.375H275.729V47.28H277.331V57H275.729V52.896H270.617V57H269.015ZM283.992 57.27C283.026 57.27 282.192 57.051 281.49 56.613C280.794 56.175 280.257 55.569 279.879 54.795C279.501 54.021 279.312 53.133 279.312 52.131C279.312 51.111 279.504 50.217 279.888 49.449C280.272 48.681 280.815 48.084 281.517 47.658C282.219 47.226 283.044 47.01 283.992 47.01C284.964 47.01 285.801 47.229 286.503 47.667C287.205 48.099 287.742 48.702 288.114 49.476C288.492 50.244 288.681 51.129 288.681 52.131C288.681 53.145 288.492 54.039 288.114 54.813C287.736 55.581 287.196 56.184 286.494 56.622C285.792 57.054 284.958 57.27 283.992 57.27ZM283.992 55.749C285 55.749 285.75 55.413 286.242 54.741C286.734 54.069 286.98 53.199 286.98 52.131C286.98 51.033 286.731 50.16 286.233 49.512C285.735 48.858 284.988 48.531 283.992 48.531C283.314 48.531 282.756 48.684 282.318 48.99C281.88 49.296 281.553 49.719 281.337 50.259C281.121 50.799 281.013 51.423 281.013 52.131C281.013 53.223 281.265 54.099 281.769 54.759C282.273 55.419 283.014 55.749 283.992 55.749ZM290.599 57V55.236H292.363V57H290.599ZM298.766 57V44.04H308.882V57H307.28V45.561H300.368V57H298.766ZM315.545 57.27C314.579 57.27 313.745 57.051 313.043 56.613C312.347 56.175 311.81 55.569 311.432 54.795C311.054 54.021 310.865 53.133 310.865 52.131C310.865 51.111 311.057 50.217 311.441 49.449C311.825 48.681 312.368 48.084 313.07 47.658C313.772 47.226 314.597 47.01 315.545 47.01C316.517 47.01 317.354 47.229 318.056 47.667C318.758 48.099 319.295 48.702 319.667 49.476C320.045 50.244 320.234 51.129 320.234 52.131C320.234 53.145 320.045 54.039 319.667 54.813C319.289 55.581 318.749 56.184 318.047 56.622C317.345 57.054 316.511 57.27 315.545 57.27ZM315.545 55.749C316.553 55.749 317.303 55.413 317.795 54.741C318.287 54.069 318.533 53.199 318.533 52.131C318.533 51.033 318.284 50.16 317.786 49.512C317.288 48.858 316.541 48.531 315.545 48.531C314.867 48.531 314.309 48.684 313.871 48.99C313.433 49.296 313.106 49.719 312.89 50.259C312.674 50.799 312.566 51.423 312.566 52.131C312.566 53.223 312.818 54.099 313.322 54.759C313.826 55.419 314.567 55.749 315.545 55.749ZM326.31 57.27C325.326 57.27 324.489 57.051 323.799 56.613C323.115 56.169 322.593 55.56 322.233 54.786C321.873 54.012 321.687 53.13 321.675 52.14C321.687 51.126 321.876 50.235 322.242 49.467C322.614 48.693 323.145 48.09 323.835 47.658C324.525 47.226 325.356 47.01 326.328 47.01C327.354 47.01 328.236 47.262 328.974 47.766C329.718 48.27 330.216 48.96 330.468 49.836L328.884 50.313C328.68 49.749 328.347 49.311 327.885 48.999C327.429 48.687 326.904 48.531 326.31 48.531C325.644 48.531 325.095 48.687 324.663 48.999C324.231 49.305 323.91 49.731 323.7 50.277C323.49 50.817 323.382 51.438 323.376 52.14C323.388 53.22 323.637 54.093 324.123 54.759C324.615 55.419 325.344 55.749 326.31 55.749C326.946 55.749 327.474 55.605 327.894 55.317C328.314 55.023 328.632 54.6 328.848 54.048L330.468 54.471C330.132 55.377 329.607 56.07 328.893 56.55C328.179 57.03 327.318 57.27 326.31 57.27ZM332.296 57V47.28H333.673L337.363 54.822L341.053 47.28H342.43V57H340.882V50.619L337.786 57H336.94L333.844 50.619V57H332.296ZM349.084 57.27C348.118 57.27 347.284 57.051 346.582 56.613C345.886 56.175 345.349 55.569 344.971 54.795C344.593 54.021 344.404 53.133 344.404 52.131C344.404 51.111 344.596 50.217 344.98 49.449C345.364 48.681 345.907 48.084 346.609 47.658C347.311 47.226 348.136 47.01 349.084 47.01C350.056 47.01 350.893 47.229 351.595 47.667C352.297 48.099 352.834 48.702 353.206 49.476C353.584 50.244 353.773 51.129 353.773 52.131C353.773 53.145 353.584 54.039 353.206 54.813C352.828 55.581 352.288 56.184 351.586 56.622C350.884 57.054 350.05 57.27 349.084 57.27ZM349.084 55.749C350.092 55.749 350.842 55.413 351.334 54.741C351.826 54.069 352.072 53.199 352.072 52.131C352.072 51.033 351.823 50.16 351.325 49.512C350.827 48.858 350.08 48.531 349.084 48.531C348.406 48.531 347.848 48.684 347.41 48.99C346.972 49.296 346.645 49.719 346.429 50.259C346.213 50.799 346.105 51.423 346.105 52.131C346.105 53.223 346.357 54.099 346.861 54.759C347.365 55.419 348.106 55.749 349.084 55.749ZM358.117 57V48.738H354.733V47.28H363.103V48.738H359.719V57H358.117ZM369.271 57.27C368.359 57.27 367.591 57.045 366.967 56.595C366.343 56.139 365.869 55.524 365.545 54.75C365.227 53.97 365.068 53.097 365.068 52.131C365.068 51.153 365.227 50.277 365.545 49.503C365.869 48.729 366.343 48.12 366.967 47.676C367.597 47.232 368.368 47.01 369.28 47.01C370.18 47.01 370.954 47.235 371.602 47.685C372.256 48.129 372.757 48.738 373.105 49.512C373.453 50.286 373.627 51.159 373.627 52.131C373.627 53.103 373.453 53.976 373.105 54.75C372.757 55.524 372.256 56.139 371.602 56.595C370.954 57.045 370.177 57.27 369.271 57.27ZM364.798 61.32V47.28H366.229V54.435H366.409V61.32H364.798ZM369.073 55.803C369.715 55.803 370.246 55.641 370.666 55.317C371.086 54.993 371.401 54.555 371.611 54.003C371.821 53.445 371.926 52.821 371.926 52.131C371.926 51.447 371.821 50.829 371.611 50.277C371.407 49.725 371.089 49.287 370.657 48.963C370.231 48.639 369.688 48.477 369.028 48.477C368.398 48.477 367.876 48.633 367.462 48.945C367.048 49.251 366.739 49.68 366.535 50.232C366.331 50.778 366.229 51.411 366.229 52.131C366.229 52.839 366.328 53.472 366.526 54.03C366.73 54.582 367.042 55.017 367.462 55.335C367.882 55.647 368.419 55.803 369.073 55.803ZM379.812 57.27C378.858 57.27 378.024 57.06 377.31 56.64C376.602 56.214 376.05 55.623 375.654 54.867C375.258 54.105 375.06 53.217 375.06 52.203C375.06 51.141 375.255 50.223 375.645 49.449C376.035 48.669 376.578 48.069 377.274 47.649C377.976 47.223 378.798 47.01 379.74 47.01C380.718 47.01 381.549 47.235 382.233 47.685C382.923 48.135 383.439 48.777 383.781 49.611C384.129 50.445 384.279 51.438 384.231 52.59H382.611V52.014C382.593 50.82 382.35 49.929 381.882 49.341C381.414 48.747 380.718 48.45 379.794 48.45C378.804 48.45 378.051 48.768 377.535 49.404C377.019 50.04 376.761 50.952 376.761 52.14C376.761 53.286 377.019 54.174 377.535 54.804C378.051 55.434 378.786 55.749 379.74 55.749C380.382 55.749 380.94 55.602 381.414 55.308C381.888 55.014 382.26 54.591 382.53 54.039L384.069 54.57C383.691 55.428 383.121 56.094 382.359 56.568C381.603 57.036 380.754 57.27 379.812 57.27ZM376.221 52.59V51.303H383.403V52.59H376.221ZM386.226 57V47.28H390.366C390.612 47.28 390.876 47.295 391.158 47.325C391.446 47.349 391.707 47.394 391.941 47.46C392.463 47.598 392.892 47.883 393.228 48.315C393.57 48.741 393.741 49.281 393.741 49.935C393.741 50.301 393.684 50.619 393.57 50.889C393.462 51.159 393.306 51.393 393.102 51.591C393.012 51.681 392.913 51.762 392.805 51.834C392.697 51.906 392.589 51.963 392.481 52.005C392.691 52.041 392.904 52.122 393.12 52.248C393.462 52.434 393.729 52.695 393.921 53.031C394.119 53.367 394.218 53.796 394.218 54.318C394.218 54.978 394.059 55.524 393.741 55.956C393.423 56.382 392.985 56.676 392.427 56.838C392.193 56.904 391.935 56.949 391.653 56.973C391.371 56.991 391.098 57 390.834 57H386.226ZM387.846 55.695H390.744C390.87 55.695 391.02 55.683 391.194 55.659C391.374 55.635 391.533 55.605 391.671 55.569C391.983 55.479 392.208 55.311 392.346 55.065C392.49 54.819 392.562 54.552 392.562 54.264C392.562 53.88 392.454 53.568 392.238 53.328C392.028 53.088 391.749 52.938 391.401 52.878C391.275 52.842 391.137 52.821 390.987 52.815C390.843 52.809 390.714 52.806 390.6 52.806H387.846V55.695ZM387.846 51.483H390.258C390.426 51.483 390.603 51.474 390.789 51.456C390.975 51.432 391.137 51.393 391.275 51.339C391.551 51.237 391.752 51.069 391.878 50.835C392.01 50.595 392.076 50.334 392.076 50.052C392.076 49.74 392.004 49.467 391.86 49.233C391.722 48.993 391.509 48.828 391.221 48.738C391.029 48.666 390.813 48.627 390.573 48.621C390.339 48.609 390.189 48.603 390.123 48.603H387.846V51.483ZM22.61 81.32L24.491 76.208L24.518 77.72L20.27 67.28H21.953L25.283 75.677H24.707L27.83 67.28H29.459L24.167 81.32H22.61ZM35.4095 77.27C34.4975 77.27 33.7295 77.045 33.1055 76.595C32.4815 76.139 32.0075 75.524 31.6835 74.75C31.3655 73.97 31.2065 73.097 31.2065 72.131C31.2065 71.153 31.3655 70.277 31.6835 69.503C32.0075 68.729 32.4815 68.12 33.1055 67.676C33.7355 67.232 34.5065 67.01 35.4185 67.01C36.3185 67.01 37.0925 67.235 37.7405 67.685C38.3945 68.129 38.8955 68.738 39.2435 69.512C39.5915 70.286 39.7655 71.159 39.7655 72.131C39.7655 73.103 39.5915 73.976 39.2435 74.75C38.8955 75.524 38.3945 76.139 37.7405 76.595C37.0925 77.045 36.3155 77.27 35.4095 77.27ZM30.9365 81.32V67.28H32.3675V74.435H32.5475V81.32H30.9365ZM35.2115 75.803C35.8535 75.803 36.3845 75.641 36.8045 75.317C37.2245 74.993 37.5395 74.555 37.7495 74.003C37.9595 73.445 38.0645 72.821 38.0645 72.131C38.0645 71.447 37.9595 70.829 37.7495 70.277C37.5455 69.725 37.2275 69.287 36.7955 68.963C36.3695 68.639 35.8265 68.477 35.1665 68.477C34.5365 68.477 34.0145 68.633 33.6005 68.945C33.1865 69.251 32.8775 69.68 32.6735 70.232C32.4695 70.778 32.3675 71.411 32.3675 72.131C32.3675 72.839 32.4665 73.472 32.6645 74.03C32.8685 74.582 33.1805 75.017 33.6005 75.335C34.0205 75.647 34.5575 75.803 35.2115 75.803ZM45.8785 77.27C44.9125 77.27 44.0785 77.051 43.3765 76.613C42.6805 76.175 42.1435 75.569 41.7655 74.795C41.3875 74.021 41.1985 73.133 41.1985 72.131C41.1985 71.111 41.3905 70.217 41.7745 69.449C42.1585 68.681 42.7015 68.084 43.4035 67.658C44.1055 67.226 44.9305 67.01 45.8785 67.01C46.8505 67.01 47.6875 67.229 48.3895 67.667C49.0915 68.099 49.6285 68.702 50.0005 69.476C50.3785 70.244 50.5675 71.129 50.5675 72.131C50.5675 73.145 50.3785 74.039 50.0005 74.813C49.6225 75.581 49.0825 76.184 48.3805 76.622C47.6785 77.054 46.8445 77.27 45.8785 77.27ZM45.8785 75.749C46.8865 75.749 47.6365 75.413 48.1285 74.741C48.6205 74.069 48.8665 73.199 48.8665 72.131C48.8665 71.033 48.6175 70.16 48.1195 69.512C47.6215 68.858 46.8745 68.531 45.8785 68.531C45.2005 68.531 44.6425 68.684 44.2045 68.99C43.7665 69.296 43.4395 69.719 43.2235 70.259C43.0075 70.799 42.8995 71.423 42.8995 72.131C42.8995 73.223 43.1515 74.099 43.6555 74.759C44.1595 75.419 44.9005 75.749 45.8785 75.749ZM52.5401 77L52.5491 67.28H54.1691V71.96L58.2461 67.28H60.3251L56.0321 72.14L60.8291 77H58.5881L54.1691 72.32V77H52.5401ZM61.5448 79.016L61.6438 78.269C61.8958 78.287 62.0848 78.239 62.2108 78.125C62.3368 78.011 62.4178 77.855 62.4538 77.657C62.4898 77.459 62.4958 77.24 62.4718 77H61.5448V74.966H63.3088V77.27C63.3088 77.9 63.1528 78.374 62.8408 78.692C62.5348 79.01 62.1028 79.118 61.5448 79.016ZM70.3291 77V67.28H74.4691C74.7151 67.28 74.9791 67.295 75.2611 67.325C75.5491 67.349 75.8101 67.394 76.0441 67.46C76.5661 67.598 76.9951 67.883 77.3311 68.315C77.6731 68.741 77.8441 69.281 77.8441 69.935C77.8441 70.301 77.7871 70.619 77.6731 70.889C77.5651 71.159 77.4091 71.393 77.2051 71.591C77.1151 71.681 77.0161 71.762 76.9081 71.834C76.8001 71.906 76.6921 71.963 76.5841 72.005C76.7941 72.041 77.0071 72.122 77.2231 72.248C77.5651 72.434 77.8321 72.695 78.0241 73.031C78.2221 73.367 78.3211 73.796 78.3211 74.318C78.3211 74.978 78.1621 75.524 77.8441 75.956C77.5261 76.382 77.0881 76.676 76.5301 76.838C76.2961 76.904 76.0381 76.949 75.7561 76.973C75.4741 76.991 75.2011 77 74.9371 77H70.3291ZM71.9491 75.695H74.8471C74.9731 75.695 75.1231 75.683 75.2971 75.659C75.4771 75.635 75.6361 75.605 75.7741 75.569C76.0861 75.479 76.3111 75.311 76.4491 75.065C76.5931 74.819 76.6651 74.552 76.6651 74.264C76.6651 73.88 76.5571 73.568 76.3411 73.328C76.1311 73.088 75.8521 72.938 75.5041 72.878C75.3781 72.842 75.2401 72.821 75.0901 72.815C74.9461 72.809 74.8171 72.806 74.7031 72.806H71.9491V75.695ZM71.9491 71.483H74.3611C74.5291 71.483 74.7061 71.474 74.8921 71.456C75.0781 71.432 75.2401 71.393 75.3781 71.339C75.6541 71.237 75.8551 71.069 75.9811 70.835C76.1131 70.595 76.1791 70.334 76.1791 70.052C76.1791 69.74 76.1071 69.467 75.9631 69.233C75.8251 68.993 75.6121 68.828 75.3241 68.738C75.1321 68.666 74.9161 68.627 74.6761 68.621C74.4421 68.609 74.2921 68.603 74.2261 68.603H71.9491V71.483ZM80.1291 77L80.1201 67.28H81.7311V70.799H83.2161C83.4981 70.799 83.7861 70.805 84.0801 70.817C84.3741 70.829 84.6291 70.856 84.8451 70.898C85.3491 71 85.7901 71.171 86.1681 71.411C86.5461 71.651 86.8401 71.975 87.0501 72.383C87.2601 72.791 87.3651 73.298 87.3651 73.904C87.3651 74.744 87.1461 75.41 86.7081 75.902C86.2761 76.388 85.7091 76.712 85.0071 76.874C84.7671 76.928 84.4911 76.964 84.1791 76.982C83.8731 76.994 83.5821 77 83.3061 77H80.1291ZM81.7311 75.677H83.3331C83.5131 75.677 83.7141 75.671 83.9361 75.659C84.1581 75.647 84.3561 75.617 84.5301 75.569C84.8361 75.479 85.1091 75.302 85.3491 75.038C85.5951 74.774 85.7181 74.396 85.7181 73.904C85.7181 73.406 85.5981 73.022 85.3581 72.752C85.1241 72.482 84.8151 72.305 84.4311 72.221C84.2571 72.179 84.0741 72.152 83.8821 72.14C83.6901 72.128 83.5071 72.122 83.3331 72.122H81.7311V75.677ZM88.4811 77V67.28H90.0831V77H88.4811ZM96.2041 77V67.28H104.169V77H102.567V68.801H97.8061V77H96.2041ZM110.83 77.27C109.864 77.27 109.03 77.051 108.328 76.613C107.632 76.175 107.095 75.569 106.717 74.795C106.339 74.021 106.15 73.133 106.15 72.131C106.15 71.111 106.342 70.217 106.726 69.449C107.11 68.681 107.653 68.084 108.355 67.658C109.057 67.226 109.882 67.01 110.83 67.01C111.802 67.01 112.639 67.229 113.341 67.667C114.043 68.099 114.58 68.702 114.952 69.476C115.33 70.244 115.519 71.129 115.519 72.131C115.519 73.145 115.33 74.039 114.952 74.813C114.574 75.581 114.034 76.184 113.332 76.622C112.63 77.054 111.796 77.27 110.83 77.27ZM110.83 75.749C111.838 75.749 112.588 75.413 113.08 74.741C113.572 74.069 113.818 73.199 113.818 72.131C113.818 71.033 113.569 70.16 113.071 69.512C112.573 68.858 111.826 68.531 110.83 68.531C110.152 68.531 109.594 68.684 109.156 68.99C108.718 69.296 108.391 69.719 108.175 70.259C107.959 70.799 107.851 71.423 107.851 72.131C107.851 73.223 108.103 74.099 108.607 74.759C109.111 75.419 109.852 75.749 110.83 75.749ZM121.685 66.146C121.235 66.146 120.824 66.035 120.452 65.813C120.08 65.591 119.783 65.297 119.561 64.931C119.339 64.559 119.228 64.145 119.228 63.689H120.524C120.524 64.007 120.638 64.28 120.866 64.508C121.094 64.736 121.367 64.85 121.685 64.85C122.009 64.85 122.282 64.736 122.504 64.508C122.732 64.28 122.846 64.007 122.846 63.689H124.142C124.142 64.145 124.031 64.559 123.809 64.931C123.593 65.297 123.296 65.591 122.918 65.813C122.546 66.035 122.135 66.146 121.685 66.146ZM125.456 67.28V77H123.908V69.836L118.814 77H117.491V67.28H119.039V74.345L124.142 67.28H125.456ZM127.968 77V67.28H129.345L133.035 74.822L136.725 67.28H138.102V77H136.554V70.619L133.458 77H132.612L129.516 70.619V77H127.968ZM144.827 77.27C143.873 77.27 143.039 77.06 142.325 76.64C141.617 76.214 141.065 75.623 140.669 74.867C140.273 74.105 140.075 73.217 140.075 72.203C140.075 71.141 140.27 70.223 140.66 69.449C141.05 68.669 141.593 68.069 142.289 67.649C142.991 67.223 143.813 67.01 144.755 67.01C145.733 67.01 146.564 67.235 147.248 67.685C147.938 68.135 148.454 68.777 148.796 69.611C149.144 70.445 149.294 71.438 149.246 72.59H147.626V72.014C147.608 70.82 147.365 69.929 146.897 69.341C146.429 68.747 145.733 68.45 144.809 68.45C143.819 68.45 143.066 68.768 142.55 69.404C142.034 70.04 141.776 70.952 141.776 72.14C141.776 73.286 142.034 74.174 142.55 74.804C143.066 75.434 143.801 75.749 144.755 75.749C145.397 75.749 145.955 75.602 146.429 75.308C146.903 75.014 147.275 74.591 147.545 74.039L149.084 74.57C148.706 75.428 148.136 76.094 147.374 76.568C146.618 77.036 145.769 77.27 144.827 77.27ZM141.236 72.59V71.303H148.418V72.59H141.236ZM153.648 77V68.738H150.264V67.28H158.634V68.738H155.25V77H153.648ZM164.55 77.27C163.596 77.27 162.762 77.06 162.048 76.64C161.34 76.214 160.788 75.623 160.392 74.867C159.996 74.105 159.798 73.217 159.798 72.203C159.798 71.141 159.993 70.223 160.383 69.449C160.773 68.669 161.316 68.069 162.012 67.649C162.714 67.223 163.536 67.01 164.478 67.01C165.456 67.01 166.287 67.235 166.971 67.685C167.661 68.135 168.177 68.777 168.519 69.611C168.867 70.445 169.017 71.438 168.969 72.59H167.349V72.014C167.331 70.82 167.088 69.929 166.62 69.341C166.152 68.747 165.456 68.45 164.532 68.45C163.542 68.45 162.789 68.768 162.273 69.404C161.757 70.04 161.499 70.952 161.499 72.14C161.499 73.286 161.757 74.174 162.273 74.804C162.789 75.434 163.524 75.749 164.478 75.749C165.12 75.749 165.678 75.602 166.152 75.308C166.626 75.014 166.998 74.591 167.268 74.039L168.807 74.57C168.429 75.428 167.859 76.094 167.097 76.568C166.341 77.036 165.492 77.27 164.55 77.27ZM160.959 72.59V71.303H168.141V72.59H160.959ZM170.441 79.016L170.54 78.269C170.792 78.287 170.981 78.239 171.107 78.125C171.233 78.011 171.314 77.855 171.35 77.657C171.386 77.459 171.392 77.24 171.368 77H170.441V74.966H172.205V77.27C172.205 77.9 172.049 78.374 171.737 78.692C171.431 79.01 170.999 79.118 170.441 79.016ZM179.226 77L179.235 67.28H180.855V71.96L184.932 67.28H187.011L182.718 72.14L187.515 77H185.274L180.855 72.32V77H179.226ZM191.173 77.27C190.447 77.27 189.838 77.138 189.346 76.874C188.86 76.604 188.491 76.25 188.239 75.812C187.993 75.374 187.87 74.894 187.87 74.372C187.87 73.862 187.966 73.421 188.158 73.049C188.356 72.671 188.632 72.359 188.986 72.113C189.34 71.861 189.763 71.663 190.255 71.519C190.717 71.393 191.233 71.285 191.803 71.195C192.379 71.099 192.961 71.012 193.549 70.934C194.137 70.856 194.686 70.781 195.196 70.709L194.62 71.042C194.638 70.178 194.464 69.539 194.098 69.125C193.738 68.711 193.114 68.504 192.226 68.504C191.638 68.504 191.122 68.639 190.678 68.909C190.24 69.173 189.931 69.605 189.751 70.205L188.23 69.746C188.464 68.894 188.917 68.225 189.589 67.739C190.261 67.253 191.146 67.01 192.244 67.01C193.126 67.01 193.882 67.169 194.512 67.487C195.148 67.799 195.604 68.273 195.88 68.909C196.018 69.209 196.105 69.536 196.141 69.89C196.177 70.238 196.195 70.604 196.195 70.988V77H194.773V74.669L195.106 74.885C194.74 75.671 194.227 76.265 193.567 76.667C192.913 77.069 192.115 77.27 191.173 77.27ZM191.416 75.929C191.992 75.929 192.49 75.827 192.91 75.623C193.336 75.413 193.678 75.14 193.936 74.804C194.194 74.462 194.362 74.09 194.44 73.688C194.53 73.388 194.578 73.055 194.584 72.689C194.596 72.317 194.602 72.032 194.602 71.834L195.16 72.077C194.638 72.149 194.125 72.218 193.621 72.284C193.117 72.35 192.64 72.422 192.19 72.5C191.74 72.572 191.335 72.659 190.975 72.761C190.711 72.845 190.462 72.953 190.228 73.085C190 73.217 189.814 73.388 189.67 73.598C189.532 73.802 189.463 74.057 189.463 74.363C189.463 74.627 189.529 74.879 189.661 75.119C189.799 75.359 190.009 75.554 190.291 75.704C190.579 75.854 190.954 75.929 191.416 75.929ZM198.526 77L198.535 67.28H200.155V71.96L204.232 67.28H206.311L202.018 72.14L206.815 77H204.574L200.155 72.32V77H198.526ZM219.271 67.28V77H217.723V69.836L212.629 77H211.306V67.28H212.854V74.345L217.957 67.28H219.271ZM225.274 77.27C224.314 77.27 223.465 77.063 222.727 76.649C221.989 76.229 221.407 75.653 220.981 74.921L222.259 74.093C222.613 74.627 223.036 75.038 223.528 75.326C224.02 75.608 224.581 75.749 225.211 75.749C225.871 75.749 226.396 75.599 226.786 75.299C227.176 74.993 227.371 74.582 227.371 74.066C227.371 73.682 227.275 73.388 227.083 73.184C226.891 72.98 226.615 72.839 226.255 72.761C225.895 72.683 225.466 72.644 224.968 72.644H223.96V71.321H224.959C225.589 71.321 226.102 71.219 226.498 71.015C226.894 70.811 227.092 70.463 227.092 69.971C227.092 69.467 226.906 69.101 226.534 68.873C226.168 68.639 225.73 68.522 225.22 68.522C224.68 68.522 224.164 68.636 223.672 68.864C223.18 69.086 222.757 69.368 222.403 69.71L221.431 68.621C221.935 68.105 222.514 67.709 223.168 67.433C223.828 67.151 224.545 67.01 225.319 67.01C225.943 67.01 226.513 67.121 227.029 67.343C227.551 67.559 227.965 67.88 228.271 68.306C228.583 68.726 228.739 69.239 228.739 69.845C228.739 70.361 228.619 70.82 228.379 71.222C228.139 71.624 227.785 71.975 227.317 72.275L227.254 71.708C227.65 71.804 227.977 71.981 228.235 72.239C228.499 72.491 228.694 72.791 228.82 73.139C228.946 73.487 229.009 73.85 229.009 74.228C229.009 74.864 228.841 75.41 228.505 75.866C228.175 76.316 227.728 76.664 227.164 76.91C226.6 77.15 225.97 77.27 225.274 77.27ZM239.061 63.968L238.962 64.715C238.716 64.697 238.53 64.745 238.404 64.859C238.278 64.973 238.197 65.129 238.161 65.327C238.125 65.525 238.116 65.744 238.134 65.984H239.061V68.018H237.297V65.714C237.297 65.084 237.45 64.61 237.756 64.292C238.068 63.968 238.503 63.86 239.061 63.968ZM236.532 63.968L236.433 64.715C236.187 64.697 236.001 64.745 235.875 64.859C235.749 64.973 235.668 65.129 235.632 65.327C235.596 65.525 235.587 65.744 235.605 65.984H236.532V68.018H234.768V65.714C234.768 65.084 234.921 64.61 235.227 64.292C235.539 63.968 235.974 63.86 236.532 63.968ZM240.495 79.16V75.677C241.041 75.677 241.431 75.5 241.665 75.146C241.899 74.786 242.088 74.195 242.232 73.373C242.328 72.857 242.406 72.305 242.466 71.717C242.526 71.129 242.577 70.475 242.619 69.755C242.667 69.029 242.712 68.204 242.754 67.28H249.45V75.677H250.395V79.16H248.865V77H242.025V79.16H240.495ZM242.961 75.677H247.848V68.603H244.203C244.185 69.029 244.161 69.476 244.131 69.944C244.101 70.406 244.065 70.868 244.023 71.33C243.987 71.792 243.942 72.23 243.888 72.644C243.84 73.052 243.783 73.418 243.717 73.742C243.639 74.192 243.549 74.573 243.447 74.885C243.345 75.197 243.183 75.461 242.961 75.677ZM252.201 77L252.192 67.28H253.803V70.799H255.288C255.57 70.799 255.858 70.805 256.152 70.817C256.446 70.829 256.701 70.856 256.917 70.898C257.421 71 257.862 71.171 258.24 71.411C258.618 71.651 258.912 71.975 259.122 72.383C259.332 72.791 259.437 73.298 259.437 73.904C259.437 74.744 259.218 75.41 258.78 75.902C258.348 76.388 257.781 76.712 257.079 76.874C256.839 76.928 256.563 76.964 256.251 76.982C255.945 76.994 255.654 77 255.378 77H252.201ZM253.803 75.677H255.405C255.585 75.677 255.786 75.671 256.008 75.659C256.23 75.647 256.428 75.617 256.602 75.569C256.908 75.479 257.181 75.302 257.421 75.038C257.667 74.774 257.79 74.396 257.79 73.904C257.79 73.406 257.67 73.022 257.43 72.752C257.196 72.482 256.887 72.305 256.503 72.221C256.329 72.179 256.146 72.152 255.954 72.14C255.762 72.128 255.579 72.122 255.405 72.122H253.803V75.677ZM260.553 77V67.28H262.155V77H260.553ZM269.146 77.27C268.234 77.27 267.466 77.045 266.842 76.595C266.218 76.139 265.744 75.524 265.42 74.75C265.102 73.97 264.943 73.097 264.943 72.131C264.943 71.153 265.102 70.277 265.42 69.503C265.744 68.729 266.218 68.12 266.842 67.676C267.472 67.232 268.243 67.01 269.155 67.01C270.055 67.01 270.829 67.235 271.477 67.685C272.131 68.129 272.632 68.738 272.98 69.512C273.328 70.286 273.502 71.159 273.502 72.131C273.502 73.103 273.328 73.976 272.98 74.75C272.632 75.524 272.131 76.139 271.477 76.595C270.829 77.045 270.052 77.27 269.146 77.27ZM264.673 81.32V67.28H266.104V74.435H266.284V81.32H264.673ZM268.948 75.803C269.59 75.803 270.121 75.641 270.541 75.317C270.961 74.993 271.276 74.555 271.486 74.003C271.696 73.445 271.801 72.821 271.801 72.131C271.801 71.447 271.696 70.829 271.486 70.277C271.282 69.725 270.964 69.287 270.532 68.963C270.106 68.639 269.563 68.477 268.903 68.477C268.273 68.477 267.751 68.633 267.337 68.945C266.923 69.251 266.614 69.68 266.41 70.232C266.206 70.778 266.104 71.411 266.104 72.131C266.104 72.839 266.203 73.472 266.401 74.03C266.605 74.582 266.917 75.017 267.337 75.335C267.757 75.647 268.294 75.803 268.948 75.803ZM281.478 77V73.481H279.381C279.135 73.481 278.862 73.472 278.562 73.454C278.268 73.43 277.992 73.397 277.734 73.355C277.032 73.223 276.438 72.914 275.952 72.428C275.472 71.942 275.232 71.27 275.232 70.412C275.232 69.578 275.457 68.909 275.907 68.405C276.363 67.895 276.924 67.565 277.59 67.415C277.89 67.343 278.193 67.304 278.499 67.298C278.811 67.286 279.075 67.28 279.291 67.28H283.08L283.089 77H281.478ZM274.935 77L277.518 73.04H279.246L276.663 77H274.935ZM279.264 72.158H281.478V68.603H279.264C279.126 68.603 278.943 68.609 278.715 68.621C278.493 68.633 278.28 68.669 278.076 68.729C277.884 68.783 277.695 68.882 277.509 69.026C277.329 69.17 277.179 69.356 277.059 69.584C276.939 69.812 276.879 70.082 276.879 70.394C276.879 70.844 277.005 71.21 277.257 71.492C277.509 71.768 277.815 71.954 278.175 72.05C278.373 72.098 278.568 72.128 278.76 72.14C278.958 72.152 279.126 72.158 279.264 72.158ZM285.608 77V67.28H289.748C289.994 67.28 290.258 67.295 290.54 67.325C290.828 67.349 291.089 67.394 291.323 67.46C291.845 67.598 292.274 67.883 292.61 68.315C292.952 68.741 293.123 69.281 293.123 69.935C293.123 70.301 293.066 70.619 292.952 70.889C292.844 71.159 292.688 71.393 292.484 71.591C292.394 71.681 292.295 71.762 292.187 71.834C292.079 71.906 291.971 71.963 291.863 72.005C292.073 72.041 292.286 72.122 292.502 72.248C292.844 72.434 293.111 72.695 293.303 73.031C293.501 73.367 293.6 73.796 293.6 74.318C293.6 74.978 293.441 75.524 293.123 75.956C292.805 76.382 292.367 76.676 291.809 76.838C291.575 76.904 291.317 76.949 291.035 76.973C290.753 76.991 290.48 77 290.216 77H285.608ZM287.228 75.695H290.126C290.252 75.695 290.402 75.683 290.576 75.659C290.756 75.635 290.915 75.605 291.053 75.569C291.365 75.479 291.59 75.311 291.728 75.065C291.872 74.819 291.944 74.552 291.944 74.264C291.944 73.88 291.836 73.568 291.62 73.328C291.41 73.088 291.131 72.938 290.783 72.878C290.657 72.842 290.519 72.821 290.369 72.815C290.225 72.809 290.096 72.806 289.982 72.806H287.228V75.695ZM287.228 71.483H289.64C289.808 71.483 289.985 71.474 290.171 71.456C290.357 71.432 290.519 71.393 290.657 71.339C290.933 71.237 291.134 71.069 291.26 70.835C291.392 70.595 291.458 70.334 291.458 70.052C291.458 69.74 291.386 69.467 291.242 69.233C291.104 68.993 290.891 68.828 290.603 68.738C290.411 68.666 290.195 68.627 289.955 68.621C289.721 68.609 289.571 68.603 289.505 68.603H287.228V71.483ZM299.548 77.27C298.582 77.27 297.748 77.051 297.046 76.613C296.35 76.175 295.813 75.569 295.435 74.795C295.057 74.021 294.868 73.133 294.868 72.131C294.868 71.111 295.06 70.217 295.444 69.449C295.828 68.681 296.371 68.084 297.073 67.658C297.775 67.226 298.6 67.01 299.548 67.01C300.52 67.01 301.357 67.229 302.059 67.667C302.761 68.099 303.298 68.702 303.67 69.476C304.048 70.244 304.237 71.129 304.237 72.131C304.237 73.145 304.048 74.039 303.67 74.813C303.292 75.581 302.752 76.184 302.05 76.622C301.348 77.054 300.514 77.27 299.548 77.27ZM299.548 75.749C300.556 75.749 301.306 75.413 301.798 74.741C302.29 74.069 302.536 73.199 302.536 72.131C302.536 71.033 302.287 70.16 301.789 69.512C301.291 68.858 300.544 68.531 299.548 68.531C298.87 68.531 298.312 68.684 297.874 68.99C297.436 69.296 297.109 69.719 296.893 70.259C296.677 70.799 296.569 71.423 296.569 72.131C296.569 73.223 296.821 74.099 297.325 74.759C297.829 75.419 298.57 75.749 299.548 75.749ZM310.404 66.146C309.954 66.146 309.543 66.035 309.171 65.813C308.799 65.591 308.502 65.297 308.28 64.931C308.058 64.559 307.947 64.145 307.947 63.689H309.243C309.243 64.007 309.357 64.28 309.585 64.508C309.813 64.736 310.086 64.85 310.404 64.85C310.728 64.85 311.001 64.736 311.223 64.508C311.451 64.28 311.565 64.007 311.565 63.689H312.861C312.861 64.145 312.75 64.559 312.528 64.931C312.312 65.297 312.015 65.591 311.637 65.813C311.265 66.035 310.854 66.146 310.404 66.146ZM314.175 67.28V77H312.627V69.836L307.533 77H306.21V67.28H307.758V74.345L312.861 67.28H314.175ZM316.876 68L316.975 67.253C317.227 67.271 317.416 67.223 317.542 67.109C317.668 66.995 317.749 66.839 317.785 66.641C317.821 66.443 317.827 66.224 317.803 65.984H316.876V63.95H318.64V66.254C318.64 66.884 318.484 67.358 318.172 67.676C317.866 67.994 317.434 68.102 316.876 68ZM319.405 68L319.504 67.253C319.756 67.271 319.945 67.223 320.071 67.109C320.197 66.995 320.278 66.839 320.314 66.641C320.35 66.443 320.356 66.224 320.332 65.984H319.405V63.95H321.169V66.254C321.169 66.884 321.013 67.358 320.701 67.676C320.395 67.994 319.963 68.102 319.405 68ZM327.462 77V67.28H331.602C331.848 67.28 332.112 67.295 332.394 67.325C332.682 67.349 332.943 67.394 333.177 67.46C333.699 67.598 334.128 67.883 334.464 68.315C334.806 68.741 334.977 69.281 334.977 69.935C334.977 70.301 334.92 70.619 334.806 70.889C334.698 71.159 334.542 71.393 334.338 71.591C334.248 71.681 334.149 71.762 334.041 71.834C333.933 71.906 333.825 71.963 333.717 72.005C333.927 72.041 334.14 72.122 334.356 72.248C334.698 72.434 334.965 72.695 335.157 73.031C335.355 73.367 335.454 73.796 335.454 74.318C335.454 74.978 335.295 75.524 334.977 75.956C334.659 76.382 334.221 76.676 333.663 76.838C333.429 76.904 333.171 76.949 332.889 76.973C332.607 76.991 332.334 77 332.07 77H327.462ZM329.082 75.695H331.98C332.106 75.695 332.256 75.683 332.43 75.659C332.61 75.635 332.769 75.605 332.907 75.569C333.219 75.479 333.444 75.311 333.582 75.065C333.726 74.819 333.798 74.552 333.798 74.264C333.798 73.88 333.69 73.568 333.474 73.328C333.264 73.088 332.985 72.938 332.637 72.878C332.511 72.842 332.373 72.821 332.223 72.815C332.079 72.809 331.95 72.806 331.836 72.806H329.082V75.695ZM329.082 71.483H331.494C331.662 71.483 331.839 71.474 332.025 71.456C332.211 71.432 332.373 71.393 332.511 71.339C332.787 71.237 332.988 71.069 333.114 70.835C333.246 70.595 333.312 70.334 333.312 70.052C333.312 69.74 333.24 69.467 333.096 69.233C332.958 68.993 332.745 68.828 332.457 68.738C332.265 68.666 332.049 68.627 331.809 68.621C331.575 68.609 331.425 68.603 331.359 68.603H329.082V71.483ZM341.402 77.27C340.436 77.27 339.602 77.051 338.9 76.613C338.204 76.175 337.667 75.569 337.289 74.795C336.911 74.021 336.722 73.133 336.722 72.131C336.722 71.111 336.914 70.217 337.298 69.449C337.682 68.681 338.225 68.084 338.927 67.658C339.629 67.226 340.454 67.01 341.402 67.01C342.374 67.01 343.211 67.229 343.913 67.667C344.615 68.099 345.152 68.702 345.524 69.476C345.902 70.244 346.091 71.129 346.091 72.131C346.091 73.145 345.902 74.039 345.524 74.813C345.146 75.581 344.606 76.184 343.904 76.622C343.202 77.054 342.368 77.27 341.402 77.27ZM341.402 75.749C342.41 75.749 343.16 75.413 343.652 74.741C344.144 74.069 344.39 73.199 344.39 72.131C344.39 71.033 344.141 70.16 343.643 69.512C343.145 68.858 342.398 68.531 341.402 68.531C340.724 68.531 340.166 68.684 339.728 68.99C339.29 69.296 338.963 69.719 338.747 70.259C338.531 70.799 338.423 71.423 338.423 72.131C338.423 73.223 338.675 74.099 339.179 74.759C339.683 75.419 340.424 75.749 341.402 75.749ZM352.537 77.27C351.625 77.27 350.857 77.045 350.233 76.595C349.609 76.139 349.135 75.524 348.811 74.75C348.493 73.97 348.334 73.097 348.334 72.131C348.334 71.153 348.493 70.277 348.811 69.503C349.135 68.729 349.609 68.12 350.233 67.676C350.863 67.232 351.634 67.01 352.546 67.01C353.446 67.01 354.22 67.235 354.868 67.685C355.522 68.129 356.023 68.738 356.371 69.512C356.719 70.286 356.893 71.159 356.893 72.131C356.893 73.103 356.719 73.976 356.371 74.75C356.023 75.524 355.522 76.139 354.868 76.595C354.22 77.045 353.443 77.27 352.537 77.27ZM348.064 81.32V67.28H349.495V74.435H349.675V81.32H348.064ZM352.339 75.803C352.981 75.803 353.512 75.641 353.932 75.317C354.352 74.993 354.667 74.555 354.877 74.003C355.087 73.445 355.192 72.821 355.192 72.131C355.192 71.447 355.087 70.829 354.877 70.277C354.673 69.725 354.355 69.287 353.923 68.963C353.497 68.639 352.954 68.477 352.294 68.477C351.664 68.477 351.142 68.633 350.728 68.945C350.314 69.251 350.005 69.68 349.801 70.232C349.597 70.778 349.495 71.411 349.495 72.131C349.495 72.839 349.594 73.472 349.792 74.03C349.996 74.582 350.308 75.017 350.728 75.335C351.148 75.647 351.685 75.803 352.339 75.803ZM363.005 77.27C362.039 77.27 361.205 77.051 360.503 76.613C359.807 76.175 359.27 75.569 358.892 74.795C358.514 74.021 358.325 73.133 358.325 72.131C358.325 71.111 358.517 70.217 358.901 69.449C359.285 68.681 359.828 68.084 360.53 67.658C361.232 67.226 362.057 67.01 363.005 67.01C363.977 67.01 364.814 67.229 365.516 67.667C366.218 68.099 366.755 68.702 367.127 69.476C367.505 70.244 367.694 71.129 367.694 72.131C367.694 73.145 367.505 74.039 367.127 74.813C366.749 75.581 366.209 76.184 365.507 76.622C364.805 77.054 363.971 77.27 363.005 77.27ZM363.005 75.749C364.013 75.749 364.763 75.413 365.255 74.741C365.747 74.069 365.993 73.199 365.993 72.131C365.993 71.033 365.744 70.16 365.246 69.512C364.748 68.858 364.001 68.531 363.005 68.531C362.327 68.531 361.769 68.684 361.331 68.99C360.893 69.296 360.566 69.719 360.35 70.259C360.134 70.799 360.026 71.423 360.026 72.131C360.026 73.223 360.278 74.099 360.782 74.759C361.286 75.419 362.027 75.749 363.005 75.749ZM369.667 77V67.28H371.269V71.375H376.381V67.28H377.983V77H376.381V72.896H371.269V77H369.667ZM380.495 77L380.504 67.28H382.124V71.96L386.201 67.28H388.28L383.987 72.14L388.784 77H386.543L382.124 72.32V77H380.495ZM397.636 67.28V77H396.088V69.836L390.994 77H389.671V67.28H391.219V74.345L396.322 67.28H397.636ZM25.355 97.27C24.371 97.27 23.534 97.051 22.844 96.613C22.16 96.169 21.638 95.56 21.278 94.786C20.918 94.012 20.732 93.13 20.72 92.14C20.732 91.126 20.921 90.235 21.287 89.467C21.659 88.693 22.19 88.09 22.88 87.658C23.57 87.226 24.401 87.01 25.373 87.01C26.399 87.01 27.281 87.262 28.019 87.766C28.763 88.27 29.261 88.96 29.513 89.836L27.929 90.313C27.725 89.749 27.392 89.311 26.93 88.999C26.474 88.687 25.949 88.531 25.355 88.531C24.689 88.531 24.14 88.687 23.708 88.999C23.276 89.305 22.955 89.731 22.745 90.277C22.535 90.817 22.427 91.438 22.421 92.14C22.433 93.22 22.682 94.093 23.168 94.759C23.66 95.419 24.389 95.749 25.355 95.749C25.991 95.749 26.519 95.605 26.939 95.317C27.359 95.023 27.677 94.6 27.893 94.048L29.513 94.471C29.177 95.377 28.652 96.07 27.938 96.55C27.224 97.03 26.363 97.27 25.355 97.27ZM30.3662 99.16V95.677C30.9122 95.677 31.3022 95.5 31.5362 95.146C31.7702 94.786 31.9592 94.195 32.1032 93.373C32.1992 92.857 32.2772 92.305 32.3372 91.717C32.3972 91.129 32.4482 90.475 32.4902 89.755C32.5382 89.029 32.5832 88.204 32.6252 87.28H39.3212V95.677H40.2662V99.16H38.7362V97H31.8962V99.16H30.3662ZM32.8322 95.677H37.7192V88.603H34.0742C34.0562 89.029 34.0322 89.476 34.0022 89.944C33.9722 90.406 33.9362 90.868 33.8942 91.33C33.8582 91.792 33.8132 92.23 33.7592 92.644C33.7112 93.052 33.6542 93.418 33.5882 93.742C33.5102 94.192 33.4202 94.573 33.3182 94.885C33.2162 95.197 33.0542 95.461 32.8322 95.677ZM46.2845 97.27C45.3305 97.27 44.4965 97.06 43.7825 96.64C43.0745 96.214 42.5225 95.623 42.1265 94.867C41.7305 94.105 41.5325 93.217 41.5325 92.203C41.5325 91.141 41.7275 90.223 42.1175 89.449C42.5075 88.669 43.0505 88.069 43.7465 87.649C44.4485 87.223 45.2705 87.01 46.2125 87.01C47.1905 87.01 48.0215 87.235 48.7055 87.685C49.3955 88.135 49.9115 88.777 50.2535 89.611C50.6015 90.445 50.7515 91.438 50.7035 92.59H49.0835V92.014C49.0655 90.82 48.8225 89.929 48.3545 89.341C47.8865 88.747 47.1905 88.45 46.2665 88.45C45.2765 88.45 44.5235 88.768 44.0075 89.404C43.4915 90.04 43.2335 90.952 43.2335 92.14C43.2335 93.286 43.4915 94.174 44.0075 94.804C44.5235 95.434 45.2585 95.749 46.2125 95.749C46.8545 95.749 47.4125 95.602 47.8865 95.308C48.3605 95.014 48.7325 94.591 49.0025 94.039L50.5415 94.57C50.1635 95.428 49.5935 96.094 48.8315 96.568C48.0755 97.036 47.2265 97.27 46.2845 97.27ZM42.6935 92.59V91.303H49.8755V92.59H42.6935ZM51.8073 97V95.623C52.1673 95.689 52.4403 95.677 52.6263 95.587C52.8183 95.491 52.9593 95.326 53.0493 95.092C53.1453 94.852 53.2233 94.552 53.2833 94.192C53.3853 93.622 53.4723 92.986 53.5443 92.284C53.6223 91.582 53.6913 90.814 53.7513 89.98C53.8173 89.14 53.8773 88.24 53.9313 87.28H60.7263V97H59.1243V88.801H55.3893C55.3533 89.353 55.3083 89.92 55.2543 90.502C55.2063 91.084 55.1553 91.651 55.1013 92.203C55.0473 92.749 54.9873 93.259 54.9213 93.733C54.8613 94.201 54.7953 94.606 54.7233 94.948C54.6093 95.536 54.4503 96.007 54.2463 96.361C54.0423 96.709 53.7483 96.934 53.3643 97.036C52.9803 97.144 52.4613 97.132 51.8073 97ZM66.0171 97.27C65.2911 97.27 64.6821 97.138 64.1901 96.874C63.7041 96.604 63.3351 96.25 63.0831 95.812C62.8371 95.374 62.7141 94.894 62.7141 94.372C62.7141 93.862 62.8101 93.421 63.0021 93.049C63.2001 92.671 63.4761 92.359 63.8301 92.113C64.1841 91.861 64.6071 91.663 65.0991 91.519C65.5611 91.393 66.0771 91.285 66.6471 91.195C67.2231 91.099 67.8051 91.012 68.3931 90.934C68.9811 90.856 69.5301 90.781 70.0401 90.709L69.4641 91.042C69.4821 90.178 69.3081 89.539 68.9421 89.125C68.5821 88.711 67.9581 88.504 67.0701 88.504C66.4821 88.504 65.9661 88.639 65.5221 88.909C65.0841 89.173 64.7751 89.605 64.5951 90.205L63.0741 89.746C63.3081 88.894 63.7611 88.225 64.4331 87.739C65.1051 87.253 65.9901 87.01 67.0881 87.01C67.9701 87.01 68.7261 87.169 69.3561 87.487C69.9921 87.799 70.4481 88.273 70.7241 88.909C70.8621 89.209 70.9491 89.536 70.9851 89.89C71.0211 90.238 71.0391 90.604 71.0391 90.988V97H69.6171V94.669L69.9501 94.885C69.5841 95.671 69.0711 96.265 68.4111 96.667C67.7571 97.069 66.9591 97.27 66.0171 97.27ZM66.2601 95.929C66.8361 95.929 67.3341 95.827 67.7541 95.623C68.1801 95.413 68.5221 95.14 68.7801 94.804C69.0381 94.462 69.2061 94.09 69.2841 93.688C69.3741 93.388 69.4221 93.055 69.4281 92.689C69.4401 92.317 69.4461 92.032 69.4461 91.834L70.0041 92.077C69.4821 92.149 68.9691 92.218 68.4651 92.284C67.9611 92.35 67.4841 92.422 67.0341 92.5C66.5841 92.572 66.1791 92.659 65.8191 92.761C65.5551 92.845 65.3061 92.953 65.0721 93.085C64.8441 93.217 64.6581 93.388 64.5141 93.598C64.3761 93.802 64.3071 94.057 64.3071 94.363C64.3071 94.627 64.3731 94.879 64.5051 95.119C64.6431 95.359 64.8531 95.554 65.1351 95.704C65.4231 95.854 65.7981 95.929 66.2601 95.929ZM75.9531 97V88.738H72.5691V87.28H80.9391V88.738H77.5551V97H75.9531ZM82.6428 97L82.6338 87.28H84.2448V90.799H86.3418C86.6238 90.799 86.9118 90.805 87.2058 90.817C87.4998 90.829 87.7548 90.856 87.9708 90.898C88.4748 90.994 88.9158 91.162 89.2938 91.402C89.6718 91.642 89.9658 91.969 90.1758 92.383C90.3858 92.791 90.4908 93.298 90.4908 93.904C90.4908 94.744 90.2718 95.41 89.8338 95.902C89.4018 96.388 88.8348 96.712 88.1328 96.874C87.8928 96.928 87.6168 96.964 87.3048 96.982C86.9988 96.994 86.7078 97 86.4318 97H82.6428ZM84.2448 95.677H86.4588C86.6388 95.677 86.8398 95.671 87.0618 95.659C87.2838 95.647 87.4818 95.617 87.6558 95.569C87.9618 95.479 88.2348 95.302 88.4748 95.038C88.7208 94.774 88.8438 94.396 88.8438 93.904C88.8438 93.406 88.7238 93.022 88.4838 92.752C88.2498 92.482 87.9408 92.305 87.5568 92.221C87.3828 92.179 87.1998 92.152 87.0078 92.14C86.8158 92.128 86.6328 92.122 86.4588 92.122H84.2448V95.677ZM99.5735 97.27C98.5715 97.27 97.7135 97.03 96.9995 96.55C96.2855 96.07 95.7545 95.377 95.4065 94.471L97.0265 94.048C97.2485 94.6 97.5695 95.023 97.9895 95.317C98.4155 95.605 98.9405 95.749 99.5645 95.749C100.435 95.749 101.11 95.482 101.59 94.948C102.07 94.408 102.355 93.691 102.445 92.797H98.4665V91.474H102.445C102.361 90.604 102.085 89.896 101.617 89.35C101.149 88.804 100.477 88.531 99.6005 88.531C98.9945 88.531 98.4605 88.684 97.9985 88.99C97.5425 89.296 97.2065 89.737 96.9905 90.313L95.4065 89.836C95.6645 88.96 96.1655 88.27 96.9095 87.766C97.6535 87.262 98.5445 87.01 99.5825 87.01C100.543 87.01 101.368 87.226 102.058 87.658C102.748 88.09 103.276 88.693 103.642 89.467C104.014 90.241 104.2 91.135 104.2 92.149C104.2 93.157 104.017 94.045 103.651 94.813C103.285 95.581 102.757 96.184 102.067 96.622C101.377 97.054 100.546 97.27 99.5735 97.27ZM110.77 101.05V97.18C109.822 97.33 108.958 97.228 108.178 96.874C107.404 96.514 106.786 95.935 106.324 95.137C105.868 94.333 105.64 93.337 105.64 92.149C105.64 90.955 105.868 89.956 106.324 89.152C106.786 88.348 107.404 87.769 108.178 87.415C108.958 87.055 109.822 86.95 110.77 87.1V84.139H112.228V87.1C113.176 86.95 114.037 87.055 114.811 87.415C115.591 87.769 116.209 88.348 116.665 89.152C117.127 89.956 117.358 90.955 117.358 92.149C117.358 93.337 117.127 94.333 116.665 95.137C116.209 95.935 115.591 96.514 114.811 96.874C114.037 97.228 113.176 97.33 112.228 97.18V101.05H110.77ZM110.77 95.713V88.576C110.284 88.492 109.831 88.507 109.411 88.621C108.991 88.729 108.622 88.933 108.304 89.233C107.986 89.533 107.737 89.926 107.557 90.412C107.377 90.898 107.287 91.477 107.287 92.149C107.287 92.815 107.377 93.391 107.557 93.877C107.743 94.363 107.995 94.756 108.313 95.056C108.637 95.35 109.009 95.554 109.429 95.668C109.849 95.776 110.296 95.791 110.77 95.713ZM112.228 95.713C112.702 95.791 113.149 95.776 113.569 95.668C113.989 95.56 114.361 95.359 114.685 95.065C115.009 94.765 115.261 94.372 115.441 93.886C115.621 93.4 115.711 92.821 115.711 92.149C115.711 91.471 115.621 90.889 115.441 90.403C115.267 89.917 115.021 89.524 114.703 89.224C114.385 88.924 114.013 88.72 113.587 88.612C113.167 88.504 112.714 88.492 112.228 88.576V95.713ZM123.936 101.05V97.18C122.988 97.33 122.124 97.228 121.344 96.874C120.57 96.514 119.952 95.935 119.49 95.137C119.034 94.333 118.806 93.337 118.806 92.149C118.806 90.955 119.034 89.956 119.49 89.152C119.952 88.348 120.57 87.769 121.344 87.415C122.124 87.055 122.988 86.95 123.936 87.1V84.139H125.394V87.1C126.342 86.95 127.203 87.055 127.977 87.415C128.757 87.769 129.375 88.348 129.831 89.152C130.293 89.956 130.524 90.955 130.524 92.149C130.524 93.337 130.293 94.333 129.831 95.137C129.375 95.935 128.757 96.514 127.977 96.874C127.203 97.228 126.342 97.33 125.394 97.18V101.05H123.936ZM123.936 95.713V88.576C123.45 88.492 122.997 88.507 122.577 88.621C122.157 88.729 121.788 88.933 121.47 89.233C121.152 89.533 120.903 89.926 120.723 90.412C120.543 90.898 120.453 91.477 120.453 92.149C120.453 92.815 120.543 93.391 120.723 93.877C120.909 94.363 121.161 94.756 121.479 95.056C121.803 95.35 122.175 95.554 122.595 95.668C123.015 95.776 123.462 95.791 123.936 95.713ZM125.394 95.713C125.868 95.791 126.315 95.776 126.735 95.668C127.155 95.56 127.527 95.359 127.851 95.065C128.175 94.765 128.427 94.372 128.607 93.886C128.787 93.4 128.877 92.821 128.877 92.149C128.877 91.471 128.787 90.889 128.607 90.403C128.433 89.917 128.187 89.524 127.869 89.224C127.551 88.924 127.179 88.72 126.753 88.612C126.333 88.504 125.88 88.492 125.394 88.576V95.713ZM136.724 97.27C135.77 97.27 134.936 97.06 134.222 96.64C133.514 96.214 132.962 95.623 132.566 94.867C132.17 94.105 131.972 93.217 131.972 92.203C131.972 91.141 132.167 90.223 132.557 89.449C132.947 88.669 133.49 88.069 134.186 87.649C134.888 87.223 135.71 87.01 136.652 87.01C137.63 87.01 138.461 87.235 139.145 87.685C139.835 88.135 140.351 88.777 140.693 89.611C141.041 90.445 141.191 91.438 141.143 92.59H139.523V92.014C139.505 90.82 139.262 89.929 138.794 89.341C138.326 88.747 137.63 88.45 136.706 88.45C135.716 88.45 134.963 88.768 134.447 89.404C133.931 90.04 133.673 90.952 133.673 92.14C133.673 93.286 133.931 94.174 134.447 94.804C134.963 95.434 135.698 95.749 136.652 95.749C137.294 95.749 137.852 95.602 138.326 95.308C138.8 95.014 139.172 94.591 139.442 94.039L140.981 94.57C140.603 95.428 140.033 96.094 139.271 96.568C138.515 97.036 137.666 97.27 136.724 97.27ZM133.133 92.59V91.303H140.315V92.59H133.133ZM143.138 97L143.147 87.28H144.767V91.96L148.844 87.28H150.923L146.63 92.14L151.427 97H149.186L144.767 92.32V97H143.138ZM154.897 97V88.738H151.513V87.28H159.883V88.738H156.499V97H154.897ZM169.542 87.28V97H167.994V89.836L162.9 97H161.577V87.28H163.125V94.345L168.228 87.28H169.542ZM172.054 97V87.28H176.194C176.44 87.28 176.704 87.295 176.986 87.325C177.274 87.349 177.535 87.394 177.769 87.46C178.291 87.598 178.72 87.883 179.056 88.315C179.398 88.741 179.569 89.281 179.569 89.935C179.569 90.301 179.512 90.619 179.398 90.889C179.29 91.159 179.134 91.393 178.93 91.591C178.84 91.681 178.741 91.762 178.633 91.834C178.525 91.906 178.417 91.963 178.309 92.005C178.519 92.041 178.732 92.122 178.948 92.248C179.29 92.434 179.557 92.695 179.749 93.031C179.947 93.367 180.046 93.796 180.046 94.318C180.046 94.978 179.887 95.524 179.569 95.956C179.251 96.382 178.813 96.676 178.255 96.838C178.021 96.904 177.763 96.949 177.481 96.973C177.199 96.991 176.926 97 176.662 97H172.054ZM173.674 95.695H176.572C176.698 95.695 176.848 95.683 177.022 95.659C177.202 95.635 177.361 95.605 177.499 95.569C177.811 95.479 178.036 95.311 178.174 95.065C178.318 94.819 178.39 94.552 178.39 94.264C178.39 93.88 178.282 93.568 178.066 93.328C177.856 93.088 177.577 92.938 177.229 92.878C177.103 92.842 176.965 92.821 176.815 92.815C176.671 92.809 176.542 92.806 176.428 92.806H173.674V95.695ZM173.674 91.483H176.086C176.254 91.483 176.431 91.474 176.617 91.456C176.803 91.432 176.965 91.393 177.103 91.339C177.379 91.237 177.58 91.069 177.706 90.835C177.838 90.595 177.904 90.334 177.904 90.052C177.904 89.74 177.832 89.467 177.688 89.233C177.55 88.993 177.337 88.828 177.049 88.738C176.857 88.666 176.641 88.627 176.401 88.621C176.167 88.609 176.017 88.603 175.951 88.603H173.674V91.483ZM181.845 97V87.28H183.447V91.375H188.559V87.28H190.161V97H188.559V92.896H183.447V97H181.845ZM194.032 101.32L195.913 96.208L195.94 97.72L191.692 87.28H193.375L196.705 95.677H196.129L199.252 87.28H200.881L195.589 101.32H194.032ZM210.296 97.27C209.468 97.27 208.736 97.093 208.1 96.739C207.47 96.385 206.963 95.884 206.579 95.236C206.195 94.588 205.955 93.823 205.859 92.941H203.96V97H202.358V87.28H203.96V91.339H205.85C205.946 90.439 206.189 89.665 206.579 89.017C206.969 88.369 207.482 87.874 208.118 87.532C208.754 87.184 209.486 87.01 210.314 87.01C211.28 87.01 212.111 87.229 212.807 87.667C213.509 88.105 214.046 88.708 214.418 89.476C214.796 90.244 214.985 91.126 214.985 92.122C214.985 93.136 214.793 94.03 214.409 94.804C214.031 95.578 213.491 96.184 212.789 96.622C212.093 97.054 211.262 97.27 210.296 97.27ZM210.269 95.749C211.289 95.749 212.045 95.416 212.537 94.75C213.035 94.078 213.284 93.205 213.284 92.131C213.284 91.027 213.032 90.151 212.528 89.503C212.03 88.855 211.28 88.531 210.278 88.531C209.312 88.531 208.577 88.852 208.073 89.494C207.569 90.136 207.317 91.012 207.317 92.122C207.317 93.22 207.566 94.099 208.064 94.759C208.568 95.419 209.303 95.749 210.269 95.749ZM216.894 97V95.236H218.658V97H216.894Z" fill="#101012"></path></svg> 