<?xml version="1.0" encoding="UTF-8"?> <svg xmlns="http://www.w3.org/2000/svg" width="424" height="135" viewBox="0 0 424 135" fill="none"><path fill-rule="evenodd" clip-rule="evenodd" d="M418 29.099C418 18.9134 418 13.8206 416.018 9.93021C414.274 6.50813 411.492 3.72589 408.07 1.98225C404.179 0 399.087 0 388.901 0L29.099 0C18.9134 0 13.8206 0 9.93021 1.98225C6.50813 3.72589 3.72589 6.50813 1.98225 9.93021C0 13.8206 0 18.9134 0 29.099V104.901C0 115.087 0 120.179 1.98225 124.07C3.72589 127.492 6.50813 130.274 9.93021 132.018C13.8206 134 18.9134 134 29.099 134H388.901C399.087 134 404.179 134 408.07 132.018C411.492 130.274 414.274 127.492 416.018 124.07C418 120.179 418 115.087 418 104.901V29.099Z" fill="#BFB7DE"></path><path fill-rule="evenodd" clip-rule="evenodd" d="M417.475 117.282H399.254C399.254 126.657 406.854 134.257 416.228 134.257H423.503V133.858C421.768 132.402 420.331 130.604 419.291 128.562C417.93 125.891 417.57 122.613 417.475 117.282Z" fill="#BFB7DE"></path><path d="M21.26 34V21.04H22.718L27.614 31.363L32.483 21.04H33.959V33.991H32.438V24.559L28.037 34H27.182L22.781 24.559V34H21.26ZM36.4827 34L36.4737 24.28H38.0847V27.799H39.5697C39.8517 27.799 40.1397 27.805 40.4337 27.817C40.7277 27.829 40.9827 27.856 41.1987 27.898C41.7027 28 42.1437 28.171 42.5217 28.411C42.8997 28.651 43.1937 28.975 43.4037 29.383C43.6137 29.791 43.7187 30.298 43.7187 30.904C43.7187 31.744 43.4997 32.41 43.0617 32.902C42.6297 33.388 42.0627 33.712 41.3607 33.874C41.1207 33.928 40.8447 33.964 40.5327 33.982C40.2267 33.994 39.9357 34 39.6597 34H36.4827ZM38.0847 32.677H39.6867C39.8667 32.677 40.0677 32.671 40.2897 32.659C40.5117 32.647 40.7097 32.617 40.8837 32.569C41.1897 32.479 41.4627 32.302 41.7027 32.038C41.9487 31.774 42.0717 31.396 42.0717 30.904C42.0717 30.406 41.9517 30.022 41.7117 29.752C41.4777 29.482 41.1687 29.305 40.7847 29.221C40.6107 29.179 40.4277 29.152 40.2357 29.14C40.0437 29.128 39.8607 29.122 39.6867 29.122H38.0847V32.677ZM44.8347 34V24.28H46.4367V34H44.8347ZM60.5226 24.28V34H58.9746V26.836L53.8806 34H52.5576V24.28H54.1056V31.345L59.2086 24.28H60.5226ZM66.5262 34.27C65.5662 34.27 64.7172 34.063 63.9792 33.649C63.2412 33.229 62.6592 32.653 62.2332 31.921L63.5112 31.093C63.8652 31.627 64.2882 32.038 64.7802 32.326C65.2722 32.608 65.8332 32.749 66.4632 32.749C67.1232 32.749 67.6482 32.599 68.0382 32.299C68.4282 31.993 68.6232 31.582 68.6232 31.066C68.6232 30.682 68.5272 30.388 68.3352 30.184C68.1432 29.98 67.8672 29.839 67.5072 29.761C67.1472 29.683 66.7182 29.644 66.2202 29.644H65.2122V28.321H66.2112C66.8412 28.321 67.3542 28.219 67.7502 28.015C68.1462 27.811 68.3442 27.463 68.3442 26.971C68.3442 26.467 68.1582 26.101 67.7862 25.873C67.4202 25.639 66.9822 25.522 66.4722 25.522C65.9322 25.522 65.4162 25.636 64.9242 25.864C64.4322 26.086 64.0092 26.368 63.6552 26.71L62.6832 25.621C63.1872 25.105 63.7662 24.709 64.4202 24.433C65.0802 24.151 65.7972 24.01 66.5712 24.01C67.1952 24.01 67.7652 24.121 68.2812 24.343C68.8032 24.559 69.2172 24.88 69.5232 25.306C69.8352 25.726 69.9912 26.239 69.9912 26.845C69.9912 27.361 69.8712 27.82 69.6312 28.222C69.3912 28.624 69.0372 28.975 68.5692 29.275L68.5062 28.708C68.9022 28.804 69.2292 28.981 69.4872 29.239C69.7512 29.491 69.9462 29.791 70.0722 30.139C70.1982 30.487 70.2612 30.85 70.2612 31.228C70.2612 31.864 70.0932 32.41 69.7572 32.866C69.4272 33.316 68.9802 33.664 68.4162 33.91C67.8522 34.15 67.2222 34.27 66.5262 34.27ZM73.5866 38.32L75.4676 33.208L75.4946 34.72L71.2466 24.28H72.9296L76.2596 32.677H75.6836L78.8066 24.28H80.4356L75.1436 38.32H73.5866ZM87.7721 34V30.499C87.4481 30.661 87.0551 30.799 86.5931 30.913C86.1371 31.027 85.6481 31.084 85.1261 31.084C84.1361 31.084 83.3381 30.862 82.7321 30.418C82.1261 29.974 81.7301 29.335 81.5441 28.501C81.4901 28.249 81.4511 27.988 81.4271 27.718C81.4091 27.448 81.3971 27.202 81.3911 26.98C81.3851 26.758 81.3821 26.596 81.3821 26.494V24.28H83.0021V26.494C83.0021 26.668 83.0081 26.884 83.0201 27.142C83.0321 27.394 83.0621 27.64 83.1101 27.88C83.2301 28.474 83.4791 28.921 83.8571 29.221C84.2411 29.521 84.7811 29.671 85.4771 29.671C85.9451 29.671 86.3771 29.611 86.7731 29.491C87.1691 29.371 87.5021 29.212 87.7721 29.014V24.28H89.3831V34H87.7721ZM99.8625 24.28V34H98.3145V26.836L93.2205 34H91.8975V24.28H93.4455V31.345L98.5485 24.28H99.8625ZM102.374 34V24.28H103.751L107.441 31.822L111.131 24.28H112.508V34H110.96V27.619L107.864 34H107.018L103.922 27.619V34H102.374ZM118.616 34V24.28H126.581V34H124.979V25.801H120.218V34H118.616ZM133.566 34.27C132.654 34.27 131.886 34.045 131.262 33.595C130.638 33.139 130.164 32.524 129.84 31.75C129.522 30.97 129.363 30.097 129.363 29.131C129.363 28.153 129.522 27.277 129.84 26.503C130.164 25.729 130.638 25.12 131.262 24.676C131.892 24.232 132.663 24.01 133.575 24.01C134.475 24.01 135.249 24.235 135.897 24.685C136.551 25.129 137.052 25.738 137.4 26.512C137.748 27.286 137.922 28.159 137.922 29.131C137.922 30.103 137.748 30.976 137.4 31.75C137.052 32.524 136.551 33.139 135.897 33.595C135.249 34.045 134.472 34.27 133.566 34.27ZM129.093 38.32V24.28H130.524V31.435H130.704V38.32H129.093ZM133.368 32.803C134.01 32.803 134.541 32.641 134.961 32.317C135.381 31.993 135.696 31.555 135.906 31.003C136.116 30.445 136.221 29.821 136.221 29.131C136.221 28.447 136.116 27.829 135.906 27.277C135.702 26.725 135.384 26.287 134.952 25.963C134.526 25.639 133.983 25.477 133.323 25.477C132.693 25.477 132.171 25.633 131.757 25.945C131.343 26.251 131.034 26.68 130.83 27.232C130.626 27.778 130.524 28.411 130.524 29.131C130.524 29.839 130.623 30.472 130.821 31.03C131.025 31.582 131.337 32.017 131.757 32.335C132.177 32.647 132.714 32.803 133.368 32.803ZM144.035 34.27C143.069 34.27 142.235 34.051 141.533 33.613C140.837 33.175 140.3 32.569 139.922 31.795C139.544 31.021 139.355 30.133 139.355 29.131C139.355 28.111 139.547 27.217 139.931 26.449C140.315 25.681 140.858 25.084 141.56 24.658C142.262 24.226 143.087 24.01 144.035 24.01C145.007 24.01 145.844 24.229 146.546 24.667C147.248 25.099 147.785 25.702 148.157 26.476C148.535 27.244 148.724 28.129 148.724 29.131C148.724 30.145 148.535 31.039 148.157 31.813C147.779 32.581 147.239 33.184 146.537 33.622C145.835 34.054 145.001 34.27 144.035 34.27ZM144.035 32.749C145.043 32.749 145.793 32.413 146.285 31.741C146.777 31.069 147.023 30.199 147.023 29.131C147.023 28.033 146.774 27.16 146.276 26.512C145.778 25.858 145.031 25.531 144.035 25.531C143.357 25.531 142.799 25.684 142.361 25.99C141.923 26.296 141.596 26.719 141.38 27.259C141.164 27.799 141.056 28.423 141.056 29.131C141.056 30.223 141.308 31.099 141.812 31.759C142.316 32.419 143.057 32.749 144.035 32.749ZM154.8 34.27C153.816 34.27 152.979 34.051 152.289 33.613C151.605 33.169 151.083 32.56 150.723 31.786C150.363 31.012 150.177 30.13 150.165 29.14C150.177 28.126 150.366 27.235 150.732 26.467C151.104 25.693 151.635 25.09 152.325 24.658C153.015 24.226 153.846 24.01 154.818 24.01C155.844 24.01 156.726 24.262 157.464 24.766C158.208 25.27 158.706 25.96 158.958 26.836L157.374 27.313C157.17 26.749 156.837 26.311 156.375 25.999C155.919 25.687 155.394 25.531 154.8 25.531C154.134 25.531 153.585 25.687 153.153 25.999C152.721 26.305 152.4 26.731 152.19 27.277C151.98 27.817 151.872 28.438 151.866 29.14C151.878 30.22 152.127 31.093 152.613 31.759C153.105 32.419 153.834 32.749 154.8 32.749C155.436 32.749 155.964 32.605 156.384 32.317C156.804 32.023 157.122 31.6 157.338 31.048L158.958 31.471C158.622 32.377 158.097 33.07 157.383 33.55C156.669 34.03 155.808 34.27 154.8 34.27ZM163.193 34V25.738H159.809V24.28H168.179V25.738H164.795V34H163.193ZM169.883 34L169.874 24.28H171.485V27.799H172.97C173.252 27.799 173.54 27.805 173.834 27.817C174.128 27.829 174.383 27.856 174.599 27.898C175.103 28 175.544 28.171 175.922 28.411C176.3 28.651 176.594 28.975 176.804 29.383C177.014 29.791 177.119 30.298 177.119 30.904C177.119 31.744 176.9 32.41 176.462 32.902C176.03 33.388 175.463 33.712 174.761 33.874C174.521 33.928 174.245 33.964 173.933 33.982C173.627 33.994 173.336 34 173.06 34H169.883ZM171.485 32.677H173.087C173.267 32.677 173.468 32.671 173.69 32.659C173.912 32.647 174.11 32.617 174.284 32.569C174.59 32.479 174.863 32.302 175.103 32.038C175.349 31.774 175.472 31.396 175.472 30.904C175.472 30.406 175.352 30.022 175.112 29.752C174.878 29.482 174.569 29.305 174.185 29.221C174.011 29.179 173.828 29.152 173.636 29.14C173.444 29.128 173.261 29.122 173.087 29.122H171.485V32.677ZM178.235 34V24.28H179.837V34H178.235ZM186.576 34.27C185.622 34.27 184.788 34.06 184.074 33.64C183.366 33.214 182.814 32.623 182.418 31.867C182.022 31.105 181.824 30.217 181.824 29.203C181.824 28.141 182.019 27.223 182.409 26.449C182.799 25.669 183.342 25.069 184.038 24.649C184.74 24.223 185.562 24.01 186.504 24.01C187.482 24.01 188.313 24.235 188.997 24.685C189.687 25.135 190.203 25.777 190.545 26.611C190.893 27.445 191.043 28.438 190.995 29.59H189.375V29.014C189.357 27.82 189.114 26.929 188.646 26.341C188.178 25.747 187.482 25.45 186.558 25.45C185.568 25.45 184.815 25.768 184.299 26.404C183.783 27.04 183.525 27.952 183.525 29.14C183.525 30.286 183.783 31.174 184.299 31.804C184.815 32.434 185.55 32.749 186.504 32.749C187.146 32.749 187.704 32.602 188.178 32.308C188.652 32.014 189.024 31.591 189.294 31.039L190.833 31.57C190.455 32.428 189.885 33.094 189.123 33.568C188.367 34.036 187.518 34.27 186.576 34.27ZM182.985 29.59V28.303H190.167V29.59H182.985ZM204.558 24.28V34H203.01V26.836L197.916 34H196.593V24.28H198.141V31.345L203.244 24.28H204.558ZM214.777 34.27C213.793 34.27 212.956 34.051 212.266 33.613C211.582 33.169 211.06 32.56 210.7 31.786C210.34 31.012 210.154 30.13 210.142 29.14C210.154 28.126 210.343 27.235 210.709 26.467C211.081 25.693 211.612 25.09 212.302 24.658C212.992 24.226 213.823 24.01 214.795 24.01C215.821 24.01 216.703 24.262 217.441 24.766C218.185 25.27 218.683 25.96 218.935 26.836L217.351 27.313C217.147 26.749 216.814 26.311 216.352 25.999C215.896 25.687 215.371 25.531 214.777 25.531C214.111 25.531 213.562 25.687 213.13 25.999C212.698 26.305 212.377 26.731 212.167 27.277C211.957 27.817 211.849 28.438 211.843 29.14C211.855 30.22 212.104 31.093 212.59 31.759C213.082 32.419 213.811 32.749 214.777 32.749C215.413 32.749 215.941 32.605 216.361 32.317C216.781 32.023 217.099 31.6 217.315 31.048L218.935 31.471C218.599 32.377 218.074 33.07 217.36 33.55C216.646 34.03 215.785 34.27 214.777 34.27ZM223.447 34.27C222.721 34.27 222.112 34.138 221.62 33.874C221.134 33.604 220.765 33.25 220.513 32.812C220.267 32.374 220.144 31.894 220.144 31.372C220.144 30.862 220.24 30.421 220.432 30.049C220.63 29.671 220.906 29.359 221.26 29.113C221.614 28.861 222.037 28.663 222.529 28.519C222.991 28.393 223.507 28.285 224.077 28.195C224.653 28.099 225.235 28.012 225.823 27.934C226.411 27.856 226.96 27.781 227.47 27.709L226.894 28.042C226.912 27.178 226.738 26.539 226.372 26.125C226.012 25.711 225.388 25.504 224.5 25.504C223.912 25.504 223.396 25.639 222.952 25.909C222.514 26.173 222.205 26.605 222.025 27.205L220.504 26.746C220.738 25.894 221.191 25.225 221.863 24.739C222.535 24.253 223.42 24.01 224.518 24.01C225.4 24.01 226.156 24.169 226.786 24.487C227.422 24.799 227.878 25.273 228.154 25.909C228.292 26.209 228.379 26.536 228.415 26.89C228.451 27.238 228.469 27.604 228.469 27.988V34H227.047V31.669L227.38 31.885C227.014 32.671 226.501 33.265 225.841 33.667C225.187 34.069 224.389 34.27 223.447 34.27ZM223.69 32.929C224.266 32.929 224.764 32.827 225.184 32.623C225.61 32.413 225.952 32.14 226.21 31.804C226.468 31.462 226.636 31.09 226.714 30.688C226.804 30.388 226.852 30.055 226.858 29.689C226.87 29.317 226.876 29.032 226.876 28.834L227.434 29.077C226.912 29.149 226.399 29.218 225.895 29.284C225.391 29.35 224.914 29.422 224.464 29.5C224.014 29.572 223.609 29.659 223.249 29.761C222.985 29.845 222.736 29.953 222.502 30.085C222.274 30.217 222.088 30.388 221.944 30.598C221.806 30.802 221.737 31.057 221.737 31.363C221.737 31.627 221.803 31.879 221.935 32.119C222.073 32.359 222.283 32.554 222.565 32.704C222.853 32.854 223.228 32.929 223.69 32.929ZM230.8 34V24.28H232.177L235.867 31.822L239.557 24.28H240.934V34H239.386V27.619L236.29 34H235.444L232.348 27.619V34H230.8ZM243.448 34L243.439 24.28H245.05V27.799H246.535C246.817 27.799 247.105 27.805 247.399 27.817C247.693 27.829 247.948 27.856 248.164 27.898C248.668 28 249.109 28.171 249.487 28.411C249.865 28.651 250.159 28.975 250.369 29.383C250.579 29.791 250.684 30.298 250.684 30.904C250.684 31.744 250.465 32.41 250.027 32.902C249.595 33.388 249.028 33.712 248.326 33.874C248.086 33.928 247.81 33.964 247.498 33.982C247.192 33.994 246.901 34 246.625 34H243.448ZM245.05 32.677H246.652C246.832 32.677 247.033 32.671 247.255 32.659C247.477 32.647 247.675 32.617 247.849 32.569C248.155 32.479 248.428 32.302 248.668 32.038C248.914 31.774 249.037 31.396 249.037 30.904C249.037 30.406 248.917 30.022 248.677 29.752C248.443 29.482 248.134 29.305 247.75 29.221C247.576 29.179 247.393 29.152 247.201 29.14C247.009 29.128 246.826 29.122 246.652 29.122H245.05V32.677ZM251.8 34V24.28H253.402V34H251.8ZM260.14 34.27C259.186 34.27 258.352 34.06 257.638 33.64C256.93 33.214 256.378 32.623 255.982 31.867C255.586 31.105 255.388 30.217 255.388 29.203C255.388 28.141 255.583 27.223 255.973 26.449C256.363 25.669 256.906 25.069 257.602 24.649C258.304 24.223 259.126 24.01 260.068 24.01C261.046 24.01 261.877 24.235 262.561 24.685C263.251 25.135 263.767 25.777 264.109 26.611C264.457 27.445 264.607 28.438 264.559 29.59H262.939V29.014C262.921 27.82 262.678 26.929 262.21 26.341C261.742 25.747 261.046 25.45 260.122 25.45C259.132 25.45 258.379 25.768 257.863 26.404C257.347 27.04 257.089 27.952 257.089 29.14C257.089 30.286 257.347 31.174 257.863 31.804C258.379 32.434 259.114 32.749 260.068 32.749C260.71 32.749 261.268 32.602 261.742 32.308C262.216 32.014 262.588 31.591 262.858 31.039L264.397 31.57C264.019 32.428 263.449 33.094 262.687 33.568C261.931 34.036 261.082 34.27 260.14 34.27ZM256.549 29.59V28.303H263.731V29.59H256.549ZM273.667 34.27C272.665 34.27 271.807 34.03 271.093 33.55C270.379 33.07 269.848 32.377 269.5 31.471L271.12 31.048C271.342 31.6 271.663 32.023 272.083 32.317C272.509 32.605 273.034 32.749 273.658 32.749C274.528 32.749 275.203 32.482 275.683 31.948C276.163 31.408 276.448 30.691 276.538 29.797H272.56V28.474H276.538C276.454 27.604 276.178 26.896 275.71 26.35C275.242 25.804 274.57 25.531 273.694 25.531C273.088 25.531 272.554 25.684 272.092 25.99C271.636 26.296 271.3 26.737 271.084 27.313L269.5 26.836C269.758 25.96 270.259 25.27 271.003 24.766C271.747 24.262 272.638 24.01 273.676 24.01C274.636 24.01 275.461 24.226 276.151 24.658C276.841 25.09 277.369 25.693 277.735 26.467C278.107 27.241 278.293 28.135 278.293 29.149C278.293 30.157 278.11 31.045 277.744 31.813C277.378 32.581 276.85 33.184 276.16 33.622C275.47 34.054 274.639 34.27 273.667 34.27ZM284.864 38.05V34.18C283.916 34.33 283.052 34.228 282.272 33.874C281.498 33.514 280.88 32.935 280.418 32.137C279.962 31.333 279.734 30.337 279.734 29.149C279.734 27.955 279.962 26.956 280.418 26.152C280.88 25.348 281.498 24.769 282.272 24.415C283.052 24.055 283.916 23.95 284.864 24.1V21.139H286.322V24.1C287.27 23.95 288.131 24.055 288.905 24.415C289.685 24.769 290.303 25.348 290.759 26.152C291.221 26.956 291.452 27.955 291.452 29.149C291.452 30.337 291.221 31.333 290.759 32.137C290.303 32.935 289.685 33.514 288.905 33.874C288.131 34.228 287.27 34.33 286.322 34.18V38.05H284.864ZM284.864 32.713V25.576C284.378 25.492 283.925 25.507 283.505 25.621C283.085 25.729 282.716 25.933 282.398 26.233C282.08 26.533 281.831 26.926 281.651 27.412C281.471 27.898 281.381 28.477 281.381 29.149C281.381 29.815 281.471 30.391 281.651 30.877C281.837 31.363 282.089 31.756 282.407 32.056C282.731 32.35 283.103 32.554 283.523 32.668C283.943 32.776 284.39 32.791 284.864 32.713ZM286.322 32.713C286.796 32.791 287.243 32.776 287.663 32.668C288.083 32.56 288.455 32.359 288.779 32.065C289.103 31.765 289.355 31.372 289.535 30.886C289.715 30.4 289.805 29.821 289.805 29.149C289.805 28.471 289.715 27.889 289.535 27.403C289.361 26.917 289.115 26.524 288.797 26.224C288.479 25.924 288.107 25.72 287.681 25.612C287.261 25.504 286.808 25.492 286.322 25.576V32.713ZM298.03 38.05V34.18C297.082 34.33 296.218 34.228 295.438 33.874C294.664 33.514 294.046 32.935 293.584 32.137C293.128 31.333 292.9 30.337 292.9 29.149C292.9 27.955 293.128 26.956 293.584 26.152C294.046 25.348 294.664 24.769 295.438 24.415C296.218 24.055 297.082 23.95 298.03 24.1V21.139H299.488V24.1C300.436 23.95 301.297 24.055 302.071 24.415C302.851 24.769 303.469 25.348 303.925 26.152C304.387 26.956 304.618 27.955 304.618 29.149C304.618 30.337 304.387 31.333 303.925 32.137C303.469 32.935 302.851 33.514 302.071 33.874C301.297 34.228 300.436 34.33 299.488 34.18V38.05H298.03ZM298.03 32.713V25.576C297.544 25.492 297.091 25.507 296.671 25.621C296.251 25.729 295.882 25.933 295.564 26.233C295.246 26.533 294.997 26.926 294.817 27.412C294.637 27.898 294.547 28.477 294.547 29.149C294.547 29.815 294.637 30.391 294.817 30.877C295.003 31.363 295.255 31.756 295.573 32.056C295.897 32.35 296.269 32.554 296.689 32.668C297.109 32.776 297.556 32.791 298.03 32.713ZM299.488 32.713C299.962 32.791 300.409 32.776 300.829 32.668C301.249 32.56 301.621 32.359 301.945 32.065C302.269 31.765 302.521 31.372 302.701 30.886C302.881 30.4 302.971 29.821 302.971 29.149C302.971 28.471 302.881 27.889 302.701 27.403C302.527 26.917 302.281 26.524 301.963 26.224C301.645 25.924 301.273 25.72 300.847 25.612C300.427 25.504 299.974 25.492 299.488 25.576V32.713ZM310.818 34.27C309.864 34.27 309.03 34.06 308.316 33.64C307.608 33.214 307.056 32.623 306.66 31.867C306.264 31.105 306.066 30.217 306.066 29.203C306.066 28.141 306.261 27.223 306.651 26.449C307.041 25.669 307.584 25.069 308.28 24.649C308.982 24.223 309.804 24.01 310.746 24.01C311.724 24.01 312.555 24.235 313.239 24.685C313.929 25.135 314.445 25.777 314.787 26.611C315.135 27.445 315.285 28.438 315.237 29.59H313.617V29.014C313.599 27.82 313.356 26.929 312.888 26.341C312.42 25.747 311.724 25.45 310.8 25.45C309.81 25.45 309.057 25.768 308.541 26.404C308.025 27.04 307.767 27.952 307.767 29.14C307.767 30.286 308.025 31.174 308.541 31.804C309.057 32.434 309.792 32.749 310.746 32.749C311.388 32.749 311.946 32.602 312.42 32.308C312.894 32.014 313.266 31.591 313.536 31.039L315.075 31.57C314.697 32.428 314.127 33.094 313.365 33.568C312.609 34.036 311.76 34.27 310.818 34.27ZM307.227 29.59V28.303H314.409V29.59H307.227ZM317.231 34L317.24 24.28H318.86V28.96L322.937 24.28H325.016L320.723 29.14L325.52 34H323.279L318.86 29.32V34H317.231ZM328.99 34V25.738H325.606V24.28H333.976V25.738H330.592V34H328.99ZM343.636 24.28V34H342.088V26.836L336.994 34H335.671V24.28H337.219V31.345L342.322 24.28H343.636ZM346.147 34V24.28H350.287C350.533 24.28 350.797 24.295 351.079 24.325C351.367 24.349 351.628 24.394 351.862 24.46C352.384 24.598 352.813 24.883 353.149 25.315C353.491 25.741 353.662 26.281 353.662 26.935C353.662 27.301 353.605 27.619 353.491 27.889C353.383 28.159 353.227 28.393 353.023 28.591C352.933 28.681 352.834 28.762 352.726 28.834C352.618 28.906 352.51 28.963 352.402 29.005C352.612 29.041 352.825 29.122 353.041 29.248C353.383 29.434 353.65 29.695 353.842 30.031C354.04 30.367 354.139 30.796 354.139 31.318C354.139 31.978 353.98 32.524 353.662 32.956C353.344 33.382 352.906 33.676 352.348 33.838C352.114 33.904 351.856 33.949 351.574 33.973C351.292 33.991 351.019 34 350.755 34H346.147ZM347.767 32.695H350.665C350.791 32.695 350.941 32.683 351.115 32.659C351.295 32.635 351.454 32.605 351.592 32.569C351.904 32.479 352.129 32.311 352.267 32.065C352.411 31.819 352.483 31.552 352.483 31.264C352.483 30.88 352.375 30.568 352.159 30.328C351.949 30.088 351.67 29.938 351.322 29.878C351.196 29.842 351.058 29.821 350.908 29.815C350.764 29.809 350.635 29.806 350.521 29.806H347.767V32.695ZM347.767 28.483H350.179C350.347 28.483 350.524 28.474 350.71 28.456C350.896 28.432 351.058 28.393 351.196 28.339C351.472 28.237 351.673 28.069 351.799 27.835C351.931 27.595 351.997 27.334 351.997 27.052C351.997 26.74 351.925 26.467 351.781 26.233C351.643 25.993 351.43 25.828 351.142 25.738C350.95 25.666 350.734 25.627 350.494 25.621C350.26 25.609 350.11 25.603 350.044 25.603H347.767V28.483ZM355.939 34V24.28H357.541V28.375H362.653V24.28H364.255V34H362.653V29.896H357.541V34H355.939ZM366.776 34L366.767 24.28H368.378V27.799H369.863C370.145 27.799 370.433 27.805 370.727 27.817C371.021 27.829 371.276 27.856 371.492 27.898C371.996 28 372.437 28.171 372.815 28.411C373.193 28.651 373.487 28.975 373.697 29.383C373.907 29.791 374.012 30.298 374.012 30.904C374.012 31.744 373.793 32.41 373.355 32.902C372.923 33.388 372.356 33.712 371.654 33.874C371.414 33.928 371.138 33.964 370.826 33.982C370.52 33.994 370.229 34 369.953 34H366.776ZM368.378 32.677H369.98C370.16 32.677 370.361 32.671 370.583 32.659C370.805 32.647 371.003 32.617 371.177 32.569C371.483 32.479 371.756 32.302 371.996 32.038C372.242 31.774 372.365 31.396 372.365 30.904C372.365 30.406 372.245 30.022 372.005 29.752C371.771 29.482 371.462 29.305 371.078 29.221C370.904 29.179 370.721 29.152 370.529 29.14C370.337 29.128 370.154 29.122 369.98 29.122H368.378V32.677ZM375.128 34V24.28H376.73V34H375.128ZM383.468 34.27C382.514 34.27 381.68 34.06 380.966 33.64C380.258 33.214 379.706 32.623 379.31 31.867C378.914 31.105 378.716 30.217 378.716 29.203C378.716 28.141 378.911 27.223 379.301 26.449C379.691 25.669 380.234 25.069 380.93 24.649C381.632 24.223 382.454 24.01 383.396 24.01C384.374 24.01 385.205 24.235 385.889 24.685C386.579 25.135 387.095 25.777 387.437 26.611C387.785 27.445 387.935 28.438 387.887 29.59H386.267V29.014C386.249 27.82 386.006 26.929 385.538 26.341C385.07 25.747 384.374 25.45 383.45 25.45C382.46 25.45 381.707 25.768 381.191 26.404C380.675 27.04 380.417 27.952 380.417 29.14C380.417 30.286 380.675 31.174 381.191 31.804C381.707 32.434 382.442 32.749 383.396 32.749C384.038 32.749 384.596 32.602 385.07 32.308C385.544 32.014 385.916 31.591 386.186 31.039L387.725 31.57C387.347 32.428 386.777 33.094 386.015 33.568C385.259 34.036 384.41 34.27 383.468 34.27ZM379.877 29.59V28.303H387.059V29.59H379.877ZM21.251 54L21.26 44.28H22.88V48.96L26.957 44.28H29.036L24.743 49.14L29.54 54H27.299L22.88 49.32V54H21.251ZM34.4 54.27C33.434 54.27 32.6 54.051 31.898 53.613C31.202 53.175 30.665 52.569 30.287 51.795C29.909 51.021 29.72 50.133 29.72 49.131C29.72 48.111 29.912 47.217 30.296 46.449C30.68 45.681 31.223 45.084 31.925 44.658C32.627 44.226 33.452 44.01 34.4 44.01C35.372 44.01 36.209 44.229 36.911 44.667C37.613 45.099 38.15 45.702 38.522 46.476C38.9 47.244 39.089 48.129 39.089 49.131C39.089 50.145 38.9 51.039 38.522 51.813C38.144 52.581 37.604 53.184 36.902 53.622C36.2 54.054 35.366 54.27 34.4 54.27ZM34.4 52.749C35.408 52.749 36.158 52.413 36.65 51.741C37.142 51.069 37.388 50.199 37.388 49.131C37.388 48.033 37.139 47.16 36.641 46.512C36.143 45.858 35.396 45.531 34.4 45.531C33.722 45.531 33.164 45.684 32.726 45.99C32.288 46.296 31.961 46.719 31.745 47.259C31.529 47.799 31.421 48.423 31.421 49.131C31.421 50.223 31.673 51.099 32.177 51.759C32.681 52.419 33.422 52.749 34.4 52.749ZM41.0615 54V44.28H42.6635V48.375H47.7755V44.28H49.3775V54H47.7755V49.896H42.6635V54H41.0615ZM54.4727 54V45.738H51.0887V44.28H59.4587V45.738H56.0747V54H54.4727ZM65.3743 54.27C64.4203 54.27 63.5863 54.06 62.8723 53.64C62.1643 53.214 61.6123 52.623 61.2163 51.867C60.8203 51.105 60.6223 50.217 60.6223 49.203C60.6223 48.141 60.8173 47.223 61.2073 46.449C61.5973 45.669 62.1403 45.069 62.8363 44.649C63.5383 44.223 64.3603 44.01 65.3023 44.01C66.2803 44.01 67.1113 44.235 67.7953 44.685C68.4853 45.135 69.0013 45.777 69.3433 46.611C69.6913 47.445 69.8413 48.438 69.7933 49.59H68.1733V49.014C68.1553 47.82 67.9123 46.929 67.4443 46.341C66.9763 45.747 66.2803 45.45 65.3563 45.45C64.3663 45.45 63.6133 45.768 63.0973 46.404C62.5813 47.04 62.3233 47.952 62.3233 49.14C62.3233 50.286 62.5813 51.174 63.0973 51.804C63.6133 52.434 64.3483 52.749 65.3023 52.749C65.9443 52.749 66.5023 52.602 66.9763 52.308C67.4503 52.014 67.8223 51.591 68.0923 51.039L69.6313 51.57C69.2533 52.428 68.6833 53.094 67.9213 53.568C67.1653 54.036 66.3163 54.27 65.3743 54.27ZM61.7833 49.59V48.303H68.9653V49.59H61.7833ZM71.7881 54V44.28H73.3901V48.375H78.5021V44.28H80.1041V54H78.5021V49.896H73.3901V54H71.7881ZM85.1992 54V45.738H81.8152V44.28H90.1852V45.738H86.8012V54H85.1992ZM91.7089 48.987V47.664H97.1089V48.987H91.7089ZM99.4385 54V44.28H103.579C103.825 44.28 104.089 44.295 104.371 44.325C104.659 44.349 104.92 44.394 105.154 44.46C105.676 44.598 106.105 44.883 106.441 45.315C106.783 45.741 106.954 46.281 106.954 46.935C106.954 47.301 106.897 47.619 106.783 47.889C106.675 48.159 106.519 48.393 106.315 48.591C106.225 48.681 106.126 48.762 106.018 48.834C105.91 48.906 105.802 48.963 105.694 49.005C105.904 49.041 106.117 49.122 106.333 49.248C106.675 49.434 106.942 49.695 107.134 50.031C107.332 50.367 107.431 50.796 107.431 51.318C107.431 51.978 107.272 52.524 106.954 52.956C106.636 53.382 106.198 53.676 105.64 53.838C105.406 53.904 105.148 53.949 104.866 53.973C104.584 53.991 104.311 54 104.047 54H99.4385ZM101.059 52.695H103.957C104.083 52.695 104.233 52.683 104.407 52.659C104.587 52.635 104.746 52.605 104.884 52.569C105.196 52.479 105.421 52.311 105.559 52.065C105.703 51.819 105.775 51.552 105.775 51.264C105.775 50.88 105.667 50.568 105.451 50.328C105.241 50.088 104.962 49.938 104.614 49.878C104.488 49.842 104.35 49.821 104.2 49.815C104.056 49.809 103.927 49.806 103.812 49.806H101.059V52.695ZM101.059 48.483H103.471C103.639 48.483 103.816 48.474 104.002 48.456C104.188 48.432 104.35 48.393 104.488 48.339C104.764 48.237 104.965 48.069 105.091 47.835C105.223 47.595 105.289 47.334 105.289 47.052C105.289 46.74 105.217 46.467 105.073 46.233C104.935 45.993 104.722 45.828 104.434 45.738C104.242 45.666 104.026 45.627 103.786 45.621C103.552 45.609 103.402 45.603 103.336 45.603H101.059V48.483ZM113.379 54.27C112.413 54.27 111.579 54.051 110.877 53.613C110.181 53.175 109.644 52.569 109.266 51.795C108.888 51.021 108.699 50.133 108.699 49.131C108.699 48.111 108.891 47.217 109.275 46.449C109.659 45.681 110.202 45.084 110.904 44.658C111.606 44.226 112.431 44.01 113.379 44.01C114.351 44.01 115.188 44.229 115.89 44.667C116.592 45.099 117.129 45.702 117.501 46.476C117.879 47.244 118.068 48.129 118.068 49.131C118.068 50.145 117.879 51.039 117.501 51.813C117.123 52.581 116.583 53.184 115.881 53.622C115.179 54.054 114.345 54.27 113.379 54.27ZM113.379 52.749C114.387 52.749 115.137 52.413 115.629 51.741C116.121 51.069 116.367 50.199 116.367 49.131C116.367 48.033 116.118 47.16 115.62 46.512C115.122 45.858 114.375 45.531 113.379 45.531C112.701 45.531 112.143 45.684 111.705 45.99C111.267 46.296 110.94 46.719 110.724 47.259C110.508 47.799 110.4 48.423 110.4 49.131C110.4 50.223 110.652 51.099 111.156 51.759C111.66 52.419 112.401 52.749 113.379 52.749ZM124.513 54.27C123.601 54.27 122.833 54.045 122.209 53.595C121.585 53.139 121.111 52.524 120.787 51.75C120.469 50.97 120.31 50.097 120.31 49.131C120.31 48.153 120.469 47.277 120.787 46.503C121.111 45.729 121.585 45.12 122.209 44.676C122.839 44.232 123.61 44.01 124.522 44.01C125.422 44.01 126.196 44.235 126.844 44.685C127.498 45.129 127.999 45.738 128.347 46.512C128.695 47.286 128.869 48.159 128.869 49.131C128.869 50.103 128.695 50.976 128.347 51.75C127.999 52.524 127.498 53.139 126.844 53.595C126.196 54.045 125.419 54.27 124.513 54.27ZM120.04 58.32V44.28H121.471V51.435H121.651V58.32H120.04ZM124.315 52.803C124.957 52.803 125.488 52.641 125.908 52.317C126.328 51.993 126.643 51.555 126.853 51.003C127.063 50.445 127.168 49.821 127.168 49.131C127.168 48.447 127.063 47.829 126.853 47.277C126.649 46.725 126.331 46.287 125.899 45.963C125.473 45.639 124.93 45.477 124.27 45.477C123.64 45.477 123.118 45.633 122.704 45.945C122.29 46.251 121.981 46.68 121.777 47.232C121.573 47.778 121.471 48.411 121.471 49.131C121.471 49.839 121.57 50.472 121.768 51.03C121.972 51.582 122.284 52.017 122.704 52.335C123.124 52.647 123.661 52.803 124.315 52.803ZM134.982 54.27C134.016 54.27 133.182 54.051 132.48 53.613C131.784 53.175 131.247 52.569 130.869 51.795C130.491 51.021 130.302 50.133 130.302 49.131C130.302 48.111 130.494 47.217 130.878 46.449C131.262 45.681 131.805 45.084 132.507 44.658C133.209 44.226 134.034 44.01 134.982 44.01C135.954 44.01 136.791 44.229 137.493 44.667C138.195 45.099 138.732 45.702 139.104 46.476C139.482 47.244 139.671 48.129 139.671 49.131C139.671 50.145 139.482 51.039 139.104 51.813C138.726 52.581 138.186 53.184 137.484 53.622C136.782 54.054 135.948 54.27 134.982 54.27ZM134.982 52.749C135.99 52.749 136.74 52.413 137.232 51.741C137.724 51.069 137.97 50.199 137.97 49.131C137.97 48.033 137.721 47.16 137.223 46.512C136.725 45.858 135.978 45.531 134.982 45.531C134.304 45.531 133.746 45.684 133.308 45.99C132.87 46.296 132.543 46.719 132.327 47.259C132.111 47.799 132.003 48.423 132.003 49.131C132.003 50.223 132.255 51.099 132.759 51.759C133.263 52.419 134.004 52.749 134.982 52.749ZM141.644 54V44.28H143.246V48.375H148.358V44.28H149.96V54H148.358V49.896H143.246V54H141.644ZM152.472 54L152.481 44.28H154.101V48.96L158.178 44.28H160.257L155.964 49.14L160.761 54H158.52L154.101 49.32V54H152.472ZM169.612 44.28V54H168.064V46.836L162.97 54H161.647V44.28H163.195V51.345L168.298 44.28H169.612ZM181.587 54V50.499C181.263 50.661 180.87 50.799 180.408 50.913C179.952 51.027 179.463 51.084 178.941 51.084C177.951 51.084 177.153 50.862 176.547 50.418C175.941 49.974 175.545 49.335 175.359 48.501C175.305 48.249 175.266 47.988 175.242 47.718C175.224 47.448 175.212 47.202 175.206 46.98C175.2 46.758 175.197 46.596 175.197 46.494V44.28H176.817V46.494C176.817 46.668 176.823 46.884 176.835 47.142C176.847 47.394 176.877 47.64 176.925 47.88C177.045 48.474 177.294 48.921 177.672 49.221C178.056 49.521 178.596 49.671 179.292 49.671C179.76 49.671 180.192 49.611 180.588 49.491C180.984 49.371 181.317 49.212 181.587 49.014V44.28H183.198V54H181.587ZM189.933 54.27C188.979 54.27 188.145 54.06 187.431 53.64C186.723 53.214 186.171 52.623 185.775 51.867C185.379 51.105 185.181 50.217 185.181 49.203C185.181 48.141 185.376 47.223 185.766 46.449C186.156 45.669 186.699 45.069 187.395 44.649C188.097 44.223 188.919 44.01 189.861 44.01C190.839 44.01 191.67 44.235 192.354 44.685C193.044 45.135 193.56 45.777 193.902 46.611C194.25 47.445 194.4 48.438 194.352 49.59H192.732V49.014C192.714 47.82 192.471 46.929 192.003 46.341C191.535 45.747 190.839 45.45 189.915 45.45C188.925 45.45 188.172 45.768 187.656 46.404C187.14 47.04 186.882 47.952 186.882 49.14C186.882 50.286 187.14 51.174 187.656 51.804C188.172 52.434 188.907 52.749 189.861 52.749C190.503 52.749 191.061 52.602 191.535 52.308C192.009 52.014 192.381 51.591 192.651 51.039L194.19 51.57C193.812 52.428 193.242 53.094 192.48 53.568C191.724 54.036 190.875 54.27 189.933 54.27ZM186.342 49.59V48.303H193.524V49.59H186.342ZM200.82 54.27C199.908 54.27 199.14 54.045 198.516 53.595C197.892 53.139 197.418 52.524 197.094 51.75C196.776 50.97 196.617 50.097 196.617 49.131C196.617 48.153 196.776 47.277 197.094 46.503C197.418 45.729 197.892 45.12 198.516 44.676C199.146 44.232 199.917 44.01 200.829 44.01C201.729 44.01 202.503 44.235 203.151 44.685C203.805 45.129 204.306 45.738 204.654 46.512C205.002 47.286 205.176 48.159 205.176 49.131C205.176 50.103 205.002 50.976 204.654 51.75C204.306 52.524 203.805 53.139 203.151 53.595C202.503 54.045 201.726 54.27 200.82 54.27ZM196.347 58.32V44.28H197.778V51.435H197.958V58.32H196.347ZM200.622 52.803C201.264 52.803 201.795 52.641 202.215 52.317C202.635 51.993 202.95 51.555 203.16 51.003C203.37 50.445 203.475 49.821 203.475 49.131C203.475 48.447 203.37 47.829 203.16 47.277C202.956 46.725 202.638 46.287 202.206 45.963C201.78 45.639 201.237 45.477 200.577 45.477C199.947 45.477 199.425 45.633 199.011 45.945C198.597 46.251 198.288 46.68 198.084 47.232C197.88 47.778 197.778 48.411 197.778 49.131C197.778 49.839 197.877 50.472 198.075 51.03C198.279 51.582 198.591 52.017 199.011 52.335C199.431 52.647 199.968 52.803 200.622 52.803ZM211.361 54.27C210.407 54.27 209.573 54.06 208.859 53.64C208.151 53.214 207.599 52.623 207.203 51.867C206.807 51.105 206.609 50.217 206.609 49.203C206.609 48.141 206.804 47.223 207.194 46.449C207.584 45.669 208.127 45.069 208.823 44.649C209.525 44.223 210.347 44.01 211.289 44.01C212.267 44.01 213.098 44.235 213.782 44.685C214.472 45.135 214.988 45.777 215.33 46.611C215.678 47.445 215.828 48.438 215.78 49.59H214.16V49.014C214.142 47.82 213.899 46.929 213.431 46.341C212.963 45.747 212.267 45.45 211.343 45.45C210.353 45.45 209.6 45.768 209.084 46.404C208.568 47.04 208.31 47.952 208.31 49.14C208.31 50.286 208.568 51.174 209.084 51.804C209.6 52.434 210.335 52.749 211.289 52.749C211.931 52.749 212.489 52.602 212.963 52.308C213.437 52.014 213.809 51.591 214.079 51.039L215.618 51.57C215.24 52.428 214.67 53.094 213.908 53.568C213.152 54.036 212.303 54.27 211.361 54.27ZM207.77 49.59V48.303H214.952V49.59H207.77ZM220.915 54.27C219.955 54.27 219.106 54.063 218.368 53.649C217.63 53.229 217.048 52.653 216.622 51.921L217.9 51.093C218.254 51.627 218.677 52.038 219.169 52.326C219.661 52.608 220.222 52.749 220.852 52.749C221.512 52.749 222.037 52.599 222.427 52.299C222.817 51.993 223.012 51.582 223.012 51.066C223.012 50.682 222.916 50.388 222.724 50.184C222.532 49.98 222.256 49.839 221.896 49.761C221.536 49.683 221.107 49.644 220.609 49.644H219.601V48.321H220.6C221.23 48.321 221.743 48.219 222.139 48.015C222.535 47.811 222.733 47.463 222.733 46.971C222.733 46.467 222.547 46.101 222.175 45.873C221.809 45.639 221.371 45.522 220.861 45.522C220.321 45.522 219.805 45.636 219.313 45.864C218.821 46.086 218.398 46.368 218.044 46.71L217.072 45.621C217.576 45.105 218.155 44.709 218.809 44.433C219.469 44.151 220.186 44.01 220.96 44.01C221.584 44.01 222.154 44.121 222.67 44.343C223.192 44.559 223.606 44.88 223.912 45.306C224.224 45.726 224.38 46.239 224.38 46.845C224.38 47.361 224.26 47.82 224.02 48.222C223.78 48.624 223.426 48.975 222.958 49.275L222.895 48.708C223.291 48.804 223.618 48.981 223.876 49.239C224.14 49.491 224.335 49.791 224.461 50.139C224.587 50.487 224.65 50.85 224.65 51.228C224.65 51.864 224.482 52.41 224.146 52.866C223.816 53.316 223.369 53.664 222.805 53.91C222.241 54.15 221.611 54.27 220.915 54.27ZM234.324 54.27C233.34 54.27 232.503 54.051 231.813 53.613C231.129 53.169 230.607 52.56 230.247 51.786C229.887 51.012 229.701 50.13 229.689 49.14C229.701 48.126 229.89 47.235 230.256 46.467C230.628 45.693 231.159 45.09 231.849 44.658C232.539 44.226 233.37 44.01 234.342 44.01C235.368 44.01 236.25 44.262 236.988 44.766C237.732 45.27 238.23 45.96 238.482 46.836L236.898 47.313C236.694 46.749 236.361 46.311 235.899 45.999C235.443 45.687 234.918 45.531 234.324 45.531C233.658 45.531 233.109 45.687 232.677 45.999C232.245 46.305 231.924 46.731 231.714 47.277C231.504 47.817 231.396 48.438 231.39 49.14C231.402 50.22 231.651 51.093 232.137 51.759C232.629 52.419 233.358 52.749 234.324 52.749C234.96 52.749 235.488 52.605 235.908 52.317C236.328 52.023 236.646 51.6 236.862 51.048L238.482 51.471C238.146 52.377 237.621 53.07 236.907 53.55C236.193 54.03 235.332 54.27 234.324 54.27ZM244.195 54.27C243.229 54.27 242.395 54.051 241.693 53.613C240.997 53.175 240.46 52.569 240.082 51.795C239.704 51.021 239.515 50.133 239.515 49.131C239.515 48.111 239.707 47.217 240.091 46.449C240.475 45.681 241.018 45.084 241.72 44.658C242.422 44.226 243.247 44.01 244.195 44.01C245.167 44.01 246.004 44.229 246.706 44.667C247.408 45.099 247.945 45.702 248.317 46.476C248.695 47.244 248.884 48.129 248.884 49.131C248.884 50.145 248.695 51.039 248.317 51.813C247.939 52.581 247.399 53.184 246.697 53.622C245.995 54.054 245.161 54.27 244.195 54.27ZM244.195 52.749C245.203 52.749 245.953 52.413 246.445 51.741C246.937 51.069 247.183 50.199 247.183 49.131C247.183 48.033 246.934 47.16 246.436 46.512C245.938 45.858 245.191 45.531 244.195 45.531C243.517 45.531 242.959 45.684 242.521 45.99C242.083 46.296 241.756 46.719 241.54 47.259C241.324 47.799 241.216 48.423 241.216 49.131C241.216 50.223 241.468 51.099 241.972 51.759C242.476 52.419 243.217 52.749 244.195 52.749ZM254.96 54.27C253.976 54.27 253.139 54.051 252.449 53.613C251.765 53.169 251.243 52.56 250.883 51.786C250.523 51.012 250.337 50.13 250.325 49.14C250.337 48.126 250.526 47.235 250.892 46.467C251.264 45.693 251.795 45.09 252.485 44.658C253.175 44.226 254.006 44.01 254.978 44.01C256.004 44.01 256.886 44.262 257.624 44.766C258.368 45.27 258.866 45.96 259.118 46.836L257.534 47.313C257.33 46.749 256.997 46.311 256.535 45.999C256.079 45.687 255.554 45.531 254.96 45.531C254.294 45.531 253.745 45.687 253.313 45.999C252.881 46.305 252.56 46.731 252.35 47.277C252.14 47.817 252.032 48.438 252.026 49.14C252.038 50.22 252.287 51.093 252.773 51.759C253.265 52.419 253.994 52.749 254.96 52.749C255.596 52.749 256.124 52.605 256.544 52.317C256.964 52.023 257.282 51.6 257.498 51.048L259.118 51.471C258.782 52.377 258.257 53.07 257.543 53.55C256.829 54.03 255.968 54.27 254.96 54.27ZM263.354 54V45.738H259.97V44.28H268.34V45.738H264.956V54H263.354ZM272.49 54.27C271.764 54.27 271.155 54.138 270.663 53.874C270.177 53.604 269.808 53.25 269.556 52.812C269.31 52.374 269.187 51.894 269.187 51.372C269.187 50.862 269.283 50.421 269.475 50.049C269.673 49.671 269.949 49.359 270.303 49.113C270.657 48.861 271.08 48.663 271.572 48.519C272.034 48.393 272.55 48.285 273.12 48.195C273.696 48.099 274.278 48.012 274.866 47.934C275.454 47.856 276.003 47.781 276.513 47.709L275.937 48.042C275.955 47.178 275.781 46.539 275.415 46.125C275.055 45.711 274.431 45.504 273.543 45.504C272.955 45.504 272.439 45.639 271.995 45.909C271.557 46.173 271.248 46.605 271.068 47.205L269.547 46.746C269.781 45.894 270.234 45.225 270.906 44.739C271.578 44.253 272.463 44.01 273.561 44.01C274.443 44.01 275.199 44.169 275.829 44.487C276.465 44.799 276.921 45.273 277.197 45.909C277.335 46.209 277.422 46.536 277.458 46.89C277.494 47.238 277.512 47.604 277.512 47.988V54H276.09V51.669L276.423 51.885C276.057 52.671 275.544 53.265 274.884 53.667C274.23 54.069 273.432 54.27 272.49 54.27ZM272.733 52.929C273.309 52.929 273.807 52.827 274.227 52.623C274.653 52.413 274.995 52.14 275.253 51.804C275.511 51.462 275.679 51.09 275.757 50.688C275.847 50.388 275.895 50.055 275.901 49.689C275.913 49.317 275.919 49.032 275.919 48.834L276.477 49.077C275.955 49.149 275.442 49.218 274.938 49.284C274.434 49.35 273.957 49.422 273.507 49.5C273.057 49.572 272.652 49.659 272.292 49.761C272.028 49.845 271.779 49.953 271.545 50.085C271.317 50.217 271.131 50.388 270.987 50.598C270.849 50.802 270.78 51.057 270.78 51.363C270.78 51.627 270.846 51.879 270.978 52.119C271.116 52.359 271.326 52.554 271.608 52.704C271.896 52.854 272.271 52.929 272.733 52.929ZM279.843 54V44.28H283.983C284.229 44.28 284.493 44.295 284.775 44.325C285.063 44.349 285.324 44.394 285.558 44.46C286.08 44.598 286.509 44.883 286.845 45.315C287.187 45.741 287.358 46.281 287.358 46.935C287.358 47.301 287.301 47.619 287.187 47.889C287.079 48.159 286.923 48.393 286.719 48.591C286.629 48.681 286.53 48.762 286.422 48.834C286.314 48.906 286.206 48.963 286.098 49.005C286.308 49.041 286.521 49.122 286.737 49.248C287.079 49.434 287.346 49.695 287.538 50.031C287.736 50.367 287.835 50.796 287.835 51.318C287.835 51.978 287.676 52.524 287.358 52.956C287.04 53.382 286.602 53.676 286.044 53.838C285.81 53.904 285.552 53.949 285.27 53.973C284.988 53.991 284.715 54 284.451 54H279.843ZM281.463 52.695H284.361C284.487 52.695 284.637 52.683 284.811 52.659C284.991 52.635 285.15 52.605 285.288 52.569C285.6 52.479 285.825 52.311 285.963 52.065C286.107 51.819 286.179 51.552 286.179 51.264C286.179 50.88 286.071 50.568 285.855 50.328C285.645 50.088 285.366 49.938 285.018 49.878C284.892 49.842 284.754 49.821 284.604 49.815C284.46 49.809 284.331 49.806 284.217 49.806H281.463V52.695ZM281.463 48.483H283.875C284.043 48.483 284.22 48.474 284.406 48.456C284.592 48.432 284.754 48.393 284.892 48.339C285.168 48.237 285.369 48.069 285.495 47.835C285.627 47.595 285.693 47.334 285.693 47.052C285.693 46.74 285.621 46.467 285.477 46.233C285.339 45.993 285.126 45.828 284.838 45.738C284.646 45.666 284.43 45.627 284.19 45.621C283.956 45.609 283.806 45.603 283.74 45.603H281.463V48.483ZM288.743 54V52.623C289.103 52.689 289.376 52.677 289.562 52.587C289.754 52.491 289.895 52.326 289.985 52.092C290.081 51.852 290.159 51.552 290.219 51.192C290.321 50.622 290.408 49.986 290.48 49.284C290.558 48.582 290.627 47.814 290.687 46.98C290.753 46.14 290.813 45.24 290.867 44.28H297.662V54H296.06V45.801H292.325C292.289 46.353 292.244 46.92 292.19 47.502C292.142 48.084 292.091 48.651 292.037 49.203C291.983 49.749 291.923 50.259 291.857 50.733C291.797 51.201 291.731 51.606 291.659 51.948C291.545 52.536 291.386 53.007 291.182 53.361C290.978 53.709 290.684 53.934 290.3 54.036C289.916 54.144 289.397 54.132 288.743 54ZM306.193 54V50.481H304.096C303.85 50.481 303.577 50.472 303.277 50.454C302.983 50.43 302.707 50.397 302.449 50.355C301.747 50.223 301.153 49.914 300.667 49.428C300.187 48.942 299.947 48.27 299.947 47.412C299.947 46.578 300.172 45.909 300.622 45.405C301.078 44.895 301.639 44.565 302.305 44.415C302.605 44.343 302.908 44.304 303.214 44.298C303.526 44.286 303.79 44.28 304.006 44.28H307.795L307.804 54H306.193ZM299.65 54L302.233 50.04H303.961L301.378 54H299.65ZM303.979 49.158H306.193V45.603H303.979C303.841 45.603 303.658 45.609 303.43 45.621C303.208 45.633 302.995 45.669 302.791 45.729C302.599 45.783 302.41 45.882 302.224 46.026C302.044 46.17 301.894 46.356 301.774 46.584C301.654 46.812 301.594 47.082 301.594 47.394C301.594 47.844 301.72 48.21 301.972 48.492C302.224 48.768 302.53 48.954 302.89 49.05C303.088 49.098 303.283 49.128 303.475 49.14C303.673 49.152 303.841 49.158 303.979 49.158ZM318.261 54.27C317.433 54.27 316.701 54.093 316.065 53.739C315.435 53.385 314.928 52.884 314.544 52.236C314.16 51.588 313.92 50.823 313.824 49.941H311.925V54H310.323V44.28H311.925V48.339H313.815C313.911 47.439 314.154 46.665 314.544 46.017C314.934 45.369 315.447 44.874 316.083 44.532C316.719 44.184 317.451 44.01 318.279 44.01C319.245 44.01 320.076 44.229 320.772 44.667C321.474 45.105 322.011 45.708 322.383 46.476C322.761 47.244 322.95 48.126 322.95 49.122C322.95 50.136 322.758 51.03 322.374 51.804C321.996 52.578 321.456 53.184 320.754 53.622C320.058 54.054 319.227 54.27 318.261 54.27ZM318.234 52.749C319.254 52.749 320.01 52.416 320.502 51.75C321 51.078 321.249 50.205 321.249 49.131C321.249 48.027 320.997 47.151 320.493 46.503C319.995 45.855 319.245 45.531 318.243 45.531C317.277 45.531 316.542 45.852 316.038 46.494C315.534 47.136 315.282 48.012 315.282 49.122C315.282 50.22 315.531 51.099 316.029 51.759C316.533 52.419 317.268 52.749 318.234 52.749ZM335.794 55.8V54H324.913V44.28H326.461V52.542H329.809V44.28H331.357V52.542H334.696V44.28H336.244V52.542H337.396V55.8H335.794ZM346.8 44.28V54H345.252V46.836L340.158 54H338.835V44.28H340.383V51.345L345.486 44.28H346.8ZM353.533 54.27C352.579 54.27 351.745 54.06 351.031 53.64C350.323 53.214 349.771 52.623 349.375 51.867C348.979 51.105 348.781 50.217 348.781 49.203C348.781 48.141 348.976 47.223 349.366 46.449C349.756 45.669 350.299 45.069 350.995 44.649C351.697 44.223 352.519 44.01 353.461 44.01C354.439 44.01 355.27 44.235 355.954 44.685C356.644 45.135 357.16 45.777 357.502 46.611C357.85 47.445 358 48.438 357.952 49.59H356.332V49.014C356.314 47.82 356.071 46.929 355.603 46.341C355.135 45.747 354.439 45.45 353.515 45.45C352.525 45.45 351.772 45.768 351.256 46.404C350.74 47.04 350.482 47.952 350.482 49.14C350.482 50.286 350.74 51.174 351.256 51.804C351.772 52.434 352.507 52.749 353.461 52.749C354.103 52.749 354.661 52.602 355.135 52.308C355.609 52.014 355.981 51.591 356.251 51.039L357.79 51.57C357.412 52.428 356.842 53.094 356.08 53.568C355.324 54.036 354.475 54.27 353.533 54.27ZM349.942 49.59V48.303H357.124V49.59H349.942ZM25.211 74.279C24.293 74.273 23.51 74.075 22.862 73.685C22.214 73.289 21.71 72.71 21.35 71.948C20.99 71.186 20.789 70.253 20.747 69.149C20.723 68.639 20.729 68.078 20.765 67.466C20.807 66.854 20.873 66.266 20.963 65.702C21.059 65.138 21.179 64.673 21.323 64.307C21.485 63.869 21.713 63.464 22.007 63.092C22.307 62.714 22.643 62.402 23.015 62.156C23.393 61.898 23.816 61.697 24.284 61.553C24.752 61.409 25.241 61.298 25.751 61.22C26.267 61.136 26.783 61.064 27.299 61.004C27.815 60.938 28.307 60.86 28.775 60.77L28.937 62.21C28.607 62.282 28.217 62.345 27.767 62.399C27.317 62.447 26.849 62.504 26.363 62.57C25.883 62.636 25.421 62.729 24.977 62.849C24.539 62.963 24.161 63.122 23.843 63.326C23.375 63.608 23.015 64.031 22.763 64.595C22.517 65.153 22.367 65.78 22.313 66.476C22.685 65.9 23.168 65.477 23.762 65.207C24.356 64.937 24.989 64.802 25.661 64.802C26.531 64.802 27.281 65.006 27.911 65.414C28.541 65.816 29.024 66.371 29.36 67.079C29.702 67.787 29.873 68.594 29.873 69.5C29.873 70.46 29.681 71.3 29.297 72.02C28.913 72.74 28.37 73.298 27.668 73.694C26.972 74.09 26.153 74.285 25.211 74.279ZM25.31 72.758C26.252 72.758 26.966 72.467 27.452 71.885C27.938 71.297 28.181 70.517 28.181 69.545C28.181 68.549 27.929 67.766 27.425 67.196C26.921 66.62 26.213 66.332 25.301 66.332C24.377 66.332 23.669 66.62 23.177 67.196C22.691 67.766 22.448 68.549 22.448 69.545C22.448 70.547 22.694 71.333 23.186 71.903C23.678 72.473 24.386 72.758 25.31 72.758ZM30.9596 74V72.623C31.3196 72.689 31.5926 72.677 31.7786 72.587C31.9706 72.491 32.1116 72.326 32.2016 72.092C32.2976 71.852 32.3756 71.552 32.4356 71.192C32.5376 70.622 32.6246 69.986 32.6966 69.284C32.7746 68.582 32.8436 67.814 32.9036 66.98C32.9696 66.14 33.0296 65.24 33.0836 64.28H39.8786V74H38.2766V65.801H34.5416C34.5056 66.353 34.4606 66.92 34.4066 67.502C34.3586 68.084 34.3076 68.651 34.2536 69.203C34.1996 69.749 34.1396 70.259 34.0736 70.733C34.0136 71.201 33.9476 71.606 33.8756 71.948C33.7616 72.536 33.6026 73.007 33.3986 73.361C33.1946 73.709 32.9006 73.934 32.5166 74.036C32.1326 74.144 31.6136 74.132 30.9596 74ZM46.5465 74.27C45.5805 74.27 44.7465 74.051 44.0445 73.613C43.3485 73.175 42.8115 72.569 42.4335 71.795C42.0555 71.021 41.8665 70.133 41.8665 69.131C41.8665 68.111 42.0585 67.217 42.4425 66.449C42.8265 65.681 43.3695 65.084 44.0715 64.658C44.7735 64.226 45.5985 64.01 46.5465 64.01C47.5185 64.01 48.3555 64.229 49.0575 64.667C49.7595 65.099 50.2965 65.702 50.6685 66.476C51.0465 67.244 51.2355 68.129 51.2355 69.131C51.2355 70.145 51.0465 71.039 50.6685 71.813C50.2905 72.581 49.7505 73.184 49.0485 73.622C48.3465 74.054 47.5125 74.27 46.5465 74.27ZM46.5465 72.749C47.5545 72.749 48.3045 72.413 48.7965 71.741C49.2885 71.069 49.5345 70.199 49.5345 69.131C49.5345 68.033 49.2855 67.16 48.7875 66.512C48.2895 65.858 47.5425 65.531 46.5465 65.531C45.8685 65.531 45.3105 65.684 44.8725 65.99C44.4345 66.296 44.1075 66.719 43.8915 67.259C43.6755 67.799 43.5675 68.423 43.5675 69.131C43.5675 70.223 43.8195 71.099 44.3235 71.759C44.8275 72.419 45.5685 72.749 46.5465 72.749ZM53.217 74V64.28H59.967V65.801H54.819V74H53.217ZM64.1187 74.27C63.3927 74.27 62.7837 74.138 62.2917 73.874C61.8057 73.604 61.4367 73.25 61.1847 72.812C60.9387 72.374 60.8157 71.894 60.8157 71.372C60.8157 70.862 60.9117 70.421 61.1037 70.049C61.3017 69.671 61.5777 69.359 61.9317 69.113C62.2857 68.861 62.7087 68.663 63.2007 68.519C63.6627 68.393 64.1787 68.285 64.7487 68.195C65.3247 68.099 65.9067 68.012 66.4947 67.934C67.0827 67.856 67.6317 67.781 68.1417 67.709L67.5657 68.042C67.5837 67.178 67.4097 66.539 67.0437 66.125C66.6837 65.711 66.0597 65.504 65.1717 65.504C64.5837 65.504 64.0677 65.639 63.6237 65.909C63.1857 66.173 62.8767 66.605 62.6967 67.205L61.1757 66.746C61.4097 65.894 61.8627 65.225 62.5347 64.739C63.2067 64.253 64.0917 64.01 65.1897 64.01C66.0717 64.01 66.8277 64.169 67.4577 64.487C68.0937 64.799 68.5497 65.273 68.8257 65.909C68.9637 66.209 69.0507 66.536 69.0867 66.89C69.1227 67.238 69.1407 67.604 69.1407 67.988V74H67.7187V71.669L68.0517 71.885C67.6857 72.671 67.1727 73.265 66.5127 73.667C65.8587 74.069 65.0607 74.27 64.1187 74.27ZM64.3617 72.929C64.9377 72.929 65.4357 72.827 65.8557 72.623C66.2817 72.413 66.6237 72.14 66.8817 71.804C67.1397 71.462 67.3077 71.09 67.3857 70.688C67.4757 70.388 67.5237 70.055 67.5297 69.689C67.5417 69.317 67.5477 69.032 67.5477 68.834L68.1057 69.077C67.5837 69.149 67.0707 69.218 66.5667 69.284C66.0627 69.35 65.5857 69.422 65.1357 69.5C64.6857 69.572 64.2807 69.659 63.9207 69.761C63.6567 69.845 63.4077 69.953 63.1737 70.085C62.9457 70.217 62.7597 70.388 62.6157 70.598C62.4777 70.802 62.4087 71.057 62.4087 71.363C62.4087 71.627 62.4747 71.879 62.6067 72.119C62.7447 72.359 62.9547 72.554 63.2367 72.704C63.5247 72.854 63.8997 72.929 64.3617 72.929ZM71.7687 74V72.236H73.5327V74H71.7687ZM89.9348 74H88.3148V63.866L81.5558 74H79.9358V61.04H81.5558V71.165L88.3148 61.04H89.9348V74ZM91.3714 74L95.0884 69.086L91.4524 64.28H93.3604L96.0244 67.844L98.6614 64.28H100.569L96.9334 69.086L100.659 74H98.7424L96.0244 70.328L93.2884 74H91.3714ZM105.696 74V64.28H107.073L110.763 71.822L114.453 64.28H115.83V74H114.282V67.619L111.186 74H110.34L107.244 67.619V74H105.696ZM122.484 74.27C121.518 74.27 120.684 74.051 119.982 73.613C119.286 73.175 118.749 72.569 118.371 71.795C117.993 71.021 117.804 70.133 117.804 69.131C117.804 68.111 117.996 67.217 118.38 66.449C118.764 65.681 119.307 65.084 120.009 64.658C120.711 64.226 121.536 64.01 122.484 64.01C123.456 64.01 124.293 64.229 124.995 64.667C125.697 65.099 126.234 65.702 126.606 66.476C126.984 67.244 127.173 68.129 127.173 69.131C127.173 70.145 126.984 71.039 126.606 71.813C126.228 72.581 125.688 73.184 124.986 73.622C124.284 74.054 123.45 74.27 122.484 74.27ZM122.484 72.749C123.492 72.749 124.242 72.413 124.734 71.741C125.226 71.069 125.472 70.199 125.472 69.131C125.472 68.033 125.223 67.16 124.725 66.512C124.227 65.858 123.48 65.531 122.484 65.531C121.806 65.531 121.248 65.684 120.81 65.99C120.372 66.296 120.045 66.719 119.829 67.259C119.613 67.799 119.505 68.423 119.505 69.131C119.505 70.223 119.757 71.099 120.261 71.759C120.765 72.419 121.506 72.749 122.484 72.749ZM127.846 74L131.77 69.14L128.035 64.28H129.817L133.426 69.05V64.28H134.884V69.05L138.493 64.28H140.275L136.54 69.14L140.464 74H138.601L134.884 69.23V74H133.426V69.23L129.709 74H127.846ZM141.89 74V64.28H143.492V68.375H148.604V64.28H150.206V74H148.604V69.896H143.492V74H141.89ZM156.867 74.27C155.901 74.27 155.067 74.051 154.365 73.613C153.669 73.175 153.132 72.569 152.754 71.795C152.376 71.021 152.187 70.133 152.187 69.131C152.187 68.111 152.379 67.217 152.763 66.449C153.147 65.681 153.69 65.084 154.392 64.658C155.094 64.226 155.919 64.01 156.867 64.01C157.839 64.01 158.676 64.229 159.378 64.667C160.08 65.099 160.617 65.702 160.989 66.476C161.367 67.244 161.556 68.129 161.556 69.131C161.556 70.145 161.367 71.039 160.989 71.813C160.611 72.581 160.071 73.184 159.369 73.622C158.667 74.054 157.833 74.27 156.867 74.27ZM156.867 72.749C157.875 72.749 158.625 72.413 159.117 71.741C159.609 71.069 159.855 70.199 159.855 69.131C159.855 68.033 159.606 67.16 159.108 66.512C158.61 65.858 157.863 65.531 156.867 65.531C156.189 65.531 155.631 65.684 155.193 65.99C154.755 66.296 154.428 66.719 154.212 67.259C153.996 67.799 153.888 68.423 153.888 69.131C153.888 70.223 154.14 71.099 154.644 71.759C155.148 72.419 155.889 72.749 156.867 72.749ZM171.605 74.27C170.693 74.27 169.925 74.045 169.301 73.595C168.677 73.139 168.203 72.524 167.879 71.75C167.561 70.97 167.402 70.097 167.402 69.131C167.402 68.153 167.561 67.277 167.879 66.503C168.203 65.729 168.677 65.12 169.301 64.676C169.931 64.232 170.702 64.01 171.614 64.01C172.514 64.01 173.288 64.235 173.936 64.685C174.59 65.129 175.091 65.738 175.439 66.512C175.787 67.286 175.961 68.159 175.961 69.131C175.961 70.103 175.787 70.976 175.439 71.75C175.091 72.524 174.59 73.139 173.936 73.595C173.288 74.045 172.511 74.27 171.605 74.27ZM167.132 78.32V64.28H168.563V71.435H168.743V78.32H167.132ZM171.407 72.803C172.049 72.803 172.58 72.641 173 72.317C173.42 71.993 173.735 71.555 173.945 71.003C174.155 70.445 174.26 69.821 174.26 69.131C174.26 68.447 174.155 67.829 173.945 67.277C173.741 66.725 173.423 66.287 172.991 65.963C172.565 65.639 172.022 65.477 171.362 65.477C170.732 65.477 170.21 65.633 169.796 65.945C169.382 66.251 169.073 66.68 168.869 67.232C168.665 67.778 168.563 68.411 168.563 69.131C168.563 69.839 168.662 70.472 168.86 71.03C169.064 71.582 169.376 72.017 169.796 72.335C170.216 72.647 170.753 72.803 171.407 72.803ZM182.146 74.27C181.192 74.27 180.358 74.06 179.644 73.64C178.936 73.214 178.384 72.623 177.988 71.867C177.592 71.105 177.394 70.217 177.394 69.203C177.394 68.141 177.589 67.223 177.979 66.449C178.369 65.669 178.912 65.069 179.608 64.649C180.31 64.223 181.132 64.01 182.074 64.01C183.052 64.01 183.883 64.235 184.567 64.685C185.257 65.135 185.773 65.777 186.115 66.611C186.463 67.445 186.613 68.438 186.565 69.59H184.945V69.014C184.927 67.82 184.684 66.929 184.216 66.341C183.748 65.747 183.052 65.45 182.128 65.45C181.138 65.45 180.385 65.768 179.869 66.404C179.353 67.04 179.095 67.952 179.095 69.14C179.095 70.286 179.353 71.174 179.869 71.804C180.385 72.434 181.12 72.749 182.074 72.749C182.716 72.749 183.274 72.602 183.748 72.308C184.222 72.014 184.594 71.591 184.864 71.039L186.403 71.57C186.025 72.428 185.455 73.094 184.693 73.568C183.937 74.036 183.088 74.27 182.146 74.27ZM178.555 69.59V68.303H185.737V69.59H178.555ZM191.156 74.27C190.43 74.27 189.821 74.138 189.329 73.874C188.843 73.604 188.474 73.25 188.222 72.812C187.976 72.374 187.853 71.894 187.853 71.372C187.853 70.862 187.949 70.421 188.141 70.049C188.339 69.671 188.615 69.359 188.969 69.113C189.323 68.861 189.746 68.663 190.238 68.519C190.7 68.393 191.216 68.285 191.786 68.195C192.362 68.099 192.944 68.012 193.532 67.934C194.12 67.856 194.669 67.781 195.179 67.709L194.603 68.042C194.621 67.178 194.447 66.539 194.081 66.125C193.721 65.711 193.097 65.504 192.209 65.504C191.621 65.504 191.105 65.639 190.661 65.909C190.223 66.173 189.914 66.605 189.734 67.205L188.213 66.746C188.447 65.894 188.9 65.225 189.572 64.739C190.244 64.253 191.129 64.01 192.227 64.01C193.109 64.01 193.865 64.169 194.495 64.487C195.131 64.799 195.587 65.273 195.863 65.909C196.001 66.209 196.088 66.536 196.124 66.89C196.16 67.238 196.178 67.604 196.178 67.988V74H194.756V71.669L195.089 71.885C194.723 72.671 194.21 73.265 193.55 73.667C192.896 74.069 192.098 74.27 191.156 74.27ZM191.399 72.929C191.975 72.929 192.473 72.827 192.893 72.623C193.319 72.413 193.661 72.14 193.919 71.804C194.177 71.462 194.345 71.09 194.423 70.688C194.513 70.388 194.561 70.055 194.567 69.689C194.579 69.317 194.585 69.032 194.585 68.834L195.143 69.077C194.621 69.149 194.108 69.218 193.604 69.284C193.1 69.35 192.623 69.422 192.173 69.5C191.723 69.572 191.318 69.659 190.958 69.761C190.694 69.845 190.445 69.953 190.211 70.085C189.983 70.217 189.797 70.388 189.653 70.598C189.515 70.802 189.446 71.057 189.446 71.363C189.446 71.627 189.512 71.879 189.644 72.119C189.782 72.359 189.992 72.554 190.274 72.704C190.562 72.854 190.937 72.929 191.399 72.929ZM197.618 74V72.623C197.978 72.689 198.251 72.677 198.437 72.587C198.629 72.491 198.77 72.326 198.86 72.092C198.956 71.852 199.034 71.552 199.094 71.192C199.196 70.622 199.283 69.986 199.355 69.284C199.433 68.582 199.502 67.814 199.562 66.98C199.628 66.14 199.688 65.24 199.742 64.28H206.537V74H204.935V65.801H201.2C201.164 66.353 201.119 66.92 201.065 67.502C201.017 68.084 200.966 68.651 200.912 69.203C200.858 69.749 200.798 70.259 200.732 70.733C200.672 71.201 200.606 71.606 200.534 71.948C200.42 72.536 200.261 73.007 200.057 73.361C199.853 73.709 199.559 73.934 199.175 74.036C198.791 74.144 198.272 74.132 197.618 74ZM217.021 64.28V74H215.473V66.836L210.379 74H209.056V64.28H210.604V71.345L215.707 64.28H217.021ZM223.024 74.27C222.064 74.27 221.215 74.063 220.477 73.649C219.739 73.229 219.157 72.653 218.731 71.921L220.009 71.093C220.363 71.627 220.786 72.038 221.278 72.326C221.77 72.608 222.331 72.749 222.961 72.749C223.621 72.749 224.146 72.599 224.536 72.299C224.926 71.993 225.121 71.582 225.121 71.066C225.121 70.682 225.025 70.388 224.833 70.184C224.641 69.98 224.365 69.839 224.005 69.761C223.645 69.683 223.216 69.644 222.718 69.644H221.71V68.321H222.709C223.339 68.321 223.852 68.219 224.248 68.015C224.644 67.811 224.842 67.463 224.842 66.971C224.842 66.467 224.656 66.101 224.284 65.873C223.918 65.639 223.48 65.522 222.97 65.522C222.43 65.522 221.914 65.636 221.422 65.864C220.93 66.086 220.507 66.368 220.153 66.71L219.181 65.621C219.685 65.105 220.264 64.709 220.918 64.433C221.578 64.151 222.295 64.01 223.069 64.01C223.693 64.01 224.263 64.121 224.779 64.343C225.301 64.559 225.715 64.88 226.021 65.306C226.333 65.726 226.489 66.239 226.489 66.845C226.489 67.361 226.369 67.82 226.129 68.222C225.889 68.624 225.535 68.975 225.067 69.275L225.004 68.708C225.4 68.804 225.727 68.981 225.985 69.239C226.249 69.491 226.444 69.791 226.57 70.139C226.696 70.487 226.759 70.85 226.759 71.228C226.759 71.864 226.591 72.41 226.255 72.866C225.925 73.316 225.478 73.664 224.914 73.91C224.35 74.15 223.72 74.27 223.024 74.27ZM232.875 74.27C231.909 74.27 231.075 74.051 230.373 73.613C229.677 73.175 229.14 72.569 228.762 71.795C228.384 71.021 228.195 70.133 228.195 69.131C228.195 68.111 228.387 67.217 228.771 66.449C229.155 65.681 229.698 65.084 230.4 64.658C231.102 64.226 231.927 64.01 232.875 64.01C233.847 64.01 234.684 64.229 235.386 64.667C236.088 65.099 236.625 65.702 236.997 66.476C237.375 67.244 237.564 68.129 237.564 69.131C237.564 70.145 237.375 71.039 236.997 71.813C236.619 72.581 236.079 73.184 235.377 73.622C234.675 74.054 233.841 74.27 232.875 74.27ZM232.875 72.749C233.883 72.749 234.633 72.413 235.125 71.741C235.617 71.069 235.863 70.199 235.863 69.131C235.863 68.033 235.614 67.16 235.116 66.512C234.618 65.858 233.871 65.531 232.875 65.531C232.197 65.531 231.639 65.684 231.201 65.99C230.763 66.296 230.436 66.719 230.22 67.259C230.004 67.799 229.896 68.423 229.896 69.131C229.896 70.223 230.148 71.099 230.652 71.759C231.156 72.419 231.897 72.749 232.875 72.749ZM239.536 74V64.28H243.676C243.922 64.28 244.186 64.295 244.468 64.325C244.756 64.349 245.017 64.394 245.251 64.46C245.773 64.598 246.202 64.883 246.538 65.315C246.88 65.741 247.051 66.281 247.051 66.935C247.051 67.301 246.994 67.619 246.88 67.889C246.772 68.159 246.616 68.393 246.412 68.591C246.322 68.681 246.223 68.762 246.115 68.834C246.007 68.906 245.899 68.963 245.791 69.005C246.001 69.041 246.214 69.122 246.43 69.248C246.772 69.434 247.039 69.695 247.231 70.031C247.429 70.367 247.528 70.796 247.528 71.318C247.528 71.978 247.369 72.524 247.051 72.956C246.733 73.382 246.295 73.676 245.737 73.838C245.503 73.904 245.245 73.949 244.963 73.973C244.681 73.991 244.408 74 244.144 74H239.536ZM241.156 72.695H244.054C244.18 72.695 244.33 72.683 244.504 72.659C244.684 72.635 244.843 72.605 244.981 72.569C245.293 72.479 245.518 72.311 245.656 72.065C245.8 71.819 245.872 71.552 245.872 71.264C245.872 70.88 245.764 70.568 245.548 70.328C245.338 70.088 245.059 69.938 244.711 69.878C244.585 69.842 244.447 69.821 244.297 69.815C244.153 69.809 244.024 69.806 243.91 69.806H241.156V72.695ZM241.156 68.483H243.568C243.736 68.483 243.913 68.474 244.099 68.456C244.285 68.432 244.447 68.393 244.585 68.339C244.861 68.237 245.062 68.069 245.188 67.835C245.32 67.595 245.386 67.334 245.386 67.052C245.386 66.74 245.314 66.467 245.17 66.233C245.032 65.993 244.819 65.828 244.531 65.738C244.339 65.666 244.123 65.627 243.883 65.621C243.649 65.609 243.499 65.603 243.433 65.603H241.156V68.483ZM252.099 74.27C251.373 74.27 250.764 74.138 250.272 73.874C249.786 73.604 249.417 73.25 249.165 72.812C248.919 72.374 248.796 71.894 248.796 71.372C248.796 70.862 248.892 70.421 249.084 70.049C249.282 69.671 249.558 69.359 249.912 69.113C250.266 68.861 250.689 68.663 251.181 68.519C251.643 68.393 252.159 68.285 252.729 68.195C253.305 68.099 253.887 68.012 254.475 67.934C255.063 67.856 255.612 67.781 256.122 67.709L255.546 68.042C255.564 67.178 255.39 66.539 255.024 66.125C254.664 65.711 254.04 65.504 253.152 65.504C252.564 65.504 252.048 65.639 251.604 65.909C251.166 66.173 250.857 66.605 250.677 67.205L249.156 66.746C249.39 65.894 249.843 65.225 250.515 64.739C251.187 64.253 252.072 64.01 253.17 64.01C254.052 64.01 254.808 64.169 255.438 64.487C256.074 64.799 256.53 65.273 256.806 65.909C256.944 66.209 257.031 66.536 257.067 66.89C257.103 67.238 257.121 67.604 257.121 67.988V74H255.699V71.669L256.032 71.885C255.666 72.671 255.153 73.265 254.493 73.667C253.839 74.069 253.041 74.27 252.099 74.27ZM252.342 72.929C252.918 72.929 253.416 72.827 253.836 72.623C254.262 72.413 254.604 72.14 254.862 71.804C255.12 71.462 255.288 71.09 255.366 70.688C255.456 70.388 255.504 70.055 255.51 69.689C255.522 69.317 255.528 69.032 255.528 68.834L256.086 69.077C255.564 69.149 255.051 69.218 254.547 69.284C254.043 69.35 253.566 69.422 253.116 69.5C252.666 69.572 252.261 69.659 251.901 69.761C251.637 69.845 251.388 69.953 251.154 70.085C250.926 70.217 250.74 70.388 250.596 70.598C250.458 70.802 250.389 71.057 250.389 71.363C250.389 71.627 250.455 71.879 250.587 72.119C250.725 72.359 250.935 72.554 251.217 72.704C251.505 72.854 251.88 72.929 252.342 72.929ZM262.035 74V65.738H258.651V64.28H267.021V65.738H263.637V74H262.035ZM268.725 74L268.716 64.28H270.327V67.799H272.424C272.706 67.799 272.994 67.805 273.288 67.817C273.582 67.829 273.837 67.856 274.053 67.898C274.557 67.994 274.998 68.162 275.376 68.402C275.754 68.642 276.048 68.969 276.258 69.383C276.468 69.791 276.573 70.298 276.573 70.904C276.573 71.744 276.354 72.41 275.916 72.902C275.484 73.388 274.917 73.712 274.215 73.874C273.975 73.928 273.699 73.964 273.387 73.982C273.081 73.994 272.79 74 272.514 74H268.725ZM270.327 72.677H272.541C272.721 72.677 272.922 72.671 273.144 72.659C273.366 72.647 273.564 72.617 273.738 72.569C274.044 72.479 274.317 72.302 274.557 72.038C274.803 71.774 274.926 71.396 274.926 70.904C274.926 70.406 274.806 70.022 274.566 69.752C274.332 69.482 274.023 69.305 273.639 69.221C273.465 69.179 273.282 69.152 273.09 69.14C272.898 69.128 272.715 69.122 272.541 69.122H270.327V72.677ZM286.106 74.279C285.188 74.273 284.405 74.075 283.757 73.685C283.109 73.289 282.605 72.71 282.245 71.948C281.885 71.186 281.684 70.253 281.642 69.149C281.618 68.639 281.624 68.078 281.66 67.466C281.702 66.854 281.768 66.266 281.858 65.702C281.954 65.138 282.074 64.673 282.218 64.307C282.38 63.869 282.608 63.464 282.902 63.092C283.202 62.714 283.538 62.402 283.91 62.156C284.288 61.898 284.711 61.697 285.179 61.553C285.647 61.409 286.136 61.298 286.646 61.22C287.162 61.136 287.678 61.064 288.194 61.004C288.71 60.938 289.202 60.86 289.67 60.77L289.832 62.21C289.502 62.282 289.112 62.345 288.662 62.399C288.212 62.447 287.744 62.504 287.258 62.57C286.778 62.636 286.316 62.729 285.872 62.849C285.434 62.963 285.056 63.122 284.738 63.326C284.27 63.608 283.91 64.031 283.658 64.595C283.412 65.153 283.262 65.78 283.208 66.476C283.58 65.9 284.063 65.477 284.657 65.207C285.251 64.937 285.884 64.802 286.556 64.802C287.426 64.802 288.176 65.006 288.806 65.414C289.436 65.816 289.919 66.371 290.255 67.079C290.597 67.787 290.768 68.594 290.768 69.5C290.768 70.46 290.576 71.3 290.192 72.02C289.808 72.74 289.265 73.298 288.563 73.694C287.867 74.09 287.048 74.285 286.106 74.279ZM286.205 72.758C287.147 72.758 287.861 72.467 288.347 71.885C288.833 71.297 289.076 70.517 289.076 69.545C289.076 68.549 288.824 67.766 288.32 67.196C287.816 66.62 287.108 66.332 286.196 66.332C285.272 66.332 284.564 66.62 284.072 67.196C283.586 67.766 283.343 68.549 283.343 69.545C283.343 70.547 283.589 71.333 284.081 71.903C284.573 72.473 285.281 72.758 286.205 72.758ZM296.966 74.27C296.012 74.27 295.178 74.06 294.464 73.64C293.756 73.214 293.204 72.623 292.808 71.867C292.412 71.105 292.214 70.217 292.214 69.203C292.214 68.141 292.409 67.223 292.799 66.449C293.189 65.669 293.732 65.069 294.428 64.649C295.13 64.223 295.952 64.01 296.894 64.01C297.872 64.01 298.703 64.235 299.387 64.685C300.077 65.135 300.593 65.777 300.935 66.611C301.283 67.445 301.433 68.438 301.385 69.59H299.765V69.014C299.747 67.82 299.504 66.929 299.036 66.341C298.568 65.747 297.872 65.45 296.948 65.45C295.958 65.45 295.205 65.768 294.689 66.404C294.173 67.04 293.915 67.952 293.915 69.14C293.915 70.286 294.173 71.174 294.689 71.804C295.205 72.434 295.94 72.749 296.894 72.749C297.536 72.749 298.094 72.602 298.568 72.308C299.042 72.014 299.414 71.591 299.684 71.039L301.223 71.57C300.845 72.428 300.275 73.094 299.513 73.568C298.757 74.036 297.908 74.27 296.966 74.27ZM293.375 69.59V68.303H300.557V69.59H293.375ZM306.52 74.27C305.56 74.27 304.711 74.063 303.973 73.649C303.235 73.229 302.653 72.653 302.227 71.921L303.505 71.093C303.859 71.627 304.282 72.038 304.774 72.326C305.266 72.608 305.827 72.749 306.457 72.749C307.117 72.749 307.642 72.599 308.032 72.299C308.422 71.993 308.617 71.582 308.617 71.066C308.617 70.682 308.521 70.388 308.329 70.184C308.137 69.98 307.861 69.839 307.501 69.761C307.141 69.683 306.712 69.644 306.214 69.644H305.206V68.321H306.205C306.835 68.321 307.348 68.219 307.744 68.015C308.14 67.811 308.338 67.463 308.338 66.971C308.338 66.467 308.152 66.101 307.78 65.873C307.414 65.639 306.976 65.522 306.466 65.522C305.926 65.522 305.41 65.636 304.918 65.864C304.426 66.086 304.003 66.368 303.649 66.71L302.677 65.621C303.181 65.105 303.76 64.709 304.414 64.433C305.074 64.151 305.791 64.01 306.565 64.01C307.189 64.01 307.759 64.121 308.275 64.343C308.797 64.559 309.211 64.88 309.517 65.306C309.829 65.726 309.985 66.239 309.985 66.845C309.985 67.361 309.865 67.82 309.625 68.222C309.385 68.624 309.031 68.975 308.563 69.275L308.5 68.708C308.896 68.804 309.223 68.981 309.481 69.239C309.745 69.491 309.94 69.791 310.066 70.139C310.192 70.487 310.255 70.85 310.255 71.228C310.255 71.864 310.087 72.41 309.751 72.866C309.421 73.316 308.974 73.664 308.41 73.91C307.846 74.15 307.216 74.27 306.52 74.27ZM315.825 74V64.28H317.427V68.375H322.539V64.28H324.141V74H322.539V69.896H317.427V74H315.825ZM329.425 74.27C328.699 74.27 328.09 74.138 327.598 73.874C327.112 73.604 326.743 73.25 326.491 72.812C326.245 72.374 326.122 71.894 326.122 71.372C326.122 70.862 326.218 70.421 326.41 70.049C326.608 69.671 326.884 69.359 327.238 69.113C327.592 68.861 328.015 68.663 328.507 68.519C328.969 68.393 329.485 68.285 330.055 68.195C330.631 68.099 331.213 68.012 331.801 67.934C332.389 67.856 332.938 67.781 333.448 67.709L332.872 68.042C332.89 67.178 332.716 66.539 332.35 66.125C331.99 65.711 331.366 65.504 330.478 65.504C329.89 65.504 329.374 65.639 328.93 65.909C328.492 66.173 328.183 66.605 328.003 67.205L326.482 66.746C326.716 65.894 327.169 65.225 327.841 64.739C328.513 64.253 329.398 64.01 330.496 64.01C331.378 64.01 332.134 64.169 332.764 64.487C333.4 64.799 333.856 65.273 334.132 65.909C334.27 66.209 334.357 66.536 334.393 66.89C334.429 67.238 334.447 67.604 334.447 67.988V74H333.025V71.669L333.358 71.885C332.992 72.671 332.479 73.265 331.819 73.667C331.165 74.069 330.367 74.27 329.425 74.27ZM329.668 72.929C330.244 72.929 330.742 72.827 331.162 72.623C331.588 72.413 331.93 72.14 332.188 71.804C332.446 71.462 332.614 71.09 332.692 70.688C332.782 70.388 332.83 70.055 332.836 69.689C332.848 69.317 332.854 69.032 332.854 68.834L333.412 69.077C332.89 69.149 332.377 69.218 331.873 69.284C331.369 69.35 330.892 69.422 330.442 69.5C329.992 69.572 329.587 69.659 329.227 69.761C328.963 69.845 328.714 69.953 328.48 70.085C328.252 70.217 328.066 70.388 327.922 70.598C327.784 70.802 327.715 71.057 327.715 71.363C327.715 71.627 327.781 71.879 327.913 72.119C328.051 72.359 328.261 72.554 328.543 72.704C328.831 72.854 329.206 72.929 329.668 72.929ZM336.778 74V64.28H340.918C341.164 64.28 341.428 64.295 341.71 64.325C341.998 64.349 342.259 64.394 342.493 64.46C343.015 64.598 343.444 64.883 343.78 65.315C344.122 65.741 344.293 66.281 344.293 66.935C344.293 67.301 344.236 67.619 344.122 67.889C344.014 68.159 343.858 68.393 343.654 68.591C343.564 68.681 343.465 68.762 343.357 68.834C343.249 68.906 343.141 68.963 343.033 69.005C343.243 69.041 343.456 69.122 343.672 69.248C344.014 69.434 344.281 69.695 344.473 70.031C344.671 70.367 344.77 70.796 344.77 71.318C344.77 71.978 344.611 72.524 344.293 72.956C343.975 73.382 343.537 73.676 342.979 73.838C342.745 73.904 342.487 73.949 342.205 73.973C341.923 73.991 341.65 74 341.386 74H336.778ZM338.398 72.695H341.296C341.422 72.695 341.572 72.683 341.746 72.659C341.926 72.635 342.085 72.605 342.223 72.569C342.535 72.479 342.76 72.311 342.898 72.065C343.042 71.819 343.114 71.552 343.114 71.264C343.114 70.88 343.006 70.568 342.79 70.328C342.58 70.088 342.301 69.938 341.953 69.878C341.827 69.842 341.689 69.821 341.539 69.815C341.395 69.809 341.266 69.806 341.152 69.806H338.398V72.695ZM338.398 68.483H340.81C340.978 68.483 341.155 68.474 341.341 68.456C341.527 68.432 341.689 68.393 341.827 68.339C342.103 68.237 342.304 68.069 342.43 67.835C342.562 67.595 342.628 67.334 342.628 67.052C342.628 66.74 342.556 66.467 342.412 66.233C342.274 65.993 342.061 65.828 341.773 65.738C341.581 65.666 341.365 65.627 341.125 65.621C340.891 65.609 340.741 65.603 340.675 65.603H338.398V68.483ZM346.578 74L346.569 64.28H348.18V67.799H349.665C349.947 67.799 350.235 67.805 350.529 67.817C350.823 67.829 351.078 67.856 351.294 67.898C351.798 68 352.239 68.171 352.617 68.411C352.995 68.651 353.289 68.975 353.499 69.383C353.709 69.791 353.814 70.298 353.814 70.904C353.814 71.744 353.595 72.41 353.157 72.902C352.725 73.388 352.158 73.712 351.456 73.874C351.216 73.928 350.94 73.964 350.628 73.982C350.322 73.994 350.031 74 349.755 74H346.578ZM348.18 72.677H349.782C349.962 72.677 350.163 72.671 350.385 72.659C350.607 72.647 350.805 72.617 350.979 72.569C351.285 72.479 351.558 72.302 351.798 72.038C352.044 71.774 352.167 71.396 352.167 70.904C352.167 70.406 352.047 70.022 351.807 69.752C351.573 69.482 351.264 69.305 350.88 69.221C350.706 69.179 350.523 69.152 350.331 69.14C350.139 69.128 349.956 69.122 349.782 69.122H348.18V72.677ZM354.93 74V64.28H356.532V74H354.93ZM359.05 74L359.059 64.28H360.679V68.96L364.756 64.28H366.835L362.542 69.14L367.339 74H365.098L360.679 69.32V74H359.05ZM372.199 74.27C371.233 74.27 370.399 74.051 369.697 73.613C369.001 73.175 368.464 72.569 368.086 71.795C367.708 71.021 367.519 70.133 367.519 69.131C367.519 68.111 367.711 67.217 368.095 66.449C368.479 65.681 369.022 65.084 369.724 64.658C370.426 64.226 371.251 64.01 372.199 64.01C373.171 64.01 374.008 64.229 374.71 64.667C375.412 65.099 375.949 65.702 376.321 66.476C376.699 67.244 376.888 68.129 376.888 69.131C376.888 70.145 376.699 71.039 376.321 71.813C375.943 72.581 375.403 73.184 374.701 73.622C373.999 74.054 373.165 74.27 372.199 74.27ZM372.199 72.749C373.207 72.749 373.957 72.413 374.449 71.741C374.941 71.069 375.187 70.199 375.187 69.131C375.187 68.033 374.938 67.16 374.44 66.512C373.942 65.858 373.195 65.531 372.199 65.531C371.521 65.531 370.963 65.684 370.525 65.99C370.087 66.296 369.76 66.719 369.544 67.259C369.328 67.799 369.22 68.423 369.22 69.131C369.22 70.223 369.472 71.099 369.976 71.759C370.48 72.419 371.221 72.749 372.199 72.749ZM378.86 74V64.28H383C383.246 64.28 383.51 64.295 383.792 64.325C384.08 64.349 384.341 64.394 384.575 64.46C385.097 64.598 385.526 64.883 385.862 65.315C386.204 65.741 386.375 66.281 386.375 66.935C386.375 67.301 386.318 67.619 386.204 67.889C386.096 68.159 385.94 68.393 385.736 68.591C385.646 68.681 385.547 68.762 385.439 68.834C385.331 68.906 385.223 68.963 385.115 69.005C385.325 69.041 385.538 69.122 385.754 69.248C386.096 69.434 386.363 69.695 386.555 70.031C386.753 70.367 386.852 70.796 386.852 71.318C386.852 71.978 386.693 72.524 386.375 72.956C386.057 73.382 385.619 73.676 385.061 73.838C384.827 73.904 384.569 73.949 384.287 73.973C384.005 73.991 383.732 74 383.468 74H378.86ZM380.48 72.695H383.378C383.504 72.695 383.654 72.683 383.828 72.659C384.008 72.635 384.167 72.605 384.305 72.569C384.617 72.479 384.842 72.311 384.98 72.065C385.124 71.819 385.196 71.552 385.196 71.264C385.196 70.88 385.088 70.568 384.872 70.328C384.662 70.088 384.383 69.938 384.035 69.878C383.909 69.842 383.771 69.821 383.621 69.815C383.477 69.809 383.348 69.806 383.234 69.806H380.48V72.695ZM380.48 68.483H382.892C383.06 68.483 383.237 68.474 383.423 68.456C383.609 68.432 383.771 68.393 383.909 68.339C384.185 68.237 384.386 68.069 384.512 67.835C384.644 67.595 384.71 67.334 384.71 67.052C384.71 66.74 384.638 66.467 384.494 66.233C384.356 65.993 384.143 65.828 383.855 65.738C383.663 65.666 383.447 65.627 383.207 65.621C382.973 65.609 382.823 65.603 382.757 65.603H380.48V68.483ZM21.251 94V84.28H29.216V94H27.614V85.801H22.853V94H21.251ZM36.2006 94.27C35.2886 94.27 34.5206 94.045 33.8966 93.595C33.2726 93.139 32.7986 92.524 32.4746 91.75C32.1566 90.97 31.9976 90.097 31.9976 89.131C31.9976 88.153 32.1566 87.277 32.4746 86.503C32.7986 85.729 33.2726 85.12 33.8966 84.676C34.5266 84.232 35.2976 84.01 36.2096 84.01C37.1096 84.01 37.8836 84.235 38.5316 84.685C39.1856 85.129 39.6866 85.738 40.0346 86.512C40.3826 87.286 40.5566 88.159 40.5566 89.131C40.5566 90.103 40.3826 90.976 40.0346 91.75C39.6866 92.524 39.1856 93.139 38.5316 93.595C37.8836 94.045 37.1066 94.27 36.2006 94.27ZM31.7276 98.32V84.28H33.1586V91.435H33.3386V98.32H31.7276ZM36.0026 92.803C36.6446 92.803 37.1756 92.641 37.5956 92.317C38.0156 91.993 38.3306 91.555 38.5406 91.003C38.7506 90.445 38.8556 89.821 38.8556 89.131C38.8556 88.447 38.7506 87.829 38.5406 87.277C38.3366 86.725 38.0186 86.287 37.5866 85.963C37.1606 85.639 36.6176 85.477 35.9576 85.477C35.3276 85.477 34.8056 85.633 34.3916 85.945C33.9776 86.251 33.6686 86.68 33.4646 87.232C33.2606 87.778 33.1586 88.411 33.1586 89.131C33.1586 89.839 33.2576 90.472 33.4556 91.03C33.6596 91.582 33.9716 92.017 34.3916 92.335C34.8116 92.647 35.3486 92.803 36.0026 92.803ZM46.6695 94.27C45.7035 94.27 44.8695 94.051 44.1675 93.613C43.4715 93.175 42.9345 92.569 42.5565 91.795C42.1785 91.021 41.9895 90.133 41.9895 89.131C41.9895 88.111 42.1815 87.217 42.5655 86.449C42.9495 85.681 43.4925 85.084 44.1945 84.658C44.8965 84.226 45.7215 84.01 46.6695 84.01C47.6415 84.01 48.4785 84.229 49.1805 84.667C49.8825 85.099 50.4195 85.702 50.7915 86.476C51.1695 87.244 51.3585 88.129 51.3585 89.131C51.3585 90.145 51.1695 91.039 50.7915 91.813C50.4135 92.581 49.8735 93.184 49.1715 93.622C48.4695 94.054 47.6355 94.27 46.6695 94.27ZM46.6695 92.749C47.6775 92.749 48.4275 92.413 48.9195 91.741C49.4115 91.069 49.6575 90.199 49.6575 89.131C49.6575 88.033 49.4085 87.16 48.9105 86.512C48.4125 85.858 47.6655 85.531 46.6695 85.531C45.9915 85.531 45.4335 85.684 44.9955 85.99C44.5575 86.296 44.2305 86.719 44.0145 87.259C43.7985 87.799 43.6905 88.423 43.6905 89.131C43.6905 90.223 43.9425 91.099 44.4465 91.759C44.9505 92.419 45.6915 92.749 46.6695 92.749ZM53.3401 94V84.28H60.0901V85.801H54.9421V94H53.3401ZM66.2592 94.27C65.3472 94.27 64.5792 94.045 63.9552 93.595C63.3312 93.139 62.8572 92.524 62.5332 91.75C62.2152 90.97 62.0562 90.097 62.0562 89.131C62.0562 88.153 62.2152 87.277 62.5332 86.503C62.8572 85.729 63.3312 85.12 63.9552 84.676C64.5852 84.232 65.3562 84.01 66.2682 84.01C67.1682 84.01 67.9422 84.235 68.5902 84.685C69.2442 85.129 69.7452 85.738 70.0932 86.512C70.4412 87.286 70.6152 88.159 70.6152 89.131C70.6152 90.103 70.4412 90.976 70.0932 91.75C69.7452 92.524 69.2442 93.139 68.5902 93.595C67.9422 94.045 67.1652 94.27 66.2592 94.27ZM61.7862 98.32V84.28H63.2172V91.435H63.3972V98.32H61.7862ZM66.0612 92.803C66.7032 92.803 67.2342 92.641 67.6542 92.317C68.0742 91.993 68.3892 91.555 68.5992 91.003C68.8092 90.445 68.9142 89.821 68.9142 89.131C68.9142 88.447 68.8092 87.829 68.5992 87.277C68.3952 86.725 68.0772 86.287 67.6452 85.963C67.2192 85.639 66.6762 85.477 66.0162 85.477C65.3862 85.477 64.8642 85.633 64.4502 85.945C64.0362 86.251 63.7272 86.68 63.5232 87.232C63.3192 87.778 63.2172 88.411 63.2172 89.131C63.2172 89.839 63.3162 90.472 63.5142 91.03C63.7182 91.582 64.0302 92.017 64.4502 92.335C64.8702 92.647 65.4072 92.803 66.0612 92.803ZM75.3511 94.27C74.6251 94.27 74.0161 94.138 73.5241 93.874C73.0381 93.604 72.6691 93.25 72.4171 92.812C72.1711 92.374 72.0481 91.894 72.0481 91.372C72.0481 90.862 72.1441 90.421 72.3361 90.049C72.5341 89.671 72.8101 89.359 73.1641 89.113C73.5181 88.861 73.9411 88.663 74.4331 88.519C74.8951 88.393 75.4111 88.285 75.9811 88.195C76.5571 88.099 77.1391 88.012 77.7271 87.934C78.3151 87.856 78.8641 87.781 79.3741 87.709L78.7981 88.042C78.8161 87.178 78.6421 86.539 78.2761 86.125C77.9161 85.711 77.2921 85.504 76.4041 85.504C75.8161 85.504 75.3001 85.639 74.8561 85.909C74.4181 86.173 74.1091 86.605 73.9291 87.205L72.4081 86.746C72.6421 85.894 73.0951 85.225 73.7671 84.739C74.4391 84.253 75.3241 84.01 76.4221 84.01C77.3041 84.01 78.0601 84.169 78.6901 84.487C79.3261 84.799 79.7821 85.273 80.0581 85.909C80.1961 86.209 80.2831 86.536 80.3191 86.89C80.3551 87.238 80.3731 87.604 80.3731 87.988V94H78.9511V91.669L79.2841 91.885C78.9181 92.671 78.4051 93.265 77.7451 93.667C77.0911 94.069 76.2931 94.27 75.3511 94.27ZM75.5941 92.929C76.1701 92.929 76.6681 92.827 77.0881 92.623C77.5141 92.413 77.8561 92.14 78.1141 91.804C78.3721 91.462 78.5401 91.09 78.6181 90.688C78.7081 90.388 78.7561 90.055 78.7621 89.689C78.7741 89.317 78.7801 89.032 78.7801 88.834L79.3381 89.077C78.8161 89.149 78.3031 89.218 77.7991 89.284C77.2951 89.35 76.8181 89.422 76.3681 89.5C75.9181 89.572 75.5131 89.659 75.1531 89.761C74.8891 89.845 74.6401 89.953 74.4061 90.085C74.1781 90.217 73.9921 90.388 73.8481 90.598C73.7101 90.802 73.6411 91.057 73.6411 91.363C73.6411 91.627 73.7071 91.879 73.8391 92.119C73.9771 92.359 74.1871 92.554 74.4691 92.704C74.7571 92.854 75.1321 92.929 75.5941 92.929ZM82.7041 94V84.28H84.0811L87.7711 91.822L91.4611 84.28H92.8381V94H91.2901V87.619L88.1941 94H87.3481L84.2521 87.619V94H82.7041ZM95.3428 94V84.28H96.7198L100.41 91.822L104.1 84.28H105.477V94H103.929V87.619L100.833 94H99.9868L96.8908 87.619V94H95.3428ZM115.946 84.28V94H114.398V86.836L109.304 94H107.981V84.28H109.529V91.345L114.632 84.28H115.946ZM122.931 94.27C122.019 94.27 121.251 94.045 120.627 93.595C120.003 93.139 119.529 92.524 119.205 91.75C118.887 90.97 118.728 90.097 118.728 89.131C118.728 88.153 118.887 87.277 119.205 86.503C119.529 85.729 120.003 85.12 120.627 84.676C121.257 84.232 122.028 84.01 122.94 84.01C123.84 84.01 124.614 84.235 125.262 84.685C125.916 85.129 126.417 85.738 126.765 86.512C127.113 87.286 127.287 88.159 127.287 89.131C127.287 90.103 127.113 90.976 126.765 91.75C126.417 92.524 125.916 93.139 125.262 93.595C124.614 94.045 123.837 94.27 122.931 94.27ZM118.458 98.32V84.28H119.889V91.435H120.069V98.32H118.458ZM122.733 92.803C123.375 92.803 123.906 92.641 124.326 92.317C124.746 91.993 125.061 91.555 125.271 91.003C125.481 90.445 125.586 89.821 125.586 89.131C125.586 88.447 125.481 87.829 125.271 87.277C125.067 86.725 124.749 86.287 124.317 85.963C123.891 85.639 123.348 85.477 122.688 85.477C122.058 85.477 121.536 85.633 121.122 85.945C120.708 86.251 120.399 86.68 120.195 87.232C119.991 87.778 119.889 88.411 119.889 89.131C119.889 89.839 119.988 90.472 120.186 91.03C120.39 91.582 120.702 92.017 121.122 92.335C121.542 92.647 122.079 92.803 122.733 92.803ZM133.4 94.27C132.434 94.27 131.6 94.051 130.898 93.613C130.202 93.175 129.665 92.569 129.287 91.795C128.909 91.021 128.72 90.133 128.72 89.131C128.72 88.111 128.912 87.217 129.296 86.449C129.68 85.681 130.223 85.084 130.925 84.658C131.627 84.226 132.452 84.01 133.4 84.01C134.372 84.01 135.209 84.229 135.911 84.667C136.613 85.099 137.15 85.702 137.522 86.476C137.9 87.244 138.089 88.129 138.089 89.131C138.089 90.145 137.9 91.039 137.522 91.813C137.144 92.581 136.604 93.184 135.902 93.622C135.2 94.054 134.366 94.27 133.4 94.27ZM133.4 92.749C134.408 92.749 135.158 92.413 135.65 91.741C136.142 91.069 136.388 90.199 136.388 89.131C136.388 88.033 136.139 87.16 135.641 86.512C135.143 85.858 134.396 85.531 133.4 85.531C132.722 85.531 132.164 85.684 131.726 85.99C131.288 86.296 130.961 86.719 130.745 87.259C130.529 87.799 130.421 88.423 130.421 89.131C130.421 90.223 130.673 91.099 131.177 91.759C131.681 92.419 132.422 92.749 133.4 92.749ZM140.062 94V84.28H144.202C144.448 84.28 144.712 84.295 144.994 84.325C145.282 84.349 145.543 84.394 145.777 84.46C146.299 84.598 146.728 84.883 147.064 85.315C147.406 85.741 147.577 86.281 147.577 86.935C147.577 87.301 147.52 87.619 147.406 87.889C147.298 88.159 147.142 88.393 146.938 88.591C146.848 88.681 146.749 88.762 146.641 88.834C146.533 88.906 146.425 88.963 146.317 89.005C146.527 89.041 146.74 89.122 146.956 89.248C147.298 89.434 147.565 89.695 147.757 90.031C147.955 90.367 148.054 90.796 148.054 91.318C148.054 91.978 147.895 92.524 147.577 92.956C147.259 93.382 146.821 93.676 146.263 93.838C146.029 93.904 145.771 93.949 145.489 93.973C145.207 93.991 144.934 94 144.67 94H140.062ZM141.682 92.695H144.58C144.706 92.695 144.856 92.683 145.03 92.659C145.21 92.635 145.369 92.605 145.507 92.569C145.819 92.479 146.044 92.311 146.182 92.065C146.326 91.819 146.398 91.552 146.398 91.264C146.398 90.88 146.29 90.568 146.074 90.328C145.864 90.088 145.585 89.938 145.237 89.878C145.111 89.842 144.973 89.821 144.823 89.815C144.679 89.809 144.55 89.806 144.436 89.806H141.682V92.695ZM141.682 88.483H144.094C144.262 88.483 144.439 88.474 144.625 88.456C144.811 88.432 144.973 88.393 145.111 88.339C145.387 88.237 145.588 88.069 145.714 87.835C145.846 87.595 145.912 87.334 145.912 87.052C145.912 86.74 145.84 86.467 145.696 86.233C145.558 85.993 145.345 85.828 145.057 85.738C144.865 85.666 144.649 85.627 144.409 85.621C144.175 85.609 144.025 85.603 143.959 85.603H141.682V88.483ZM152.625 94.27C151.899 94.27 151.29 94.138 150.798 93.874C150.312 93.604 149.943 93.25 149.691 92.812C149.445 92.374 149.322 91.894 149.322 91.372C149.322 90.862 149.418 90.421 149.61 90.049C149.808 89.671 150.084 89.359 150.438 89.113C150.792 88.861 151.215 88.663 151.707 88.519C152.169 88.393 152.685 88.285 153.255 88.195C153.831 88.099 154.413 88.012 155.001 87.934C155.589 87.856 156.138 87.781 156.648 87.709L156.072 88.042C156.09 87.178 155.916 86.539 155.55 86.125C155.19 85.711 154.566 85.504 153.678 85.504C153.09 85.504 152.574 85.639 152.13 85.909C151.692 86.173 151.383 86.605 151.203 87.205L149.682 86.746C149.916 85.894 150.369 85.225 151.041 84.739C151.713 84.253 152.598 84.01 153.696 84.01C154.578 84.01 155.334 84.169 155.964 84.487C156.6 84.799 157.056 85.273 157.332 85.909C157.47 86.209 157.557 86.536 157.593 86.89C157.629 87.238 157.647 87.604 157.647 87.988V94H156.225V91.669L156.558 91.885C156.192 92.671 155.679 93.265 155.019 93.667C154.365 94.069 153.567 94.27 152.625 94.27ZM152.868 92.929C153.444 92.929 153.942 92.827 154.362 92.623C154.788 92.413 155.13 92.14 155.388 91.804C155.646 91.462 155.814 91.09 155.892 90.688C155.982 90.388 156.03 90.055 156.036 89.689C156.048 89.317 156.054 89.032 156.054 88.834L156.612 89.077C156.09 89.149 155.577 89.218 155.073 89.284C154.569 89.35 154.092 89.422 153.642 89.5C153.192 89.572 152.787 89.659 152.427 89.761C152.163 89.845 151.914 89.953 151.68 90.085C151.452 90.217 151.266 90.388 151.122 90.598C150.984 90.802 150.915 91.057 150.915 91.363C150.915 91.627 150.981 91.879 151.113 92.119C151.251 92.359 151.461 92.554 151.743 92.704C152.031 92.854 152.406 92.929 152.868 92.929ZM159.978 94V84.28H161.58V88.375H166.692V84.28H168.294V94H166.692V89.896H161.58V94H159.978ZM178.771 84.28V94H177.223V86.836L172.129 94H170.806V84.28H172.354V91.345L177.457 84.28H178.771ZM187.294 94V90.481H185.197C184.951 90.481 184.678 90.472 184.378 90.454C184.084 90.43 183.808 90.397 183.55 90.355C182.848 90.223 182.254 89.914 181.768 89.428C181.288 88.942 181.048 88.27 181.048 87.412C181.048 86.578 181.273 85.909 181.723 85.405C182.179 84.895 182.74 84.565 183.406 84.415C183.706 84.343 184.009 84.304 184.315 84.298C184.627 84.286 184.891 84.28 185.107 84.28H188.896L188.905 94H187.294ZM180.751 94L183.334 90.04H185.062L182.479 94H180.751ZM185.08 89.158H187.294V85.603H185.08C184.942 85.603 184.759 85.609 184.531 85.621C184.309 85.633 184.096 85.669 183.892 85.729C183.7 85.783 183.511 85.882 183.325 86.026C183.145 86.17 182.995 86.356 182.875 86.584C182.755 86.812 182.695 87.082 182.695 87.394C182.695 87.844 182.821 88.21 183.073 88.492C183.325 88.768 183.631 88.954 183.991 89.05C184.189 89.098 184.384 89.128 184.576 89.14C184.774 89.152 184.942 89.158 185.08 89.158ZM202.993 84.28V94H201.445V86.836L196.351 94H195.028V84.28H196.576V91.345L201.679 84.28H202.993ZM213.212 94.27C212.228 94.27 211.391 94.051 210.701 93.613C210.017 93.169 209.495 92.56 209.135 91.786C208.775 91.012 208.589 90.13 208.577 89.14C208.589 88.126 208.778 87.235 209.144 86.467C209.516 85.693 210.047 85.09 210.737 84.658C211.427 84.226 212.258 84.01 213.23 84.01C214.256 84.01 215.138 84.262 215.876 84.766C216.62 85.27 217.118 85.96 217.37 86.836L215.786 87.313C215.582 86.749 215.249 86.311 214.787 85.999C214.331 85.687 213.806 85.531 213.212 85.531C212.546 85.531 211.997 85.687 211.565 85.999C211.133 86.305 210.812 86.731 210.602 87.277C210.392 87.817 210.284 88.438 210.278 89.14C210.29 90.22 210.539 91.093 211.025 91.759C211.517 92.419 212.246 92.749 213.212 92.749C213.848 92.749 214.376 92.605 214.796 92.317C215.216 92.023 215.534 91.6 215.75 91.048L217.37 91.471C217.034 92.377 216.509 93.07 215.795 93.55C215.081 94.03 214.22 94.27 213.212 94.27ZM222.802 94V84.28H224.179L227.869 91.822L231.559 84.28H232.936V94H231.388V87.619L228.292 94H227.446L224.35 87.619V94H222.802ZM243.405 84.28V94H241.857V86.836L236.763 94H235.44V84.28H236.988V91.345L242.091 84.28H243.405ZM245.917 94V84.28H247.519V88.375H252.631V84.28H254.233V94H252.631V89.896H247.519V94H245.917ZM264.71 84.28V94H263.162V86.836L258.068 94H256.745V84.28H258.293V91.345L263.396 84.28H264.71ZM267.222 94V84.28H268.599L272.289 91.822L275.979 84.28H277.356V94H275.808V87.619L272.712 94H271.866L268.77 87.619V94H267.222ZM282.632 94.27C281.906 94.27 281.297 94.138 280.805 93.874C280.319 93.604 279.95 93.25 279.698 92.812C279.452 92.374 279.329 91.894 279.329 91.372C279.329 90.862 279.425 90.421 279.617 90.049C279.815 89.671 280.091 89.359 280.445 89.113C280.799 88.861 281.222 88.663 281.714 88.519C282.176 88.393 282.692 88.285 283.262 88.195C283.838 88.099 284.42 88.012 285.008 87.934C285.596 87.856 286.145 87.781 286.655 87.709L286.079 88.042C286.097 87.178 285.923 86.539 285.557 86.125C285.197 85.711 284.573 85.504 283.685 85.504C283.097 85.504 282.581 85.639 282.137 85.909C281.699 86.173 281.39 86.605 281.21 87.205L279.689 86.746C279.923 85.894 280.376 85.225 281.048 84.739C281.72 84.253 282.605 84.01 283.703 84.01C284.585 84.01 285.341 84.169 285.971 84.487C286.607 84.799 287.063 85.273 287.339 85.909C287.477 86.209 287.564 86.536 287.6 86.89C287.636 87.238 287.654 87.604 287.654 87.988V94H286.232V91.669L286.565 91.885C286.199 92.671 285.686 93.265 285.026 93.667C284.372 94.069 283.574 94.27 282.632 94.27ZM282.875 92.929C283.451 92.929 283.949 92.827 284.369 92.623C284.795 92.413 285.137 92.14 285.395 91.804C285.653 91.462 285.821 91.09 285.899 90.688C285.989 90.388 286.037 90.055 286.043 89.689C286.055 89.317 286.061 89.032 286.061 88.834L286.619 89.077C286.097 89.149 285.584 89.218 285.08 89.284C284.576 89.35 284.099 89.422 283.649 89.5C283.199 89.572 282.794 89.659 282.434 89.761C282.17 89.845 281.921 89.953 281.687 90.085C281.459 90.217 281.273 90.388 281.129 90.598C280.991 90.802 280.922 91.057 280.922 91.363C280.922 91.627 280.988 91.879 281.12 92.119C281.258 92.359 281.468 92.554 281.75 92.704C282.038 92.854 282.413 92.929 282.875 92.929ZM289.094 94V92.623C289.454 92.689 289.727 92.677 289.913 92.587C290.105 92.491 290.246 92.326 290.336 92.092C290.432 91.852 290.51 91.552 290.57 91.192C290.672 90.622 290.759 89.986 290.831 89.284C290.909 88.582 290.978 87.814 291.038 86.98C291.104 86.14 291.164 85.24 291.218 84.28H298.013V94H296.411V85.801H292.676C292.64 86.353 292.595 86.92 292.541 87.502C292.493 88.084 292.442 88.651 292.388 89.203C292.334 89.749 292.274 90.259 292.208 90.733C292.148 91.201 292.082 91.606 292.01 91.948C291.896 92.536 291.737 93.007 291.533 93.361C291.329 93.709 291.035 93.934 290.651 94.036C290.267 94.144 289.748 94.132 289.094 94ZM300.541 94L300.532 84.28H302.143V87.799H304.24C304.522 87.799 304.81 87.805 305.104 87.817C305.398 87.829 305.653 87.856 305.869 87.898C306.373 87.994 306.814 88.162 307.192 88.402C307.57 88.642 307.864 88.969 308.074 89.383C308.284 89.791 308.389 90.298 308.389 90.904C308.389 91.744 308.17 92.41 307.732 92.902C307.3 93.388 306.733 93.712 306.031 93.874C305.791 93.928 305.515 93.964 305.203 93.982C304.897 93.994 304.606 94 304.33 94H300.541ZM302.143 92.677H304.357C304.537 92.677 304.738 92.671 304.96 92.659C305.182 92.647 305.38 92.617 305.554 92.569C305.86 92.479 306.133 92.302 306.373 92.038C306.619 91.774 306.742 91.396 306.742 90.904C306.742 90.406 306.622 90.022 306.382 89.752C306.148 89.482 305.839 89.305 305.455 89.221C305.281 89.179 305.098 89.152 304.906 89.14C304.714 89.128 304.531 89.122 304.357 89.122H302.143V92.677ZM310.095 94V84.28H311.697V88.375H316.809V84.28H318.411V94H316.809V89.896H311.697V94H310.095ZM320.932 94L320.923 84.28H322.534V87.799H324.019C324.301 87.799 324.589 87.805 324.883 87.817C325.177 87.829 325.432 87.856 325.648 87.898C326.152 88 326.593 88.171 326.971 88.411C327.349 88.651 327.643 88.975 327.853 89.383C328.063 89.791 328.168 90.298 328.168 90.904C328.168 91.744 327.949 92.41 327.511 92.902C327.079 93.388 326.512 93.712 325.81 93.874C325.57 93.928 325.294 93.964 324.982 93.982C324.676 93.994 324.385 94 324.109 94H320.932ZM322.534 92.677H324.136C324.316 92.677 324.517 92.671 324.739 92.659C324.961 92.647 325.159 92.617 325.333 92.569C325.639 92.479 325.912 92.302 326.152 92.038C326.398 91.774 326.521 91.396 326.521 90.904C326.521 90.406 326.401 90.022 326.161 89.752C325.927 89.482 325.618 89.305 325.234 89.221C325.06 89.179 324.877 89.152 324.685 89.14C324.493 89.128 324.31 89.122 324.136 89.122H322.534V92.677ZM329.284 94V84.28H330.886V94H329.284ZM333.403 94V84.28H334.78L338.47 91.822L342.16 84.28H343.537V94H341.989V87.619L338.893 94H338.047L334.951 87.619V94H333.403ZM25.211 114.279C24.293 114.273 23.51 114.075 22.862 113.685C22.214 113.289 21.71 112.71 21.35 111.948C20.99 111.186 20.789 110.253 20.747 109.149C20.723 108.639 20.729 108.078 20.765 107.466C20.807 106.854 20.873 106.266 20.963 105.702C21.059 105.138 21.179 104.673 21.323 104.307C21.485 103.869 21.713 103.464 22.007 103.092C22.307 102.714 22.643 102.402 23.015 102.156C23.393 101.898 23.816 101.697 24.284 101.553C24.752 101.409 25.241 101.298 25.751 101.22C26.267 101.136 26.783 101.064 27.299 101.004C27.815 100.938 28.307 100.86 28.775 100.77L28.937 102.21C28.607 102.282 28.217 102.345 27.767 102.399C27.317 102.447 26.849 102.504 26.363 102.57C25.883 102.636 25.421 102.729 24.977 102.849C24.539 102.963 24.161 103.122 23.843 103.326C23.375 103.608 23.015 104.031 22.763 104.595C22.517 105.153 22.367 105.78 22.313 106.476C22.685 105.9 23.168 105.477 23.762 105.207C24.356 104.937 24.989 104.802 25.661 104.802C26.531 104.802 27.281 105.006 27.911 105.414C28.541 105.816 29.024 106.371 29.36 107.079C29.702 107.787 29.873 108.594 29.873 109.5C29.873 110.46 29.681 111.3 29.297 112.02C28.913 112.74 28.37 113.298 27.668 113.694C26.972 114.09 26.153 114.285 25.211 114.279ZM25.31 112.758C26.252 112.758 26.966 112.467 27.452 111.885C27.938 111.297 28.181 110.517 28.181 109.545C28.181 108.549 27.929 107.766 27.425 107.196C26.921 106.62 26.213 106.332 25.301 106.332C24.377 106.332 23.669 106.62 23.177 107.196C22.691 107.766 22.448 108.549 22.448 109.545C22.448 110.547 22.694 111.333 23.186 111.903C23.678 112.473 24.386 112.758 25.31 112.758ZM39.7886 114.27C38.9606 114.27 38.2286 114.093 37.5926 113.739C36.9626 113.385 36.4556 112.884 36.0716 112.236C35.6876 111.588 35.4476 110.823 35.3516 109.941H33.4526V114H31.8506V104.28H33.4526V108.339H35.3426C35.4386 107.439 35.6816 106.665 36.0716 106.017C36.4616 105.369 36.9746 104.874 37.6106 104.532C38.2466 104.184 38.9786 104.01 39.8066 104.01C40.7726 104.01 41.6036 104.229 42.2996 104.667C43.0016 105.105 43.5386 105.708 43.9106 106.476C44.2886 107.244 44.4776 108.126 44.4776 109.122C44.4776 110.136 44.2856 111.03 43.9016 111.804C43.5236 112.578 42.9836 113.184 42.2816 113.622C41.5856 114.054 40.7546 114.27 39.7886 114.27ZM39.7616 112.749C40.7816 112.749 41.5376 112.416 42.0296 111.75C42.5276 111.078 42.7766 110.205 42.7766 109.131C42.7766 108.027 42.5246 107.151 42.0206 106.503C41.5226 105.855 40.7726 105.531 39.7706 105.531C38.8046 105.531 38.0696 105.852 37.5656 106.494C37.0616 107.136 36.8096 108.012 36.8096 109.122C36.8096 110.22 37.0586 111.099 37.5566 111.759C38.0606 112.419 38.7956 112.749 39.7616 112.749ZM45.7295 116.16V112.677C46.2755 112.677 46.6655 112.5 46.8995 112.146C47.1335 111.786 47.3225 111.195 47.4665 110.373C47.5625 109.857 47.6405 109.305 47.7005 108.717C47.7605 108.129 47.8115 107.475 47.8535 106.755C47.9015 106.029 47.9465 105.204 47.9885 104.28H54.6845V112.677H55.6295V116.16H54.0995V114H47.2595V116.16H45.7295ZM48.1955 112.677H53.0825V105.603H49.4375C49.4195 106.029 49.3955 106.476 49.3655 106.944C49.3355 107.406 49.2995 107.868 49.2575 108.33C49.2215 108.792 49.1765 109.23 49.1225 109.644C49.0745 110.052 49.0175 110.418 48.9515 110.742C48.8735 111.192 48.7835 111.573 48.6815 111.885C48.5795 112.197 48.4175 112.461 48.1955 112.677ZM56.3558 114L60.2798 109.14L56.5448 104.28H58.3268L61.9358 109.05V104.28H63.3938V109.05L67.0028 104.28H68.7848L65.0498 109.14L68.9738 114H67.1108L63.3938 109.23V114H61.9358V109.23L58.2188 114H56.3558ZM74.2689 114.27C73.3149 114.27 72.4809 114.06 71.7669 113.64C71.0589 113.214 70.5069 112.623 70.1109 111.867C69.7149 111.105 69.5169 110.217 69.5169 109.203C69.5169 108.141 69.7119 107.223 70.1019 106.449C70.4919 105.669 71.0349 105.069 71.7309 104.649C72.4329 104.223 73.2549 104.01 74.1969 104.01C75.1749 104.01 76.0059 104.235 76.6899 104.685C77.3799 105.135 77.8959 105.777 78.2379 106.611C78.5859 107.445 78.7359 108.438 78.6879 109.59H77.0679V109.014C77.0499 107.82 76.8069 106.929 76.3389 106.341C75.8709 105.747 75.1749 105.45 74.2509 105.45C73.2609 105.45 72.5079 105.768 71.9919 106.404C71.4759 107.04 71.2179 107.952 71.2179 109.14C71.2179 110.286 71.4759 111.174 71.9919 111.804C72.5079 112.434 73.2429 112.749 74.1969 112.749C74.8389 112.749 75.3969 112.602 75.8709 112.308C76.3449 112.014 76.7169 111.591 76.9869 111.039L78.5259 111.57C78.1479 112.428 77.5779 113.094 76.8159 113.568C76.0599 114.036 75.2109 114.27 74.2689 114.27ZM70.6779 109.59V108.303H77.8599V109.59H70.6779ZM83.0899 114V105.738H79.7059V104.28H88.0759V105.738H84.6919V114H83.0899ZM93.7438 114.27C92.7778 114.27 91.9438 114.051 91.2418 113.613C90.5458 113.175 90.0088 112.569 89.6308 111.795C89.2528 111.021 89.0638 110.133 89.0638 109.131C89.0638 108.111 89.2558 107.217 89.6398 106.449C90.0238 105.681 90.5668 105.084 91.2688 104.658C91.9708 104.226 92.7958 104.01 93.7438 104.01C94.7158 104.01 95.5528 104.229 96.2548 104.667C96.9568 105.099 97.4938 105.702 97.8658 106.476C98.2438 107.244 98.4328 108.129 98.4328 109.131C98.4328 110.145 98.2438 111.039 97.8658 111.813C97.4878 112.581 96.9478 113.184 96.2458 113.622C95.5438 114.054 94.7098 114.27 93.7438 114.27ZM93.7438 112.749C94.7518 112.749 95.5018 112.413 95.9938 111.741C96.4858 111.069 96.7318 110.199 96.7318 109.131C96.7318 108.033 96.4828 107.16 95.9848 106.512C95.4868 105.858 94.7398 105.531 93.7438 105.531C93.0658 105.531 92.5078 105.684 92.0698 105.99C91.6318 106.296 91.3048 106.719 91.0888 107.259C90.8728 107.799 90.7648 108.423 90.7648 109.131C90.7648 110.223 91.0168 111.099 91.5208 111.759C92.0248 112.419 92.7658 112.749 93.7438 112.749ZM100.405 114V104.28H101.782L105.472 111.822L109.162 104.28H110.539V114H108.991V107.619L105.895 114H105.049L101.953 107.619V114H100.405ZM113.341 114V112.236H115.105V114H113.341Z" fill="#101012"></path></svg> 