<?xml version="1.0" encoding="UTF-8"?> <svg xmlns="http://www.w3.org/2000/svg" width="293" height="71" viewBox="0 0 293 71" fill="none"><path fill-rule="evenodd" clip-rule="evenodd" d="M292.418 29.099C292.418 18.9134 292.418 13.8206 290.436 9.93021C288.692 6.50813 285.91 3.72589 282.488 1.98225C278.597 0 273.505 0 263.319 0L34.1642 0C23.9786 0 18.8858 0 14.9954 1.98225C11.5734 3.72589 8.79112 6.50813 7.04748 9.93021C5.06523 13.8206 5.06523 18.9134 5.06523 29.099V41.2236C5.06523 51.4092 5.06523 56.502 7.04748 60.3924C8.79112 63.8145 11.5734 66.5967 14.9954 68.3404C18.8858 70.3226 23.9786 70.3226 34.1642 70.3226H263.319C273.505 70.3226 278.597 70.3226 282.488 68.3404C285.91 66.5967 288.692 63.8145 290.436 60.3924C292.418 56.502 292.418 51.4092 292.418 41.2236V29.099Z" fill="#E6E5EB"></path><path fill-rule="evenodd" clip-rule="evenodd" d="M0 69.9236L0 70.3221H7.27475C16.6495 70.3221 24.2492 62.7224 24.2492 53.3477H6.06229C6.06229 56.6677 6.06229 58.3278 5.83079 59.7151C5.14896 63.8011 3.02737 67.3819 0 69.9236Z" fill="#E6E5EB"></path><path d="M32.3081 32.3379H30.7061V27.5499H26.7191L26.1071 27.4509C25.0991 27.2649 24.3341 26.8059 23.8121 26.0739C23.2901 25.3359 23.0291 24.4659 23.0291 23.4639C23.0291 22.7739 23.1491 22.1469 23.3891 21.5829C23.6351 21.0129 23.9951 20.5419 24.4691 20.1699C24.9491 19.7979 25.5371 19.5579 26.2331 19.4499C26.4011 19.4199 26.5691 19.4019 26.7371 19.3959C26.9111 19.3839 27.0611 19.3779 27.1871 19.3779H32.3081V32.3379ZM24.5951 32.3379H22.7591L25.5671 26.5779L27.1511 27.0639L24.5951 32.3379ZM30.7061 26.0289V20.8989H27.2411C27.1331 20.8989 27.0041 20.9049 26.8541 20.9169C26.7101 20.9229 26.5691 20.9439 26.4311 20.9799C26.0171 21.0699 25.6811 21.2439 25.4231 21.5019C25.1651 21.7599 24.9731 22.0629 24.8471 22.4109C24.7271 22.7529 24.6671 23.1039 24.6671 23.4639C24.6671 23.8239 24.7271 24.1779 24.8471 24.5259C24.9731 24.8679 25.1651 25.1679 25.4231 25.4259C25.6811 25.6779 26.0171 25.8519 26.4311 25.9479C26.5691 25.9779 26.7101 25.9989 26.8541 26.0109C27.0041 26.0229 27.1331 26.0289 27.2411 26.0289H30.7061ZM39.7838 36.6579L41.6648 31.5459L41.6918 33.0579L37.4438 22.6179H39.1268L42.4568 31.0149H41.8808L45.0038 22.6179H46.6328L41.3408 36.6579H39.7838ZM47.0394 32.3379L50.9634 27.4779L47.2284 22.6179H49.0104L52.6194 27.3879V22.6179H54.0774V27.3879L57.6864 22.6179H59.4684L55.7334 27.4779L59.6574 32.3379H57.7944L54.0774 27.5679V32.3379H52.6194V27.5679L48.9024 32.3379H47.0394ZM64.9525 32.6079C63.9985 32.6079 63.1645 32.3979 62.4505 31.9779C61.7425 31.5519 61.1905 30.9609 60.7945 30.2049C60.3985 29.4429 60.2005 28.5549 60.2005 27.5409C60.2005 26.4789 60.3955 25.5609 60.7855 24.7869C61.1755 24.0069 61.7185 23.4069 62.4145 22.9869C63.1165 22.5609 63.9385 22.3479 64.8805 22.3479C65.8585 22.3479 66.6895 22.5729 67.3735 23.0229C68.0635 23.4729 68.5795 24.1149 68.9215 24.9489C69.2695 25.7829 69.4195 26.7759 69.3715 27.9279H67.7515V27.3519C67.7335 26.1579 67.4905 25.2669 67.0225 24.6789C66.5545 24.0849 65.8585 23.7879 64.9345 23.7879C63.9445 23.7879 63.1915 24.1059 62.6755 24.7419C62.1595 25.3779 61.9015 26.2899 61.9015 27.4779C61.9015 28.6239 62.1595 29.5119 62.6755 30.1419C63.1915 30.7719 63.9265 31.0869 64.8805 31.0869C65.5225 31.0869 66.0805 30.9399 66.5545 30.6459C67.0285 30.3519 67.4005 29.9289 67.6705 29.3769L69.2095 29.9079C68.8315 30.7659 68.2615 31.4319 67.4995 31.9059C66.7435 32.3739 65.8945 32.6079 64.9525 32.6079ZM61.3615 27.9279V26.6409H68.5435V27.9279H61.3615ZM74.9698 32.3379V22.6179H79.1098C79.3558 22.6179 79.6198 22.6329 79.9018 22.6629C80.1898 22.6869 80.4508 22.7319 80.6848 22.7979C81.2068 22.9359 81.6358 23.2209 81.9718 23.6529C82.3138 24.0789 82.4848 24.6189 82.4848 25.2729C82.4848 25.6389 82.4278 25.9569 82.3138 26.2269C82.2058 26.4969 82.0498 26.7309 81.8458 26.9289C81.7558 27.0189 81.6568 27.0999 81.5488 27.1719C81.4408 27.2439 81.3328 27.3009 81.2248 27.3429C81.4348 27.3789 81.6478 27.4599 81.8638 27.5859C82.2058 27.7719 82.4728 28.0329 82.6648 28.3689C82.8628 28.7049 82.9618 29.1339 82.9618 29.6559C82.9618 30.3159 82.8028 30.8619 82.4848 31.2939C82.1668 31.7199 81.7288 32.0139 81.1708 32.1759C80.9368 32.2419 80.6788 32.2869 80.3968 32.3109C80.1148 32.3289 79.8418 32.3379 79.5778 32.3379H74.9698ZM76.5898 31.0329H79.4878C79.6138 31.0329 79.7638 31.0209 79.9378 30.9969C80.1178 30.9729 80.2768 30.9429 80.4148 30.9069C80.7268 30.8169 80.9518 30.6489 81.0898 30.4029C81.2338 30.1569 81.3058 29.8899 81.3058 29.6019C81.3058 29.2179 81.1978 28.9059 80.9818 28.6659C80.7718 28.4259 80.4928 28.2759 80.1448 28.2159C80.0188 28.1799 79.8808 28.1589 79.7308 28.1529C79.5868 28.1469 79.4578 28.1439 79.3438 28.1439H76.5898V31.0329ZM76.5898 26.8209H79.0018C79.1698 26.8209 79.3468 26.8119 79.5328 26.7939C79.7188 26.7699 79.8808 26.7309 80.0188 26.6769C80.2948 26.5749 80.4958 26.4069 80.6218 26.1729C80.7538 25.9329 80.8198 25.6719 80.8198 25.3899C80.8198 25.0779 80.7478 24.8049 80.6038 24.5709C80.4658 24.3309 80.2528 24.1659 79.9648 24.0759C79.7728 24.0039 79.5568 23.9649 79.3168 23.9589C79.0828 23.9469 78.9328 23.9409 78.8668 23.9409H76.5898V26.8209ZM84.7608 32.3379V22.6179H86.3628V26.7129H91.4748V22.6179H93.0768V32.3379H91.4748V28.2339H86.3628V32.3379H84.7608ZM99.8099 32.6079C98.8559 32.6079 98.0219 32.3979 97.3079 31.9779C96.5999 31.5519 96.0479 30.9609 95.6519 30.2049C95.2559 29.4429 95.0579 28.5549 95.0579 27.5409C95.0579 26.4789 95.2529 25.5609 95.6429 24.7869C96.0329 24.0069 96.5759 23.4069 97.2719 22.9869C97.9739 22.5609 98.7959 22.3479 99.7379 22.3479C100.716 22.3479 101.547 22.5729 102.231 23.0229C102.921 23.4729 103.437 24.1149 103.779 24.9489C104.127 25.7829 104.277 26.7759 104.229 27.9279H102.609V27.3519C102.591 26.1579 102.348 25.2669 101.88 24.6789C101.412 24.0849 100.716 23.7879 99.7919 23.7879C98.8019 23.7879 98.0489 24.1059 97.5329 24.7419C97.0169 25.3779 96.7589 26.2899 96.7589 27.4779C96.7589 28.6239 97.0169 29.5119 97.5329 30.1419C98.0489 30.7719 98.7839 31.0869 99.7379 31.0869C100.38 31.0869 100.938 30.9399 101.412 30.6459C101.886 30.3519 102.258 29.9289 102.528 29.3769L104.067 29.9079C103.689 30.7659 103.119 31.4319 102.357 31.9059C101.601 32.3739 100.752 32.6079 99.8099 32.6079ZM96.2189 27.9279V26.6409H103.401V27.9279H96.2189ZM105.513 34.4979V31.0149C106.059 31.0149 106.449 30.8379 106.683 30.4839C106.917 30.1239 107.106 29.5329 107.25 28.7109C107.346 28.1949 107.424 27.6429 107.484 27.0549C107.544 26.4669 107.595 25.8129 107.637 25.0929C107.685 24.3669 107.73 23.5419 107.772 22.6179H114.468V31.0149H115.413V34.4979H113.883V32.3379H107.043V34.4979H105.513ZM107.979 31.0149H112.866V23.9409H109.221C109.203 24.3669 109.179 24.8139 109.149 25.2819C109.119 25.7439 109.083 26.2059 109.041 26.6679C109.005 27.1299 108.96 27.5679 108.906 27.9819C108.858 28.3899 108.801 28.7559 108.735 29.0799C108.657 29.5299 108.567 29.9109 108.465 30.2229C108.363 30.5349 108.201 30.7989 107.979 31.0149ZM121.683 32.6079C120.771 32.6079 120.003 32.3829 119.379 31.9329C118.755 31.4769 118.281 30.8619 117.957 30.0879C117.639 29.3079 117.48 28.4349 117.48 27.4689C117.48 26.4909 117.639 25.6149 117.957 24.8409C118.281 24.0669 118.755 23.4579 119.379 23.0139C120.009 22.5699 120.78 22.3479 121.692 22.3479C122.592 22.3479 123.366 22.5729 124.014 23.0229C124.668 23.4669 125.169 24.0759 125.517 24.8499C125.865 25.6239 126.039 26.4969 126.039 27.4689C126.039 28.4409 125.865 29.3139 125.517 30.0879C125.169 30.8619 124.668 31.4769 124.014 31.9329C123.366 32.3829 122.589 32.6079 121.683 32.6079ZM117.21 36.6579V22.6179H118.641V29.7729H118.821V36.6579H117.21ZM121.485 31.1409C122.127 31.1409 122.658 30.9789 123.078 30.6549C123.498 30.3309 123.813 29.8929 124.023 29.3409C124.233 28.7829 124.338 28.1589 124.338 27.4689C124.338 26.7849 124.233 26.1669 124.023 25.6149C123.819 25.0629 123.501 24.6249 123.069 24.3009C122.643 23.9769 122.1 23.8149 121.44 23.8149C120.81 23.8149 120.288 23.9709 119.874 24.2829C119.46 24.5889 119.151 25.0179 118.947 25.5699C118.743 26.1159 118.641 26.7489 118.641 27.4689C118.641 28.1769 118.74 28.8099 118.938 29.3679C119.142 29.9199 119.454 30.3549 119.874 30.6729C120.294 30.9849 120.831 31.1409 121.485 31.1409ZM134.015 32.3379V28.8189H131.918C131.672 28.8189 131.399 28.8099 131.099 28.7919C130.805 28.7679 130.529 28.7349 130.271 28.6929C129.569 28.5609 128.975 28.2519 128.489 27.7659C128.009 27.2799 127.769 26.6079 127.769 25.7499C127.769 24.9159 127.994 24.2469 128.444 23.7429C128.9 23.2329 129.461 22.9029 130.127 22.7529C130.427 22.6809 130.73 22.6419 131.036 22.6359C131.348 22.6239 131.612 22.6179 131.828 22.6179H135.617L135.626 32.3379H134.015ZM127.472 32.3379L130.055 28.3779H131.783L129.2 32.3379H127.472ZM131.801 27.4959H134.015V23.9409H131.801C131.663 23.9409 131.48 23.9469 131.252 23.9589C131.03 23.9709 130.817 24.0069 130.613 24.0669C130.421 24.1209 130.232 24.2199 130.046 24.3639C129.866 24.5079 129.716 24.6939 129.596 24.9219C129.476 25.1499 129.416 25.4199 129.416 25.7319C129.416 26.1819 129.542 26.5479 129.794 26.8299C130.046 27.1059 130.352 27.2919 130.712 27.3879C130.91 27.4359 131.105 27.4659 131.297 27.4779C131.495 27.4899 131.663 27.4959 131.801 27.4959ZM137.255 32.3379V30.9609C137.615 31.0269 137.888 31.0149 138.074 30.9249C138.266 30.8289 138.407 30.6639 138.497 30.4299C138.593 30.1899 138.671 29.8899 138.731 29.5299C138.833 28.9599 138.92 28.3239 138.992 27.6219C139.07 26.9199 139.139 26.1519 139.199 25.3179C139.265 24.4779 139.325 23.5779 139.379 22.6179H146.174V32.3379H144.572V24.1389H140.837C140.801 24.6909 140.756 25.2579 140.702 25.8399C140.654 26.4219 140.603 26.9889 140.549 27.5409C140.495 28.0869 140.435 28.5969 140.369 29.0709C140.309 29.5389 140.243 29.9439 140.171 30.2859C140.057 30.8739 139.898 31.3449 139.694 31.6989C139.49 32.0469 139.196 32.2719 138.812 32.3739C138.428 32.4819 137.909 32.4699 137.255 32.3379ZM153.318 35.6319C152.616 34.8219 152.013 33.9129 151.509 32.9049C151.005 31.8969 150.618 30.8379 150.348 29.7279C150.078 28.6179 149.949 27.5079 149.961 26.3979C149.949 25.2819 150.078 24.1689 150.348 23.0589C150.618 21.9489 151.005 20.8929 151.509 19.8909C152.013 18.8829 152.616 17.9739 153.318 17.1639L154.506 18.0639C153.798 18.9039 153.216 19.7769 152.76 20.6829C152.31 21.5889 151.977 22.5219 151.761 23.4819C151.545 24.4359 151.434 25.4079 151.428 26.3979C151.434 27.3759 151.545 28.3479 151.761 29.3139C151.983 30.2739 152.319 31.2099 152.769 32.1219C153.225 33.0279 153.804 33.8949 154.506 34.7229L153.318 35.6319ZM158.935 32.6079C158.209 32.6079 157.6 32.4759 157.108 32.2119C156.622 31.9419 156.253 31.5879 156.001 31.1499C155.755 30.7119 155.632 30.2319 155.632 29.7099C155.632 29.1999 155.728 28.7589 155.92 28.3869C156.118 28.0089 156.394 27.6969 156.748 27.4509C157.102 27.1989 157.525 27.0009 158.017 26.8569C158.479 26.7309 158.995 26.6229 159.565 26.5329C160.141 26.4369 160.723 26.3499 161.311 26.2719C161.899 26.1939 162.448 26.1189 162.958 26.0469L162.382 26.3799C162.4 25.5159 162.226 24.8769 161.86 24.4629C161.5 24.0489 160.876 23.8419 159.988 23.8419C159.4 23.8419 158.884 23.9769 158.44 24.2469C158.002 24.5109 157.693 24.9429 157.513 25.5429L155.992 25.0839C156.226 24.2319 156.679 23.5629 157.351 23.0769C158.023 22.5909 158.908 22.3479 160.006 22.3479C160.888 22.3479 161.644 22.5069 162.274 22.8249C162.91 23.1369 163.366 23.6109 163.642 24.2469C163.78 24.5469 163.867 24.8739 163.903 25.2279C163.939 25.5759 163.957 25.9419 163.957 26.3259V32.3379H162.535V30.0069L162.868 30.2229C162.502 31.0089 161.989 31.6029 161.329 32.0049C160.675 32.4069 159.877 32.6079 158.935 32.6079ZM159.178 31.2669C159.754 31.2669 160.252 31.1649 160.672 30.9609C161.098 30.7509 161.44 30.4779 161.698 30.1419C161.956 29.7999 162.124 29.4279 162.202 29.0259C162.292 28.7259 162.34 28.3929 162.346 28.0269C162.358 27.6549 162.364 27.3699 162.364 27.1719L162.922 27.4149C162.4 27.4869 161.887 27.5559 161.383 27.6219C160.879 27.6879 160.402 27.7599 159.952 27.8379C159.502 27.9099 159.097 27.9969 158.737 28.0989C158.473 28.1829 158.224 28.2909 157.99 28.4229C157.762 28.5549 157.576 28.7259 157.432 28.9359C157.294 29.1399 157.225 29.3949 157.225 29.7009C157.225 29.9649 157.291 30.2169 157.423 30.4569C157.561 30.6969 157.771 30.8919 158.053 31.0419C158.341 31.1919 158.716 31.2669 159.178 31.2669ZM166.639 35.6319L165.451 34.7229C166.153 33.8949 166.729 33.0279 167.179 32.1219C167.635 31.2099 167.974 30.2739 168.196 29.3139C168.418 28.3479 168.529 27.3759 168.529 26.3979C168.529 25.4079 168.418 24.4359 168.196 23.4819C167.98 22.5219 167.644 21.5889 167.188 20.6829C166.738 19.7769 166.159 18.9039 165.451 18.0639L166.639 17.1639C167.341 17.9739 167.944 18.8829 168.448 19.8909C168.958 20.8929 169.345 21.9489 169.609 23.0589C169.879 24.1689 170.008 25.2819 169.996 26.3979C170.008 27.5079 169.879 28.6179 169.609 29.7279C169.345 30.8379 168.958 31.8969 168.448 32.9049C167.944 33.9129 167.341 34.8219 166.639 35.6319ZM177.362 32.3379V22.6179H181.502C181.748 22.6179 182.012 22.6329 182.294 22.6629C182.582 22.6869 182.843 22.7319 183.077 22.7979C183.599 22.9359 184.028 23.2209 184.364 23.6529C184.706 24.0789 184.877 24.6189 184.877 25.2729C184.877 25.6389 184.82 25.9569 184.706 26.2269C184.598 26.4969 184.442 26.7309 184.238 26.9289C184.148 27.0189 184.049 27.0999 183.941 27.1719C183.833 27.2439 183.725 27.3009 183.617 27.3429C183.827 27.3789 184.04 27.4599 184.256 27.5859C184.598 27.7719 184.865 28.0329 185.057 28.3689C185.255 28.7049 185.354 29.1339 185.354 29.6559C185.354 30.3159 185.195 30.8619 184.877 31.2939C184.559 31.7199 184.121 32.0139 183.563 32.1759C183.329 32.2419 183.071 32.2869 182.789 32.3109C182.507 32.3289 182.234 32.3379 181.97 32.3379H177.362ZM178.982 31.0329H181.88C182.006 31.0329 182.156 31.0209 182.33 30.9969C182.51 30.9729 182.669 30.9429 182.807 30.9069C183.119 30.8169 183.344 30.6489 183.482 30.4029C183.626 30.1569 183.698 29.8899 183.698 29.6019C183.698 29.2179 183.59 28.9059 183.374 28.6659C183.164 28.4259 182.885 28.2759 182.537 28.2159C182.411 28.1799 182.273 28.1589 182.123 28.1529C181.979 28.1469 181.85 28.1439 181.736 28.1439H178.982V31.0329ZM178.982 26.8209H181.394C181.562 26.8209 181.739 26.8119 181.925 26.7939C182.111 26.7699 182.273 26.7309 182.411 26.6769C182.687 26.5749 182.888 26.4069 183.014 26.1729C183.146 25.9329 183.212 25.6719 183.212 25.3899C183.212 25.0779 183.14 24.8049 182.996 24.5709C182.858 24.3309 182.645 24.1659 182.357 24.0759C182.165 24.0039 181.949 23.9649 181.709 23.9589C181.475 23.9469 181.325 23.9409 181.259 23.9409H178.982V26.8209ZM191.302 32.6079C190.336 32.6079 189.502 32.3889 188.8 31.9509C188.104 31.5129 187.567 30.9069 187.189 30.1329C186.811 29.3589 186.622 28.4709 186.622 27.4689C186.622 26.4489 186.814 25.5549 187.198 24.7869C187.582 24.0189 188.125 23.4219 188.827 22.9959C189.529 22.5639 190.354 22.3479 191.302 22.3479C192.274 22.3479 193.111 22.5669 193.813 23.0049C194.515 23.4369 195.052 24.0399 195.424 24.8139C195.802 25.5819 195.991 26.4669 195.991 27.4689C195.991 28.4829 195.802 29.3769 195.424 30.1509C195.046 30.9189 194.506 31.5219 193.804 31.9599C193.102 32.3919 192.268 32.6079 191.302 32.6079ZM191.302 31.0869C192.31 31.0869 193.06 30.7509 193.552 30.0789C194.044 29.4069 194.29 28.5369 194.29 27.4689C194.29 26.3709 194.041 25.4979 193.543 24.8499C193.045 24.1959 192.298 23.8689 191.302 23.8689C190.624 23.8689 190.066 24.0219 189.628 24.3279C189.19 24.6339 188.863 25.0569 188.647 25.5969C188.431 26.1369 188.323 26.7609 188.323 27.4689C188.323 28.5609 188.575 29.4369 189.079 30.0969C189.583 30.7569 190.324 31.0869 191.302 31.0869ZM202.437 32.6079C201.525 32.6079 200.757 32.3829 200.133 31.9329C199.509 31.4769 199.035 30.8619 198.711 30.0879C198.393 29.3079 198.234 28.4349 198.234 27.4689C198.234 26.4909 198.393 25.6149 198.711 24.8409C199.035 24.0669 199.509 23.4579 200.133 23.0139C200.763 22.5699 201.534 22.3479 202.446 22.3479C203.346 22.3479 204.12 22.5729 204.768 23.0229C205.422 23.4669 205.923 24.0759 206.271 24.8499C206.619 25.6239 206.793 26.4969 206.793 27.4689C206.793 28.4409 206.619 29.3139 206.271 30.0879C205.923 30.8619 205.422 31.4769 204.768 31.9329C204.12 32.3829 203.343 32.6079 202.437 32.6079ZM197.964 36.6579V22.6179H199.395V29.7729H199.575V36.6579H197.964ZM202.239 31.1409C202.881 31.1409 203.412 30.9789 203.832 30.6549C204.252 30.3309 204.567 29.8929 204.777 29.3409C204.987 28.7829 205.092 28.1589 205.092 27.4689C205.092 26.7849 204.987 26.1669 204.777 25.6149C204.573 25.0629 204.255 24.6249 203.823 24.3009C203.397 23.9769 202.854 23.8149 202.194 23.8149C201.564 23.8149 201.042 23.9709 200.628 24.2829C200.214 24.5889 199.905 25.0179 199.701 25.5699C199.497 26.1159 199.395 26.7489 199.395 27.4689C199.395 28.1769 199.494 28.8099 199.692 29.3679C199.896 29.9199 200.208 30.3549 200.628 30.6729C201.048 30.9849 201.585 31.1409 202.239 31.1409ZM212.906 32.6079C211.94 32.6079 211.106 32.3889 210.404 31.9509C209.708 31.5129 209.171 30.9069 208.793 30.1329C208.415 29.3589 208.226 28.4709 208.226 27.4689C208.226 26.4489 208.418 25.5549 208.802 24.7869C209.186 24.0189 209.729 23.4219 210.431 22.9959C211.133 22.5639 211.958 22.3479 212.906 22.3479C213.878 22.3479 214.715 22.5669 215.417 23.0049C216.119 23.4369 216.656 24.0399 217.028 24.8139C217.406 25.5819 217.595 26.4669 217.595 27.4689C217.595 28.4829 217.406 29.3769 217.028 30.1509C216.65 30.9189 216.11 31.5219 215.408 31.9599C214.706 32.3919 213.872 32.6079 212.906 32.6079ZM212.906 31.0869C213.914 31.0869 214.664 30.7509 215.156 30.0789C215.648 29.4069 215.894 28.5369 215.894 27.4689C215.894 26.3709 215.645 25.4979 215.147 24.8499C214.649 24.1959 213.902 23.8689 212.906 23.8689C212.228 23.8689 211.67 24.0219 211.232 24.3279C210.794 24.6339 210.467 25.0569 210.251 25.5969C210.035 26.1369 209.927 26.7609 209.927 27.4689C209.927 28.5609 210.179 29.4369 210.683 30.0969C211.187 30.7569 211.928 31.0869 212.906 31.0869ZM219.567 32.3379V22.6179H221.169V26.7129H226.281V22.6179H227.883V32.3379H226.281V28.2339H221.169V32.3379H219.567ZM230.396 32.3379L230.405 22.6179H232.025V27.2979L236.102 22.6179H238.181L233.888 27.4779L238.685 32.3379H236.444L232.025 27.6579V32.3379H230.396ZM240.93 36.6579L242.811 31.5459L242.838 33.0579L238.59 22.6179H240.273L243.603 31.0149H243.027L246.15 22.6179H247.779L242.487 36.6579H240.93ZM247.644 34.3539L247.743 33.6069C247.995 33.6249 248.184 33.5769 248.31 33.4629C248.436 33.3489 248.517 33.1929 248.553 32.9949C248.589 32.7969 248.595 32.5779 248.571 32.3379H247.644V30.3039H249.408V32.6079C249.408 33.2379 249.252 33.7119 248.94 34.0299C248.634 34.3479 248.202 34.4559 247.644 34.3539ZM23.2901 52.3379V42.6179H24.8921V46.7129H30.0041V42.6179H31.6061V52.3379H30.0041V48.2339H24.8921V52.3379H23.2901ZM38.2672 52.6079C37.3012 52.6079 36.4672 52.3889 35.7652 51.9509C35.0692 51.5129 34.5322 50.9069 34.1542 50.1329C33.7762 49.3589 33.5872 48.4709 33.5872 47.4689C33.5872 46.4489 33.7792 45.5549 34.1632 44.7869C34.5472 44.0189 35.0902 43.4219 35.7922 42.9959C36.4942 42.5639 37.3192 42.3479 38.2672 42.3479C39.2392 42.3479 40.0762 42.5669 40.7782 43.0049C41.4802 43.4369 42.0172 44.0399 42.3892 44.8139C42.7672 45.5819 42.9562 46.4669 42.9562 47.4689C42.9562 48.4829 42.7672 49.3769 42.3892 50.1509C42.0112 50.9189 41.4712 51.5219 40.7692 51.9599C40.0672 52.3919 39.2332 52.6079 38.2672 52.6079ZM38.2672 51.0869C39.2752 51.0869 40.0252 50.7509 40.5172 50.0789C41.0092 49.4069 41.2552 48.5369 41.2552 47.4689C41.2552 46.3709 41.0062 45.4979 40.5082 44.8499C40.0102 44.1959 39.2632 43.8689 38.2672 43.8689C37.5892 43.8689 37.0312 44.0219 36.5932 44.3279C36.1552 44.6339 35.8282 45.0569 35.6122 45.5969C35.3962 46.1369 35.2882 46.7609 35.2882 47.4689C35.2882 48.5609 35.5402 49.4369 36.0442 50.0969C36.5482 50.7569 37.2892 51.0869 38.2672 51.0869ZM52.6813 52.6079C51.7153 52.6079 50.8813 52.3889 50.1793 51.9509C49.4833 51.5129 48.9463 50.9069 48.5683 50.1329C48.1903 49.3589 48.0013 48.4709 48.0013 47.4689C48.0013 46.4489 48.1933 45.5549 48.5773 44.7869C48.9613 44.0189 49.5043 43.4219 50.2063 42.9959C50.9083 42.5639 51.7333 42.3479 52.6813 42.3479C53.6533 42.3479 54.4903 42.5669 55.1923 43.0049C55.8943 43.4369 56.4313 44.0399 56.8033 44.8139C57.1813 45.5819 57.3703 46.4669 57.3703 47.4689C57.3703 48.4829 57.1813 49.3769 56.8033 50.1509C56.4253 50.9189 55.8853 51.5219 55.1833 51.9599C54.4813 52.3919 53.6473 52.6079 52.6813 52.6079ZM52.6813 51.0869C53.6893 51.0869 54.4393 50.7509 54.9313 50.0789C55.4233 49.4069 55.6693 48.5369 55.6693 47.4689C55.6693 46.3709 55.4203 45.4979 54.9223 44.8499C54.4243 44.1959 53.6773 43.8689 52.6813 43.8689C52.0033 43.8689 51.4453 44.0219 51.0073 44.3279C50.5693 44.6339 50.2423 45.0569 50.0263 45.5969C49.8103 46.1369 49.7023 46.7609 49.7023 47.4689C49.7023 48.5609 49.9543 49.4369 50.4583 50.0969C50.9623 50.7569 51.7033 51.0869 52.6813 51.0869ZM59.3428 52.3379V42.6179H60.9448V46.7129H66.0568V42.6179H67.6588V52.3379H66.0568V48.2339H60.9448V52.3379H59.3428ZM72.9429 52.6079C72.2169 52.6079 71.6079 52.4759 71.1159 52.2119C70.6299 51.9419 70.2609 51.5879 70.0089 51.1499C69.7629 50.7119 69.6399 50.2319 69.6399 49.7099C69.6399 49.1999 69.7359 48.7589 69.9279 48.3869C70.1259 48.0089 70.4019 47.6969 70.7559 47.4509C71.1099 47.1989 71.5329 47.0009 72.0249 46.8569C72.4869 46.7309 73.0029 46.6229 73.5729 46.5329C74.1489 46.4369 74.7309 46.3499 75.3189 46.2719C75.9069 46.1939 76.4559 46.1189 76.9659 46.0469L76.3899 46.3799C76.4079 45.5159 76.2339 44.8769 75.8679 44.4629C75.5079 44.0489 74.8839 43.8419 73.9959 43.8419C73.4079 43.8419 72.8919 43.9769 72.4479 44.2469C72.0099 44.5109 71.7009 44.9429 71.5209 45.5429L69.9999 45.0839C70.2339 44.2319 70.6869 43.5629 71.3589 43.0769C72.0309 42.5909 72.9159 42.3479 74.0139 42.3479C74.8959 42.3479 75.6519 42.5069 76.2819 42.8249C76.9179 43.1369 77.3739 43.6109 77.6499 44.2469C77.7879 44.5469 77.8749 44.8739 77.9109 45.2279C77.9469 45.5759 77.9649 45.9419 77.9649 46.3259V52.3379H76.5429V50.0069L76.8759 50.2229C76.5099 51.0089 75.9969 51.6029 75.3369 52.0049C74.6829 52.4069 73.8849 52.6079 72.9429 52.6079ZM73.1859 51.2669C73.7619 51.2669 74.2599 51.1649 74.6799 50.9609C75.1059 50.7509 75.4479 50.4779 75.7059 50.1419C75.9639 49.7999 76.1319 49.4279 76.2099 49.0259C76.2999 48.7259 76.3479 48.3929 76.3539 48.0269C76.3659 47.6549 76.3719 47.3699 76.3719 47.1719L76.9299 47.4149C76.4079 47.4869 75.8949 47.5559 75.3909 47.6219C74.8869 47.6879 74.4099 47.7599 73.9599 47.8379C73.5099 47.9099 73.1049 47.9969 72.7449 48.0989C72.4809 48.1829 72.2319 48.2909 71.9979 48.4229C71.7699 48.5549 71.5839 48.7259 71.4399 48.9359C71.3019 49.1399 71.2329 49.3949 71.2329 49.7009C71.2329 49.9649 71.2989 50.2169 71.4309 50.4569C71.5689 50.6969 71.7789 50.8919 72.0609 51.0419C72.3489 51.1919 72.7239 51.2669 73.1859 51.2669ZM83.8994 52.3379V42.6179H85.5014V46.7129H90.6134V42.6179H92.2154V52.3379H90.6134V48.2339H85.5014V52.3379H83.8994ZM98.9486 52.6079C97.9946 52.6079 97.1606 52.3979 96.4466 51.9779C95.7386 51.5519 95.1866 50.9609 94.7906 50.2049C94.3946 49.4429 94.1966 48.5549 94.1966 47.5409C94.1966 46.4789 94.3916 45.5609 94.7816 44.7869C95.1716 44.0069 95.7146 43.4069 96.4106 42.9869C97.1126 42.5609 97.9346 42.3479 98.8766 42.3479C99.8546 42.3479 100.686 42.5729 101.37 43.0229C102.06 43.4729 102.576 44.1149 102.918 44.9489C103.266 45.7829 103.416 46.7759 103.368 47.9279H101.748V47.3519C101.73 46.1579 101.487 45.2669 101.019 44.6789C100.551 44.0849 99.8546 43.7879 98.9306 43.7879C97.9406 43.7879 97.1876 44.1059 96.6716 44.7419C96.1556 45.3779 95.8976 46.2899 95.8976 47.4779C95.8976 48.6239 96.1556 49.5119 96.6716 50.1419C97.1876 50.7719 97.9226 51.0869 98.8766 51.0869C99.5186 51.0869 100.077 50.9399 100.551 50.6459C101.025 50.3519 101.397 49.9289 101.667 49.3769L103.206 49.9079C102.828 50.7659 102.258 51.4319 101.496 51.9059C100.74 52.3739 99.8906 52.6079 98.9486 52.6079ZM95.3576 47.9279V46.6409H102.54V47.9279H95.3576ZM113.439 52.6079C112.527 52.6079 111.759 52.3829 111.135 51.9329C110.511 51.4769 110.037 50.8619 109.713 50.0879C109.395 49.3079 109.236 48.4349 109.236 47.4689C109.236 46.4909 109.395 45.6149 109.713 44.8409C110.037 44.0669 110.511 43.4579 111.135 43.0139C111.765 42.5699 112.536 42.3479 113.448 42.3479C114.348 42.3479 115.122 42.5729 115.77 43.0229C116.424 43.4669 116.925 44.0759 117.273 44.8499C117.621 45.6239 117.795 46.4969 117.795 47.4689C117.795 48.4409 117.621 49.3139 117.273 50.0879C116.925 50.8619 116.424 51.4769 115.77 51.9329C115.122 52.3829 114.345 52.6079 113.439 52.6079ZM108.966 56.6579V42.6179H110.397V49.7729H110.577V56.6579H108.966ZM113.241 51.1409C113.883 51.1409 114.414 50.9789 114.834 50.6549C115.254 50.3309 115.569 49.8929 115.779 49.3409C115.989 48.7829 116.094 48.1589 116.094 47.4689C116.094 46.7849 115.989 46.1669 115.779 45.6149C115.575 45.0629 115.257 44.6249 114.825 44.3009C114.399 43.9769 113.856 43.8149 113.196 43.8149C112.566 43.8149 112.044 43.9709 111.63 44.2829C111.216 44.5889 110.907 45.0179 110.703 45.5699C110.499 46.1159 110.397 46.7489 110.397 47.4689C110.397 48.1769 110.496 48.8099 110.694 49.3679C110.898 49.9199 111.21 50.3549 111.63 50.6729C112.05 50.9849 112.587 51.1409 113.241 51.1409ZM122.531 52.6079C121.805 52.6079 121.196 52.4759 120.704 52.2119C120.218 51.9419 119.849 51.5879 119.597 51.1499C119.351 50.7119 119.228 50.2319 119.228 49.7099C119.228 49.1999 119.324 48.7589 119.516 48.3869C119.714 48.0089 119.99 47.6969 120.344 47.4509C120.698 47.1989 121.121 47.0009 121.613 46.8569C122.075 46.7309 122.591 46.6229 123.161 46.5329C123.737 46.4369 124.319 46.3499 124.907 46.2719C125.495 46.1939 126.044 46.1189 126.554 46.0469L125.978 46.3799C125.996 45.5159 125.822 44.8769 125.456 44.4629C125.096 44.0489 124.472 43.8419 123.584 43.8419C122.996 43.8419 122.48 43.9769 122.036 44.2469C121.598 44.5109 121.289 44.9429 121.109 45.5429L119.588 45.0839C119.822 44.2319 120.275 43.5629 120.947 43.0769C121.619 42.5909 122.504 42.3479 123.602 42.3479C124.484 42.3479 125.24 42.5069 125.87 42.8249C126.506 43.1369 126.962 43.6109 127.238 44.2469C127.376 44.5469 127.463 44.8739 127.499 45.2279C127.535 45.5759 127.553 45.9419 127.553 46.3259V52.3379H126.131V50.0069L126.464 50.2229C126.098 51.0089 125.585 51.6029 124.925 52.0049C124.271 52.4069 123.473 52.6079 122.531 52.6079ZM122.774 51.2669C123.35 51.2669 123.848 51.1649 124.268 50.9609C124.694 50.7509 125.036 50.4779 125.294 50.1419C125.552 49.7999 125.72 49.4279 125.798 49.0259C125.888 48.7259 125.936 48.3929 125.942 48.0269C125.954 47.6549 125.96 47.3699 125.96 47.1719L126.518 47.4149C125.996 47.4869 125.483 47.5559 124.979 47.6219C124.475 47.6879 123.998 47.7599 123.548 47.8379C123.098 47.9099 122.693 47.9969 122.333 48.0989C122.069 48.1829 121.82 48.2909 121.586 48.4229C121.358 48.5549 121.172 48.7259 121.028 48.9359C120.89 49.1399 120.821 49.3949 120.821 49.7009C120.821 49.9649 120.887 50.2169 121.019 50.4569C121.157 50.6969 121.367 50.8919 121.649 51.0419C121.937 51.1919 122.312 51.2669 122.774 51.2669ZM133.844 52.6169C132.926 52.6109 132.143 52.4129 131.495 52.0229C130.847 51.6269 130.343 51.0479 129.983 50.2859C129.623 49.5239 129.422 48.5909 129.38 47.4869C129.356 46.9769 129.362 46.4159 129.398 45.8039C129.44 45.1919 129.506 44.6039 129.596 44.0399C129.692 43.4759 129.812 43.0109 129.956 42.6449C130.118 42.2069 130.346 41.8019 130.64 41.4299C130.94 41.0519 131.276 40.7399 131.648 40.4939C132.026 40.2359 132.449 40.0349 132.917 39.8909C133.385 39.7469 133.874 39.6359 134.384 39.5579C134.9 39.4739 135.416 39.4019 135.932 39.3419C136.448 39.2759 136.94 39.1979 137.408 39.1079L137.57 40.5479C137.24 40.6199 136.85 40.6829 136.4 40.7369C135.95 40.7849 135.482 40.8419 134.996 40.9079C134.516 40.9739 134.054 41.0669 133.61 41.1869C133.172 41.3009 132.794 41.4599 132.476 41.6639C132.008 41.9459 131.648 42.3689 131.396 42.9329C131.15 43.4909 131 44.1179 130.946 44.8139C131.318 44.2379 131.801 43.8149 132.395 43.5449C132.989 43.2749 133.622 43.1399 134.294 43.1399C135.164 43.1399 135.914 43.3439 136.544 43.7519C137.174 44.1539 137.657 44.7089 137.993 45.4169C138.335 46.1249 138.506 46.9319 138.506 47.8379C138.506 48.7979 138.314 49.6379 137.93 50.3579C137.546 51.0779 137.003 51.6359 136.301 52.0319C135.605 52.4279 134.786 52.6229 133.844 52.6169ZM133.943 51.0959C134.885 51.0959 135.599 50.8049 136.085 50.2229C136.571 49.6349 136.814 48.8549 136.814 47.8829C136.814 46.8869 136.562 46.1039 136.058 45.5339C135.554 44.9579 134.846 44.6699 133.934 44.6699C133.01 44.6699 132.302 44.9579 131.81 45.5339C131.324 46.1039 131.081 46.8869 131.081 47.8829C131.081 48.8849 131.327 49.6709 131.819 50.2409C132.311 50.8109 133.019 51.0959 133.943 51.0959ZM144.632 52.6079C143.666 52.6079 142.832 52.3889 142.13 51.9509C141.434 51.5129 140.897 50.9069 140.519 50.1329C140.141 49.3589 139.952 48.4709 139.952 47.4689C139.952 46.4489 140.144 45.5549 140.528 44.7869C140.912 44.0189 141.455 43.4219 142.157 42.9959C142.859 42.5639 143.684 42.3479 144.632 42.3479C145.604 42.3479 146.441 42.5669 147.143 43.0049C147.845 43.4369 148.382 44.0399 148.754 44.8139C149.132 45.5819 149.321 46.4669 149.321 47.4689C149.321 48.4829 149.132 49.3769 148.754 50.1509C148.376 50.9189 147.836 51.5219 147.134 51.9599C146.432 52.3919 145.598 52.6079 144.632 52.6079ZM144.632 51.0869C145.64 51.0869 146.39 50.7509 146.882 50.0789C147.374 49.4069 147.62 48.5369 147.62 47.4689C147.62 46.3709 147.371 45.4979 146.873 44.8499C146.375 44.1959 145.628 43.8689 144.632 43.8689C143.954 43.8689 143.396 44.0219 142.958 44.3279C142.52 44.6339 142.193 45.0569 141.977 45.5969C141.761 46.1369 141.653 46.7609 141.653 47.4689C141.653 48.5609 141.905 49.4369 142.409 50.0969C142.913 50.7569 143.654 51.0869 144.632 51.0869ZM153.666 52.3379V44.0759H150.282V42.6179H158.652V44.0759H155.268V52.3379H153.666ZM162.802 52.6079C162.076 52.6079 161.467 52.4759 160.975 52.2119C160.489 51.9419 160.12 51.5879 159.868 51.1499C159.622 50.7119 159.499 50.2319 159.499 49.7099C159.499 49.1999 159.595 48.7589 159.787 48.3869C159.985 48.0089 160.261 47.6969 160.615 47.4509C160.969 47.1989 161.392 47.0009 161.884 46.8569C162.346 46.7309 162.862 46.6229 163.432 46.5329C164.008 46.4369 164.59 46.3499 165.178 46.2719C165.766 46.1939 166.315 46.1189 166.825 46.0469L166.249 46.3799C166.267 45.5159 166.093 44.8769 165.727 44.4629C165.367 44.0489 164.743 43.8419 163.855 43.8419C163.267 43.8419 162.751 43.9769 162.307 44.2469C161.869 44.5109 161.56 44.9429 161.38 45.5429L159.859 45.0839C160.093 44.2319 160.546 43.5629 161.218 43.0769C161.89 42.5909 162.775 42.3479 163.873 42.3479C164.755 42.3479 165.511 42.5069 166.141 42.8249C166.777 43.1369 167.233 43.6109 167.509 44.2469C167.647 44.5469 167.734 44.8739 167.77 45.2279C167.806 45.5759 167.824 45.9419 167.824 46.3259V52.3379H166.402V50.0069L166.735 50.2229C166.369 51.0089 165.856 51.6029 165.196 52.0049C164.542 52.4069 163.744 52.6079 162.802 52.6079ZM163.045 51.2669C163.621 51.2669 164.119 51.1649 164.539 50.9609C164.965 50.7509 165.307 50.4779 165.565 50.1419C165.823 49.7999 165.991 49.4279 166.069 49.0259C166.159 48.7259 166.207 48.3929 166.213 48.0269C166.225 47.6549 166.231 47.3699 166.231 47.1719L166.789 47.4149C166.267 47.4869 165.754 47.5559 165.25 47.6219C164.746 47.6879 164.269 47.7599 163.819 47.8379C163.369 47.9099 162.964 47.9969 162.604 48.0989C162.34 48.1829 162.091 48.2909 161.857 48.4229C161.629 48.5549 161.443 48.7259 161.299 48.9359C161.161 49.1399 161.092 49.3949 161.092 49.7009C161.092 49.9649 161.158 50.2169 161.29 50.4569C161.428 50.6969 161.638 50.8919 161.92 51.0419C162.208 51.1919 162.583 51.2669 163.045 51.2669ZM174.376 52.6079C173.422 52.6079 172.588 52.3979 171.874 51.9779C171.166 51.5519 170.614 50.9609 170.218 50.2049C169.822 49.4429 169.624 48.5549 169.624 47.5409C169.624 46.4789 169.819 45.5609 170.209 44.7869C170.599 44.0069 171.142 43.4069 171.838 42.9869C172.54 42.5609 173.362 42.3479 174.304 42.3479C175.282 42.3479 176.113 42.5729 176.797 43.0229C177.487 43.4729 178.003 44.1149 178.345 44.9489C178.693 45.7829 178.843 46.7759 178.795 47.9279H177.175V47.3519C177.157 46.1579 176.914 45.2669 176.446 44.6789C175.978 44.0849 175.282 43.7879 174.358 43.7879C173.368 43.7879 172.615 44.1059 172.099 44.7419C171.583 45.3779 171.325 46.2899 171.325 47.4779C171.325 48.6239 171.583 49.5119 172.099 50.1419C172.615 50.7719 173.35 51.0869 174.304 51.0869C174.946 51.0869 175.504 50.9399 175.978 50.6459C176.452 50.3519 176.824 49.9289 177.094 49.3769L178.633 49.9079C178.255 50.7659 177.685 51.4319 176.923 51.9059C176.167 52.3739 175.318 52.6079 174.376 52.6079ZM170.785 47.9279V46.6409H177.967V47.9279H170.785ZM183.197 52.3379V44.0759H179.813V42.6179H188.183V44.0759H184.799V52.3379H183.197Z" fill="#101012"></path></svg> 