<?xml version="1.0" encoding="UTF-8"?> <svg xmlns="http://www.w3.org/2000/svg" width="273" height="71" viewBox="0 0 273 71" fill="none"><path fill-rule="evenodd" clip-rule="evenodd" d="M273 29.099C273 18.9134 273 13.8206 271.018 9.93021C269.274 6.50813 266.492 3.72589 263.07 1.98225C259.179 0 254.087 0 243.901 0L35.099 0C24.9134 0 19.8206 0 15.9302 1.98225C12.5081 3.72589 9.72588 6.50813 7.98225 9.93021C5.99999 13.8206 5.99999 18.9134 5.99999 29.099V40.901C5.99999 51.0866 5.99999 56.1794 7.98225 60.0698C9.72588 63.4919 12.5081 66.2741 15.9302 68.0177C19.8206 70 24.9134 70 35.099 70H243.901C254.087 70 259.179 70 263.07 68.0177C266.492 66.2741 269.274 63.4919 271.018 60.0698C273 56.1794 273 51.0866 273 40.901V29.099Z" fill="#E6E5EB"></path><path fill-rule="evenodd" clip-rule="evenodd" d="M0 69.9236L0 70.3221H7.27475C16.6495 70.3221 24.2492 62.7224 24.2492 53.3477H6.06229C6.06229 56.6677 6.06229 58.3278 5.83079 59.7151C5.14896 63.8011 3.02737 67.3819 0 69.9236Z" fill="#E6E5EB"></path><path d="M26.285 32L27.833 28.787L23.27 19.04H25.061L28.67 27.077L32.36 19.04H34.07L28.022 32H26.285ZM38.4365 32V22.28H39.8135L43.5035 29.822L47.1935 22.28H48.5705V32H47.0225V25.619L43.9265 32H43.0805L39.9845 25.619V32H38.4365ZM55.2962 32.27C54.3422 32.27 53.5082 32.06 52.7942 31.64C52.0862 31.214 51.5342 30.623 51.1382 29.867C50.7422 29.105 50.5442 28.217 50.5442 27.203C50.5442 26.141 50.7392 25.223 51.1292 24.449C51.5192 23.669 52.0622 23.069 52.7582 22.649C53.4602 22.223 54.2822 22.01 55.2242 22.01C56.2022 22.01 57.0332 22.235 57.7172 22.685C58.4072 23.135 58.9232 23.777 59.2652 24.611C59.6132 25.445 59.7632 26.438 59.7152 27.59H58.0952V27.014C58.0772 25.82 57.8342 24.929 57.3662 24.341C56.8982 23.747 56.2022 23.45 55.2782 23.45C54.2882 23.45 53.5352 23.768 53.0192 24.404C52.5032 25.04 52.2452 25.952 52.2452 27.14C52.2452 28.286 52.5032 29.174 53.0192 29.804C53.5352 30.434 54.2702 30.749 55.2242 30.749C55.8662 30.749 56.4242 30.602 56.8982 30.308C57.3722 30.014 57.7442 29.591 58.0142 29.039L59.5532 29.57C59.1752 30.428 58.6052 31.094 57.8432 31.568C57.0872 32.036 56.2382 32.27 55.2962 32.27ZM51.7052 27.59V26.303H58.8872V27.59H51.7052ZM61.71 32V22.28H63.312V26.375H68.424V22.28H70.026V32H68.424V27.896H63.312V32H61.71ZM78.5501 32V28.481H76.4531C76.2071 28.481 75.9341 28.472 75.6341 28.454C75.3401 28.43 75.0641 28.397 74.8061 28.355C74.1041 28.223 73.5101 27.914 73.0241 27.428C72.5441 26.942 72.3041 26.27 72.3041 25.412C72.3041 24.578 72.5291 23.909 72.9791 23.405C73.4351 22.895 73.9961 22.565 74.6621 22.415C74.9621 22.343 75.2651 22.304 75.5711 22.298C75.8831 22.286 76.1471 22.28 76.3631 22.28H80.1521L80.1611 32H78.5501ZM72.0071 32L74.5901 28.04H76.3181L73.7351 32H72.0071ZM76.3361 27.158H78.5501V23.603H76.3361C76.1981 23.603 76.0151 23.609 75.7871 23.621C75.5651 23.633 75.3521 23.669 75.1481 23.729C74.9561 23.783 74.7671 23.882 74.5811 24.026C74.4011 24.17 74.2511 24.356 74.1311 24.584C74.0111 24.812 73.9511 25.082 73.9511 25.394C73.9511 25.844 74.0771 26.21 74.3291 26.492C74.5811 26.768 74.8871 26.954 75.2471 27.05C75.4451 27.098 75.6401 27.128 75.8321 27.14C76.0301 27.152 76.1981 27.158 76.3361 27.158ZM90.3882 32.27C89.4042 32.27 88.5672 32.051 87.8772 31.613C87.1932 31.169 86.6712 30.56 86.3112 29.786C85.9512 29.012 85.7652 28.13 85.7532 27.14C85.7652 26.126 85.9542 25.235 86.3202 24.467C86.6922 23.693 87.2232 23.09 87.9132 22.658C88.6032 22.226 89.4342 22.01 90.4062 22.01C91.4322 22.01 92.3142 22.262 93.0522 22.766C93.7962 23.27 94.2942 23.96 94.5462 24.836L92.9622 25.313C92.7582 24.749 92.4252 24.311 91.9632 23.999C91.5072 23.687 90.9822 23.531 90.3882 23.531C89.7222 23.531 89.1732 23.687 88.7412 23.999C88.3092 24.305 87.9882 24.731 87.7782 25.277C87.5682 25.817 87.4602 26.438 87.4542 27.14C87.4662 28.22 87.7152 29.093 88.2012 29.759C88.6932 30.419 89.4222 30.749 90.3882 30.749C91.0242 30.749 91.5522 30.605 91.9722 30.317C92.3922 30.023 92.7102 29.6 92.9262 29.048L94.5462 29.471C94.2102 30.377 93.6852 31.07 92.9712 31.55C92.2572 32.03 91.3962 32.27 90.3882 32.27ZM95.2194 32V30.623C95.5794 30.689 95.8524 30.677 96.0384 30.587C96.2304 30.491 96.3714 30.326 96.4614 30.092C96.5574 29.852 96.6354 29.552 96.6954 29.192C96.7974 28.622 96.8844 27.986 96.9564 27.284C97.0344 26.582 97.1034 25.814 97.1634 24.98C97.2294 24.14 97.2894 23.24 97.3434 22.28H104.138V32H102.536V23.801H98.8014C98.7654 24.353 98.7204 24.92 98.6664 25.502C98.6184 26.084 98.5674 26.651 98.5134 27.203C98.4594 27.749 98.3994 28.259 98.3334 28.733C98.2734 29.201 98.2074 29.606 98.1354 29.948C98.0214 30.536 97.8624 31.007 97.6584 31.361C97.4544 31.709 97.1604 31.934 96.7764 32.036C96.3924 32.144 95.8734 32.132 95.2194 32ZM110.806 32.27C109.84 32.27 109.006 32.051 108.304 31.613C107.608 31.175 107.071 30.569 106.693 29.795C106.315 29.021 106.126 28.133 106.126 27.131C106.126 26.111 106.318 25.217 106.702 24.449C107.086 23.681 107.629 23.084 108.331 22.658C109.033 22.226 109.858 22.01 110.806 22.01C111.778 22.01 112.615 22.229 113.317 22.667C114.019 23.099 114.556 23.702 114.928 24.476C115.306 25.244 115.495 26.129 115.495 27.131C115.495 28.145 115.306 29.039 114.928 29.813C114.55 30.581 114.01 31.184 113.308 31.622C112.606 32.054 111.772 32.27 110.806 32.27ZM110.806 30.749C111.814 30.749 112.564 30.413 113.056 29.741C113.548 29.069 113.794 28.199 113.794 27.131C113.794 26.033 113.545 25.16 113.047 24.512C112.549 23.858 111.802 23.531 110.806 23.531C110.128 23.531 109.57 23.684 109.132 23.99C108.694 24.296 108.367 24.719 108.151 25.259C107.935 25.799 107.827 26.423 107.827 27.131C107.827 28.223 108.079 29.099 108.583 29.759C109.087 30.419 109.828 30.749 110.806 30.749ZM116.168 32L120.092 27.14L116.357 22.28H118.139L121.748 27.05V22.28H123.206V27.05L126.815 22.28H128.597L124.862 27.14L128.786 32H126.923L123.206 27.23V32H121.748V27.23L118.031 32H116.168ZM130.212 32V22.28H131.814V26.375H136.926V22.28H138.528V32H136.926V27.896H131.814V32H130.212ZM143.812 32.27C143.086 32.27 142.477 32.138 141.985 31.874C141.499 31.604 141.13 31.25 140.878 30.812C140.632 30.374 140.509 29.894 140.509 29.372C140.509 28.862 140.605 28.421 140.797 28.049C140.995 27.671 141.271 27.359 141.625 27.113C141.979 26.861 142.402 26.663 142.894 26.519C143.356 26.393 143.872 26.285 144.442 26.195C145.018 26.099 145.6 26.012 146.188 25.934C146.776 25.856 147.325 25.781 147.835 25.709L147.259 26.042C147.277 25.178 147.103 24.539 146.737 24.125C146.377 23.711 145.753 23.504 144.865 23.504C144.277 23.504 143.761 23.639 143.317 23.909C142.879 24.173 142.57 24.605 142.39 25.205L140.869 24.746C141.103 23.894 141.556 23.225 142.228 22.739C142.9 22.253 143.785 22.01 144.883 22.01C145.765 22.01 146.521 22.169 147.151 22.487C147.787 22.799 148.243 23.273 148.519 23.909C148.657 24.209 148.744 24.536 148.78 24.89C148.816 25.238 148.834 25.604 148.834 25.988V32H147.412V29.669L147.745 29.885C147.379 30.671 146.866 31.265 146.206 31.667C145.552 32.069 144.754 32.27 143.812 32.27ZM144.055 30.929C144.631 30.929 145.129 30.827 145.549 30.623C145.975 30.413 146.317 30.14 146.575 29.804C146.833 29.462 147.001 29.09 147.079 28.688C147.169 28.388 147.217 28.055 147.223 27.689C147.235 27.317 147.241 27.032 147.241 26.834L147.799 27.077C147.277 27.149 146.764 27.218 146.26 27.284C145.756 27.35 145.279 27.422 144.829 27.5C144.379 27.572 143.974 27.659 143.614 27.761C143.35 27.845 143.101 27.953 142.867 28.085C142.639 28.217 142.453 28.388 142.309 28.598C142.171 28.802 142.102 29.057 142.102 29.363C142.102 29.627 142.168 29.879 142.3 30.119C142.438 30.359 142.648 30.554 142.93 30.704C143.218 30.854 143.593 30.929 144.055 30.929ZM157.177 32V28.481H155.08C154.834 28.481 154.561 28.472 154.261 28.454C153.967 28.43 153.691 28.397 153.433 28.355C152.731 28.223 152.137 27.914 151.651 27.428C151.171 26.942 150.931 26.27 150.931 25.412C150.931 24.578 151.156 23.909 151.606 23.405C152.062 22.895 152.623 22.565 153.289 22.415C153.589 22.343 153.892 22.304 154.198 22.298C154.51 22.286 154.774 22.28 154.99 22.28H158.779L158.788 32H157.177ZM150.634 32L153.217 28.04H154.945L152.362 32H150.634ZM154.963 27.158H157.177V23.603H154.963C154.825 23.603 154.642 23.609 154.414 23.621C154.192 23.633 153.979 23.669 153.775 23.729C153.583 23.783 153.394 23.882 153.208 24.026C153.028 24.17 152.878 24.356 152.758 24.584C152.638 24.812 152.578 25.082 152.578 25.394C152.578 25.844 152.704 26.21 152.956 26.492C153.208 26.768 153.514 26.954 153.874 27.05C154.072 27.098 154.267 27.128 154.459 27.14C154.657 27.152 154.825 27.158 154.963 27.158ZM164.911 32V22.28H166.513V26.375H171.625V22.28H173.227V32H171.625V27.896H166.513V32H164.911ZM183.704 22.28V32H182.156V24.836L177.062 32H175.739V22.28H177.287V29.345L182.39 22.28H183.704ZM186.216 32V22.28H187.764V30.542H191.112V22.28H192.66V30.542H195.999V22.28H197.547V32H186.216ZM202.822 32.27C202.096 32.27 201.487 32.138 200.995 31.874C200.509 31.604 200.14 31.25 199.888 30.812C199.642 30.374 199.519 29.894 199.519 29.372C199.519 28.862 199.615 28.421 199.807 28.049C200.005 27.671 200.281 27.359 200.635 27.113C200.989 26.861 201.412 26.663 201.904 26.519C202.366 26.393 202.882 26.285 203.452 26.195C204.028 26.099 204.61 26.012 205.198 25.934C205.786 25.856 206.335 25.781 206.845 25.709L206.269 26.042C206.287 25.178 206.113 24.539 205.747 24.125C205.387 23.711 204.763 23.504 203.875 23.504C203.287 23.504 202.771 23.639 202.327 23.909C201.889 24.173 201.58 24.605 201.4 25.205L199.879 24.746C200.113 23.894 200.566 23.225 201.238 22.739C201.91 22.253 202.795 22.01 203.893 22.01C204.775 22.01 205.531 22.169 206.161 22.487C206.797 22.799 207.253 23.273 207.529 23.909C207.667 24.209 207.754 24.536 207.79 24.89C207.826 25.238 207.844 25.604 207.844 25.988V32H206.422V29.669L206.755 29.885C206.389 30.671 205.876 31.265 205.216 31.667C204.562 32.069 203.764 32.27 202.822 32.27ZM203.065 30.929C203.641 30.929 204.139 30.827 204.559 30.623C204.985 30.413 205.327 30.14 205.585 29.804C205.843 29.462 206.011 29.09 206.089 28.688C206.179 28.388 206.227 28.055 206.233 27.689C206.245 27.317 206.251 27.032 206.251 26.834L206.809 27.077C206.287 27.149 205.774 27.218 205.27 27.284C204.766 27.35 204.289 27.422 203.839 27.5C203.389 27.572 202.984 27.659 202.624 27.761C202.36 27.845 202.111 27.953 201.877 28.085C201.649 28.217 201.463 28.388 201.319 28.598C201.181 28.802 201.112 29.057 201.112 29.363C201.112 29.627 201.178 29.879 201.31 30.119C201.448 30.359 201.658 30.554 201.94 30.704C202.228 30.854 202.603 30.929 203.065 30.929ZM210.004 34.016L210.103 33.269C210.355 33.287 210.544 33.239 210.67 33.125C210.796 33.011 210.877 32.855 210.913 32.657C210.949 32.459 210.955 32.24 210.931 32H210.004V29.966H211.768V32.27C211.768 32.9 211.612 33.374 211.3 33.692C210.994 34.01 210.562 34.118 210.004 34.016ZM24.251 52V42.28H25.628L29.318 49.822L33.008 42.28H34.385V52H32.837V45.619L29.741 52H28.895L25.799 45.619V52H24.251ZM36.8897 52V42.28H38.4917V46.375H43.6037V42.28H45.2057V52H43.6037V47.896H38.4917V52H36.8897ZM51.9388 52.27C50.9848 52.27 50.1508 52.06 49.4368 51.64C48.7288 51.214 48.1768 50.623 47.7808 49.867C47.3848 49.105 47.1868 48.217 47.1868 47.203C47.1868 46.141 47.3818 45.223 47.7718 44.449C48.1618 43.669 48.7048 43.069 49.4008 42.649C50.1028 42.223 50.9248 42.01 51.8668 42.01C52.8448 42.01 53.6758 42.235 54.3598 42.685C55.0498 43.135 55.5658 43.777 55.9078 44.611C56.2558 45.445 56.4058 46.438 56.3578 47.59H54.7378V47.014C54.7198 45.82 54.4768 44.929 54.0088 44.341C53.5408 43.747 52.8448 43.45 51.9208 43.45C50.9308 43.45 50.1778 43.768 49.6618 44.404C49.1458 45.04 48.8878 45.952 48.8878 47.14C48.8878 48.286 49.1458 49.174 49.6618 49.804C50.1778 50.434 50.9128 50.749 51.8668 50.749C52.5088 50.749 53.0668 50.602 53.5408 50.308C54.0148 50.014 54.3868 49.591 54.6568 49.039L56.1958 49.57C55.8178 50.428 55.2478 51.094 54.4858 51.568C53.7298 52.036 52.8808 52.27 51.9388 52.27ZM48.3478 47.59V46.303H55.5298V47.59H48.3478ZM65.4661 52.27C64.4641 52.27 63.6061 52.03 62.8921 51.55C62.1781 51.07 61.6471 50.377 61.2991 49.471L62.9191 49.048C63.1411 49.6 63.4621 50.023 63.8821 50.317C64.3081 50.605 64.8331 50.749 65.4571 50.749C66.3271 50.749 67.0021 50.482 67.4821 49.948C67.9621 49.408 68.2471 48.691 68.3371 47.797H64.3591V46.474H68.3371C68.2531 45.604 67.9771 44.896 67.5091 44.35C67.0411 43.804 66.3691 43.531 65.4931 43.531C64.8871 43.531 64.3531 43.684 63.8911 43.99C63.4351 44.296 63.0991 44.737 62.8831 45.313L61.2991 44.836C61.5571 43.96 62.0581 43.27 62.8021 42.766C63.5461 42.262 64.4371 42.01 65.4751 42.01C66.4351 42.01 67.2601 42.226 67.9501 42.658C68.6401 43.09 69.1681 43.693 69.5341 44.467C69.9061 45.241 70.0921 46.135 70.0921 47.149C70.0921 48.157 69.9091 49.045 69.5431 49.813C69.1771 50.581 68.6491 51.184 67.9591 51.622C67.2691 52.054 66.4381 52.27 65.4661 52.27ZM74.4356 52V43.738H71.0516V42.28H79.4216V43.738H76.0376V52H74.4356ZM85.0895 52.27C84.1235 52.27 83.2895 52.051 82.5875 51.613C81.8915 51.175 81.3545 50.569 80.9765 49.795C80.5985 49.021 80.4095 48.133 80.4095 47.131C80.4095 46.111 80.6015 45.217 80.9855 44.449C81.3695 43.681 81.9125 43.084 82.6145 42.658C83.3165 42.226 84.1415 42.01 85.0895 42.01C86.0615 42.01 86.8985 42.229 87.6005 42.667C88.3025 43.099 88.8395 43.702 89.2115 44.476C89.5895 45.244 89.7785 46.129 89.7785 47.131C89.7785 48.145 89.5895 49.039 89.2115 49.813C88.8335 50.581 88.2935 51.184 87.5915 51.622C86.8895 52.054 86.0555 52.27 85.0895 52.27ZM85.0895 50.749C86.0975 50.749 86.8475 50.413 87.3395 49.741C87.8315 49.069 88.0775 48.199 88.0775 47.131C88.0775 46.033 87.8285 45.16 87.3305 44.512C86.8325 43.858 86.0855 43.531 85.0895 43.531C84.4115 43.531 83.8535 43.684 83.4155 43.99C82.9775 44.296 82.6505 44.719 82.4345 45.259C82.2185 45.799 82.1105 46.423 82.1105 47.131C82.1105 48.223 82.3625 49.099 82.8665 49.759C83.3705 50.419 84.1115 50.749 85.0895 50.749ZM97.9375 52V43.738H94.5535V42.28H102.924V43.738H99.5395V52H97.9375ZM108.591 52.27C107.625 52.27 106.791 52.051 106.089 51.613C105.393 51.175 104.856 50.569 104.478 49.795C104.1 49.021 103.911 48.133 103.911 47.131C103.911 46.111 104.103 45.217 104.487 44.449C104.871 43.681 105.414 43.084 106.116 42.658C106.818 42.226 107.643 42.01 108.591 42.01C109.563 42.01 110.4 42.229 111.102 42.667C111.804 43.099 112.341 43.702 112.713 44.476C113.091 45.244 113.28 46.129 113.28 47.131C113.28 48.145 113.091 49.039 112.713 49.813C112.335 50.581 111.795 51.184 111.093 51.622C110.391 52.054 109.557 52.27 108.591 52.27ZM108.591 50.749C109.599 50.749 110.349 50.413 110.841 49.741C111.333 49.069 111.579 48.199 111.579 47.131C111.579 46.033 111.33 45.16 110.832 44.512C110.334 43.858 109.587 43.531 108.591 43.531C107.913 43.531 107.355 43.684 106.917 43.99C106.479 44.296 106.152 44.719 105.936 45.259C105.72 45.799 105.612 46.423 105.612 47.131C105.612 48.223 105.864 49.099 106.368 49.759C106.872 50.419 107.613 50.749 108.591 50.749ZM121.112 52V48.499C120.788 48.661 120.395 48.799 119.933 48.913C119.477 49.027 118.988 49.084 118.466 49.084C117.476 49.084 116.678 48.862 116.072 48.418C115.466 47.974 115.07 47.335 114.884 46.501C114.83 46.249 114.791 45.988 114.767 45.718C114.749 45.448 114.737 45.202 114.731 44.98C114.725 44.758 114.722 44.596 114.722 44.494V42.28H116.342V44.494C116.342 44.668 116.348 44.884 116.36 45.142C116.372 45.394 116.402 45.64 116.45 45.88C116.57 46.474 116.819 46.921 117.197 47.221C117.581 47.521 118.121 47.671 118.817 47.671C119.285 47.671 119.717 47.611 120.113 47.491C120.509 47.371 120.842 47.212 121.112 47.014V42.28H122.723V52H121.112ZM125.237 52V42.28H126.839V46.375H131.951V42.28H133.553V52H131.951V47.896H126.839V52H125.237ZM140.214 52.27C139.248 52.27 138.414 52.051 137.712 51.613C137.016 51.175 136.479 50.569 136.101 49.795C135.723 49.021 135.534 48.133 135.534 47.131C135.534 46.111 135.726 45.217 136.11 44.449C136.494 43.681 137.037 43.084 137.739 42.658C138.441 42.226 139.266 42.01 140.214 42.01C141.186 42.01 142.023 42.229 142.725 42.667C143.427 43.099 143.964 43.702 144.336 44.476C144.714 45.244 144.903 46.129 144.903 47.131C144.903 48.145 144.714 49.039 144.336 49.813C143.958 50.581 143.418 51.184 142.716 51.622C142.014 52.054 141.18 52.27 140.214 52.27ZM140.214 50.749C141.222 50.749 141.972 50.413 142.464 49.741C142.956 49.069 143.202 48.199 143.202 47.131C143.202 46.033 142.953 45.16 142.455 44.512C141.957 43.858 141.21 43.531 140.214 43.531C139.536 43.531 138.978 43.684 138.54 43.99C138.102 44.296 137.775 44.719 137.559 45.259C137.343 45.799 137.235 46.423 137.235 47.131C137.235 48.223 137.487 49.099 137.991 49.759C138.495 50.419 139.236 50.749 140.214 50.749ZM150.48 52V42.28H158.445V52H156.843V43.801H152.082V52H150.48ZM165.105 52.27C164.139 52.27 163.305 52.051 162.603 51.613C161.907 51.175 161.37 50.569 160.992 49.795C160.614 49.021 160.425 48.133 160.425 47.131C160.425 46.111 160.617 45.217 161.001 44.449C161.385 43.681 161.928 43.084 162.63 42.658C163.332 42.226 164.157 42.01 165.105 42.01C166.077 42.01 166.914 42.229 167.616 42.667C168.318 43.099 168.855 43.702 169.227 44.476C169.605 45.244 169.794 46.129 169.794 47.131C169.794 48.145 169.605 49.039 169.227 49.813C168.849 50.581 168.309 51.184 167.607 51.622C166.905 52.054 166.071 52.27 165.105 52.27ZM165.105 50.749C166.113 50.749 166.863 50.413 167.355 49.741C167.847 49.069 168.093 48.199 168.093 47.131C168.093 46.033 167.844 45.16 167.346 44.512C166.848 43.858 166.101 43.531 165.105 43.531C164.427 43.531 163.869 43.684 163.431 43.99C162.993 44.296 162.666 44.719 162.45 45.259C162.234 45.799 162.126 46.423 162.126 47.131C162.126 48.223 162.378 49.099 162.882 49.759C163.386 50.419 164.127 50.749 165.105 50.749ZM171.056 54.16V50.677C171.602 50.677 171.992 50.5 172.226 50.146C172.46 49.786 172.649 49.195 172.793 48.373C172.889 47.857 172.967 47.305 173.027 46.717C173.087 46.129 173.138 45.475 173.18 44.755C173.228 44.029 173.273 43.204 173.315 42.28H180.011V50.677H180.956V54.16H179.426V52H172.586V54.16H171.056ZM173.522 50.677H178.409V43.603H174.764C174.746 44.029 174.722 44.476 174.692 44.944C174.662 45.406 174.626 45.868 174.584 46.33C174.548 46.792 174.503 47.23 174.449 47.644C174.401 48.052 174.344 48.418 174.278 48.742C174.2 49.192 174.11 49.573 174.008 49.885C173.906 50.197 173.744 50.461 173.522 50.677ZM186.902 52.27C185.936 52.27 185.102 52.051 184.4 51.613C183.704 51.175 183.167 50.569 182.789 49.795C182.411 49.021 182.222 48.133 182.222 47.131C182.222 46.111 182.414 45.217 182.798 44.449C183.182 43.681 183.725 43.084 184.427 42.658C185.129 42.226 185.954 42.01 186.902 42.01C187.874 42.01 188.711 42.229 189.413 42.667C190.115 43.099 190.652 43.702 191.024 44.476C191.402 45.244 191.591 46.129 191.591 47.131C191.591 48.145 191.402 49.039 191.024 49.813C190.646 50.581 190.106 51.184 189.404 51.622C188.702 52.054 187.868 52.27 186.902 52.27ZM186.902 50.749C187.91 50.749 188.66 50.413 189.152 49.741C189.644 49.069 189.89 48.199 189.89 47.131C189.89 46.033 189.641 45.16 189.143 44.512C188.645 43.858 187.898 43.531 186.902 43.531C186.224 43.531 185.666 43.684 185.228 43.99C184.79 44.296 184.463 44.719 184.247 45.259C184.031 45.799 183.923 46.423 183.923 47.131C183.923 48.223 184.175 49.099 184.679 49.759C185.183 50.419 185.924 50.749 186.902 50.749ZM197.758 41.146C197.308 41.146 196.897 41.035 196.525 40.813C196.153 40.591 195.856 40.297 195.634 39.931C195.412 39.559 195.301 39.145 195.301 38.689H196.597C196.597 39.007 196.711 39.28 196.938 39.508C197.167 39.736 197.44 39.85 197.758 39.85C198.082 39.85 198.355 39.736 198.577 39.508C198.805 39.28 198.919 39.007 198.919 38.689H200.215C200.215 39.145 200.104 39.559 199.882 39.931C199.666 40.297 199.369 40.591 198.991 40.813C198.619 41.035 198.208 41.146 197.758 41.146ZM201.529 42.28V52H199.981V44.836L194.887 52H193.564V42.28H195.112V49.345L200.215 42.28H201.529ZM203.329 54.16V50.677C203.875 50.677 204.265 50.5 204.499 50.146C204.733 49.786 204.922 49.195 205.066 48.373C205.162 47.857 205.24 47.305 205.3 46.717C205.36 46.129 205.411 45.475 205.453 44.755C205.501 44.029 205.546 43.204 205.588 42.28H212.284V50.677H213.229V54.16H211.699V52H204.859V54.16H203.329ZM205.795 50.677H210.682V43.603H207.037C207.019 44.029 206.995 44.476 206.965 44.944C206.935 45.406 206.899 45.868 206.857 46.33C206.821 46.792 206.776 47.23 206.722 47.644C206.674 48.052 206.617 48.418 206.551 48.742C206.473 49.192 206.383 49.573 206.281 49.885C206.179 50.197 206.017 50.461 205.795 50.677ZM219.247 52.27C218.293 52.27 217.459 52.06 216.745 51.64C216.037 51.214 215.485 50.623 215.089 49.867C214.693 49.105 214.495 48.217 214.495 47.203C214.495 46.141 214.69 45.223 215.08 44.449C215.47 43.669 216.013 43.069 216.709 42.649C217.411 42.223 218.233 42.01 219.175 42.01C220.153 42.01 220.984 42.235 221.668 42.685C222.358 43.135 222.874 43.777 223.216 44.611C223.564 45.445 223.714 46.438 223.666 47.59H222.046V47.014C222.028 45.82 221.785 44.929 221.317 44.341C220.849 43.747 220.153 43.45 219.229 43.45C218.239 43.45 217.486 43.768 216.97 44.404C216.454 45.04 216.196 45.952 216.196 47.14C216.196 48.286 216.454 49.174 216.97 49.804C217.486 50.434 218.221 50.749 219.175 50.749C219.817 50.749 220.375 50.602 220.849 50.308C221.323 50.014 221.695 49.591 221.965 49.039L223.504 49.57C223.126 50.428 222.556 51.094 221.794 51.568C221.038 52.036 220.189 52.27 219.247 52.27ZM215.656 47.59V46.303H222.838V47.59H215.656ZM228.068 52V43.738H224.684V42.28H233.054V43.738H229.67V52H228.068ZM237.233 48.472C237.233 48.022 237.26 47.614 237.314 47.248C237.374 46.876 237.5 46.516 237.692 46.168C237.866 45.832 238.073 45.559 238.313 45.349C238.553 45.133 238.811 44.926 239.087 44.728C239.363 44.53 239.636 44.287 239.906 43.999C240.146 43.729 240.305 43.459 240.383 43.189C240.461 42.913 240.5 42.622 240.5 42.316C240.5 42.046 240.467 41.803 240.401 41.587C240.341 41.365 240.239 41.176 240.095 41.02C239.879 40.75 239.609 40.564 239.285 40.462C238.967 40.36 238.634 40.309 238.286 40.309C237.956 40.309 237.644 40.354 237.35 40.444C237.062 40.534 236.822 40.675 236.63 40.867C236.438 41.041 236.297 41.254 236.207 41.506C236.117 41.752 236.072 42.019 236.072 42.307H234.398C234.434 41.785 234.557 41.29 234.767 40.822C234.983 40.348 235.28 39.958 235.658 39.652C236.012 39.352 236.417 39.133 236.873 38.995C237.329 38.851 237.788 38.779 238.25 38.779C238.862 38.779 239.441 38.872 239.987 39.058C240.539 39.244 240.998 39.553 241.364 39.985C241.646 40.291 241.856 40.642 241.994 41.038C242.132 41.434 242.201 41.851 242.201 42.289C242.201 42.823 242.093 43.321 241.877 43.783C241.667 44.245 241.382 44.662 241.022 45.034C240.824 45.25 240.608 45.448 240.374 45.628C240.146 45.808 239.927 45.988 239.717 46.168C239.513 46.348 239.351 46.546 239.231 46.762C239.075 47.044 238.985 47.305 238.961 47.545C238.943 47.779 238.934 48.088 238.934 48.472H237.233ZM237.242 52V50.029H238.934V52H237.242Z" fill="#101012"></path></svg> 