<?xml version="1.0" encoding="UTF-8"?> <svg xmlns="http://www.w3.org/2000/svg" width="416" height="96" viewBox="0 0 416 96" fill="none"><path fill-rule="evenodd" clip-rule="evenodd" d="M416 29.099C416 18.9134 416 13.8206 414.018 9.93021C412.274 6.50813 409.492 3.72589 406.07 1.98225C402.179 0 397.087 0 386.901 0L35.099 0C24.9134 0 19.8206 0 15.9302 1.98225C12.5081 3.72589 9.72589 6.50813 7.98225 9.93021C6 13.8206 6 18.9134 6 29.099V65.901C6 76.0866 6 81.1794 7.98225 85.0698C9.72589 88.4919 12.5081 91.2741 15.9302 93.0177C19.8206 95 24.9134 95 35.099 95H386.901C397.087 95 402.179 95 406.07 93.0177C409.492 91.2741 412.274 88.4919 414.018 85.0698C416 81.1794 416 76.0866 416 65.901V29.099Z" fill="#E6E5EB"></path><path fill-rule="evenodd" clip-rule="evenodd" d="M0 94.9236L0 95.3221H7.27475C16.6495 95.3221 24.2492 87.7224 24.2492 78.3477H6.06229C6.06229 81.6677 6.06229 83.3278 5.83079 84.7151C5.14896 88.8011 3.02737 92.3819 0 94.9236Z" fill="#E6E5EB"></path><path d="M32.946 34V28.024L33.306 28.591C32.916 28.885 32.418 29.122 31.812 29.302C31.212 29.476 30.546 29.563 29.814 29.563C28.704 29.563 27.816 29.353 27.15 28.933C26.484 28.513 26.001 27.937 25.701 27.205C25.407 26.467 25.26 25.621 25.26 24.667V21.04H26.88V24.136C26.88 24.682 26.925 25.192 27.015 25.666C27.111 26.134 27.276 26.545 27.51 26.899C27.744 27.253 28.068 27.529 28.482 27.727C28.896 27.919 29.421 28.015 30.057 28.015C30.825 28.015 31.482 27.895 32.028 27.655C32.58 27.415 32.979 27.157 33.225 26.881L32.946 27.952V21.04H34.557V34H32.946ZM39.8355 34.27C39.1095 34.27 38.5005 34.138 38.0085 33.874C37.5225 33.604 37.1535 33.25 36.9015 32.812C36.6555 32.374 36.5325 31.894 36.5325 31.372C36.5325 30.862 36.6285 30.421 36.8205 30.049C37.0185 29.671 37.2945 29.359 37.6485 29.113C38.0025 28.861 38.4255 28.663 38.9175 28.519C39.3795 28.393 39.8955 28.285 40.4655 28.195C41.0415 28.099 41.6235 28.012 42.2115 27.934C42.7995 27.856 43.3485 27.781 43.8585 27.709L43.2825 28.042C43.3005 27.178 43.1265 26.539 42.7605 26.125C42.4005 25.711 41.7765 25.504 40.8885 25.504C40.3005 25.504 39.7845 25.639 39.3405 25.909C38.9025 26.173 38.5935 26.605 38.4135 27.205L36.8925 26.746C37.1265 25.894 37.5795 25.225 38.2515 24.739C38.9235 24.253 39.8085 24.01 40.9065 24.01C41.7885 24.01 42.5445 24.169 43.1745 24.487C43.8105 24.799 44.2665 25.273 44.5425 25.909C44.6805 26.209 44.7675 26.536 44.8035 26.89C44.8395 27.238 44.8575 27.604 44.8575 27.988V34H43.4355V31.669L43.7685 31.885C43.4025 32.671 42.8895 33.265 42.2295 33.667C41.5755 34.069 40.7775 34.27 39.8355 34.27ZM40.0785 32.929C40.6545 32.929 41.1525 32.827 41.5725 32.623C41.9985 32.413 42.3405 32.14 42.5985 31.804C42.8565 31.462 43.0245 31.09 43.1025 30.688C43.1925 30.388 43.2405 30.055 43.2465 29.689C43.2585 29.317 43.2645 29.032 43.2645 28.834L43.8225 29.077C43.3005 29.149 42.7875 29.218 42.2835 29.284C41.7795 29.35 41.3025 29.422 40.8525 29.5C40.4025 29.572 39.9975 29.659 39.6375 29.761C39.3735 29.845 39.1245 29.953 38.8905 30.085C38.6625 30.217 38.4765 30.388 38.3325 30.598C38.1945 30.802 38.1255 31.057 38.1255 31.363C38.1255 31.627 38.1915 31.879 38.3235 32.119C38.4615 32.359 38.6715 32.554 38.9535 32.704C39.2415 32.854 39.6165 32.929 40.0785 32.929ZM49.7715 34V25.738H46.3875V24.28H54.7575V25.738H51.3735V34H49.7715ZM56.2812 28.987V27.664H61.6812V28.987H56.2812ZM67.9708 34.279C67.0528 34.273 66.2698 34.075 65.6218 33.685C64.9738 33.289 64.4698 32.71 64.1098 31.948C63.7498 31.186 63.5488 30.253 63.5068 29.149C63.4828 28.639 63.4888 28.078 63.5248 27.466C63.5668 26.854 63.6328 26.266 63.7228 25.702C63.8188 25.138 63.9388 24.673 64.0828 24.307C64.2448 23.869 64.4728 23.464 64.7668 23.092C65.0668 22.714 65.4028 22.402 65.7748 22.156C66.1528 21.898 66.5758 21.697 67.0438 21.553C67.5118 21.409 68.0008 21.298 68.5108 21.22C69.0268 21.136 69.5428 21.064 70.0588 21.004C70.5748 20.938 71.0668 20.86 71.5348 20.77L71.6968 22.21C71.3668 22.282 70.9768 22.345 70.5268 22.399C70.0768 22.447 69.6088 22.504 69.1228 22.57C68.6428 22.636 68.1808 22.729 67.7368 22.849C67.2988 22.963 66.9208 23.122 66.6028 23.326C66.1348 23.608 65.7748 24.031 65.5228 24.595C65.2768 25.153 65.1268 25.78 65.0728 26.476C65.4448 25.9 65.9278 25.477 66.5218 25.207C67.1158 24.937 67.7488 24.802 68.4208 24.802C69.2908 24.802 70.0408 25.006 70.6708 25.414C71.3008 25.816 71.7838 26.371 72.1198 27.079C72.4618 27.787 72.6328 28.594 72.6328 29.5C72.6328 30.46 72.4408 31.3 72.0568 32.02C71.6728 32.74 71.1298 33.298 70.4278 33.694C69.7318 34.09 68.9128 34.285 67.9708 34.279ZM68.0698 32.758C69.0118 32.758 69.7258 32.467 70.2118 31.885C70.6978 31.297 70.9408 30.517 70.9408 29.545C70.9408 28.549 70.6888 27.766 70.1848 27.196C69.6808 26.62 68.9728 26.332 68.0608 26.332C67.1368 26.332 66.4288 26.62 65.9368 27.196C65.4508 27.766 65.2078 28.549 65.2078 29.545C65.2078 30.547 65.4538 31.333 65.9458 31.903C66.4378 32.473 67.1458 32.758 68.0698 32.758ZM78.7594 34.27C77.7934 34.27 76.9594 34.051 76.2574 33.613C75.5614 33.175 75.0244 32.569 74.6464 31.795C74.2684 31.021 74.0794 30.133 74.0794 29.131C74.0794 28.111 74.2714 27.217 74.6554 26.449C75.0394 25.681 75.5824 25.084 76.2844 24.658C76.9864 24.226 77.8114 24.01 78.7594 24.01C79.7314 24.01 80.5684 24.229 81.2704 24.667C81.9724 25.099 82.5094 25.702 82.8814 26.476C83.2594 27.244 83.4484 28.129 83.4484 29.131C83.4484 30.145 83.2594 31.039 82.8814 31.813C82.5034 32.581 81.9634 33.184 81.2614 33.622C80.5594 34.054 79.7254 34.27 78.7594 34.27ZM78.7594 32.749C79.7674 32.749 80.5174 32.413 81.0094 31.741C81.5014 31.069 81.7474 30.199 81.7474 29.131C81.7474 28.033 81.4984 27.16 81.0004 26.512C80.5024 25.858 79.7554 25.531 78.7594 25.531C78.0814 25.531 77.5234 25.684 77.0854 25.99C76.6474 26.296 76.3204 26.719 76.1044 27.259C75.8884 27.799 75.7804 28.423 75.7804 29.131C75.7804 30.223 76.0324 31.099 76.5364 31.759C77.0404 32.419 77.7814 32.749 78.7594 32.749ZM87.793 34V25.738H84.409V24.28H92.779V25.738H89.395V34H87.793ZM94.4827 34L94.4737 24.28H96.0847V27.799H97.5697C97.8517 27.799 98.1397 27.805 98.4337 27.817C98.7277 27.829 98.9827 27.856 99.1987 27.898C99.7027 28 100.144 28.171 100.522 28.411C100.9 28.651 101.194 28.975 101.404 29.383C101.614 29.791 101.719 30.298 101.719 30.904C101.719 31.744 101.5 32.41 101.062 32.902C100.63 33.388 100.063 33.712 99.3607 33.874C99.1207 33.928 98.8447 33.964 98.5327 33.982C98.2267 33.994 97.9357 34 97.6597 34H94.4827ZM96.0847 32.677H97.6867C97.8667 32.677 98.0677 32.671 98.2897 32.659C98.5117 32.647 98.7097 32.617 98.8837 32.569C99.1897 32.479 99.4627 32.302 99.7027 32.038C99.9487 31.774 100.072 31.396 100.072 30.904C100.072 30.406 99.9517 30.022 99.7117 29.752C99.4777 29.482 99.1687 29.305 98.7847 29.221C98.6107 29.179 98.4277 29.152 98.2357 29.14C98.0437 29.128 97.8607 29.122 97.6867 29.122H96.0847V32.677ZM102.835 34V24.28H104.437V34H102.835ZM106.783 36.016L106.882 35.269C107.134 35.287 107.323 35.239 107.449 35.125C107.575 35.011 107.656 34.855 107.692 34.657C107.728 34.459 107.734 34.24 107.71 34H106.783V31.966H108.547V34.27C108.547 34.9 108.391 35.374 108.079 35.692C107.773 36.01 107.341 36.118 106.783 36.016ZM118.339 34.27C117.613 34.27 117.004 34.138 116.512 33.874C116.026 33.604 115.657 33.25 115.405 32.812C115.159 32.374 115.036 31.894 115.036 31.372C115.036 30.862 115.132 30.421 115.324 30.049C115.522 29.671 115.798 29.359 116.152 29.113C116.506 28.861 116.929 28.663 117.421 28.519C117.883 28.393 118.399 28.285 118.969 28.195C119.545 28.099 120.127 28.012 120.715 27.934C121.303 27.856 121.852 27.781 122.362 27.709L121.786 28.042C121.804 27.178 121.63 26.539 121.264 26.125C120.904 25.711 120.28 25.504 119.392 25.504C118.804 25.504 118.288 25.639 117.844 25.909C117.406 26.173 117.097 26.605 116.917 27.205L115.396 26.746C115.63 25.894 116.083 25.225 116.755 24.739C117.427 24.253 118.312 24.01 119.41 24.01C120.292 24.01 121.048 24.169 121.678 24.487C122.314 24.799 122.77 25.273 123.046 25.909C123.184 26.209 123.271 26.536 123.307 26.89C123.343 27.238 123.361 27.604 123.361 27.988V34H121.939V31.669L122.272 31.885C121.906 32.671 121.393 33.265 120.733 33.667C120.079 34.069 119.281 34.27 118.339 34.27ZM118.582 32.929C119.158 32.929 119.656 32.827 120.076 32.623C120.502 32.413 120.844 32.14 121.102 31.804C121.36 31.462 121.528 31.09 121.606 30.688C121.696 30.388 121.744 30.055 121.75 29.689C121.762 29.317 121.768 29.032 121.768 28.834L122.326 29.077C121.804 29.149 121.291 29.218 120.787 29.284C120.283 29.35 119.806 29.422 119.356 29.5C118.906 29.572 118.501 29.659 118.141 29.761C117.877 29.845 117.628 29.953 117.394 30.085C117.166 30.217 116.98 30.388 116.836 30.598C116.698 30.802 116.629 31.057 116.629 31.363C116.629 31.627 116.695 31.879 116.827 32.119C116.965 32.359 117.175 32.554 117.457 32.704C117.745 32.854 118.12 32.929 118.582 32.929ZM125.692 34V24.28H129.832C130.078 24.28 130.342 24.295 130.624 24.325C130.912 24.349 131.173 24.394 131.407 24.46C131.929 24.598 132.358 24.883 132.694 25.315C133.036 25.741 133.207 26.281 133.207 26.935C133.207 27.301 133.15 27.619 133.036 27.889C132.928 28.159 132.772 28.393 132.568 28.591C132.478 28.681 132.379 28.762 132.271 28.834C132.163 28.906 132.055 28.963 131.947 29.005C132.157 29.041 132.37 29.122 132.586 29.248C132.928 29.434 133.195 29.695 133.387 30.031C133.585 30.367 133.684 30.796 133.684 31.318C133.684 31.978 133.525 32.524 133.207 32.956C132.889 33.382 132.451 33.676 131.893 33.838C131.659 33.904 131.401 33.949 131.119 33.973C130.837 33.991 130.564 34 130.3 34H125.692ZM127.312 32.695H130.21C130.336 32.695 130.486 32.683 130.66 32.659C130.84 32.635 130.999 32.605 131.137 32.569C131.449 32.479 131.674 32.311 131.812 32.065C131.956 31.819 132.028 31.552 132.028 31.264C132.028 30.88 131.92 30.568 131.704 30.328C131.494 30.088 131.215 29.938 130.867 29.878C130.741 29.842 130.603 29.821 130.453 29.815C130.309 29.809 130.18 29.806 130.066 29.806H127.312V32.695ZM127.312 28.483H129.724C129.892 28.483 130.069 28.474 130.255 28.456C130.441 28.432 130.603 28.393 130.741 28.339C131.017 28.237 131.218 28.069 131.344 27.835C131.476 27.595 131.542 27.334 131.542 27.052C131.542 26.74 131.47 26.467 131.326 26.233C131.188 25.993 130.975 25.828 130.687 25.738C130.495 25.666 130.279 25.627 130.039 25.621C129.805 25.609 129.655 25.603 129.589 25.603H127.312V28.483ZM138.066 34V25.738H134.682V24.28H143.052V25.738H139.668V34H138.066ZM148.72 34.27C147.754 34.27 146.92 34.051 146.218 33.613C145.522 33.175 144.985 32.569 144.607 31.795C144.229 31.021 144.04 30.133 144.04 29.131C144.04 28.111 144.232 27.217 144.616 26.449C145 25.681 145.543 25.084 146.245 24.658C146.947 24.226 147.772 24.01 148.72 24.01C149.692 24.01 150.529 24.229 151.231 24.667C151.933 25.099 152.47 25.702 152.842 26.476C153.22 27.244 153.409 28.129 153.409 29.131C153.409 30.145 153.22 31.039 152.842 31.813C152.464 32.581 151.924 33.184 151.222 33.622C150.52 34.054 149.686 34.27 148.72 34.27ZM148.72 32.749C149.728 32.749 150.478 32.413 150.97 31.741C151.462 31.069 151.708 30.199 151.708 29.131C151.708 28.033 151.459 27.16 150.961 26.512C150.463 25.858 149.716 25.531 148.72 25.531C148.042 25.531 147.484 25.684 147.046 25.99C146.608 26.296 146.281 26.719 146.065 27.259C145.849 27.799 145.741 28.423 145.741 29.131C145.741 30.223 145.993 31.099 146.497 31.759C147.001 32.419 147.742 32.749 148.72 32.749ZM155.382 34V24.28H159.522C159.768 24.28 160.032 24.295 160.314 24.325C160.602 24.349 160.863 24.394 161.097 24.46C161.619 24.598 162.048 24.883 162.384 25.315C162.726 25.741 162.897 26.281 162.897 26.935C162.897 27.301 162.84 27.619 162.726 27.889C162.618 28.159 162.462 28.393 162.258 28.591C162.168 28.681 162.069 28.762 161.961 28.834C161.853 28.906 161.745 28.963 161.637 29.005C161.847 29.041 162.06 29.122 162.276 29.248C162.618 29.434 162.885 29.695 163.077 30.031C163.275 30.367 163.374 30.796 163.374 31.318C163.374 31.978 163.215 32.524 162.897 32.956C162.579 33.382 162.141 33.676 161.583 33.838C161.349 33.904 161.091 33.949 160.809 33.973C160.527 33.991 160.254 34 159.99 34H155.382ZM157.002 32.695H159.9C160.026 32.695 160.176 32.683 160.35 32.659C160.53 32.635 160.689 32.605 160.827 32.569C161.139 32.479 161.364 32.311 161.502 32.065C161.646 31.819 161.718 31.552 161.718 31.264C161.718 30.88 161.61 30.568 161.394 30.328C161.184 30.088 160.905 29.938 160.557 29.878C160.431 29.842 160.293 29.821 160.143 29.815C159.999 29.809 159.87 29.806 159.756 29.806H157.002V32.695ZM157.002 28.483H159.414C159.582 28.483 159.759 28.474 159.945 28.456C160.131 28.432 160.293 28.393 160.431 28.339C160.707 28.237 160.908 28.069 161.034 27.835C161.166 27.595 161.232 27.334 161.232 27.052C161.232 26.74 161.16 26.467 161.016 26.233C160.878 25.993 160.665 25.828 160.377 25.738C160.185 25.666 159.969 25.627 159.729 25.621C159.495 25.609 159.345 25.603 159.279 25.603H157.002V28.483ZM169.322 34.27C168.356 34.27 167.522 34.051 166.82 33.613C166.124 33.175 165.587 32.569 165.209 31.795C164.831 31.021 164.642 30.133 164.642 29.131C164.642 28.111 164.834 27.217 165.218 26.449C165.602 25.681 166.145 25.084 166.847 24.658C167.549 24.226 168.374 24.01 169.322 24.01C170.294 24.01 171.131 24.229 171.833 24.667C172.535 25.099 173.072 25.702 173.444 26.476C173.822 27.244 174.011 28.129 174.011 29.131C174.011 30.145 173.822 31.039 173.444 31.813C173.066 32.581 172.526 33.184 171.824 33.622C171.122 34.054 170.288 34.27 169.322 34.27ZM169.322 32.749C170.33 32.749 171.08 32.413 171.572 31.741C172.064 31.069 172.31 30.199 172.31 29.131C172.31 28.033 172.061 27.16 171.563 26.512C171.065 25.858 170.318 25.531 169.322 25.531C168.644 25.531 168.086 25.684 167.648 25.99C167.21 26.296 166.883 26.719 166.667 27.259C166.451 27.799 166.343 28.423 166.343 29.131C166.343 30.223 166.595 31.099 167.099 31.759C167.603 32.419 168.344 32.749 169.322 32.749ZM180.456 34.27C179.544 34.27 178.776 34.045 178.152 33.595C177.528 33.139 177.054 32.524 176.73 31.75C176.412 30.97 176.253 30.097 176.253 29.131C176.253 28.153 176.412 27.277 176.73 26.503C177.054 25.729 177.528 25.12 178.152 24.676C178.782 24.232 179.553 24.01 180.465 24.01C181.365 24.01 182.139 24.235 182.787 24.685C183.441 25.129 183.942 25.738 184.29 26.512C184.638 27.286 184.812 28.159 184.812 29.131C184.812 30.103 184.638 30.976 184.29 31.75C183.942 32.524 183.441 33.139 182.787 33.595C182.139 34.045 181.362 34.27 180.456 34.27ZM175.983 38.32V24.28H177.414V31.435H177.594V38.32H175.983ZM180.258 32.803C180.9 32.803 181.431 32.641 181.851 32.317C182.271 31.993 182.586 31.555 182.796 31.003C183.006 30.445 183.111 29.821 183.111 29.131C183.111 28.447 183.006 27.829 182.796 27.277C182.592 26.725 182.274 26.287 181.842 25.963C181.416 25.639 180.873 25.477 180.213 25.477C179.583 25.477 179.061 25.633 178.647 25.945C178.233 26.251 177.924 26.68 177.72 27.232C177.516 27.778 177.414 28.411 177.414 29.131C177.414 29.839 177.513 30.472 177.711 31.03C177.915 31.582 178.227 32.017 178.647 32.335C179.067 32.647 179.604 32.803 180.258 32.803ZM190.925 34.27C189.959 34.27 189.125 34.051 188.423 33.613C187.727 33.175 187.19 32.569 186.812 31.795C186.434 31.021 186.245 30.133 186.245 29.131C186.245 28.111 186.437 27.217 186.821 26.449C187.205 25.681 187.748 25.084 188.45 24.658C189.152 24.226 189.977 24.01 190.925 24.01C191.897 24.01 192.734 24.229 193.436 24.667C194.138 25.099 194.675 25.702 195.047 26.476C195.425 27.244 195.614 28.129 195.614 29.131C195.614 30.145 195.425 31.039 195.047 31.813C194.669 32.581 194.129 33.184 193.427 33.622C192.725 34.054 191.891 34.27 190.925 34.27ZM190.925 32.749C191.933 32.749 192.683 32.413 193.175 31.741C193.667 31.069 193.913 30.199 193.913 29.131C193.913 28.033 193.664 27.16 193.166 26.512C192.668 25.858 191.921 25.531 190.925 25.531C190.247 25.531 189.689 25.684 189.251 25.99C188.813 26.296 188.486 26.719 188.27 27.259C188.054 27.799 187.946 28.423 187.946 29.131C187.946 30.223 188.198 31.099 188.702 31.759C189.206 32.419 189.947 32.749 190.925 32.749ZM197.587 34V24.28H199.189V28.375H204.301V24.28H205.903V34H204.301V29.896H199.189V34H197.587ZM208.415 34L208.424 24.28H210.044V28.96L214.121 24.28H216.2L211.907 29.14L216.704 34H214.463L210.044 29.32V34H208.415ZM225.556 24.28V34H224.008V26.836L218.914 34H217.591V24.28H219.139V31.345L224.242 24.28H225.556ZM227.896 36.016L227.995 35.269C228.247 35.287 228.436 35.239 228.562 35.125C228.688 35.011 228.769 34.855 228.805 34.657C228.841 34.459 228.847 34.24 228.823 34H227.896V31.966H229.66V34.27C229.66 34.9 229.504 35.374 229.192 35.692C228.886 36.01 228.454 36.118 227.896 36.016ZM235.79 34V32.623C236.15 32.689 236.423 32.677 236.609 32.587C236.801 32.491 236.942 32.326 237.032 32.092C237.128 31.852 237.206 31.552 237.266 31.192C237.368 30.622 237.455 29.986 237.527 29.284C237.605 28.582 237.674 27.814 237.734 26.98C237.8 26.14 237.86 25.24 237.914 24.28H244.709V34H243.107V25.801H239.372C239.336 26.353 239.291 26.92 239.237 27.502C239.189 28.084 239.138 28.651 239.084 29.203C239.03 29.749 238.97 30.259 238.904 30.733C238.844 31.201 238.778 31.606 238.706 31.948C238.592 32.536 238.433 33.007 238.229 33.361C238.025 33.709 237.731 33.934 237.347 34.036C236.963 34.144 236.444 34.132 235.79 34ZM251.449 34.27C250.495 34.27 249.661 34.06 248.947 33.64C248.239 33.214 247.687 32.623 247.291 31.867C246.895 31.105 246.697 30.217 246.697 29.203C246.697 28.141 246.892 27.223 247.282 26.449C247.672 25.669 248.215 25.069 248.911 24.649C249.613 24.223 250.435 24.01 251.377 24.01C252.355 24.01 253.186 24.235 253.87 24.685C254.56 25.135 255.076 25.777 255.418 26.611C255.766 27.445 255.916 28.438 255.868 29.59H254.248V29.014C254.23 27.82 253.987 26.929 253.519 26.341C253.051 25.747 252.355 25.45 251.431 25.45C250.441 25.45 249.688 25.768 249.172 26.404C248.656 27.04 248.398 27.952 248.398 29.14C248.398 30.286 248.656 31.174 249.172 31.804C249.688 32.434 250.423 32.749 251.377 32.749C252.019 32.749 252.577 32.602 253.051 32.308C253.525 32.014 253.897 31.591 254.167 31.039L255.706 31.57C255.328 32.428 254.758 33.094 253.996 33.568C253.24 34.036 252.391 34.27 251.449 34.27ZM247.858 29.59V28.303H255.04V29.59H247.858ZM257.862 34V24.28H259.464V28.375H264.576V24.28H266.178V34H264.576V29.896H259.464V34H257.862ZM267.979 36.16V32.677C268.525 32.677 268.915 32.5 269.149 32.146C269.383 31.786 269.572 31.195 269.716 30.373C269.812 29.857 269.89 29.305 269.95 28.717C270.01 28.129 270.061 27.475 270.103 26.755C270.151 26.029 270.196 25.204 270.238 24.28H276.934V32.677H277.879V36.16H276.349V34H269.509V36.16H267.979ZM270.445 32.677H275.332V25.603H271.687C271.669 26.029 271.645 26.476 271.615 26.944C271.585 27.406 271.549 27.868 271.507 28.33C271.471 28.792 271.426 29.23 271.372 29.644C271.324 30.052 271.267 30.418 271.201 30.742C271.123 31.192 271.033 31.573 270.931 31.885C270.829 32.197 270.667 32.461 270.445 32.677ZM287.642 24.28V34H286.094V26.836L281 34H279.677V24.28H281.225V31.345L286.328 24.28H287.642ZM290.153 34V24.28H291.755V28.375H296.867V24.28H298.469V34H296.867V29.896H291.755V34H290.153ZM300.99 34V24.28H307.74V25.801H302.592V34H300.99ZM317.402 24.28V34H315.854V26.836L310.76 34H309.437V24.28H310.985V31.345L316.088 24.28H317.402ZM319.742 36.016L319.841 35.269C320.093 35.287 320.282 35.239 320.408 35.125C320.534 35.011 320.615 34.855 320.651 34.657C320.687 34.459 320.693 34.24 320.669 34H319.742V31.966H321.506V34.27C321.506 34.9 321.35 35.374 321.038 35.692C320.732 36.01 320.3 36.118 319.742 36.016ZM29.724 54.27C28.812 54.27 28.044 54.045 27.42 53.595C26.796 53.139 26.322 52.524 25.998 51.75C25.68 50.97 25.521 50.097 25.521 49.131C25.521 48.153 25.68 47.277 25.998 46.503C26.322 45.729 26.796 45.12 27.42 44.676C28.05 44.232 28.821 44.01 29.733 44.01C30.633 44.01 31.407 44.235 32.055 44.685C32.709 45.129 33.21 45.738 33.558 46.512C33.906 47.286 34.08 48.159 34.08 49.131C34.08 50.103 33.906 50.976 33.558 51.75C33.21 52.524 32.709 53.139 32.055 53.595C31.407 54.045 30.63 54.27 29.724 54.27ZM25.251 58.32V44.28H26.682V51.435H26.862V58.32H25.251ZM29.526 52.803C30.168 52.803 30.699 52.641 31.119 52.317C31.539 51.993 31.854 51.555 32.064 51.003C32.274 50.445 32.379 49.821 32.379 49.131C32.379 48.447 32.274 47.829 32.064 47.277C31.86 46.725 31.542 46.287 31.11 45.963C30.684 45.639 30.141 45.477 29.481 45.477C28.851 45.477 28.329 45.633 27.915 45.945C27.501 46.251 27.192 46.68 26.988 47.232C26.784 47.778 26.682 48.411 26.682 49.131C26.682 49.839 26.781 50.472 26.979 51.03C27.183 51.582 27.495 52.017 27.915 52.335C28.335 52.647 28.872 52.803 29.526 52.803ZM38.816 54.27C38.09 54.27 37.481 54.138 36.989 53.874C36.503 53.604 36.134 53.25 35.882 52.812C35.636 52.374 35.513 51.894 35.513 51.372C35.513 50.862 35.609 50.421 35.801 50.049C35.999 49.671 36.275 49.359 36.629 49.113C36.983 48.861 37.406 48.663 37.898 48.519C38.36 48.393 38.876 48.285 39.446 48.195C40.022 48.099 40.604 48.012 41.192 47.934C41.78 47.856 42.329 47.781 42.839 47.709L42.263 48.042C42.281 47.178 42.107 46.539 41.741 46.125C41.381 45.711 40.757 45.504 39.869 45.504C39.281 45.504 38.765 45.639 38.321 45.909C37.883 46.173 37.574 46.605 37.394 47.205L35.873 46.746C36.107 45.894 36.56 45.225 37.232 44.739C37.904 44.253 38.789 44.01 39.887 44.01C40.769 44.01 41.525 44.169 42.155 44.487C42.791 44.799 43.247 45.273 43.523 45.909C43.661 46.209 43.748 46.536 43.784 46.89C43.82 47.238 43.838 47.604 43.838 47.988V54H42.416V51.669L42.749 51.885C42.383 52.671 41.87 53.265 41.21 53.667C40.556 54.069 39.758 54.27 38.816 54.27ZM39.059 52.929C39.635 52.929 40.133 52.827 40.553 52.623C40.979 52.413 41.321 52.14 41.579 51.804C41.837 51.462 42.005 51.09 42.083 50.688C42.173 50.388 42.221 50.055 42.227 49.689C42.239 49.317 42.245 49.032 42.245 48.834L42.803 49.077C42.281 49.149 41.768 49.218 41.264 49.284C40.76 49.35 40.283 49.422 39.833 49.5C39.383 49.572 38.978 49.659 38.618 49.761C38.354 49.845 38.105 49.953 37.871 50.085C37.643 50.217 37.457 50.388 37.313 50.598C37.175 50.802 37.106 51.057 37.106 51.363C37.106 51.627 37.172 51.879 37.304 52.119C37.442 52.359 37.652 52.554 37.934 52.704C38.222 52.854 38.597 52.929 39.059 52.929ZM50.273 54.27C49.289 54.27 48.452 54.051 47.762 53.613C47.078 53.169 46.556 52.56 46.196 51.786C45.836 51.012 45.65 50.13 45.638 49.14C45.65 48.126 45.839 47.235 46.205 46.467C46.577 45.693 47.108 45.09 47.798 44.658C48.488 44.226 49.319 44.01 50.291 44.01C51.317 44.01 52.199 44.262 52.937 44.766C53.681 45.27 54.179 45.96 54.431 46.836L52.847 47.313C52.643 46.749 52.31 46.311 51.848 45.999C51.392 45.687 50.867 45.531 50.273 45.531C49.607 45.531 49.058 45.687 48.626 45.999C48.194 46.305 47.873 46.731 47.663 47.277C47.453 47.817 47.345 48.438 47.339 49.14C47.351 50.22 47.6 51.093 48.086 51.759C48.578 52.419 49.307 52.749 50.273 52.749C50.909 52.749 51.437 52.605 51.857 52.317C52.277 52.023 52.595 51.6 52.811 51.048L54.431 51.471C54.095 52.377 53.57 53.07 52.856 53.55C52.142 54.03 51.281 54.27 50.273 54.27ZM60.0991 54.27C59.1151 54.27 58.2781 54.051 57.5881 53.613C56.9041 53.169 56.3821 52.56 56.0221 51.786C55.6621 51.012 55.4761 50.13 55.4641 49.14C55.4761 48.126 55.6651 47.235 56.0311 46.467C56.4031 45.693 56.9341 45.09 57.6241 44.658C58.3141 44.226 59.1451 44.01 60.1171 44.01C61.1431 44.01 62.0251 44.262 62.7631 44.766C63.5071 45.27 64.0051 45.96 64.2571 46.836L62.6731 47.313C62.4691 46.749 62.1361 46.311 61.6741 45.999C61.2181 45.687 60.6931 45.531 60.0991 45.531C59.4331 45.531 58.8841 45.687 58.4521 45.999C58.0201 46.305 57.6991 46.731 57.4891 47.277C57.2791 47.817 57.1711 48.438 57.1651 49.14C57.1771 50.22 57.4261 51.093 57.9121 51.759C58.4041 52.419 59.1331 52.749 60.0991 52.749C60.7351 52.749 61.2631 52.605 61.6831 52.317C62.1031 52.023 62.4211 51.6 62.6371 51.048L64.2571 51.471C63.9211 52.377 63.3961 53.07 62.6821 53.55C61.9681 54.03 61.1071 54.27 60.0991 54.27ZM66.094 54L66.085 44.28H67.696V47.799H69.181C69.463 47.799 69.751 47.805 70.045 47.817C70.339 47.829 70.594 47.856 70.81 47.898C71.314 48 71.755 48.171 72.133 48.411C72.511 48.651 72.805 48.975 73.015 49.383C73.225 49.791 73.33 50.298 73.33 50.904C73.33 51.744 73.111 52.41 72.673 52.902C72.241 53.388 71.674 53.712 70.972 53.874C70.732 53.928 70.456 53.964 70.144 53.982C69.838 53.994 69.547 54 69.271 54H66.094ZM67.696 52.677H69.298C69.478 52.677 69.679 52.671 69.901 52.659C70.123 52.647 70.321 52.617 70.495 52.569C70.801 52.479 71.074 52.302 71.314 52.038C71.56 51.774 71.683 51.396 71.683 50.904C71.683 50.406 71.563 50.022 71.323 49.752C71.089 49.482 70.78 49.305 70.396 49.221C70.222 49.179 70.039 49.152 69.847 49.14C69.655 49.128 69.472 49.122 69.298 49.122H67.696V52.677ZM74.446 54V44.28H76.048V54H74.446ZM77.6745 54V52.623C78.0345 52.689 78.3075 52.677 78.4935 52.587C78.6855 52.491 78.8265 52.326 78.9165 52.092C79.0125 51.852 79.0905 51.552 79.1505 51.192C79.2525 50.622 79.3395 49.986 79.4115 49.284C79.4895 48.582 79.5585 47.814 79.6185 46.98C79.6845 46.14 79.7445 45.24 79.7985 44.28H86.5935V54H84.9915V45.801H81.2565C81.2205 46.353 81.1755 46.92 81.1215 47.502C81.0735 48.084 81.0225 48.651 80.9685 49.203C80.9145 49.749 80.8545 50.259 80.7885 50.733C80.7285 51.201 80.6625 51.606 80.5905 51.948C80.4765 52.536 80.3175 53.007 80.1135 53.361C79.9095 53.709 79.6155 53.934 79.2315 54.036C78.8475 54.144 78.3285 54.132 77.6745 54ZM89.1123 54L89.1213 44.28H90.7413V48.96L94.8183 44.28H96.8973L92.6043 49.14L97.4013 54H95.1603L90.7413 49.32V54H89.1123ZM106.253 44.28V54H104.705V46.836L99.6111 54H98.2881V44.28H99.8361V51.345L104.939 44.28H106.253ZM109.062 54V52.236H110.826V54H109.062ZM113.913 54V52.236H115.677V54H113.913ZM118.765 54V52.236H120.529V54H118.765ZM128.957 54L130.505 50.787L125.942 41.04H127.733L131.342 49.077L135.032 41.04H136.742L130.694 54H128.957ZM141.108 54V44.28H142.485L146.175 51.822L149.865 44.28H151.242V54H149.694V47.619L146.598 54H145.752L142.656 47.619V54H141.108ZM157.968 54.27C157.014 54.27 156.18 54.06 155.466 53.64C154.758 53.214 154.206 52.623 153.81 51.867C153.414 51.105 153.216 50.217 153.216 49.203C153.216 48.141 153.411 47.223 153.801 46.449C154.191 45.669 154.734 45.069 155.43 44.649C156.132 44.223 156.954 44.01 157.896 44.01C158.874 44.01 159.705 44.235 160.389 44.685C161.079 45.135 161.595 45.777 161.937 46.611C162.285 47.445 162.435 48.438 162.387 49.59H160.767V49.014C160.749 47.82 160.506 46.929 160.038 46.341C159.57 45.747 158.874 45.45 157.95 45.45C156.96 45.45 156.207 45.768 155.691 46.404C155.175 47.04 154.917 47.952 154.917 49.14C154.917 50.286 155.175 51.174 155.691 51.804C156.207 52.434 156.942 52.749 157.896 52.749C158.538 52.749 159.096 52.602 159.57 52.308C160.044 52.014 160.416 51.591 160.686 51.039L162.225 51.57C161.847 52.428 161.277 53.094 160.515 53.568C159.759 54.036 158.91 54.27 157.968 54.27ZM154.377 49.59V48.303H161.559V49.59H154.377ZM164.382 54V44.28H165.984V48.375H171.096V44.28H172.698V54H171.096V49.896H165.984V54H164.382ZM181.222 54V50.481H179.125C178.879 50.481 178.606 50.472 178.306 50.454C178.012 50.43 177.736 50.397 177.478 50.355C176.776 50.223 176.182 49.914 175.696 49.428C175.216 48.942 174.976 48.27 174.976 47.412C174.976 46.578 175.201 45.909 175.651 45.405C176.107 44.895 176.668 44.565 177.334 44.415C177.634 44.343 177.937 44.304 178.243 44.298C178.555 44.286 178.819 44.28 179.035 44.28H182.824L182.833 54H181.222ZM174.679 54L177.262 50.04H178.99L176.407 54H174.679ZM179.008 49.158H181.222V45.603H179.008C178.87 45.603 178.687 45.609 178.459 45.621C178.237 45.633 178.024 45.669 177.82 45.729C177.628 45.783 177.439 45.882 177.253 46.026C177.073 46.17 176.923 46.356 176.803 46.584C176.683 46.812 176.623 47.082 176.623 47.394C176.623 47.844 176.749 48.21 177.001 48.492C177.253 48.768 177.559 48.954 177.919 49.05C178.117 49.098 178.312 49.128 178.504 49.14C178.702 49.152 178.87 49.158 179.008 49.158ZM188.956 54V44.28H190.558V48.375H195.67V44.28H197.272V54H195.67V49.896H190.558V54H188.956ZM204.005 54.27C203.051 54.27 202.217 54.06 201.503 53.64C200.795 53.214 200.243 52.623 199.847 51.867C199.451 51.105 199.253 50.217 199.253 49.203C199.253 48.141 199.448 47.223 199.838 46.449C200.228 45.669 200.771 45.069 201.467 44.649C202.169 44.223 202.991 44.01 203.933 44.01C204.911 44.01 205.742 44.235 206.426 44.685C207.116 45.135 207.632 45.777 207.974 46.611C208.322 47.445 208.472 48.438 208.424 49.59H206.804V49.014C206.786 47.82 206.543 46.929 206.075 46.341C205.607 45.747 204.911 45.45 203.987 45.45C202.997 45.45 202.244 45.768 201.728 46.404C201.212 47.04 200.954 47.952 200.954 49.14C200.954 50.286 201.212 51.174 201.728 51.804C202.244 52.434 202.979 52.749 203.933 52.749C204.575 52.749 205.133 52.602 205.607 52.308C206.081 52.014 206.453 51.591 206.723 51.039L208.262 51.57C207.884 52.428 207.314 53.094 206.552 53.568C205.796 54.036 204.947 54.27 204.005 54.27ZM200.414 49.59V48.303H207.596V49.59H200.414ZM212.826 54V45.738H209.442V44.28H217.812V45.738H214.428V54H212.826ZM227.07 54.279C226.152 54.273 225.369 54.075 224.721 53.685C224.073 53.289 223.569 52.71 223.209 51.948C222.849 51.186 222.648 50.253 222.606 49.149C222.582 48.639 222.588 48.078 222.624 47.466C222.666 46.854 222.732 46.266 222.822 45.702C222.918 45.138 223.038 44.673 223.182 44.307C223.344 43.869 223.572 43.464 223.866 43.092C224.166 42.714 224.502 42.402 224.874 42.156C225.252 41.898 225.675 41.697 226.143 41.553C226.611 41.409 227.1 41.298 227.61 41.22C228.126 41.136 228.642 41.064 229.158 41.004C229.674 40.938 230.166 40.86 230.634 40.77L230.796 42.21C230.466 42.282 230.076 42.345 229.626 42.399C229.176 42.447 228.708 42.504 228.222 42.57C227.742 42.636 227.28 42.729 226.836 42.849C226.398 42.963 226.02 43.122 225.702 43.326C225.234 43.608 224.874 44.031 224.622 44.595C224.376 45.153 224.226 45.78 224.172 46.476C224.544 45.9 225.027 45.477 225.621 45.207C226.215 44.937 226.848 44.802 227.52 44.802C228.39 44.802 229.14 45.006 229.77 45.414C230.4 45.816 230.883 46.371 231.219 47.079C231.561 47.787 231.732 48.594 231.732 49.5C231.732 50.46 231.54 51.3 231.156 52.02C230.772 52.74 230.229 53.298 229.527 53.694C228.831 54.09 228.012 54.285 227.07 54.279ZM227.169 52.758C228.111 52.758 228.825 52.467 229.311 51.885C229.797 51.297 230.04 50.517 230.04 49.545C230.04 48.549 229.788 47.766 229.284 47.196C228.78 46.62 228.072 46.332 227.16 46.332C226.236 46.332 225.528 46.62 225.036 47.196C224.55 47.766 224.307 48.549 224.307 49.545C224.307 50.547 224.553 51.333 225.045 51.903C225.537 52.473 226.245 52.758 227.169 52.758ZM237.859 54.27C236.893 54.27 236.059 54.051 235.357 53.613C234.661 53.175 234.124 52.569 233.746 51.795C233.368 51.021 233.179 50.133 233.179 49.131C233.179 48.111 233.371 47.217 233.755 46.449C234.139 45.681 234.682 45.084 235.384 44.658C236.086 44.226 236.911 44.01 237.859 44.01C238.831 44.01 239.668 44.229 240.37 44.667C241.072 45.099 241.609 45.702 241.981 46.476C242.359 47.244 242.548 48.129 242.548 49.131C242.548 50.145 242.359 51.039 241.981 51.813C241.603 52.581 241.063 53.184 240.361 53.622C239.659 54.054 238.825 54.27 237.859 54.27ZM237.859 52.749C238.867 52.749 239.617 52.413 240.109 51.741C240.601 51.069 240.847 50.199 240.847 49.131C240.847 48.033 240.598 47.16 240.1 46.512C239.602 45.858 238.855 45.531 237.859 45.531C237.181 45.531 236.623 45.684 236.185 45.99C235.747 46.296 235.42 46.719 235.204 47.259C234.988 47.799 234.88 48.423 234.88 49.131C234.88 50.223 235.132 51.099 235.636 51.759C236.14 52.419 236.881 52.749 237.859 52.749ZM243.63 54V52.623C243.99 52.689 244.263 52.677 244.449 52.587C244.641 52.491 244.782 52.326 244.872 52.092C244.968 51.852 245.046 51.552 245.106 51.192C245.208 50.622 245.295 49.986 245.367 49.284C245.445 48.582 245.514 47.814 245.574 46.98C245.64 46.14 245.7 45.24 245.754 44.28H252.549V54H250.947V45.801H247.212C247.176 46.353 247.131 46.92 247.077 47.502C247.029 48.084 246.978 48.651 246.924 49.203C246.87 49.749 246.81 50.259 246.744 50.733C246.684 51.201 246.618 51.606 246.546 51.948C246.432 52.536 246.273 53.007 246.069 53.361C245.865 53.709 245.571 53.934 245.187 54.036C244.803 54.144 244.284 54.132 243.63 54ZM255.076 54L255.067 44.28H256.678V47.799H258.775C259.057 47.799 259.345 47.805 259.639 47.817C259.933 47.829 260.188 47.856 260.404 47.898C260.908 47.994 261.349 48.162 261.727 48.402C262.105 48.642 262.399 48.969 262.609 49.383C262.819 49.791 262.924 50.298 262.924 50.904C262.924 51.744 262.705 52.41 262.267 52.902C261.835 53.388 261.268 53.712 260.566 53.874C260.326 53.928 260.05 53.964 259.738 53.982C259.432 53.994 259.141 54 258.865 54H255.076ZM256.678 52.677H258.892C259.072 52.677 259.273 52.671 259.495 52.659C259.717 52.647 259.915 52.617 260.089 52.569C260.395 52.479 260.668 52.302 260.908 52.038C261.154 51.774 261.277 51.396 261.277 50.904C261.277 50.406 261.157 50.022 260.917 49.752C260.683 49.482 260.374 49.305 259.99 49.221C259.816 49.179 259.633 49.152 259.441 49.14C259.249 49.128 259.066 49.122 258.892 49.122H256.678V52.677ZM264.63 54V44.28H266.178V52.542H269.526V44.28H271.074V52.542H274.413V44.28H275.961V54H264.63ZM282.613 54.27C281.647 54.27 280.813 54.051 280.111 53.613C279.415 53.175 278.878 52.569 278.5 51.795C278.122 51.021 277.933 50.133 277.933 49.131C277.933 48.111 278.125 47.217 278.509 46.449C278.893 45.681 279.436 45.084 280.138 44.658C280.84 44.226 281.665 44.01 282.613 44.01C283.585 44.01 284.422 44.229 285.124 44.667C285.826 45.099 286.363 45.702 286.735 46.476C287.113 47.244 287.302 48.129 287.302 49.131C287.302 50.145 287.113 51.039 286.735 51.813C286.357 52.581 285.817 53.184 285.115 53.622C284.413 54.054 283.579 54.27 282.613 54.27ZM282.613 52.749C283.621 52.749 284.371 52.413 284.863 51.741C285.355 51.069 285.601 50.199 285.601 49.131C285.601 48.033 285.352 47.16 284.854 46.512C284.356 45.858 283.609 45.531 282.613 45.531C281.935 45.531 281.377 45.684 280.939 45.99C280.501 46.296 280.174 46.719 279.958 47.259C279.742 47.799 279.634 48.423 279.634 49.131C279.634 50.223 279.886 51.099 280.39 51.759C280.894 52.419 281.635 52.749 282.613 52.749ZM289.283 54V44.28H296.033V45.801H290.885V54H289.283ZM301.703 54.27C300.737 54.27 299.903 54.051 299.201 53.613C298.505 53.175 297.968 52.569 297.59 51.795C297.212 51.021 297.023 50.133 297.023 49.131C297.023 48.111 297.215 47.217 297.599 46.449C297.983 45.681 298.526 45.084 299.228 44.658C299.93 44.226 300.755 44.01 301.703 44.01C302.675 44.01 303.512 44.229 304.214 44.667C304.916 45.099 305.453 45.702 305.825 46.476C306.203 47.244 306.392 48.129 306.392 49.131C306.392 50.145 306.203 51.039 305.825 51.813C305.447 52.581 304.907 53.184 304.205 53.622C303.503 54.054 302.669 54.27 301.703 54.27ZM301.703 52.749C302.711 52.749 303.461 52.413 303.953 51.741C304.445 51.069 304.691 50.199 304.691 49.131C304.691 48.033 304.442 47.16 303.944 46.512C303.446 45.858 302.699 45.531 301.703 45.531C301.025 45.531 300.467 45.684 300.029 45.99C299.591 46.296 299.264 46.719 299.048 47.259C298.832 47.799 298.724 48.423 298.724 49.131C298.724 50.223 298.976 51.099 299.48 51.759C299.984 52.419 300.725 52.749 301.703 52.749ZM315.928 54.279C315.01 54.273 314.227 54.075 313.579 53.685C312.931 53.289 312.427 52.71 312.067 51.948C311.707 51.186 311.506 50.253 311.464 49.149C311.44 48.639 311.446 48.078 311.482 47.466C311.524 46.854 311.59 46.266 311.68 45.702C311.776 45.138 311.896 44.673 312.04 44.307C312.202 43.869 312.43 43.464 312.724 43.092C313.024 42.714 313.36 42.402 313.732 42.156C314.11 41.898 314.533 41.697 315.001 41.553C315.469 41.409 315.958 41.298 316.468 41.22C316.984 41.136 317.5 41.064 318.016 41.004C318.532 40.938 319.024 40.86 319.492 40.77L319.654 42.21C319.324 42.282 318.934 42.345 318.484 42.399C318.034 42.447 317.566 42.504 317.08 42.57C316.6 42.636 316.138 42.729 315.694 42.849C315.256 42.963 314.878 43.122 314.56 43.326C314.092 43.608 313.732 44.031 313.48 44.595C313.234 45.153 313.084 45.78 313.03 46.476C313.402 45.9 313.885 45.477 314.479 45.207C315.073 44.937 315.706 44.802 316.378 44.802C317.248 44.802 317.998 45.006 318.628 45.414C319.258 45.816 319.741 46.371 320.077 47.079C320.419 47.787 320.59 48.594 320.59 49.5C320.59 50.46 320.398 51.3 320.014 52.02C319.63 52.74 319.087 53.298 318.385 53.694C317.689 54.09 316.87 54.285 315.928 54.279ZM316.027 52.758C316.969 52.758 317.683 52.467 318.169 51.885C318.655 51.297 318.898 50.517 318.898 49.545C318.898 48.549 318.646 47.766 318.142 47.196C317.638 46.62 316.93 46.332 316.018 46.332C315.094 46.332 314.386 46.62 313.894 47.196C313.408 47.766 313.165 48.549 313.165 49.545C313.165 50.547 313.411 51.333 313.903 51.903C314.395 52.473 315.103 52.758 316.027 52.758ZM330.505 54.27C329.677 54.27 328.945 54.093 328.309 53.739C327.679 53.385 327.172 52.884 326.788 52.236C326.404 51.588 326.164 50.823 326.068 49.941H324.169V54H322.567V44.28H324.169V48.339H326.059C326.155 47.439 326.398 46.665 326.788 46.017C327.178 45.369 327.691 44.874 328.327 44.532C328.963 44.184 329.695 44.01 330.523 44.01C331.489 44.01 332.32 44.229 333.016 44.667C333.718 45.105 334.255 45.708 334.627 46.476C335.005 47.244 335.194 48.126 335.194 49.122C335.194 50.136 335.002 51.03 334.618 51.804C334.24 52.578 333.7 53.184 332.998 53.622C332.302 54.054 331.471 54.27 330.505 54.27ZM330.478 52.749C331.498 52.749 332.254 52.416 332.746 51.75C333.244 51.078 333.493 50.205 333.493 49.131C333.493 48.027 333.241 47.151 332.737 46.503C332.239 45.855 331.489 45.531 330.487 45.531C329.521 45.531 328.786 45.852 328.282 46.494C327.778 47.136 327.526 48.012 327.526 49.122C327.526 50.22 327.775 51.099 328.273 51.759C328.777 52.419 329.512 52.749 330.478 52.749ZM336.446 56.16V52.677C336.992 52.677 337.382 52.5 337.616 52.146C337.85 51.786 338.039 51.195 338.183 50.373C338.279 49.857 338.357 49.305 338.417 48.717C338.477 48.129 338.528 47.475 338.57 46.755C338.618 46.029 338.663 45.204 338.705 44.28H345.401V52.677H346.346V56.16H344.816V54H337.976V56.16H336.446ZM338.912 52.677H343.799V45.603H340.154C340.136 46.029 340.112 46.476 340.082 46.944C340.052 47.406 340.016 47.868 339.974 48.33C339.938 48.792 339.893 49.23 339.839 49.644C339.791 50.052 339.734 50.418 339.668 50.742C339.59 51.192 339.5 51.573 339.398 51.885C339.296 52.197 339.134 52.461 338.912 52.677ZM347.073 54L350.997 49.14L347.262 44.28H349.044L352.653 49.05V44.28H354.111V49.05L357.72 44.28H359.502L355.767 49.14L359.691 54H357.828L354.111 49.23V54H352.653V49.23L348.936 54H347.073ZM364.986 54.27C364.032 54.27 363.198 54.06 362.484 53.64C361.776 53.214 361.224 52.623 360.828 51.867C360.432 51.105 360.234 50.217 360.234 49.203C360.234 48.141 360.429 47.223 360.819 46.449C361.209 45.669 361.752 45.069 362.448 44.649C363.15 44.223 363.972 44.01 364.914 44.01C365.892 44.01 366.723 44.235 367.407 44.685C368.097 45.135 368.613 45.777 368.955 46.611C369.303 47.445 369.453 48.438 369.405 49.59H367.785V49.014C367.767 47.82 367.524 46.929 367.056 46.341C366.588 45.747 365.892 45.45 364.968 45.45C363.978 45.45 363.225 45.768 362.709 46.404C362.193 47.04 361.935 47.952 361.935 49.14C361.935 50.286 362.193 51.174 362.709 51.804C363.225 52.434 363.96 52.749 364.914 52.749C365.556 52.749 366.114 52.602 366.588 52.308C367.062 52.014 367.434 51.591 367.704 51.039L369.243 51.57C368.865 52.428 368.295 53.094 367.533 53.568C366.777 54.036 365.928 54.27 364.986 54.27ZM361.395 49.59V48.303H368.577V49.59H361.395ZM373.807 54V45.738H370.423V44.28H378.793V45.738H375.409V54H373.807ZM382.943 54.27C382.217 54.27 381.608 54.138 381.116 53.874C380.63 53.604 380.261 53.25 380.009 52.812C379.763 52.374 379.64 51.894 379.64 51.372C379.64 50.862 379.736 50.421 379.928 50.049C380.126 49.671 380.402 49.359 380.756 49.113C381.11 48.861 381.533 48.663 382.025 48.519C382.487 48.393 383.003 48.285 383.573 48.195C384.149 48.099 384.731 48.012 385.319 47.934C385.907 47.856 386.456 47.781 386.966 47.709L386.39 48.042C386.408 47.178 386.234 46.539 385.868 46.125C385.508 45.711 384.884 45.504 383.996 45.504C383.408 45.504 382.892 45.639 382.448 45.909C382.01 46.173 381.701 46.605 381.521 47.205L380 46.746C380.234 45.894 380.687 45.225 381.359 44.739C382.031 44.253 382.916 44.01 384.014 44.01C384.896 44.01 385.652 44.169 386.282 44.487C386.918 44.799 387.374 45.273 387.65 45.909C387.788 46.209 387.875 46.536 387.911 46.89C387.947 47.238 387.965 47.604 387.965 47.988V54H386.543V51.669L386.876 51.885C386.51 52.671 385.997 53.265 385.337 53.667C384.683 54.069 383.885 54.27 382.943 54.27ZM383.186 52.929C383.762 52.929 384.26 52.827 384.68 52.623C385.106 52.413 385.448 52.14 385.706 51.804C385.964 51.462 386.132 51.09 386.21 50.688C386.3 50.388 386.348 50.055 386.354 49.689C386.366 49.317 386.372 49.032 386.372 48.834L386.93 49.077C386.408 49.149 385.895 49.218 385.391 49.284C384.887 49.35 384.41 49.422 383.96 49.5C383.51 49.572 383.105 49.659 382.745 49.761C382.481 49.845 382.232 49.953 381.998 50.085C381.77 50.217 381.584 50.388 381.44 50.598C381.302 50.802 381.233 51.057 381.233 51.363C381.233 51.627 381.299 51.879 381.431 52.119C381.569 52.359 381.779 52.554 382.061 52.704C382.349 52.854 382.724 52.929 383.186 52.929ZM33.216 64.28V74H31.668V66.836L26.574 74H25.251V64.28H26.799V71.345L31.902 64.28H33.216ZM39.3311 74V64.28H40.9331V68.375H46.0451V64.28H47.6471V74H46.0451V69.896H40.9331V74H39.3311ZM52.9312 74.27C52.2052 74.27 51.5962 74.138 51.1042 73.874C50.6182 73.604 50.2492 73.25 49.9972 72.812C49.7512 72.374 49.6282 71.894 49.6282 71.372C49.6282 70.862 49.7242 70.421 49.9162 70.049C50.1142 69.671 50.3902 69.359 50.7442 69.113C51.0982 68.861 51.5212 68.663 52.0132 68.519C52.4752 68.393 52.9912 68.285 53.5612 68.195C54.1372 68.099 54.7192 68.012 55.3072 67.934C55.8952 67.856 56.4442 67.781 56.9542 67.709L56.3782 68.042C56.3962 67.178 56.2222 66.539 55.8562 66.125C55.4962 65.711 54.8722 65.504 53.9842 65.504C53.3962 65.504 52.8802 65.639 52.4362 65.909C51.9982 66.173 51.6892 66.605 51.5092 67.205L49.9882 66.746C50.2222 65.894 50.6752 65.225 51.3472 64.739C52.0192 64.253 52.9042 64.01 54.0022 64.01C54.8842 64.01 55.6402 64.169 56.2702 64.487C56.9062 64.799 57.3622 65.273 57.6382 65.909C57.7762 66.209 57.8632 66.536 57.8992 66.89C57.9352 67.238 57.9532 67.604 57.9532 67.988V74H56.5312V71.669L56.8642 71.885C56.4982 72.671 55.9852 73.265 55.3252 73.667C54.6712 74.069 53.8732 74.27 52.9312 74.27ZM53.1742 72.929C53.7502 72.929 54.2482 72.827 54.6682 72.623C55.0942 72.413 55.4362 72.14 55.6942 71.804C55.9522 71.462 56.1202 71.09 56.1982 70.688C56.2882 70.388 56.3362 70.055 56.3422 69.689C56.3542 69.317 56.3602 69.032 56.3602 68.834L56.9182 69.077C56.3962 69.149 55.8832 69.218 55.3792 69.284C54.8752 69.35 54.3982 69.422 53.9482 69.5C53.4982 69.572 53.0932 69.659 52.7332 69.761C52.4692 69.845 52.2202 69.953 51.9862 70.085C51.7582 70.217 51.5722 70.388 51.4282 70.598C51.2902 70.802 51.2212 71.057 51.2212 71.363C51.2212 71.627 51.2872 71.879 51.4192 72.119C51.5572 72.359 51.7672 72.554 52.0492 72.704C52.3372 72.854 52.7122 72.929 53.1742 72.929ZM60.2842 74V64.28H64.4242C64.6702 64.28 64.9342 64.295 65.2162 64.325C65.5042 64.349 65.7652 64.394 65.9992 64.46C66.5212 64.598 66.9502 64.883 67.2862 65.315C67.6282 65.741 67.7992 66.281 67.7992 66.935C67.7992 67.301 67.7422 67.619 67.6282 67.889C67.5202 68.159 67.3642 68.393 67.1602 68.591C67.0702 68.681 66.9712 68.762 66.8632 68.834C66.7552 68.906 66.6472 68.963 66.5392 69.005C66.7492 69.041 66.9622 69.122 67.1782 69.248C67.5202 69.434 67.7872 69.695 67.9792 70.031C68.1772 70.367 68.2762 70.796 68.2762 71.318C68.2762 71.978 68.1172 72.524 67.7992 72.956C67.4812 73.382 67.0432 73.676 66.4852 73.838C66.2512 73.904 65.9932 73.949 65.7112 73.973C65.4292 73.991 65.1562 74 64.8922 74H60.2842ZM61.9042 72.695H64.8022C64.9282 72.695 65.0782 72.683 65.2522 72.659C65.4322 72.635 65.5912 72.605 65.7292 72.569C66.0412 72.479 66.2662 72.311 66.4042 72.065C66.5482 71.819 66.6202 71.552 66.6202 71.264C66.6202 70.88 66.5122 70.568 66.2962 70.328C66.0862 70.088 65.8072 69.938 65.4592 69.878C65.3332 69.842 65.1952 69.821 65.0452 69.815C64.9012 69.809 64.7722 69.806 64.6582 69.806H61.9042V72.695ZM61.9042 68.483H64.3162C64.4842 68.483 64.6612 68.474 64.8472 68.456C65.0332 68.432 65.1952 68.393 65.3332 68.339C65.6092 68.237 65.8102 68.069 65.9362 67.835C66.0682 67.595 66.1342 67.334 66.1342 67.052C66.1342 66.74 66.0622 66.467 65.9182 66.233C65.7802 65.993 65.5672 65.828 65.2792 65.738C65.0872 65.666 64.8712 65.627 64.6312 65.621C64.3972 65.609 64.2472 65.603 64.1812 65.603H61.9042V68.483ZM70.0842 74L70.0752 64.28H71.6862V67.799H73.1712C73.4532 67.799 73.7412 67.805 74.0352 67.817C74.3292 67.829 74.5842 67.856 74.8002 67.898C75.3042 68 75.7452 68.171 76.1232 68.411C76.5012 68.651 76.7952 68.975 77.0052 69.383C77.2152 69.791 77.3202 70.298 77.3202 70.904C77.3202 71.744 77.1012 72.41 76.6632 72.902C76.2312 73.388 75.6642 73.712 74.9622 73.874C74.7222 73.928 74.4462 73.964 74.1342 73.982C73.8282 73.994 73.5372 74 73.2612 74H70.0842ZM71.6862 72.677H73.2882C73.4682 72.677 73.6692 72.671 73.8912 72.659C74.1132 72.647 74.3112 72.617 74.4852 72.569C74.7912 72.479 75.0642 72.302 75.3042 72.038C75.5502 71.774 75.6732 71.396 75.6732 70.904C75.6732 70.406 75.5532 70.022 75.3132 69.752C75.0792 69.482 74.7702 69.305 74.3862 69.221C74.2122 69.179 74.0292 69.152 73.8372 69.14C73.6452 69.128 73.4622 69.122 73.2882 69.122H71.6862V72.677ZM78.4362 74V64.28H80.0382V74H78.4362ZM82.5557 74L82.5647 64.28H84.1847V68.96L88.2617 64.28H90.3407L86.0477 69.14L90.8447 74H88.6037L84.1847 69.32V74H82.5557ZM95.7047 74.27C94.7387 74.27 93.9047 74.051 93.2027 73.613C92.5067 73.175 91.9697 72.569 91.5917 71.795C91.2137 71.021 91.0247 70.133 91.0247 69.131C91.0247 68.111 91.2167 67.217 91.6007 66.449C91.9847 65.681 92.5277 65.084 93.2297 64.658C93.9317 64.226 94.7567 64.01 95.7047 64.01C96.6767 64.01 97.5137 64.229 98.2157 64.667C98.9177 65.099 99.4547 65.702 99.8267 66.476C100.205 67.244 100.394 68.129 100.394 69.131C100.394 70.145 100.205 71.039 99.8267 71.813C99.4487 72.581 98.9087 73.184 98.2067 73.622C97.5047 74.054 96.6707 74.27 95.7047 74.27ZM95.7047 72.749C96.7127 72.749 97.4627 72.413 97.9547 71.741C98.4467 71.069 98.6927 70.199 98.6927 69.131C98.6927 68.033 98.4437 67.16 97.9457 66.512C97.4477 65.858 96.7007 65.531 95.7047 65.531C95.0267 65.531 94.4687 65.684 94.0307 65.99C93.5927 66.296 93.2657 66.719 93.0497 67.259C92.8337 67.799 92.7257 68.423 92.7257 69.131C92.7257 70.223 92.9777 71.099 93.4817 71.759C93.9857 72.419 94.7267 72.749 95.7047 72.749ZM102.366 74V64.28H106.506C106.752 64.28 107.016 64.295 107.298 64.325C107.586 64.349 107.847 64.394 108.081 64.46C108.603 64.598 109.032 64.883 109.368 65.315C109.71 65.741 109.881 66.281 109.881 66.935C109.881 67.301 109.824 67.619 109.71 67.889C109.602 68.159 109.446 68.393 109.242 68.591C109.152 68.681 109.053 68.762 108.945 68.834C108.837 68.906 108.729 68.963 108.621 69.005C108.831 69.041 109.044 69.122 109.26 69.248C109.602 69.434 109.869 69.695 110.061 70.031C110.259 70.367 110.358 70.796 110.358 71.318C110.358 71.978 110.199 72.524 109.881 72.956C109.563 73.382 109.125 73.676 108.567 73.838C108.333 73.904 108.075 73.949 107.793 73.973C107.511 73.991 107.238 74 106.974 74H102.366ZM103.986 72.695H106.884C107.01 72.695 107.16 72.683 107.334 72.659C107.514 72.635 107.673 72.605 107.811 72.569C108.123 72.479 108.348 72.311 108.486 72.065C108.63 71.819 108.702 71.552 108.702 71.264C108.702 70.88 108.594 70.568 108.378 70.328C108.168 70.088 107.889 69.938 107.541 69.878C107.415 69.842 107.277 69.821 107.127 69.815C106.983 69.809 106.854 69.806 106.74 69.806H103.986V72.695ZM103.986 68.483H106.398C106.566 68.483 106.743 68.474 106.929 68.456C107.115 68.432 107.277 68.393 107.415 68.339C107.691 68.237 107.892 68.069 108.018 67.835C108.15 67.595 108.216 67.334 108.216 67.052C108.216 66.74 108.144 66.467 108 66.233C107.862 65.993 107.649 65.828 107.361 65.738C107.169 65.666 106.953 65.627 106.713 65.621C106.479 65.609 106.329 65.603 106.263 65.603H103.986V68.483ZM115.761 74V64.28H123.726V74H122.124V65.801H117.363V74H115.761ZM130.71 74.27C129.798 74.27 129.03 74.045 128.406 73.595C127.782 73.139 127.308 72.524 126.984 71.75C126.666 70.97 126.507 70.097 126.507 69.131C126.507 68.153 126.666 67.277 126.984 66.503C127.308 65.729 127.782 65.12 128.406 64.676C129.036 64.232 129.807 64.01 130.719 64.01C131.619 64.01 132.393 64.235 133.041 64.685C133.695 65.129 134.196 65.738 134.544 66.512C134.892 67.286 135.066 68.159 135.066 69.131C135.066 70.103 134.892 70.976 134.544 71.75C134.196 72.524 133.695 73.139 133.041 73.595C132.393 74.045 131.616 74.27 130.71 74.27ZM126.237 78.32V64.28H127.668V71.435H127.848V78.32H126.237ZM130.512 72.803C131.154 72.803 131.685 72.641 132.105 72.317C132.525 71.993 132.84 71.555 133.05 71.003C133.26 70.445 133.365 69.821 133.365 69.131C133.365 68.447 133.26 67.829 133.05 67.277C132.846 66.725 132.528 66.287 132.096 65.963C131.67 65.639 131.127 65.477 130.467 65.477C129.837 65.477 129.315 65.633 128.901 65.945C128.487 66.251 128.178 66.68 127.974 67.232C127.77 67.778 127.668 68.411 127.668 69.131C127.668 69.839 127.767 70.472 127.965 71.03C128.169 71.582 128.481 72.017 128.901 72.335C129.321 72.647 129.858 72.803 130.512 72.803ZM141.179 74.27C140.213 74.27 139.379 74.051 138.677 73.613C137.981 73.175 137.444 72.569 137.066 71.795C136.688 71.021 136.499 70.133 136.499 69.131C136.499 68.111 136.691 67.217 137.075 66.449C137.459 65.681 138.002 65.084 138.704 64.658C139.406 64.226 140.231 64.01 141.179 64.01C142.151 64.01 142.988 64.229 143.69 64.667C144.392 65.099 144.929 65.702 145.301 66.476C145.679 67.244 145.868 68.129 145.868 69.131C145.868 70.145 145.679 71.039 145.301 71.813C144.923 72.581 144.383 73.184 143.681 73.622C142.979 74.054 142.145 74.27 141.179 74.27ZM141.179 72.749C142.187 72.749 142.937 72.413 143.429 71.741C143.921 71.069 144.167 70.199 144.167 69.131C144.167 68.033 143.918 67.16 143.42 66.512C142.922 65.858 142.175 65.531 141.179 65.531C140.501 65.531 139.943 65.684 139.505 65.99C139.067 66.296 138.74 66.719 138.524 67.259C138.308 67.799 138.2 68.423 138.2 69.131C138.2 70.223 138.452 71.099 138.956 71.759C139.46 72.419 140.201 72.749 141.179 72.749ZM147.85 74V64.28H154.6V65.801H149.452V74H147.85ZM160.769 74.27C159.857 74.27 159.089 74.045 158.465 73.595C157.841 73.139 157.367 72.524 157.043 71.75C156.725 70.97 156.566 70.097 156.566 69.131C156.566 68.153 156.725 67.277 157.043 66.503C157.367 65.729 157.841 65.12 158.465 64.676C159.095 64.232 159.866 64.01 160.778 64.01C161.678 64.01 162.452 64.235 163.1 64.685C163.754 65.129 164.255 65.738 164.603 66.512C164.951 67.286 165.125 68.159 165.125 69.131C165.125 70.103 164.951 70.976 164.603 71.75C164.255 72.524 163.754 73.139 163.1 73.595C162.452 74.045 161.675 74.27 160.769 74.27ZM156.296 78.32V64.28H157.727V71.435H157.907V78.32H156.296ZM160.571 72.803C161.213 72.803 161.744 72.641 162.164 72.317C162.584 71.993 162.899 71.555 163.109 71.003C163.319 70.445 163.424 69.821 163.424 69.131C163.424 68.447 163.319 67.829 163.109 67.277C162.905 66.725 162.587 66.287 162.155 65.963C161.729 65.639 161.186 65.477 160.526 65.477C159.896 65.477 159.374 65.633 158.96 65.945C158.546 66.251 158.237 66.68 158.033 67.232C157.829 67.778 157.727 68.411 157.727 69.131C157.727 69.839 157.826 70.472 158.024 71.03C158.228 71.582 158.54 72.017 158.96 72.335C159.38 72.647 159.917 72.803 160.571 72.803ZM169.861 74.27C169.135 74.27 168.526 74.138 168.034 73.874C167.548 73.604 167.179 73.25 166.927 72.812C166.681 72.374 166.558 71.894 166.558 71.372C166.558 70.862 166.654 70.421 166.846 70.049C167.044 69.671 167.32 69.359 167.674 69.113C168.028 68.861 168.451 68.663 168.943 68.519C169.405 68.393 169.921 68.285 170.491 68.195C171.067 68.099 171.649 68.012 172.237 67.934C172.825 67.856 173.374 67.781 173.884 67.709L173.308 68.042C173.326 67.178 173.152 66.539 172.786 66.125C172.426 65.711 171.802 65.504 170.914 65.504C170.326 65.504 169.81 65.639 169.366 65.909C168.928 66.173 168.619 66.605 168.439 67.205L166.918 66.746C167.152 65.894 167.605 65.225 168.277 64.739C168.949 64.253 169.834 64.01 170.932 64.01C171.814 64.01 172.57 64.169 173.2 64.487C173.836 64.799 174.292 65.273 174.568 65.909C174.706 66.209 174.793 66.536 174.829 66.89C174.865 67.238 174.883 67.604 174.883 67.988V74H173.461V71.669L173.794 71.885C173.428 72.671 172.915 73.265 172.255 73.667C171.601 74.069 170.803 74.27 169.861 74.27ZM170.104 72.929C170.68 72.929 171.178 72.827 171.598 72.623C172.024 72.413 172.366 72.14 172.624 71.804C172.882 71.462 173.05 71.09 173.128 70.688C173.218 70.388 173.266 70.055 173.272 69.689C173.284 69.317 173.29 69.032 173.29 68.834L173.848 69.077C173.326 69.149 172.813 69.218 172.309 69.284C171.805 69.35 171.328 69.422 170.878 69.5C170.428 69.572 170.023 69.659 169.663 69.761C169.399 69.845 169.15 69.953 168.916 70.085C168.688 70.217 168.502 70.388 168.358 70.598C168.22 70.802 168.151 71.057 168.151 71.363C168.151 71.627 168.217 71.879 168.349 72.119C168.487 72.359 168.697 72.554 168.979 72.704C169.267 72.854 169.642 72.929 170.104 72.929ZM177.214 74V64.28H178.591L182.281 71.822L185.971 64.28H187.348V74H185.8V67.619L182.704 74H181.858L178.762 67.619V74H177.214ZM189.853 74V64.28H191.23L194.92 71.822L198.61 64.28H199.987V74H198.439V67.619L195.343 74H194.497L191.401 67.619V74H189.853ZM210.456 64.28V74H208.908V66.836L203.814 74H202.491V64.28H204.039V71.345L209.142 64.28H210.456ZM217.441 74.27C216.529 74.27 215.761 74.045 215.137 73.595C214.513 73.139 214.039 72.524 213.715 71.75C213.397 70.97 213.238 70.097 213.238 69.131C213.238 68.153 213.397 67.277 213.715 66.503C214.039 65.729 214.513 65.12 215.137 64.676C215.767 64.232 216.538 64.01 217.45 64.01C218.35 64.01 219.124 64.235 219.772 64.685C220.426 65.129 220.927 65.738 221.275 66.512C221.623 67.286 221.797 68.159 221.797 69.131C221.797 70.103 221.623 70.976 221.275 71.75C220.927 72.524 220.426 73.139 219.772 73.595C219.124 74.045 218.347 74.27 217.441 74.27ZM212.968 78.32V64.28H214.399V71.435H214.579V78.32H212.968ZM217.243 72.803C217.885 72.803 218.416 72.641 218.836 72.317C219.256 71.993 219.571 71.555 219.781 71.003C219.991 70.445 220.096 69.821 220.096 69.131C220.096 68.447 219.991 67.829 219.781 67.277C219.577 66.725 219.259 66.287 218.827 65.963C218.401 65.639 217.858 65.477 217.198 65.477C216.568 65.477 216.046 65.633 215.632 65.945C215.218 66.251 214.909 66.68 214.705 67.232C214.501 67.778 214.399 68.411 214.399 69.131C214.399 69.839 214.498 70.472 214.696 71.03C214.9 71.582 215.212 72.017 215.632 72.335C216.052 72.647 216.589 72.803 217.243 72.803ZM227.91 74.27C226.944 74.27 226.11 74.051 225.408 73.613C224.712 73.175 224.175 72.569 223.797 71.795C223.419 71.021 223.23 70.133 223.23 69.131C223.23 68.111 223.422 67.217 223.806 66.449C224.19 65.681 224.733 65.084 225.435 64.658C226.137 64.226 226.962 64.01 227.91 64.01C228.882 64.01 229.719 64.229 230.421 64.667C231.123 65.099 231.66 65.702 232.032 66.476C232.41 67.244 232.599 68.129 232.599 69.131C232.599 70.145 232.41 71.039 232.032 71.813C231.654 72.581 231.114 73.184 230.412 73.622C229.71 74.054 228.876 74.27 227.91 74.27ZM227.91 72.749C228.918 72.749 229.668 72.413 230.16 71.741C230.652 71.069 230.898 70.199 230.898 69.131C230.898 68.033 230.649 67.16 230.151 66.512C229.653 65.858 228.906 65.531 227.91 65.531C227.232 65.531 226.674 65.684 226.236 65.99C225.798 66.296 225.471 66.719 225.255 67.259C225.039 67.799 224.931 68.423 224.931 69.131C224.931 70.223 225.183 71.099 225.687 71.759C226.191 72.419 226.932 72.749 227.91 72.749ZM234.571 74V64.28H238.711C238.957 64.28 239.221 64.295 239.503 64.325C239.791 64.349 240.052 64.394 240.286 64.46C240.808 64.598 241.237 64.883 241.573 65.315C241.915 65.741 242.086 66.281 242.086 66.935C242.086 67.301 242.029 67.619 241.915 67.889C241.807 68.159 241.651 68.393 241.447 68.591C241.357 68.681 241.258 68.762 241.15 68.834C241.042 68.906 240.934 68.963 240.826 69.005C241.036 69.041 241.249 69.122 241.465 69.248C241.807 69.434 242.074 69.695 242.266 70.031C242.464 70.367 242.563 70.796 242.563 71.318C242.563 71.978 242.404 72.524 242.086 72.956C241.768 73.382 241.33 73.676 240.772 73.838C240.538 73.904 240.28 73.949 239.998 73.973C239.716 73.991 239.443 74 239.179 74H234.571ZM236.191 72.695H239.089C239.215 72.695 239.365 72.683 239.539 72.659C239.719 72.635 239.878 72.605 240.016 72.569C240.328 72.479 240.553 72.311 240.691 72.065C240.835 71.819 240.907 71.552 240.907 71.264C240.907 70.88 240.799 70.568 240.583 70.328C240.373 70.088 240.094 69.938 239.746 69.878C239.62 69.842 239.482 69.821 239.332 69.815C239.188 69.809 239.059 69.806 238.945 69.806H236.191V72.695ZM236.191 68.483H238.603C238.771 68.483 238.948 68.474 239.134 68.456C239.32 68.432 239.482 68.393 239.62 68.339C239.896 68.237 240.097 68.069 240.223 67.835C240.355 67.595 240.421 67.334 240.421 67.052C240.421 66.74 240.349 66.467 240.205 66.233C240.067 65.993 239.854 65.828 239.566 65.738C239.374 65.666 239.158 65.627 238.918 65.621C238.684 65.609 238.534 65.603 238.468 65.603H236.191V68.483ZM247.134 74.27C246.408 74.27 245.799 74.138 245.307 73.874C244.821 73.604 244.452 73.25 244.2 72.812C243.954 72.374 243.831 71.894 243.831 71.372C243.831 70.862 243.927 70.421 244.119 70.049C244.317 69.671 244.593 69.359 244.947 69.113C245.301 68.861 245.724 68.663 246.216 68.519C246.678 68.393 247.194 68.285 247.764 68.195C248.34 68.099 248.922 68.012 249.51 67.934C250.098 67.856 250.647 67.781 251.157 67.709L250.581 68.042C250.599 67.178 250.425 66.539 250.059 66.125C249.699 65.711 249.075 65.504 248.187 65.504C247.599 65.504 247.083 65.639 246.639 65.909C246.201 66.173 245.892 66.605 245.712 67.205L244.191 66.746C244.425 65.894 244.878 65.225 245.55 64.739C246.222 64.253 247.107 64.01 248.205 64.01C249.087 64.01 249.843 64.169 250.473 64.487C251.109 64.799 251.565 65.273 251.841 65.909C251.979 66.209 252.066 66.536 252.102 66.89C252.138 67.238 252.156 67.604 252.156 67.988V74H250.734V71.669L251.067 71.885C250.701 72.671 250.188 73.265 249.528 73.667C248.874 74.069 248.076 74.27 247.134 74.27ZM247.377 72.929C247.953 72.929 248.451 72.827 248.871 72.623C249.297 72.413 249.639 72.14 249.897 71.804C250.155 71.462 250.323 71.09 250.401 70.688C250.491 70.388 250.539 70.055 250.545 69.689C250.557 69.317 250.563 69.032 250.563 68.834L251.121 69.077C250.599 69.149 250.086 69.218 249.582 69.284C249.078 69.35 248.601 69.422 248.151 69.5C247.701 69.572 247.296 69.659 246.936 69.761C246.672 69.845 246.423 69.953 246.189 70.085C245.961 70.217 245.775 70.388 245.631 70.598C245.493 70.802 245.424 71.057 245.424 71.363C245.424 71.627 245.49 71.879 245.622 72.119C245.76 72.359 245.97 72.554 246.252 72.704C246.54 72.854 246.915 72.929 247.377 72.929ZM254.487 74V64.28H256.089V68.375H261.201V64.28H262.803V74H261.201V69.896H256.089V74H254.487ZM273.28 64.28V74H271.732V66.836L266.638 74H265.315V64.28H266.863V71.345L271.966 64.28H273.28ZM281.804 74V70.481H279.707C279.461 70.481 279.188 70.472 278.888 70.454C278.594 70.43 278.318 70.397 278.06 70.355C277.358 70.223 276.764 69.914 276.278 69.428C275.798 68.942 275.558 68.27 275.558 67.412C275.558 66.578 275.783 65.909 276.233 65.405C276.689 64.895 277.25 64.565 277.916 64.415C278.216 64.343 278.519 64.304 278.825 64.298C279.137 64.286 279.401 64.28 279.617 64.28H283.406L283.415 74H281.804ZM275.261 74L277.844 70.04H279.572L276.989 74H275.261ZM279.59 69.158H281.804V65.603H279.59C279.452 65.603 279.269 65.609 279.041 65.621C278.819 65.633 278.606 65.669 278.402 65.729C278.21 65.783 278.021 65.882 277.835 66.026C277.655 66.17 277.505 66.356 277.385 66.584C277.265 66.812 277.205 67.082 277.205 67.394C277.205 67.844 277.331 68.21 277.583 68.492C277.835 68.768 278.141 68.954 278.501 69.05C278.699 69.098 278.894 69.128 279.086 69.14C279.284 69.152 279.452 69.158 279.59 69.158ZM286.232 74V72.236H287.996V74H286.232ZM303.408 74H301.806V69.212H297.819L297.207 69.113C296.199 68.927 295.434 68.468 294.912 67.736C294.39 66.998 294.129 66.128 294.129 65.126C294.129 64.436 294.249 63.809 294.489 63.245C294.735 62.675 295.095 62.204 295.569 61.832C296.049 61.46 296.637 61.22 297.333 61.112C297.501 61.082 297.669 61.064 297.837 61.058C298.011 61.046 298.161 61.04 298.287 61.04H303.408V74ZM295.695 74H293.859L296.667 68.24L298.251 68.726L295.695 74ZM301.806 67.691V62.561H298.341C298.233 62.561 298.104 62.567 297.954 62.579C297.81 62.585 297.669 62.606 297.531 62.642C297.117 62.732 296.781 62.906 296.523 63.164C296.265 63.422 296.073 63.725 295.947 64.073C295.827 64.415 295.767 64.766 295.767 65.126C295.767 65.486 295.827 65.84 295.947 66.188C296.073 66.53 296.265 66.83 296.523 67.088C296.781 67.34 297.117 67.514 297.531 67.61C297.669 67.64 297.81 67.661 297.954 67.673C298.104 67.685 298.233 67.691 298.341 67.691H301.806ZM313.628 74.27C312.644 74.27 311.807 74.051 311.117 73.613C310.433 73.169 309.911 72.56 309.551 71.786C309.191 71.012 309.005 70.13 308.993 69.14C309.005 68.126 309.194 67.235 309.56 66.467C309.932 65.693 310.463 65.09 311.153 64.658C311.843 64.226 312.674 64.01 313.646 64.01C314.672 64.01 315.554 64.262 316.292 64.766C317.036 65.27 317.534 65.96 317.786 66.836L316.202 67.313C315.998 66.749 315.665 66.311 315.203 65.999C314.747 65.687 314.222 65.531 313.628 65.531C312.962 65.531 312.413 65.687 311.981 65.999C311.549 66.305 311.228 66.731 311.018 67.277C310.808 67.817 310.7 68.438 310.694 69.14C310.706 70.22 310.955 71.093 311.441 71.759C311.933 72.419 312.662 72.749 313.628 72.749C314.264 72.749 314.792 72.605 315.212 72.317C315.632 72.023 315.95 71.6 316.166 71.048L317.786 71.471C317.45 72.377 316.925 73.07 316.211 73.55C315.497 74.03 314.636 74.27 313.628 74.27ZM319.614 74V64.28H320.991L324.681 71.822L328.371 64.28H329.748V74H328.2V67.619L325.104 74H324.258L321.162 67.619V74H319.614ZM336.402 74.27C335.436 74.27 334.602 74.051 333.9 73.613C333.204 73.175 332.667 72.569 332.289 71.795C331.911 71.021 331.722 70.133 331.722 69.131C331.722 68.111 331.914 67.217 332.298 66.449C332.682 65.681 333.225 65.084 333.927 64.658C334.629 64.226 335.454 64.01 336.402 64.01C337.374 64.01 338.211 64.229 338.913 64.667C339.615 65.099 340.152 65.702 340.524 66.476C340.902 67.244 341.091 68.129 341.091 69.131C341.091 70.145 340.902 71.039 340.524 71.813C340.146 72.581 339.606 73.184 338.904 73.622C338.202 74.054 337.368 74.27 336.402 74.27ZM336.402 72.749C337.41 72.749 338.16 72.413 338.652 71.741C339.144 71.069 339.39 70.199 339.39 69.131C339.39 68.033 339.141 67.16 338.643 66.512C338.145 65.858 337.398 65.531 336.402 65.531C335.724 65.531 335.166 65.684 334.728 65.99C334.29 66.296 333.963 66.719 333.747 67.259C333.531 67.799 333.423 68.423 333.423 69.131C333.423 70.223 333.675 71.099 334.179 71.759C334.683 72.419 335.424 72.749 336.402 72.749ZM343.073 74V64.28H349.823V65.801H344.675V74H343.073ZM352.702 78.32L354.583 73.208L354.61 74.72L350.362 64.28H352.045L355.375 72.677H354.799L357.922 64.28H359.551L354.259 78.32H352.702ZM363.512 70.472C363.512 70.022 363.539 69.614 363.593 69.248C363.653 68.876 363.779 68.516 363.971 68.168C364.145 67.832 364.352 67.559 364.592 67.349C364.832 67.133 365.09 66.926 365.366 66.728C365.642 66.53 365.915 66.287 366.185 65.999C366.425 65.729 366.584 65.459 366.662 65.189C366.74 64.913 366.779 64.622 366.779 64.316C366.779 64.046 366.746 63.803 366.68 63.587C366.62 63.365 366.518 63.176 366.374 63.02C366.158 62.75 365.888 62.564 365.564 62.462C365.246 62.36 364.913 62.309 364.565 62.309C364.235 62.309 363.923 62.354 363.629 62.444C363.341 62.534 363.101 62.675 362.909 62.867C362.717 63.041 362.576 63.254 362.486 63.506C362.396 63.752 362.351 64.019 362.351 64.307H360.677C360.713 63.785 360.836 63.29 361.046 62.822C361.262 62.348 361.559 61.958 361.937 61.652C362.291 61.352 362.696 61.133 363.152 60.995C363.608 60.851 364.067 60.779 364.529 60.779C365.141 60.779 365.72 60.872 366.266 61.058C366.818 61.244 367.277 61.553 367.643 61.985C367.925 62.291 368.135 62.642 368.273 63.038C368.411 63.434 368.48 63.851 368.48 64.289C368.48 64.823 368.372 65.321 368.156 65.783C367.946 66.245 367.661 66.662 367.301 67.034C367.103 67.25 366.887 67.448 366.653 67.628C366.425 67.808 366.206 67.988 365.996 68.168C365.792 68.348 365.63 68.546 365.51 68.762C365.354 69.044 365.264 69.305 365.24 69.545C365.222 69.779 365.213 70.088 365.213 70.472H363.512ZM363.521 74V72.029H365.213V74H363.521Z" fill="#101012"></path></svg> 