<?xml version="1.0" encoding="UTF-8"?> <svg xmlns="http://www.w3.org/2000/svg" width="217" height="271" viewBox="0 0 217 271" fill="none"><path d="M132.758 78.2507C120.266 87.4948 106.274 81.748 103.526 67.7566C101.527 57.7628 103.026 41.5232 104.775 31.5294C105.525 28.0317 107.523 35.7767 138.004 29.7805C142.751 28.7811 145 40.5242 145.499 44.5216C145.999 49.5185 146.499 52.2666 151.247 50.5177C155.244 49.0186 158.242 53.2658 157.743 56.014C157.243 58.2627 154.994 61.0108 152.746 61.5107C149.248 62.2601 146 60.2619 143.751 65.7584C140.753 73.004 141.003 94.9897 141.503 100.236C142.752 113.228 121.265 122.973 117.017 109.231C116.018 105.483 116.518 103.984 116.018 102.735C115.769 101.735 115.519 101.735 115.019 102.735C113.27 106.732 116.768 121.224 131.009 116.976C137.505 114.978 144 108.482 143.001 100.486C142.751 98.9874 143.001 98.4878 144.75 98.7376C162.739 100.986 177.979 108.482 190.471 121.723C243.438 176.688 198.217 274.377 107.274 259.137C101.278 258.137 109.023 261.635 114.769 262.635C203.963 277.375 256.43 160.948 178.229 108.232C176.98 107.232 176.73 106.732 177.48 105.233C182.227 96.7386 184.226 87.4943 182.227 77.7504C179.978 66.7574 166.487 65.5083 168.735 40.524C169.985 27.532 161.99 11.7918 147.749 12.2914C147.249 12.2914 146.749 12.5417 146 12.042C138.005 2.79772 127.261 -0.450507 115.518 0.0493497C94.2812 1.29863 92.5333 23.035 102.527 28.0319C103.027 28.2817 103.526 28.7816 103.276 29.531C100.777 38.5255 101.528 48.0196 98.7792 57.0139C93.7823 73.2538 82.0397 81.2481 86.2872 100.236C88.036 107.482 91.0342 108.981 88.7855 110.48C72.5458 120.974 65.0506 137.463 65.3004 142.709C70.2973 134.715 77.0426 116.976 97.2799 107.982C107.274 103.485 110.272 101.985 112.02 101.486C117.517 99.9866 119.266 97.9879 119.766 92.2414C120.016 90.2427 120.016 88.244 119.766 85.9952C119.266 81.9978 124.513 86.7449 134.008 78.9996C135.007 78.5 137.006 75.2525 132.758 78.2507ZM118.017 22.7847C113.269 24.5339 105.525 24.0345 102.777 20.7865C101.028 18.538 101.777 16.7886 102.527 16.5388C104.276 15.7892 102.277 18.288 109.772 20.5365C112.271 21.2861 115.268 22.0353 118.017 22.7847ZM152.246 65.7584C152.246 69.2562 147.499 69.7556 147.499 66.0077C147.499 63.5094 151.996 62.7604 152.246 65.7584ZM148.498 71.5044C148.748 69.5057 150.996 70.0054 150.996 71.5044C150.996 73.0035 148.748 73.2533 148.498 71.5044Z" fill="#101012"></path><path d="M188.971 183.184C174.23 179.186 168.983 180.685 158.739 185.432C112.018 206.919 103.523 212.665 89.7821 217.912C87.0338 218.911 87.7839 218.911 91.5315 232.153C94.7795 243.396 90.5316 254.389 91.0314 257.387C94.0296 256.138 97.027 240.898 93.0296 229.655C92.0302 226.906 91.2817 223.908 90.2822 220.91C90.0324 219.911 90.282 219.411 91.2815 219.161C108.77 212.915 113.267 209.417 164.485 186.432C174.479 181.685 183.974 185.182 188.971 183.184Z" fill="#101012"></path><path d="M73.0446 174.441C73.2944 190.681 84.0378 218.663 85.5367 218.164C86.7859 217.664 85.038 216.665 79.0419 193.179C74.5446 175.441 74.045 169.195 82.7895 149.457C85.7877 142.961 87.7861 141.212 86.287 140.462C85.2876 139.713 72.7948 159.201 73.0446 174.441Z" fill="#101012"></path><path d="M48.3128 152.204C43.8156 145.958 41.8166 153.953 25.5767 153.953C17.082 153.953 16.0835 150.705 12.5858 149.955C12.5858 151.704 13.8346 152.704 14.834 153.703C19.3313 157.201 24.3279 157.201 29.5746 156.701C52.0604 153.703 36.3204 143.459 57.0573 166.195C58.3066 167.444 63.8033 173.441 64.8028 171.692C65.3024 170.692 59.8057 167.444 48.3128 152.204Z" fill="#101012"></path><path d="M56.5541 259.636C66.2981 255.139 74.792 249.393 88.2836 245.395C88.7832 245.145 89.7826 245.145 89.5328 244.396C89.0332 239.899 56.0545 253.64 56.5541 259.636Z" fill="#101012"></path><path d="M47.5651 229.905C42.818 232.403 42.5682 232.653 41.3189 235.152C43.5674 235.401 45.3163 233.902 47.5651 233.653C54.3108 230.654 66.0528 230.904 65.5529 228.406C65.0533 225.158 47.5651 229.905 47.5651 229.905Z" fill="#101012"></path><path d="M56.8036 215.165C63.5494 218.662 66.0484 217.913 78.5405 225.408C79.2901 225.908 80.5396 226.907 81.2891 225.908C82.2885 224.659 80.5394 224.159 79.7897 223.409C74.2933 219.162 63.0497 212.416 56.8036 215.165Z" fill="#101012"></path><path d="M187.724 246.395C187.724 245.646 187.723 244.646 186.724 244.646C185.975 244.646 185.725 245.396 185.725 246.146C183.476 276.876 189.723 281.374 187.724 246.395Z" fill="#101012"></path><path d="M48.8116 255.639C49.3112 255.889 49.5607 255.639 49.8105 255.639C56.3065 251.392 69.7978 244.646 68.2987 242.398C67.5493 241.149 66.0509 242.398 65.3015 242.897C57.8061 247.394 49.8108 251.392 48.8116 255.639Z" fill="#101012"></path><path d="M64.3015 236.4C64.8011 236.151 65.8008 235.901 65.8008 235.151C64.8013 229.405 20.5786 253.64 64.3015 236.4Z" fill="#101012"></path><path d="M172.234 152.205C170.984 155.703 170.234 176.19 170.484 178.689C170.484 179.188 170.485 179.938 171.234 179.938C171.734 179.938 171.733 179.188 171.733 178.689C172.983 169.694 174.232 160.45 172.234 152.205Z" fill="#101012"></path><path d="M122.264 69.7536C129.26 69.5038 129.76 61.0089 127.261 62.2582C119.266 66.006 117.268 66.006 119.017 68.0047C120.016 69.0039 121.015 70.0034 122.264 69.7536Z" fill="#101012"></path><path d="M184.227 194.93C177.231 187.435 168.487 185.935 168.237 187.434C167.987 188.934 171.235 187.684 180.479 193.181C181.728 193.93 182.977 194.43 184.227 194.93Z" fill="#101012"></path><path d="M117.772 45.0215C113.524 56.7641 112.525 57.5133 115.023 58.5128C116.272 59.0124 117.272 59.7621 118.521 59.7621C118.771 58.7626 117.772 58.5128 117.522 58.5128C112.025 56.7639 119.77 49.5187 117.772 45.0215Z" fill="#101012"></path><path d="M128.263 35.0268C128.263 35.7762 129.012 35.776 129.512 36.0258C134.259 38.2745 134.259 38.5241 134.509 37.7744C136.258 35.5259 128.512 32.5282 128.263 35.0268Z" fill="#101012"></path><path d="M131.012 50.7651C132.511 50.7651 132.762 49.5161 132.762 48.2668C132.762 47.2674 132.762 46.0176 131.512 46.0176C129.014 46.0176 129.014 50.7651 131.012 50.7651Z" fill="#101012"></path><path d="M106.776 37.7777C107.776 38.7769 107.776 36.5289 111.274 35.7793C111.774 35.7793 112.523 35.779 112.523 35.0296C112.024 32.7811 104.777 36.0288 106.776 37.7777Z" fill="#101012"></path><path d="M108.775 44.7695C107.525 44.7695 107.275 45.769 107.275 46.7685C107.275 47.7679 107.275 48.7669 108.524 49.0167C110.523 49.2665 110.524 44.7695 108.775 44.7695Z" fill="#101012"></path><path d="M152.244 65.7599C151.994 62.7619 147.497 63.5109 147.497 66.0094C147.248 69.757 151.994 69.5077 152.244 65.7599Z" fill="#BFB7DE"></path><path d="M148.501 71.5038C148.751 73.2527 151 73.2527 151 71.5038C151 70.0048 148.751 69.5051 148.501 71.5038Z" fill="#BFB7DE"></path><path d="M37.0648 232.655C35.8158 233.654 14.0801 221.662 9.08325 188.682C7.58417 178.189 5.83505 167.696 8.83298 156.952C9.33283 155.453 9.3321 153.954 10.5811 152.705C11.3308 154.704 3.58557 168.945 16.8273 205.922C22.324 221.162 38.5639 231.406 37.0648 232.655Z" fill="#101012"></path><path d="M14.834 137.962C3.09137 129.967 3.34095 118.225 0.842629 115.227C0.0929648 115.976 -0.15635 116.726 0.0934579 117.475C4.84052 140.96 16.5829 137.462 23.5785 149.205C26.3269 153.702 25.8272 145.457 14.834 137.962Z" fill="#101012"></path><path d="M34.3207 113.729C36.819 121.724 37.0693 130.467 32.3225 137.213C31.5728 138.462 32.572 138.714 33.3214 138.214C40.317 131.968 38.8177 115.727 34.3207 113.729Z" fill="#101012"></path><path d="M15.082 128.716C8.83588 124.47 9.33501 117.225 6.83645 111.229C4.08809 115.226 8.33626 128.466 15.082 128.716Z" fill="#101012"></path><path d="M17.584 123.97C17.8338 124.22 18.3334 124.72 18.8331 124.221C19.3329 123.721 18.8328 123.221 18.583 122.971C14.8354 118.474 15.8346 112.228 14.5854 109.48C12.8365 105.232 10.5884 117.724 17.584 123.97Z" fill="#101012"></path><path d="M22.0719 106.482C19.074 110.979 20.0735 117.226 23.5713 120.973C24.3209 121.723 25.3199 121.473 24.5705 120.474C20.8229 114.728 24.0709 108.981 22.0719 106.482Z" fill="#101012"></path></svg> 