<?xml version="1.0" encoding="UTF-8"?>
<svg xmlns="http://www.w3.org/2000/svg" width="62" height="51" viewBox="0 0 62 51" fill="none"><path d="M53.7905 14.0054C50.831 17.7248 48.2252 21.6712 45.6611 25.6133C44.7303 27.0445 43.869 28.4747 43.0219 29.9324C42.8142 30.2898 42.6066 30.6421 42.3677 30.9864" stroke="#BFB7DE" stroke-width="2" stroke-linecap="round"/><path d="M53.7526 13.5545C49.3823 15.0463 45.0385 16.0744 40.7208 17.061C39.1533 17.4191 37.6247 17.7054 36.0835 17.9653C35.7057 18.029 35.3316 18.0947 34.9463 18.1965" stroke="#BFB7DE" stroke-width="2" stroke-linecap="round"/><path d="M52.2274 13.2258L53.0073 12.5998L54.2592 14.1595L53.4794 14.7855L52.2274 13.2258ZM1.11649 38.3049C0.567989 38.3695 0.0710003 37.9772 0.00643108 37.4287C-0.0581381 36.8802 0.334163 36.3832 0.88266 36.3187L1.11649 38.3049ZM53.4794 14.7855C45.0487 21.5529 22.7816 35.7545 1.11649 38.3049L0.88266 36.3187C22.0034 33.8323 43.9164 19.8972 52.2274 13.2258L53.4794 14.7855Z" fill="#BFB7DE"/></svg>